<?xml version="1.0" encoding="utf-8"?>
<!-- Generator: Adobe Illustrator 26.0.3, SVG Export Plug-In . SVG Version: 6.00 Build 0)  -->
<svg version="1.1" id="Ebene_1" xmlns="http://www.w3.org/2000/svg" xmlns:xlink="http://www.w3.org/1999/xlink" x="0px" y="0px"
	 viewBox="0 0 107 57.8" style="enable-background:new 0 0 107 57.8;" xml:space="preserve">
<style type="text/css">
	.st0{fill:#FFFFFF;}
</style>
<g>
	<path class="st0" d="M70.7,11.1c0.1-0.1,0.1-0.1,0.2-0.1c0.6-0.4,1.1-0.8,1.6-1.3c0.1-0.1,0.2-0.2,0.3-0.3c0.2-0.3,0.5-0.4,0.9-0.3
		c0.3,0.1,0.5,0.2,0.7,0.5c0.1,0.2,0.2,0.5,0.1,0.7c0,0.1-0.1,0.2-0.1,0.3c-1,1.8-1.8,3.7-2.5,5.7c-0.6,1.7-1.1,3.5-1.5,5.3
		c-0.7,2.7-1.5,5.5-2.3,8.1c-0.1,0.4-0.2,0.7-0.4,1.1c0,0,0,0.1,0,0.2c0.1,0,0.2,0,0.4-0.1c1.3-0.5,2.6-1.1,3.9-1.7
		c3.4-1.7,6.5-3.8,9.5-6.1c0.1-0.1,0.2-0.1,0.3-0.2c0,0,0,0,0,0c0,0,0,0,0,0c0,0.6,0.1,1.3,0.1,1.9c0,0.1,0,0.2,0,0.3
		c-0.1,0.1-0.2,0.1-0.2,0.2c-1.7,1.3-3.5,2.5-5.3,3.6C76,29,75.9,29.1,75.7,29c-0.1,0-0.3,0-0.4,0c-0.1,0-0.2,0-0.3,0.1
		c0,0.1,0,0.2,0,0.3c0,0.1,0,0.2,0,0.2c-0.2,0.2-1,0.7-1.5,0.9c-0.9-0.3-1.9-0.4-2.3-0.2c0,0.1,0,0.2,0,0.3c-0.1,0.1-0.2,0-0.3,0
		c-0.6,0-1.2,0.2-1.7,0.5c-0.7,0.4-1.3,1-1.6,1.8c-0.1,0.2-0.2,0.3-0.4,0.3c-0.1,0-0.2,0.1-0.3,0.1c0,0.1-0.1,0.1-0.1,0.2
		c-1.3,3.5-2.7,7-4.1,10.4c-0.3,0.9-0.7,1.7-1,2.6c0,0.1-0.1,0.2-0.1,0.3c0.1-0.1,0.1-0.1,0.2-0.2c1.7-1.5,3.5-2.9,5.4-4.1
		c0.8-0.5,1.7-1,2.5-1.5c0.2-0.1,0.3-0.1,0.5-0.1c0.6,0.1,1.1,0.1,1.6-0.2c0.7-0.4,1.3-0.9,1.6-1.6c0.1-0.1,0.1-0.2,0.2-0.2
		c0.1-0.1,0.3-0.1,0.4-0.2c0.1,0,0.2,0.1,0.3,0.1c0.5,0.2,1,0.3,1.5,0.1c0.4-0.1,0.7-0.4,1-0.7c0.2-0.2,0.3-0.5,0.3-0.8
		c0-0.1,0-0.2,0.1-0.3c0-0.1,0.1-0.1,0.2-0.1c0.2,0.1,0.5,0.3,0.7,0.3c0.6,0.1,1,0,1.4-0.4c0.3-0.3,0.4-0.6,0.6-1
		c0-0.1,0.1-0.2,0.1-0.4c0.2-0.1,0.4-0.2,0.6-0.3c0.3,0.2,0.6,0.3,0.9,0.4c0.2,0.1,0.4,0.1,0.7,0c0.3,0,0.5-0.2,0.7-0.4
		c0.3-0.2,0.4-0.5,0.5-0.9c0-0.1,0-0.1,0-0.2c0-0.1,0.1-0.2,0.2-0.2c0.1,0,0.1,0.1,0.2,0.2c0.3,0.3,0.7,0.4,1.1,0.4
		c0.2,0,0.5-0.1,0.7-0.1c0.7-0.3,1.4-0.7,1.8-1.4c0.2-0.3,0.4-0.4,0.7-0.5c1-0.3,2-0.5,3.1-0.8c0.1,0,0.2,0,0.3,0
		c0.2,0.1,0.5,0.2,0.7,0.3c0.4,0.1,0.8,0.1,1.2,0c0.8-0.2,1.6-0.5,2.2-1.2c0.1-0.2,0.2-0.1,0.5-0.2c0.1,0.1,0.1,0.2,0.2,0.3
		c0.1,0.2,0.3,0.3,0.5,0.2c0.3-0.1,0.5-0.1,0.8-0.3c0.4-0.2,0.7-0.4,1.1-0.7c0.1-0.1,0.3-0.1,0.4-0.2c0.8-0.1,1.5-0.3,2.3-0.4
		c0.8-0.1,1.7-0.3,2.6-0.4c0.3,0,0.7-0.1,1-0.1c0.6,0,0.9,0.3,0.9,0.9c0,0.6-0.4,0.9-0.9,1c-0.7,0.1-1.5,0.2-2.2,0.3
		c-1,0.1-2,0.3-3,0.5c-2.3,0.4-4.6,1-6.9,1.5c-2.1,0.5-4.2,1-6.2,1.7c-2.9,0.9-5.7,2.1-8.5,3.4c-3.1,1.5-6.1,3.1-9,4.9
		c-1.7,1-3.3,2.1-4.8,3.3c-1.5,1.2-2.9,2.5-4,4.1c-0.5,0.7-1,1.4-1.4,2.2c-0.1,0.3-0.3,0.5-0.3,0.8c-0.1,0.3-0.3,0.6-0.5,0.8
		C58,54.9,57.8,55,57.6,55c-0.6-0.1-1.2-0.7-0.8-1.5c0.1-0.1,0.1-0.3,0.2-0.4c0.2-0.3,0.3-0.6,0.4-0.9c1.1-2.9,2.2-5.7,3.4-8.5
		c1.2-2.9,2.4-5.8,3.5-8.8c0.1-0.2,0.1-0.3,0.2-0.5c0,0,0-0.1,0-0.1c-0.1,0-0.2,0-0.3,0c-1.5,0.4-3,0.8-4.5,1.1
		c-0.3,0.1-0.5,0.1-0.8,0.1c-0.6,0.1-1.2-0.4-1.2-1c0-0.4,0.2-0.8,0.6-0.8c0.3-0.1,0.5-0.1,0.8-0.1c2.1-0.4,4.1-0.9,6.1-1.5
		c0.1,0,0.1,0,0.2-0.1c0-0.1,0.1-0.2,0.1-0.3c0.6-1.7,1.1-3.5,1.6-5.2c0.6-2.1,1.1-4.2,1.7-6.2c0.6-2,1.2-4,1.9-6
		c0.1-0.2,0.2-0.5,0.3-0.7c-0.1-0.1-0.1,0-0.2,0c-6.3,3.6-12.8,6.7-19.5,9.5c-1,0.4-2.1,0.8-3.1,1.3c-0.1,0-0.2,0.1-0.3,0.1
		c-0.3,0.1-0.6,0-0.8-0.2c-0.4-0.5-0.3-1.3,0.3-1.7c0.1-0.1,0.2-0.1,0.3-0.1c1.2-0.5,2.3-1,3.5-1.4c0.1,0,0.2-0.1,0.3-0.1
		c0-0.1-0.1-0.1-0.2-0.1c-0.1,0-0.1,0-0.2,0c-0.5-0.1-1-0.2-1.4-0.4c-2.1-0.8-3.6-2.3-4.4-4.4c-0.9-2.3-0.3-5,1.4-6.9
		C46.9,8.8,47,8.7,47,8.6c-0.1,0-0.2,0-0.3,0c-0.3-0.1-0.5-0.2-0.4-0.6c0-0.5,0.2-1,0.3-1.4c0.4-1.2,1.1-2.3,2.1-3.1
		c1.6-1.5,3.5-2.5,5.6-3c1.7-0.4,3.4-0.3,5,0.4c0.5,0.2,0.9,0.4,1.3,0.7c0.1,0,0.1,0.1,0.2,0.1c0,0,0.1-0.1,0.1-0.1
		c0.1-0.2,0.3-0.3,0.5-0.3c0.3-0.1,0.7-0.2,1-0.2c0.9-0.2,1.9-0.3,2.8-0.3c3.5,0.1,5.6,2.7,6.2,5c0.4,1.7,0.2,3.2-0.5,4.8
		c-0.1,0.1-0.1,0.3-0.2,0.4C70.7,11,70.7,11,70.7,11.1z M59,17.3c0.7-0.2,8.4-4.2,9.2-4.7c0-0.2,0.1-0.4,0.3-0.6
		c0.1,0,0.1-0.1,0.2-0.2c0.6-0.7,1.1-1.4,1.4-2.3c0.5-1.3,0.6-2.6,0.2-3.9C69.6,3.9,68,2,65.3,1.9c-1.1,0-2.2,0.2-3.3,0.5
		c0,0-0.1,0-0.1,0.1c0,0.1,0.1,0.1,0.2,0.2c0.2,0.2,0.4,0.4,0.6,0.7c1.7,2.2,2.2,4.6,1.8,7.3c0,0.1,0,0.2-0.1,0.3
		c0,0.1-0.1,0.3-0.3,0.3c-0.4,0.1-0.9-0.2-0.8-0.6c0-0.1,0-0.2,0-0.3c0.2-1,0.1-2-0.1-3c-0.3-1.6-1-2.9-2.2-4.1
		c-1.1-1.1-2.4-1.7-3.9-1.9c-0.9-0.1-1.9,0-2.8,0.2c-1.6,0.4-3.1,1.2-4.4,2.3c-0.6,0.5-1,1-1.4,1.6c-0.5,0.8-0.9,1.6-1,2.6
		c0,0,0,0.1,0.1,0.1c0.1-0.1,0.2-0.1,0.3-0.2C48.5,7.5,49.2,7.2,50,7c0.5-0.1,0.9,0.3,0.9,0.7c0,0.3-0.1,0.5-0.4,0.5
		c-0.1,0-0.2,0.1-0.3,0.1c-2.5,0.7-4.3,3.3-3.8,6c0.3,1.9,1.6,3.6,3.3,4.5c1.1,0.5,2.3,0.7,3.5,0.6c1.1-0.1,2.1-0.4,3-1
		c0.5-0.3,0.9-0.6,1.2-1.1c0.5-0.7,0.8-1.4,0.8-2.3c0-0.1,0-0.2,0-0.2c0-0.2,0.1-0.4,0.3-0.5c0.5-0.2,0.9,0.2,1,0.6
		c0,0.2,0,0.5,0,0.7c0,0.5-0.2,1-0.4,1.5C59.1,17.1,59.1,17.2,59,17.3z"/>
	<path class="st0" d="M40.9,34.8C40.9,34.8,41,34.8,40.9,34.8c0.6,0.4,1,1,1,1.7c0,0.4,0,0.8-0.2,1.2c-0.1,0.1-0.2,0.3-0.3,0.4
		c-0.5,0.4-1,0.8-1.6,1.2c-1,0.6-2.1,1-3.3,1.3c-0.7,0.2-1.5,0.4-2.2,0.6c-0.1,0-0.2,0-0.3,0.1c0,0.2,0.2,0.3,0.2,0.4
		c0,0-0.1,0.1-0.1,0.2c-0.3,0.3-0.6,0.6-0.8,0.9c-0.5,0.5-0.9,1-1.2,1.6c-0.1,0.2-0.2,0.3-0.3,0.5c0.1,0,0.1,0,0.2,0
		c1-0.2,2.1-0.4,3.1-0.5c0.7-0.1,1.4-0.2,2.1-0.2c0.1,0,0.2,0,0.4,0c0,0,0.1,0.1,0.1,0.1c0,0,0,0.1,0,0.1c-0.1,0.1-0.2,0.1-0.3,0.2
		c-0.6,0.2-1.1,0.5-1.7,0.7c-1.4,0.5-2.7,1-4.1,1.6c-0.1,0-0.3,0.1-0.4,0.2c-0.1,0.3-0.2,0.5-0.2,0.8c-0.2,0.9-0.3,1.7-0.3,2.6
		c0,1.1,0.3,2.2,0.8,3.2c0.4,0.8,1,1.5,1.7,2.1c0.8,0.6,1.7,0.8,2.7,0.6c0.4-0.1,0.8-0.2,1.2-0.4c2-1,3.5-2.6,4.6-4.6
		c0.6-1.1,1-2.3,1.2-3.5c0-0.1,0-0.2,0-0.3c-0.1-1-0.2-1.9-0.1-2.9c0-1,0.1-2,0.1-2.9c0,0,0,0,0-0.1c0.1,0,0.1,0,0.2,0
		c0.5,0,0.9,0.1,1.3,0.3c0.5,0.2,0.9,0.8,0.8,1.5c-0.1,0.6-0.2,1.1-0.2,1.7c-0.1,0.7-0.1,1.5-0.2,2.2c0,0.8,0.1,1.6,0.3,2.4
		c0.1,0.2,0.2,0.4,0.3,0.6c0.2,0.3,0.5,0.4,0.8,0.3c0.2-0.1,0.4-0.2,0.6-0.3c0.6-0.5,0.9-1.2,1.2-1.9c-0.1-0.3-0.2-0.5-0.2-0.7
		c0-0.2,0-0.4,0-0.5c0-0.3,0.2-0.6,0.5-0.8c0,0,0.1-0.1,0.2-0.1c0-0.2,0.1-0.5,0.1-0.8c0.2-1.2,0.3-2.3,0.5-3.5
		c0.1-0.8,0.2-1.5,0.3-2.3c0-0.2,0-0.3,0-0.5c-0.1-0.4-0.1-0.8,0-1.2c0,0,0-0.1,0-0.1c0,0,0,0,0-0.1c0,0,0,0,0.1,0
		c0.5,0,1.1,0.1,1.6,0.3c0.2,0.1,0.4,0.2,0.5,0.4c0.1,0.1,0.2,0.3,0.2,0.5c0,0.2,0.1,0.4,0.2,0.5c0.3,0.6,0.7,1.1,1.1,1.7
		c0.6,0.8,1.2,1.7,1.7,2.6c0.5,0.9,0.6,1.9,0.3,2.9c-0.2,0.7-0.6,1.2-1.1,1.7c-0.7,0.7-1.5,1.1-2.5,1.3c-0.9,0.2-1.8,0-2.6-0.6
		c-0.1-0.1-0.2-0.1-0.2-0.2c-0.1,0-0.1,0.1-0.1,0.2c-0.1,0.4-0.3,0.7-0.5,1.1c-0.5,0.8-1.2,1.3-2.1,1.4c-0.5,0.1-0.9,0-1.2-0.3
		c-0.5-0.4-0.9-0.9-1.1-1.5c-0.1-0.1-0.1-0.3-0.2-0.5C43,49.5,43,49.5,43,49.6c-0.5,1.8-1.3,3.4-2.4,4.8c-0.5,0.7-1.1,1.3-1.7,1.8
		c-0.6,0.4-1.2,0.8-1.9,1.1c-1.3,0.5-2.6,0.5-3.9,0c-1-0.4-1.8-1-2.5-1.8c-0.8-0.9-1.3-1.9-1.6-3c-0.3-0.8-0.4-1.7-0.4-2.6
		c0-0.5,0-1.1,0.1-1.6c0-0.1,0-0.2,0-0.3c-0.1,0-0.2,0.1-0.2,0.1c-0.2,0-0.3,0.1-0.5,0.1c-0.2,0-0.4,0-0.5-0.2
		c-0.1-0.2-0.2-0.3-0.3-0.5c-0.1-0.3-0.2-0.6-0.4-0.9c0,0,0-0.1,0-0.1c0,0,0.1,0,0.1,0c0.5-0.1,1-0.2,1.4-0.3c0,0,0.1,0,0.1,0
		c0.2,0,0.4-0.1,0.6-0.3c0.3-1.4,0.8-2.7,1.6-3.9c-0.1,0-0.2,0-0.3,0c-1.5,0.2-3,0.6-4.5,1.2c-1,0.4-1.9,1-2.8,1.7
		c-1,0.8-1.8,1.8-2.2,3.1c-0.5,1.4-0.5,2.8-0.2,4.3c0.2,0.7,0.5,1.5,0.8,2.1c0.5,0.9,1.1,1.6,1.9,2.2c1.6,1.1,3.3,1.2,5,0.5
		c0.2-0.1,0.4-0.2,0.6-0.4c0.1-0.1,0.2-0.1,0.3-0.1c0,0,0,0.1,0,0.1c-0.1,0.2-0.3,0.3-0.4,0.4c-0.8,0.4-1.6,0.7-2.5,0.8
		c-1.3,0.1-2.5-0.2-3.5-1c-0.9-0.6-1.6-1.4-2.1-2.3c-0.6-1.1-1-2.3-1.2-3.6c-0.3-2.1,0.1-4,1.2-5.8c0.1-0.1,0.1-0.2,0.2-0.3
		c0.8-1,1.7-1.8,2.7-2.5c1.3-0.9,2.8-1.5,4.3-1.9c0.8-0.2,1.7-0.4,2.5-0.6c1.3-0.3,2.5-0.6,3.7-1c1-0.3,1.9-0.6,2.8-1.1
		c1.1-0.5,2.1-1.2,3-2c0.3-0.2,0.5-0.5,0.8-0.8C40.8,34.9,40.9,34.8,40.9,34.8z M49.6,40.7C49.6,40.7,49.6,40.7,49.6,40.7
		c-0.5,1.7-0.9,3.4-1.3,5.1c0,0,0,0.1,0,0.1c0.3-0.2,0.6-0.4,0.8-0.5c0.3-0.2,0.6-0.3,1-0.4c0,0.1,0,0.1,0,0.1
		c-0.1,0.1-0.2,0.1-0.2,0.2c-0.3,0.2-0.5,0.4-0.8,0.6c-0.2,0.2-0.5,0.4-0.6,0.6c0,0.5,0,1,0,1.4c0,0,0.1,0.1,0.1,0.1
		c0.7,0.5,1.8,0.8,2.7,0.4c0.6-0.3,1.1-0.7,1.5-1.2c0.5-0.8,0.6-1.6,0.1-2.4c-0.1-0.3-0.3-0.5-0.5-0.8c-0.4-0.5-0.8-0.9-1.1-1.4
		C50.7,42,50.2,41.4,49.6,40.7C49.7,40.7,49.7,40.7,49.6,40.7z"/>
	<path class="st0" d="M75.2,29.3c0.2,0,0.4,0,0.6,0c0.2,0.1,0.5,0.1,0.7,0.2c0.3,0.1,0.4,0.3,0.5,0.6c0,0.3,0.1,0.6,0.1,0.9
		c0.1,0.7,0.1,1.5,0.1,2.2c0,0.6,0.1,1.2,0.3,1.7c0.1,0.4,0.2,0.8,0.5,1.1c0.1,0.2,0.2,0.3,0.4,0.4c0.2,0.2,0.4,0.2,0.6,0.1
		c0.2-0.1,0.4-0.3,0.5-0.5c0.2-0.4,0.3-0.7,0.4-1.2c0-0.4,0-0.8,0-1.2c0-0.2-0.1-0.4-0.1-0.5c-0.3-0.8-0.5-1.7-0.6-2.5
		c-0.1-0.5-0.1-1-0.2-1.6c0-0.3-0.1-0.7-0.2-1c0-0.1,0-0.2,0-0.3c0.1,0,0.1,0,0.2,0c0.4,0,0.7,0,1,0.2c0.3,0.1,0.5,0.3,0.6,0.6
		c0.1,0.5,0.2,1.1,0.2,1.6c0.1,0.8,0.1,1.5,0.2,2.3c0.1,0.4,0.1,0.8,0.3,1.1c0.1,0.4,0.3,0.7,0.5,1c0.1,0.1,0.2,0.2,0.3,0.3
		c0.2,0.1,0.4,0.1,0.6-0.1c0.1-0.1,0.2-0.3,0.2-0.4c0.1-0.3,0.2-0.6,0.2-0.9c0-0.5,0-1-0.1-1.5c-0.1-0.3-0.2-0.6-0.2-0.9
		c-0.2-0.8-0.3-1.6-0.4-2.4c-0.1-0.8-0.2-1.6-0.3-2.4c-0.1-0.7-0.1-1.4-0.2-2c-0.1-0.9-0.1-1.7-0.2-2.6c-0.1-0.5-0.2-1-0.2-1.5
		c-0.1-0.8-0.2-1.6-0.4-2.4c0,0,0-0.1,0-0.1c0,0,0.1,0,0.1,0c0.5,0,0.9,0,1.4,0.1c0.4,0.1,0.6,0.3,0.7,0.7c0.1,0.5,0.3,1.1,0.3,1.6
		c0.2,1.2,0.2,2.4,0.2,3.5c0,0.5,0,1.1,0,1.6c0,0.1,0,0.1,0,0.2c0.1,0.1,0.1,0,0.2-0.1c0.3-0.3,0.8-0.6,1.2-0.7
		c0.7-0.3,1.4-0.1,2.1,0.3c0.4,0.3,0.7,0.7,0.9,1.1c0.3,0.6,0.5,1.2,0.6,1.9c0,0.2,0,0.4,0,0.6c0,0.6-0.1,1.3-0.2,1.9
		c0,0,0,0.1,0,0.2c0.4-0.2,1-0.8,1.3-1.3c0-0.1,0-0.2-0.1-0.3c-0.4-1.5-0.2-3,0.5-4.4c0.2-0.5,0.5-1,0.9-1.4
		c0.5-0.5,1.1-0.8,1.8-0.9c0.4-0.1,0.9,0,1.3,0.2c0.6,0.3,0.9,0.8,1,1.5c0.1,0.9-0.1,1.6-0.6,2.3c-0.7,1-1.6,1.5-2.8,1.7
		c-0.3,0-0.6,0-0.9-0.1c0,0-0.1,0-0.1,0c0,0.1,0,0.1,0,0.2c0,0.4,0,0.9,0.1,1.3c0.2,0.7,0.5,1.2,1.1,1.6c0.6,0.4,1.2,0.5,1.8,0.4
		c0.4-0.1,0.9-0.3,1.2-0.6c0.4-0.3,0.7-0.7,1.1-1c0,0,0-0.1,0-0.1c0-0.4-0.1-0.9-0.1-1.3c0-0.7,0-1.3,0.1-2c0.1-1.1,0.3-2.2,0.6-3.2
		c0.1-0.2,0.2-0.4,0.4-0.6c0.1,0,0.1-0.1,0.2-0.1c0.1-0.1,0.2-0.1,0.4-0.1c0.2,0,0.4-0.1,0.6,0c0,0,0,0,0,0c0,0,0,0,0,0
		c0,0,0,0.1,0,0.1c0,1,0,1.9,0.1,2.9c0,0,0,0,0,0c0.1,0,0.1,0,0.1-0.1c0.6-0.7,1.2-1.5,1.7-2.2c0.5-0.7,1.1-1.3,1.7-2
		c0.1-0.2,0.3-0.2,0.4-0.1c0.1,0,0.2,0.1,0.2,0.2c0.1,0.2,0.1,0.4,0.1,0.5c0.1,0.5,0.1,1.1,0,1.6c-0.1,0.3-0.1,0.7-0.2,1
		c0,0.1-0.1,0.2-0.2,0.3c-0.4,0.3-0.9,0.6-1.3,0.9c0,0-0.1,0-0.1,0c0,0,0,0,0,0c0,0,0,0,0,0c0,0,0-0.1,0-0.1c0,0,0-0.1,0-0.1
		c0-0.8,0-1.5,0-2.3c0,0,0-0.1,0-0.1c0,0,0,0,0,0c0,0,0,0,0,0c-0.1,0-0.1,0-0.1,0c-0.3,0.3-0.6,0.5-0.8,0.8
		c-0.7,0.8-1.3,1.8-1.8,2.8c-0.2,0.5-0.4,1-0.4,1.5c-0.1,0.6,0,1.2,0.3,1.7c0.1,0.2,0.2,0.3,0.2,0.5c0.1,0,0.1-0.1,0.2-0.1
		c0.6-0.3,1.1-0.7,1.7-1c0.1-0.1,0.2-0.1,0.3-0.2c0.7-0.5,1.4-1,2.1-1.5c0.1-0.1,0.2-0.1,0.3-0.2c0.1,0.1,0.1,0.2,0,0.2
		c-0.1,0-0.1,0.1-0.2,0.1c-0.9,0.7-1.8,1.3-2.8,2c-0.2,0.1-0.4,0.3-0.6,0.4c-0.5,0.3-1,0.6-1.6,1C97.5,31,97.3,31,97,31.1
		c-0.1,0-0.2,0-0.3-0.1c-0.1-0.1-0.2-0.3-0.3-0.5c0-0.1-0.1-0.2-0.1-0.4c-0.1,0.1-0.1,0.1-0.2,0.2c-0.2,0.2-0.3,0.3-0.5,0.5
		c-0.7,0.7-1.6,1.1-2.6,1.2c-0.3,0-0.6,0-1-0.1c-0.8-0.3-1.4-0.8-1.8-1.6c-0.1-0.2-0.2-0.3-0.2-0.5c-0.1,0-0.1,0-0.1,0.1
		c-0.1,0.2-0.3,0.5-0.4,0.7c-0.3,0.5-0.7,0.8-1.2,1.1c-0.2,0.1-0.3,0.2-0.4,0.4c-0.1,0.1-0.2,0.3-0.2,0.4c-0.1,0.2-0.2,0.4-0.4,0.6
		c-0.4,0.6-1,1-1.6,1.3c-0.3,0.1-0.6,0.1-0.9,0.1c-0.3,0-0.5-0.1-0.7-0.3c-0.2-0.2-0.3-0.4-0.4-0.6c-0.1-0.1-0.2-0.3-0.2-0.4
		c0,0-0.1-0.1-0.1-0.1c-0.1,0.1,0,0.2,0,0.3c0,0.4,0,0.8-0.1,1.2c0,0.1-0.1,0.3-0.1,0.4c-0.3,0.5-0.7,0.8-1.3,0.6
		c-0.5-0.1-0.9-0.3-1.2-0.7c-0.2-0.2-0.3-0.4-0.4-0.6c-0.1-0.1-0.1-0.2-0.2-0.2c-0.1,0-0.1,0.1-0.1,0.2c0,0.4,0,0.8-0.1,1.2
		c-0.1,0.4-0.2,0.8-0.4,1.1c-0.5,0.7-1.1,0.9-1.9,0.5c-0.1-0.1-0.3-0.2-0.4-0.3c-0.1-0.1-0.2-0.1-0.2-0.2c-0.1,0-0.1,0.1-0.1,0.1
		c0,0.3-0.1,0.6-0.1,0.8c0,0.1,0,0.1-0.1,0.2c-0.4,1.3-1.6,1.4-2.4,1c-0.3-0.1-0.5-0.3-0.7-0.5c-0.1-0.1-0.2-0.2-0.3-0.2
		c-0.1,0-0.1,0.1-0.1,0.1c0,0.1,0,0.3-0.1,0.4c-0.1,0.7-0.4,1.3-0.9,1.7c-0.2,0.2-0.4,0.3-0.6,0.4C71,41,70.3,41,69.6,40.6
		c-0.4-0.2-0.7-0.4-1-0.7c-0.5-0.5-0.9-1.1-1.2-1.9c-0.6-1.7-0.5-3.3,0.3-4.9c0.4-0.7,0.9-1.3,1.6-1.7c0.5-0.3,1-0.5,1.5-0.5
		c0.2,0,0.4,0,0.6,0c0.1-0.1,0-0.3,0.1-0.4c0.1-0.1,0.2-0.1,0.3,0c0.4,0,0.8,0.1,1.2,0.2c0.4,0.1,0.6,0.3,0.6,0.7
		c0,0.2,0.1,0.4,0.1,0.6c0,0.8,0.1,1.6,0.1,2.3c0,0.6,0.1,1.2,0.3,1.7c0.1,0.6,0.4,1.1,0.7,1.6c0.1,0.1,0.2,0.3,0.4,0.4
		c0.3,0.2,0.6,0.2,0.9-0.1c0.1-0.2,0.2-0.3,0.3-0.5c0.1-0.4,0.2-0.8,0.2-1.2c0-0.1,0-0.2-0.1-0.3c-0.4-0.7-0.6-1.5-0.8-2.4
		c-0.2-0.7-0.3-1.4-0.3-2.1c-0.1-0.5-0.1-1-0.1-1.4C75.3,29.7,75.3,29.5,75.2,29.3z M71.7,33c-0.3-0.1-0.5-0.1-0.7-0.2
		c-0.6-0.1-1.1,0.1-1.5,0.6c-0.2,0.2-0.4,0.5-0.5,0.8c-0.4,0.8-0.6,1.6-0.6,2.5c0,1,0.3,2,1,2.8c0.2,0.2,0.5,0.5,0.8,0.6
		c0.4,0.2,0.8,0.2,1.2,0.1c0.6-0.2,1-0.5,1.3-1c0.3-0.4,0.4-0.8,0.5-1.3c0-0.1,0-0.3-0.1-0.4c-0.4-0.7-0.7-1.4-0.9-2.1
		C72,34.6,71.9,33.8,71.7,33z M87.6,31.4c0-0.1,0.1-0.2,0.1-0.4c0.1-0.4,0.2-0.8,0.2-1.1c0.1-1.1-0.1-2.2-0.8-3.2
		c-0.1-0.2-0.3-0.4-0.4-0.5C86.6,26,86.3,26,86,26.2c-0.4,0.2-0.6,0.4-0.8,0.8c-0.2,0.3-0.3,0.6-0.3,1c-0.1,0.5-0.1,1.1,0,1.6
		c0.1,0.3,0.1,0.7,0.3,1c0.2,0.3,0.4,0.6,0.7,0.9c0.2,0.2,0.5,0.3,0.8,0.3C87,31.6,87.3,31.5,87.6,31.4z M90.9,27.6
		c0.2,0,0.3,0,0.4,0c0.4-0.1,0.7-0.2,1-0.4c0.7-0.5,1.2-1.2,1.3-2.1c0-0.2,0-0.3,0-0.5c-0.1-0.4-0.4-0.5-0.7-0.4
		c-0.2,0-0.4,0.1-0.5,0.3c-0.3,0.2-0.6,0.5-0.8,0.9c-0.3,0.5-0.4,1-0.6,1.6C91,27.1,90.9,27.4,90.9,27.6z M84.5,31.6
		c0,0.1,0,0.2,0,0.2c0.1,0.3,0.1,0.5,0.2,0.8c0.1,0.3,0.2,0.5,0.3,0.8c0.1,0.3,0.3,0.4,0.6,0.3c0.1,0,0.2-0.1,0.3-0.1
		c0.2-0.1,0.4-0.2,0.5-0.4c0.3-0.2,0.5-0.5,0.7-0.8c0,0,0-0.1,0-0.1c-0.1,0.1-0.2,0.1-0.3,0.1c-0.4,0.2-0.7,0.2-1.1,0
		c-0.4-0.2-0.8-0.4-1.1-0.6C84.6,31.7,84.6,31.7,84.5,31.6z"/>
	<path class="st0" d="M65.9,22.3C65.8,22.3,65.8,22.3,65.9,22.3c-0.9,0.5-1.7,1.1-2.5,1.6c0,0.1,0,0.2,0,0.3
		c0.1,2.2,0.1,4.4,0.1,6.7c0,0.1,0,0.2,0,0.3c0,0.2-0.2,0.3-0.5,0.3c-0.2,0-0.4-0.1-0.4-0.4c0-0.3,0-0.5,0-0.8c0-0.1,0-0.2,0-0.3
		c-0.4,0.1-2.9,1.1-3.5,1.5c0,0,0,0.1,0,0.1c0,0.3,0.1,0.6,0.1,0.9c0,0,0,0.1,0,0.1c0,0.3-0.1,0.4-0.4,0.4c-0.2,0-0.4-0.1-0.5-0.4
		c0-0.1,0-0.2,0-0.3c0-0.2,0-0.4-0.1-0.6c-0.2,0-0.3,0.1-0.4,0.2c-1.1,0.6-2.1,1.1-3.1,1.8c0.3,1.5,0.5,3,0.7,4.6
		c0.2,1.5,0.4,3,0.5,4.6c0.1,1.5,0.2,3.1,0.2,4.6c0.1,0,0.1,0,0.1-0.1c0.9-2.1,1.8-4.1,2.8-6.2c0.2-0.4,0.4-0.9,0.5-1.3
		c0-0.1,0-0.2,0.1-0.3C59.3,40,59.1,40,59,40.1c-0.2,0.1-0.3,0.1-0.5,0.2c0,0.1-0.1,0.2-0.1,0.3c-0.2,0.8-0.5,1.6-0.7,2.4
		c0,0.1,0,0.1,0,0.2c-0.1,0.3-0.4,0.4-0.6,0.2c-0.2-0.1-0.2-0.2-0.2-0.4c0-0.1,0-0.2,0.1-0.2c0.2-0.7,0.4-1.3,0.6-2
		c0-0.1,0-0.2,0.1-0.3c-0.1,0-0.2,0-0.2,0c-0.3,0-0.5,0-0.8,0c-0.4,0-0.5-0.4-0.4-0.7c0.1-0.1,0.2-0.2,0.3-0.2c0.1,0,0.2,0,0.4,0
		c0.3,0,0.5,0,0.8,0c0,0,0.1,0,0.1,0c0-0.1,0.1-0.1,0.1-0.2c0.2-1.1,0.4-2.1,0.4-3.2c0-0.1,0-0.3,0.1-0.4c0.2,0,0.5,0,0.7,0
		C59,35.8,59,35.9,59,36c0,0.4,0,0.9,0,1.3c0,0.6-0.1,1.3-0.3,1.9c0,0,0,0,0,0.1c0,0.1,0.1,0,0.1,0c0.1-0.1,0.3-0.2,0.4-0.2
		c0.2-0.1,0.5-0.3,0.7-0.4c0-0.1,0.1-0.1,0.1-0.2c0.2-0.7,0.4-1.4,0.6-2c0-0.1,0-0.2,0.1-0.2c0.1-0.2,0.2-0.3,0.5-0.3
		c0.2,0,0.4,0.2,0.4,0.4c0,0.1,0,0.2,0,0.3c-0.3,1.1-0.6,2.1-1,3.1c-0.6,1.6-1.3,3.1-1.9,4.6c-0.7,1.4-1.3,2.9-1.9,4.3
		c-0.3,0.7-0.5,1.3-0.8,2c0,0.1,0,0.1-0.1,0.2c-0.1,0.2-0.3,0.3-0.5,0.3c-0.2,0-0.3-0.1-0.4-0.4c0-0.1,0-0.2,0-0.3
		c0.1-1.5,0.1-3,0.1-4.5c0-1.1-0.1-2.3-0.2-3.4c-0.1-1-0.2-1.9-0.3-2.9c-0.1-0.8-0.2-1.6-0.3-2.4c-0.1-0.8-0.2-1.5-0.4-2.3
		c-0.2-1.3-0.5-2.6-1-3.8c-0.4-0.9-0.9-1.8-1.5-2.6C51,28,50.5,27.5,50,27.1c-0.1,0-0.1-0.1-0.2-0.1c-0.1-0.1-0.1-0.2-0.2-0.3
		c-0.1-0.3,0-0.5,0.3-0.5c0.3-0.1,0.5-0.1,0.8-0.1c1.8-0.3,3.6-0.9,5.4-1.6c0.1,0,0.2-0.1,0.3-0.2c0.1-0.1,0.2-0.2,0.3-0.2
		c0.2,0,0.3-0.1,0.5-0.1c1.7-0.8,3.4-1.8,4.9-2.9c0.1,0,0.1-0.1,0.2-0.1c0.1-0.1,0.2-0.2,0.3-0.2c0,0,0.1-0.1,0.1-0.1
		c0.7-0.5,1.3-1,1.9-1.5c0.5-0.5,1-1,1.3-1.6c0.1-0.1,0.1-0.3,0.1-0.4c0-0.2,0.2-0.3,0.4-0.4c0.2,0,0.4,0.1,0.5,0.3
		c0,0.1,0,0.2,0,0.3c0,1,0,2,0,3c0,0.1,0,0.2,0,0.4c0,0.1,0,0.2,0,0.3c-0.1,0.2-0.1,0.4-0.1,0.5c-0.1,1.5-0.4,3.1-0.8,4.5
		c-0.3,1-0.6,2-1,3c0,0.1,0,0.1-0.1,0.2c-0.1,0.3-0.4,0.4-0.6,0.3c-0.2-0.1-0.3-0.3-0.2-0.5c0-0.1,0-0.1,0.1-0.2
		c0.7-1.8,1.2-3.6,1.5-5.5c0.1-0.3,0.1-0.6,0.1-0.9C65.9,22.4,65.9,22.4,65.9,22.3z M57.2,27.4c-0.1,0-0.2,0.1-0.2,0.1
		c-0.2,0.1-0.5,0.2-0.7,0.4c-0.1,0-0.2,0.1-0.2,0.1c-0.2,0.1-0.4-0.1-0.5-0.3c-0.1-0.2,0-0.4,0.2-0.5c0.1,0,0.1-0.1,0.2-0.1
		c0.3-0.1,0.6-0.3,0.9-0.4c0.1,0,0.1-0.1,0.2-0.1c-0.1-0.5-0.3-1.1-0.4-1.3c-0.3,0.1-0.7,0.3-1,0.4c-0.3,0.1-0.7,0.3-1,0.4
		c-0.4,0.1-0.7,0.2-1.1,0.3c-0.4,0.1-0.7,0.2-1.1,0.3c-0.4,0.1-0.7,0.1-1.1,0.3c0.1,0.1,0.1,0.1,0.2,0.2c0.2,0.2,0.4,0.4,0.6,0.6
		c0.7,0.8,1.3,1.8,1.7,2.8c0.3,0.8,0.6,1.5,0.8,2.3c0,0.1,0,0.1,0.1,0.2c0.3-0.2,0.6-0.3,0.8-0.5c0.3-0.2,0.6-0.3,0.9-0.5
		c0.3-0.2,0.6-0.3,0.9-0.5c0.3-0.2,0.6-0.3,0.9-0.5C58,30.5,57.4,28.1,57.2,27.4z M58.9,30.6c1.2-0.5,2.4-1,3.6-1.6
		c0.1-0.4,0-4-0.1-4.5c0,0,0,0-0.1,0c-1.5,0.8-2.9,1.6-4.4,2.5c0,0,0,0,0,0.1C58.3,28.2,58.6,29.3,58.9,30.6
		C58.8,30.6,58.9,30.6,58.9,30.6z M57.7,26.1c1.6-0.9,3.2-1.7,4.7-2.6c0-0.2,0-0.3,0-0.5c0-0.2,0-0.3,0-0.5c0-0.2,0-0.3-0.1-0.5
		c-0.1,0-0.1,0.1-0.2,0.1c-1.5,1-3,1.9-4.6,2.7c-0.1,0-0.1,0.1-0.2,0.1C57.5,25.3,57.6,25.7,57.7,26.1z M63.3,22.9
		c0.1-0.1,0.2-0.1,0.2-0.1c0.4-0.2,0.7-0.4,1.1-0.7c0.2-0.1,0.4-0.3,0.6-0.4c0.2-0.2,0.4-0.4,0.6-0.6c0.1-0.2,0.2-0.3,0.2-0.6
		c0-0.5,0-1,0.1-1.5c0-0.1,0-0.1-0.1-0.2c-0.2,0.2-0.4,0.5-0.7,0.7c-0.2,0.2-0.5,0.4-0.7,0.6c-0.2,0.2-0.5,0.4-0.8,0.6
		c-0.3,0.2-0.5,0.4-0.8,0.6C63.2,21.9,63.2,22.4,63.3,22.9z"/>
	<path class="st0" d="M36.4,27.1c0.1-0.1,0.2-0.2,0.2-0.2c0.3-0.3,0.6-0.4,1-0.5c0.3,0,0.6,0.1,0.8,0.3c0.3,0.2,0.5,0.5,0.7,0.9
		c0.3,0.7,0.4,1.5,0.2,2.3c-0.1,0.4-0.2,0.8-0.3,1.2c0,0,0,0.1,0,0.2c0.1,0,0.2,0,0.2,0c0.1,0,0.3-0.1,0.3-0.2
		c0.2-0.1,0.3-0.3,0.5-0.5c0.1-0.1,0.1-0.2,0.2-0.2c0.1-0.1,0.2,0,0.2,0.1c0,0.1,0,0.2,0,0.3c0,0.2-0.2,0.5-0.3,0.7
		c-0.4,0.4-0.8,0.6-1.4,0.6c-0.1,0-0.2,0-0.2,0c-0.1,0.2-0.3,0.4-0.4,0.6c-0.3,0.5-0.8,0.7-1.4,0.7c-0.4,0-0.8-0.1-1.2-0.4
		c-0.2-0.1-0.3-0.3-0.5-0.5c-0.1-0.1-0.1-0.1-0.2-0.2c0,0.1-0.1,0.1-0.1,0.1c-0.1,0.3-0.2,0.5-0.3,0.8c-0.1,0.2-0.2,0.3-0.4,0.5
		c-0.4,0.4-1.2,0.5-1.7-0.1c-0.3-0.3-0.4-0.6-0.5-0.9c-0.2-0.6-0.3-1.2-0.2-1.8c0-0.1,0-0.3,0-0.4c0,0.1-0.1,0.2-0.1,0.2
		c-0.3,1.1-0.5,2.2-0.7,3.3c0,0.3-0.1,0.5-0.1,0.8c0,0.3-0.1,0.5-0.2,0.8c-0.2,0.5-0.9,0.5-1.2,0.2c-0.1-0.1-0.2-0.2-0.3-0.4
		c0-0.1-0.1-0.1-0.1-0.2c0,0.1-0.1,0.1-0.1,0.2c-0.1,0.2-0.2,0.4-0.3,0.5c-0.5,0.8-1.4,0.7-1.8,0.3c-0.1-0.1-0.2-0.2-0.3-0.4
		c-0.1-0.1-0.1-0.2-0.2-0.2c-0.1,0-0.1,0.1-0.1,0.1c-0.3,0.6-0.8,1-1.5,1.2c-0.6,0.2-1,0-1.5-0.4c0,0-0.1-0.1-0.1-0.1
		c0,0-0.1-0.1-0.1-0.1c-0.1,0-0.1,0.1-0.1,0.2c-0.2,0.5-0.4,1.1-0.7,1.5c-0.1,0.2-0.2,0.3-0.3,0.5c-0.1,0.1-0.3,0.2-0.4,0.3
		c-0.3,0.1-0.5,0-0.7-0.2c-0.1-0.1-0.2-0.3-0.3-0.5c0-0.2-0.1-0.4-0.1-0.5c-0.1,0-0.1,0.1-0.1,0.1c-0.3,0.4-0.7,0.6-1.2,0.8
		c-0.5,0.1-0.9,0-1.2-0.3c-0.3-0.3-0.5-0.7-0.6-1.1c-0.2-0.7-0.2-1.4-0.2-2.1c0-0.8,0.2-1.6,0.3-2.3c0-0.2,0-0.4,0.1-0.6
		c0.4,0,0.8,0.1,1.2,0.4c0.3,0.3,0.4,0.6,0.3,1c-0.2,0.7-0.3,1.5-0.5,2.2c-0.1,0.5-0.1,1,0,1.5c0,0.1,0.1,0.2,0.1,0.4
		c0.1,0.2,0.2,0.3,0.5,0.2c0.2,0,0.3-0.1,0.4-0.2c0.3-0.3,0.5-0.6,0.7-0.9c0.1-0.1,0.1-0.2,0.1-0.4c0-0.8,0-1.5,0-2.3
		c0-1.1,0.1-2.2,0.2-3.3c0.1-0.7,0.1-1.3,0.2-2c0-0.3,0.1-0.6,0.1-1c0-0.6,0.1-1.1,0.1-1.7c0,0,0-0.1,0-0.1c0-0.1,0.1,0,0.2,0
		c0.2,0,0.5,0.1,0.7,0.2c0.1,0,0.2,0.1,0.3,0.1c0.4,0.2,0.6,0.5,0.6,0.9c0,0.4-0.1,0.8-0.2,1.2c-0.1,1-0.3,1.9-0.4,2.9
		c-0.1,0.7-0.2,1.5-0.3,2.2c-0.1,1-0.2,2.1-0.2,3.1c0,0.3,0,0.6,0.1,0.9c0,0.1,0,0.3,0.1,0.4c0.1,0,0.2-0.1,0.2-0.1
		c0.2-0.2,0.3-0.5,0.5-0.7c0.1-0.3,0.2-0.6,0.4-0.8c0.1-0.1,0-0.2,0-0.3c-0.2-0.3-0.3-0.7-0.4-1.1c-0.2-1.4,0.1-2.7,1.1-3.9
		c0.4-0.5,1-0.8,1.6-0.9c0.3,0,0.5,0,0.8,0c0.2,0,0.3,0.1,0.5,0.1c0-0.1,0-0.2,0.1-0.3c0.1,0,0.1,0,0.2,0c0.4,0.1,0.7,0.2,1,0.4
		c0.3,0.2,0.4,0.4,0.4,0.7c0,0.1,0,0.3-0.1,0.4c-0.2,0.6-0.3,1.2-0.4,1.9c-0.1,0.6-0.1,1.1,0,1.7c0,0.2,0.1,0.5,0.2,0.7
		c0.2,0.4,0.4,0.4,0.7,0.1c0.3-0.3,0.4-0.7,0.6-1.2c0-0.1,0-0.1,0-0.2c-0.2-1.1-0.2-2.2,0-3.2c0-0.3,0.1-0.6,0.2-0.9
		c0.1-0.5,0.2-1,0.2-1.5c0-0.1,0-0.1,0-0.2c0.1,0,0.1,0,0.2,0c0.4,0.1,0.8,0.3,1.1,0.6c0.1,0.1,0.2,0.3,0.2,0.4c0,0.3,0,0.6-0.1,0.8
		c-0.1,0.6-0.3,1.1-0.4,1.7c-0.1,0.4-0.2,0.8-0.2,1.1c-0.1,0.5,0,0.9,0.1,1.4c0,0,0,0.1,0.1,0.2c0.1-0.2,0.1-0.4,0.1-0.6
		c0.3-1.2,0.6-2.4,1-3.6c0.2-0.6,0.4-1.2,0.7-1.8c0.1-0.2,0.2-0.4,0.2-0.5c0.1-0.3,0.2-0.6,0.2-0.9c0,0,0-0.1,0-0.1
		c0.2,0,0.3,0.1,0.5,0.1c0.2,0.1,0.4,0.2,0.6,0.3c0.3,0.2,0.5,0.5,0.4,1c-0.1,0.6-0.3,1.2-0.5,1.8c-0.1,0.5-0.2,1-0.2,1.5
		c0,0.3,0,0.6,0.1,0.9c0,0.1,0.1,0.3,0.1,0.4c0.1,0.2,0.3,0.3,0.5,0.1c0.1,0,0.1-0.1,0.2-0.2c0.3-0.4,0.5-0.8,0.7-1.2
		c0-0.1,0-0.1,0-0.2c0-0.1-0.1-0.3-0.1-0.4c-0.2-1.3,0.3-3.1,1.1-3.9c0.1-0.1,0.1-0.1,0.2-0.2c0.1-0.1,0.2-0.1,0.3,0
		c0.1,0,0.1,0.1,0.2,0.1C36.2,27,36.3,27,36.4,27.1z M25.9,31.5c-0.1-0.1-0.2-0.1-0.3-0.2c-0.4-0.2-0.9-0.1-1.2,0.1
		c-0.2,0.1-0.3,0.3-0.5,0.5c-0.4,0.5-0.6,1.1-0.7,1.8c-0.1,0.6,0,1.2,0.3,1.7c0.1,0.2,0.2,0.3,0.3,0.5c0.2,0.2,0.5,0.3,0.8,0.3
		c0.4,0,0.7-0.2,1-0.5c0.2-0.2,0.3-0.4,0.5-0.6c0.1-0.1,0.1-0.2,0-0.3c-0.1-0.5-0.2-1-0.2-1.6C25.9,32.6,25.9,32.1,25.9,31.5z
		 M36,29.3C36,29.3,35.9,29.3,36,29.3c-0.4,0.7-0.6,1.4-0.4,2.2c0.1,0.3,0.2,0.5,0.3,0.7c0.3,0.3,0.8,0.5,1.2,0.3
		c0.3-0.1,0.5-0.4,0.7-0.7c0,0,0,0,0,0c0,0-0.1,0-0.1-0.1c-0.4-0.2-0.8-0.5-1-0.9c-0.3-0.5-0.5-1-0.6-1.5C36,29.4,36,29.3,36,29.3z
		 M38.2,31.1c0-0.1,0.1-0.1,0.1-0.1c0-0.1,0.1-0.2,0.1-0.2c0.2-0.9,0.1-1.7-0.2-2.5c0-0.1-0.1-0.1-0.1-0.2c-0.1-0.1-0.2-0.1-0.3,0
		c-0.1,0.1-0.2,0.2-0.2,0.3c-0.1,0.2-0.1,0.5-0.2,0.8c-0.1,0.6,0.1,1.2,0.4,1.7C37.8,30.9,37.9,31.1,38.2,31.1z"/>
	<path class="st0" d="M8.9,30.9c0.4,0,0.8,0.1,1.1,0.2c0.1,0.1,0.2,0.1,0.3,0.2c0.1,0.1,0.2,0.2,0.2,0.4c0,0.2,0,0.5,0,0.7
		c-0.1,0.5-0.1,1.1,0,1.6c0.1,0.9,0.3,1.8,0.6,2.7c0.2,0.4,0.4,0.9,0.6,1.3c0.3,0.5,0.6,1,0.9,1.6c0,0,0.1,0.1,0.1,0.1
		c0,0,0,0,0.1,0c0.1-1,0.4-2,0.7-3c0.2-0.5,0.3-0.9,0.5-1.4c0.5-1.5,0.9-3.1,1.2-4.7c0.1-0.7,0.2-1.4,0.2-2.1c0,0,0-0.1,0-0.1
		c0,0,0,0,0.1,0c0.4,0,0.7,0.1,1,0.2c0.5,0.2,0.7,0.6,0.6,1.2c-0.1,0.4-0.1,0.8-0.2,1.1c-0.1,0.7-0.2,1.5-0.3,2.2
		c-0.1,0.8-0.2,1.5-0.2,2.3c-0.1,1.4-0.2,2.7-0.2,4.1c0,0.2,0,0.3,0.1,0.5c0,0.1,0,0.1,0,0.2c-0.1,0-0.1,0-0.2,0
		c-0.2,0-0.3,0-0.5-0.1c-0.3-0.1-0.5-0.3-0.6-0.6c-0.1-0.3-0.1-0.6-0.1-0.9c-0.1-0.9-0.1-1.7,0-2.6c0-0.1,0-0.2,0-0.3c0,0,0,0,0-0.1
		c-0.1,0-0.1,0-0.1,0.1c-0.8,1.3-1.3,2.6-1.6,4.1c0,0.2,0,0.3,0,0.5c0,0,0,0.1-0.1,0.1c0,0-0.1,0-0.1,0c-0.1-0.1-0.3-0.2-0.4-0.4
		c-0.4-0.4-0.8-0.9-1.1-1.3c-0.4-0.6-0.9-1.2-1.2-1.9c0-0.1-0.1-0.2-0.2-0.2c0,0.2,0,0.3-0.1,0.5c-0.1,0.9-0.2,1.8-0.5,2.6
		c-0.2,0.5-0.3,1-0.6,1.4c-0.8,1.4-2,2.3-3.6,2.6c-0.7,0.1-1.4,0.1-2-0.1c-0.7-0.2-1.3-0.6-1.7-1.2c-0.2-0.2-0.4-0.5-0.5-0.8
		c-0.5-1-0.7-2.1-0.7-3.3c0.1-1.4,0.5-2.7,1.4-3.8c0.3-0.4,0.6-0.7,1-1c0.6-0.4,1.2-0.6,1.9-0.7c0.2,0,0.4,0,0.6,0
		c0.4,0.1,0.7,0.2,1.1,0.4c0,0,0,0,0.1,0.1c-0.1,0.3-0.3,0.6-0.6,0.8c-0.2,0.2-0.4,0.2-0.7,0.1c-0.1,0-0.1,0-0.2-0.1
		c-0.3-0.1-0.6-0.1-0.9,0c-0.3,0.1-0.6,0.2-0.9,0.4c-0.7,0.4-1.3,1-1.6,1.8c-0.2,0.4-0.4,0.8-0.5,1.2c-0.1,0.5-0.1,1.1-0.1,1.6
		C1,40,1.2,40.7,1.6,41.3C1.8,41.7,2,42,2.3,42.2c0.6,0.6,1.4,0.8,2.3,0.7c1.6-0.2,2.7-1,3.5-2.4c0.3-0.6,0.5-1.2,0.6-1.9
		c0.1-0.6,0.1-1.1,0.2-1.7c0-1,0.1-2,0.2-2.9c0.1-1,0.1-1.9,0-2.9c0-0.1,0-0.1,0-0.2C8.9,30.9,8.9,30.9,8.9,30.9z"/>
	<path class="st0" d="M43.1,24c0.2,0,0.4,0.1,0.6,0.1c0.2,0,0.3,0.1,0.5,0.2c0.2,0.1,0.4,0.3,0.4,0.5c0,0.2,0.1,0.3,0.2,0.4
		c0.2,0.3,0.3,0.6,0.5,0.9c0.3,0.5,0.6,1,0.9,1.5c0.4,0.7,0.3,1.4,0,2.1c-0.5,0.9-1.2,1.3-2.2,1.4c-0.7,0.1-1.2-0.2-1.6-0.7
		c-0.1-0.2-0.2-0.4-0.3-0.6c-0.1-0.3,0-0.6,0.3-0.9c0.1-0.1,0.1-0.1,0.1-0.2c0.1-0.6,0.2-1.3,0.3-1.9c0.1-0.5,0.2-1,0.2-1.6
		c0-0.2,0-0.3,0-0.5c0-0.2,0-0.4,0-0.6C43,24.1,43.1,24,43.1,24z M42.8,28.6c0.1-0.1,0.2-0.1,0.3-0.1c0.2-0.1,0.4-0.2,0.6-0.2
		c0.1,0,0.1,0,0.1,0c0,0.1,0,0.1,0,0.1c0,0-0.1,0.1-0.1,0.1c-0.2,0.1-0.3,0.2-0.5,0.3c-0.2,0.1-0.3,0.2-0.4,0.4
		c-0.2,0.2-0.2,0.5,0,0.7c0.1,0.1,0.2,0.2,0.3,0.2c0.6,0.3,1.2,0.2,1.7-0.3c0.4-0.4,0.8-1,0.3-1.8c0,0-0.1-0.1-0.1-0.1
		c-0.1-0.2-0.2-0.4-0.4-0.5c-0.3-0.4-0.7-0.9-1-1.3c0,0,0,0-0.1-0.1c0,0,0,0-0.1,0c-0.2,0.8-0.4,1.6-0.7,2.4
		C42.8,28.5,42.8,28.5,42.8,28.6z"/>
	<path class="st0" d="M45.2,39.1c0,0.3-0.2,0.7-0.4,1c-0.2,0.3-0.5,0.4-0.8,0.5c-0.3,0.1-0.5,0-0.7-0.2c-0.3-0.3-0.5-0.6-0.6-1
		c0-0.1,0-0.1,0-0.2c-0.1-0.5,0.1-0.9,0.5-1.3c0.4-0.3,0.9-0.4,1.4-0.2C44.9,37.9,45.2,38.4,45.2,39.1z"/>
	<path class="st0" d="M105.1,19.3c1,0,1.8,0.8,1.8,1.8c0,1-0.8,1.8-1.8,1.8c-1,0-1.8-0.8-1.8-1.8C103.2,20.1,104.1,19.3,105.1,19.3z
		 M105,22.7c0.7,0,1.5-0.5,1.5-1.5c0-0.9-0.7-1.5-1.5-1.5c-0.8,0-1.5,0.7-1.5,1.5C103.5,22,104.2,22.7,105,22.7z"/>
	<path class="st0" d="M17.7,30.4c0-0.5,0.5-0.9,1.1-0.8c0.3,0.1,0.5,0.4,0.5,0.7c0,0.5-0.3,0.9-0.7,1c-0.3,0.1-0.5,0-0.6-0.2
		C17.8,31,17.7,30.7,17.7,30.4z"/>
	<path class="st0" d="M40.6,25.2c0-0.1,0-0.2,0.1-0.3c0.1-0.3,0.3-0.5,0.4-0.8c0-0.2,0.1-0.3,0-0.5c-0.1-0.2,0-0.3,0.1-0.5
		c0.2-0.2,0.4-0.3,0.7-0.3c0.2,0,0.3,0.1,0.2,0.3c0,0.1,0,0.1-0.1,0.2c-0.1,0.3-0.3,0.5-0.4,0.8c-0.2,0.3-0.5,0.6-0.7,0.9
		C40.8,25.1,40.7,25.2,40.6,25.2z"/>
	<path class="st0" d="M49,37.6C48.9,37.6,48.9,37.6,49,37.6c0,0.1-0.1,0.1-0.1,0.1c0,0,0,0,0-0.1C48.9,37.6,48.9,37.6,49,37.6
		C48.9,37.5,48.9,37.6,49,37.6z"/>
	<path class="st0" d="M104.3,20.2c0.3,0,0.6,0,0.9,0c0.1,0,0.1,0,0.2,0c0.2,0,0.3,0.2,0.4,0.4c0,0.2,0,0.4-0.2,0.5
		c-0.1,0-0.1,0.1-0.2,0.1c0.2,0.2,0.4,0.5,0.6,0.8c-0.1,0.1-0.2,0-0.3,0c0-0.1-0.1-0.2-0.1-0.2c-0.1-0.1-0.1-0.2-0.2-0.4
		c-0.1-0.2-0.3-0.3-0.6-0.2c0,0.3,0,0.5,0,0.8c-0.1,0-0.2,0-0.2,0c0,0,0-0.1,0-0.1C104.3,21.5,104.3,20.9,104.3,20.2
		C104.3,20.2,104.3,20.2,104.3,20.2z M104.6,20.5c0,0.2,0,0.4,0,0.6c0.2,0,0.4,0,0.6,0c0.1,0,0.2-0.1,0.2-0.3c0-0.1-0.1-0.2-0.2-0.3
		c-0.1,0-0.1,0-0.2,0C104.9,20.4,104.8,20.5,104.6,20.5z"/>
</g>
</svg>
