<?xml version="1.0" encoding="utf-8"?>
<!-- Generator: Adobe Illustrator 26.0.3, SVG Export Plug-In . SVG Version: 6.00 Build 0)  -->
<svg version="1.1" id="Ebene_1" xmlns="http://www.w3.org/2000/svg" xmlns:xlink="http://www.w3.org/1999/xlink" x="0px" y="0px"
	 viewBox="0 0 100 100" style="enable-background:new 0 0 100 100;" xml:space="preserve">
<style type="text/css">
	.st0{fill:#FFFFFF;}
</style>
<path class="st0" d="M91.3,61.5c0.3,0.4,0.6,0.8,1,1.2c-0.2,1,0.4,2.3-0.7,3.2c0-0.1-0.1-0.2-0.1-0.3c-0.1,0.1-0.2,0.2-0.2,0.3
	c-0.1,0-0.2,0.1-0.3,0.1c0.1,0.1,0.2,0.2,0.3,0.2c-0.4,0.4-0.8,0.9-1.3,1.3c0.9,0.4,1.5-0.3,2.4-0.7c0.2,0.3,0.5,0.7,0.9,1.3
	c0,0.2,0,0.7,0,1.5c-0.4,0.2-0.8,0.3-1.3,0.5c0,0.2,0,0.5,0,0.7c-0.2,0.6-0.8,0.8-0.8,1.5c0,0.4-0.3,1.2-1,1.3
	c0-0.6,0.4-1.1,0.7-1.7c-0.5-0.2-1.1-0.4-1.6-0.7c-0.2,0.3-0.4,0.6-0.6,1c-0.2-0.1-0.3-0.2-0.5-0.4c-0.2,0.5-0.3,1-0.5,1.4
	c-0.3,0-0.5,0-0.8,0c0.1,0.2,0.2,0.4,0.4,0.8c-0.4-0.2-0.7-0.3-1-0.4c-0.1,0.2-0.1,0.4-0.2,0.5c-0.1,0.2-0.4,0.3-0.6,0.4
	c-0.3,0-0.6,0-0.9,0c-0.3,0.4-0.7,0.9-0.9,1.2c-1.4,0.4-2.7,0.7-3.9,1c0,0.2-0.1,0.3-0.1,0.5c-0.7,0-1.4,0-2,0
	c-0.1,0-0.2,0.2-0.3,0.3c-0.2,0-0.4-0.1-0.6-0.1c-0.1,0-0.2-0.1-0.5-0.3c0.2,0.6,0.3,0.9,0.4,1.3c-0.6,0.5-0.2,1.1,0,1.8
	c-0.9,0.5-0.9,0.5-1.6,0.1c-0.8-0.4-1.6-0.8-2.3-1.2c-0.8,0.5-1.4,1-2,1.4c-0.4-0.2-0.8-0.3-1.1-0.6c-0.3-0.2-0.5-0.6-0.7-0.9
	c-0.1,0-0.2,0.1-0.3,0.1c0,0.3,0.1,0.6,0.1,0.9c-0.3,0.2-0.6,0.4-0.9,0.5c0.2,0.3,0.2,0.6,0.1,0.9c-0.1-0.1-0.2-0.2-0.2-0.1
	c-0.4,0.4-0.7,0.6-1,0.9c0-0.9,0.5-1.5,1-2.1c0.4-0.6,0.4-1.3,0.7-1.9c-0.8,0.7-2,3.1-2.3,4.3c0,0,0,0,0-0.1
	C66,83,65.9,83,65.8,83.1l0.1,0.1c0.1-0.1,0.2-0.2,0.2-0.3c0.2-0.1,0.4-0.2,0.7-0.4c0,0.9-0.6,1.5-1.2,2.1c-0.4-0.2-0.9,0.3-5.2-1.5
	c-3.4-0.9-2.6-1-1.9-0.6c0.7,0.5,1.6,0.2,2.3,0.6c0.7,0.3,1.5,0.3,2.2,0.5s1.4,0.5,2.1,0.7c0-0.3,0-0.5,0-0.7
	c-2.9-0.6-5.7-1.7-4.7-0.5c3.5,1.1,2.8,1.3,2.4,0.7c-0.6,0.4-1.1,0.7-1.7,1.1c-0.3,0-0.8,0-1.3,0c-0.3,0.3-0.6,0.7-0.9,1
	c-0.1-0.1-0.3-0.2-0.4-0.4c-0.2,0.4-0.5,0.7-0.7,1.1c-0.3-0.2-0.6-0.3-0.9-0.5c-0.3,0.5-0.6,0.9-0.9,1.3c-0.9,0.4-1.5-0.2-2.1-0.5
	c-0.3,0.1-0.6,0.2-0.8,0.3c-0.1-0.4-0.2-0.7-0.3-1c0,0-0.1,0.1-0.2,0.1c0,0.4,0,0.9,0,1.6c-0.2,0.1-0.5,0.3-0.8,0.4
	c0.2,0.5,0.3,0.8,0.5,1.3c-0.5,0-0.8-0.1-1.2-0.1c0.2-0.2,0.3-0.3,0.5-0.6c-0.5,0-0.9,0-1.3,0c-0.4-0.1-0.8-0.2-1.4-0.3
	c0,0,0.1,0,0.2,0c0-0.2-0.1-0.4-0.1-0.7c-0.1,0-0.1,0-0.2,0c0,0.2,0,0.4,0.2,0.6c-0.4,0.6-0.9,0.3-1.4,0.1c-0.6,0.3-0.5,0.8-0.5,1.3
	c-0.2-0.2-0.4-0.5-0.5-0.7c-0.5,0-1,0-1.5,0c0,0,0,0,0.1,0C45.1,89.1,45,89,45,88.9L44.9,89c0.1,0.1,0.2,0.2,0.3,0.2
	c0,0.3,0,0.6,0,0.9c-0.1,0-0.2,0-0.3,0.1c-0.3-0.7-0.6-1.3-1-2.1c-0.4,1,0.2,1.7,0.3,2.5c-0.3-0.3-0.5-0.5-0.9-0.8c-0.1,0,0,0,0,0
	c0-0.4,0-0.9,0-1.3c-0.1,0-0.1,0-0.2,0c0,0.4,0,0.9,0.1,1.3c0.1,0.2,0.1,0.4,0.1,0.6c-0.5,0-0.9,0-1.3,0c-0.1-0.3-0.1-0.4-0.2-0.6
	c-0.2,0.2-0.3,0.2-0.4,0.3c-0.1-0.1-0.2-0.2-0.4-0.3c-0.2,0.2-0.3,0.5-0.5,0.7c-0.2,0.1-0.3,0.3-0.5,0.3c-0.6,0-0.5,0.3-0.5,0.7
	c-0.3-0.3-0.5-0.5-0.8-0.8c-0.1,0-0.2,0.1-0.2,0.1c0.1,0.4,0.2,0.8,0.2,1.3c-0.2,0-0.3,0-0.4,0c-0.1-0.2-0.2-0.4-0.2-0.6
	c-0.7,0.4-1.5,0.8-2.4,1.4c-0.5-0.2-1.1-0.4-1.8-0.6c-1.3,0.6-2.2,0-3-0.7c-1.5,0-2.9,0-4.4,0c0.3,0.3,0.5,0.4,0.8,0.6
	c-0.3,0-0.6,0-1,0c0,0.3,0,0.5,0,0.7c-0.6,0.1-1.3,0.2-1.7,0.3c-0.8,0-0.3-1.2-1.3-0.9c0,0.4,0,0.9,0,1.3c-0.7-0.1-0.1-0.8-0.5-1
	c-0.1,0-0.3,0-0.4,0c0.1,0.5,0.1,0.9,0.2,1.3c-0.1,0-0.2,0-0.4,0.1c0,0,0,0,0.1-0.1c0-0.2,0-0.4,0-0.7c-0.2,0-0.4,0-0.6,0
	c0.2,0.3,0.4,0.6,0.6,0.7c0,0-0.1,0.2-0.2,0.2c-0.7-0.1-1.4-0.2-2.3-0.3c0.4,0.3,0.6,0.6,0.9,0.6c1,0,1.9,0.5,2.9,0.4s2,0.5,3.1,0.3
	c1-0.1,2.1,0.2,3-0.1c1-0.4,2.1,0.1,3-0.6c1.5,0,2.9-0.4,4.3-0.7c2-0.4,4-0.7,5.9-1.2c0.8-0.2,1.6-0.3,2.3-0.6
	c0.8-0.3,1.6-0.5,2.4-0.7c1.2-0.4,2.4-0.8,3.6-1.1c2.5-0.7,5-1.5,7.4-2.5c3-1.3,6.1-2.2,9.2-3.3c2.5-0.8,5-1.5,7.4-2.7
	c1.2-0.6,2.6-1.1,3.7-2c0.8-0.1,1.6-0.5,2.4-0.8c1.9-0.9,3.6-2.1,5.7-2.6c0.2-0.1,0.3-0.4,0.5-0.6c0.2,0,0.5,0,0.6-0.1
	c0.8-0.6,1.6-1.3,2.4-1.9c0,1-0.9,1.6-1.6,2c-2,1.2-4.1,2.3-6.3,3.1c-1.9,0.7-3.7,1.7-5.5,2.7c-2.9,1.6-6.1,2.5-9.2,3.7
	c-1.4-0.1-2.6,0.7-4,1.1c-1.3,0.3-2.5,1.1-3.8,1.6c-2.5,1-5,2-7.5,2.7c-1.8,0.5-3.6,1.3-5.4,1.7c-2.1,0.5-4.1,1.4-6.4,1.5
	c-0.8,0.7-1.9,0.2-2.8,0.6c-0.8,0.4-1.9,0.2-2.9,0.4c-1.2,0.2-2.4,0.6-3.5,0.9c-0.3,0.1-0.6,0.1-1,0.1c-2.2,0-4.3,0-6.5,0
	c-0.8,0-1.6-0.3-2.4-0.3s-1.5,0-2.2-0.4c-0.4-0.2-0.9-0.2-1.1-0.7c0.1,0,0.2-0.1,0.3-0.1c-0.1-0.1-0.2-0.2-0.3-0.2c0,0,0,0,0.1,0
	c-0.1-0.1-0.2-0.2-0.2-0.3l-0.1,0.1c0.1,0.1,0.2,0.2,0.3,0.2c0,0.1,0,0.2,0,0.3c-0.4-0.1-0.7,0-1.1-0.2c-0.9-0.6-2-1-2.9-1.5
	c-1-0.5-1.7-1.3-2.2-2.3c-0.2-0.4-0.2-0.7-0.2-1.1c0.7,0,1.3,0.6,2,0.3c0.1,0.1,0.2,0.2,0.3,0.3c0.2,0.2,0.5,0.5,0.7,0.7
	c-0.1,0.8,0.5,1,0.9,1.4c0.5-0.2,1.1,0.4,1.5-0.4c0.1-0.2,0.3-0.3,0.5-0.7c-0.6,0-0.9,0-1.2,0c-0.3-0.7-0.6-0.2-0.8-0.1
	c-0.4-0.1-0.7-0.2-0.9-0.2c0-0.2,0-0.4,0-0.7c-0.3,0-0.5,0-0.7,0c-0.1-0.1-0.2-0.2-0.3-0.3c-1.3-1-1.3-1-2-0.8c0,0.2,0,0.3,0,0.5
	c-0.2-0.2-0.3-0.4-0.5-0.6c-0.7-0.1-1.4-0.3-2.1-0.4c-0.3-0.7-0.7-1.2-0.2-2c0.5-0.9,1.2-0.9,2.1-1.3c0-0.4-0.1-1,0-1.5
	s0.4-1,0.7-1.6c-0.4-0.2-0.8-0.4-1.2-0.6c0.1-0.1,0.1-0.1,0.2-0.2c-1.1,0-2.3,0-3.4,0c-0.5-0.4-1-0.8-1.5-1.1c0-0.6,0-1,0-1.4
	c0.7-0.8,1.4-1.6,2-2.3c-0.4-0.8-0.8-1.5-1.1-2.2c0.4-0.3,0.7-0.6,1.1-0.9c0.7,0.5,1.4,1.1,2.2,1.8c0.5-0.7-0.1-1.6,0.6-2.2
	c0.1-1.8,1-3.2,1.9-4.7c1.2-2.1,2.7-4,4.5-5.6c1.1-1,2.2-1.8,3.3-2.6c2.4-1.8,5-3.2,7.6-4.6c1.4-0.7,2.8-1.1,4.3-1.6
	c1.6-0.5,3.2-1,4.8-1.5c2.2-0.7,4.4-1.3,6.5-1.9c1-0.3,2.1-0.1,3.1-0.4c1.5-0.4,3.1-0.3,4.5-0.9c0.6-0.3,1.4-0.2,2.1-0.4
	c1.5-0.4,3-0.6,4.5-1c1.1-0.4,2.4-0.3,3.6-0.4c0.6-0.1,1.3,0.1,1.9-0.3c0.5-0.3,1.2,0.1,1.9-0.3c0.6-0.3,1.4-0.1,2.2-0.1
	c1.5-0.1,3-0.3,4.5-0.3c1.5-0.1,3.1,0,4.6,0c0.3,0,0.7-0.1,0.8,0c0.6,0.5,1.4,0.1,2,0.4c0.5,0.2,1,0.6,1.6,0.6
	c0.2,0,0.3,0.5,0.5,0.8c0.1,0.3,0.3,0.6,0.4,0.7c2.5,0.3,4.9,0.4,6.7,2.2c1.7,1.7,2.9,3.6,3.2,6.1c0.6-0.7,1.1-1.4,1.6-2.1
	c0.5,0.1,1-0.4,1.3,0.3c-0.3,0-0.6,0-0.8,0C93,56,92.5,57.4,91.2,58c-0.3,0.1-0.5,0.3-0.7,0.5c-0.3,0-0.6,0-1,0c0,0.3,0,0.5,0.1,0.7
	c-0.5,0-0.9,0-1.5,0c0.4,0.3,0.7,0.4,1,0.6c0.2-0.2,0.3-0.3,0.5-0.6c0.3-0.3,0.6-0.5,1-0.7c1.1,0.1,2.3-0.2,3.4,0.2
	c0.3-0.6,0.7-1.7,0.7-2.3c0.1-0.1,0.3-0.3,0.3-0.4c0.1-0.3,0-0.6,0-1c0.7,0.3,0.3,1,0.3,1.4c-0.1,0.7-0.3,1.4-0.7,2.1
	c-0.2,0.4-0.7,0.6-1.1,0.9c-0.2,0.2-0.5,0.4-0.9,0.7c-0.3,0-0.6,0-1.1,0C91.3,61.1,91.3,61.3,91.3,61.5c-0.2-0.1-0.4-0.2-0.7-0.3
	c0,0.3,0,0.5,0,0.7c-1-1.1-2.4-1-3.8-1.2c0.1,0.3,0.3,0.5,0.4,0.7c-0.1,0.1-0.2,0.3-0.3,0.5c-0.8-0.2-1,0.8-1.7,0.8
	c1.1,0.3,1.1,0.3,1.5,1.5c0.1,0.3,0.2,0.6,0.2,0.9c0,0,0.1,0,0.2,0.1c0-0.3,0.1-0.6,0.1-0.8c0.5-0.2,1.2,0,1.4-0.9
	c-0.2-0.5-0.5-1.1-0.8-1.7c0.2-0.2,0.4-0.3,0.7-0.6c0.2,0.3,0.5,0.6,0.7,0.9c0.2,0.4,0.3,0.8,0.8,0.9c0.5-0.2,0.7-0.5,0.6-1
	C90.9,61.8,91.3,62,91.3,61.5z M14.1,92.1C14,92.1,14,92.1,14.1,92.1c0,0.2,0.1,0.3,0.2,0.3l0.1-0.1C14.3,92.2,14.2,92.2,14.1,92.1
	c-0.1-0.1-0.3-0.2-0.4-0.3c0,0,0,0,0.1-0.1c-0.1-0.1-0.2-0.2-0.2-0.3l-0.1,0.1c0.1,0.1,0.2,0.2,0.3,0.2C13.8,91.9,13.9,92,14.1,92.1
	z M79.4,64.2L79.4,64.2c0-0.2-0.1-0.3-0.2-0.3L79.1,64C79.2,64.1,79.3,64.1,79.4,64.2s0.3,0.2,0.4,0.3c0,0,0,0-0.1,0.1
	c0.1,0.1,0.2,0.2,0.2,0.3l0.1-0.1c-0.1-0.1-0.2-0.2-0.3-0.2C79.6,64.4,79.5,64.3,79.4,64.2z M28.3,87L28.3,87c0.2,0,0.3-0.1,0.3-0.2
	l-0.1-0.1C28.5,86.8,28.4,86.9,28.3,87C28.4,87,28.3,87,28.3,87c-0.1,0.1-0.2,0.2-0.3,0.2l0.1,0.1C28.2,87.2,28.3,87.1,28.3,87z
	 M21.9,86.7c0,0.1,0.1,0.2,0.1,0.3c0.1-0.1,0.2-0.2,0.2-0.3c0.5,0.4,0.9,0.8,1.4,1.1c-0.1,0.2-0.3,0.3-0.4,0.4
	c0.3,0.2,0.6,0.3,1.1,0.6c-0.2-1.2,0.2-2.3-0.4-3.2c0.2,0,0.5,0,0.7,0c0,0.7,0,1.5,0,2.1c0.4,0.7,0.6,1.4,1.4,1.5
	c0.7,0.1,1.5,0.4,2.2,0.4c1.5,0.2,2.9-0.3,4.3-0.6c0.8-0.2,1.4-0.7,2.3-0.8c0.9-0.1,1.5-0.9,2-1.4c0-0.3,0-0.6,0-1
	c-0.6,0.7-1,1.3-1.2,1.6c-1.8,0.4-3.3,0.5-4.7,1c-0.7,0.3-1.6-0.2-2.2,0.5c0,0.1-0.2,0-0.3,0c-1-0.3-2-0.4-2.7-1.2
	c0-0.7,0-1.4,0-2.2c0.5-0.4,1.1-0.8,1.6-1.1c0.6,0.2,1,0.4,1.5,0.5c1.2,0.4,2.3,1,3.6,1.2c1.7,0.3,3.3-0.5,4.8-1.1
	c0.2-0.1,0.4-0.2,0.6-0.3c-0.1-0.1-0.1-0.2-0.2-0.3c-0.2,0-0.4,0-0.6,0c0.2-0.3,0.4-0.6,0.7-0.9c0-0.5,0-1.1,0-1.6
	c-0.2-0.4-0.4-0.7-0.6-1c-0.2,0.1-0.3,0.2-0.5,0.3c0.1,0.2,0.2,0.3,0.2,0.5c0,0.1,0.1,0.2,0.1,0.4c-0.3,0-0.4,0-0.6,0
	c-1-0.7-2-1.7-3.2-2.1c-0.2,0.2-0.3,0.3-0.4,0.4c-0.1-0.2-0.2-0.5-0.4-0.9c-0.2,0.4-0.4,0.6-0.5,0.8c-0.2-0.1-0.5-0.2-0.7-0.3
	c0,0.1-0.1,0.1-0.1,0.2c0.2,0.2,0.5,0.5,0.8,0.8c-0.5,0-0.8,0-1,0c-0.1-0.3-0.1-0.4-0.2-0.7c-0.2,0.4-0.4,0.8-0.5,1.1
	c0,0,0,0-0.1-0.1c-0.1,0.1-0.2,0.2-0.3,0.2l0.1,0.1c0.1-0.1,0.2-0.2,0.2-0.3c0.4,0,0.8,0,1.2,0c0.1,0,0.1,0.1,0.2,0.2
	c-0.3,0.1-0.6,0.1-1.3,0.3c0.8,0.1,1.2,0.2,1.7,0.3c0,0.1,0,0.1,0,0.2c-0.5,0-1.1,0-1.7,0c0,0,0,0,0.1-0.1C30.1,82.1,30,82,30,81.9
	L29.9,82c0.1,0.1,0.2,0.2,0.3,0.2c0.2,0.6,1,0.4,1.4,0.9c-0.5,0.1-0.9,0.3-1.5,0.4c0.2-0.2,0.3-0.4,0.5-0.6
	c-0.7-0.3-1.5-0.5-2.1-0.8c-0.3,0.4-0.6,0.7-0.8,0.9c0.8,0.1,1.7,0.3,2.6,0.4c0.2,0.7,0.9,0.2,1.3,0.4c1,0.5,2.2,0.6,3.3,0.7
	c0.9,0.1,1.7-0.5,2.6-0.4c-0.6,1.1-1.8,0.4-2.6,1c-0.3,0.2-0.9,0.2-1.3,0c-0.9-0.3-1.9-0.4-2.7-0.7c-1-0.4-1.9-0.5-2.9-0.8
	c-0.1,0-0.2-0.1-0.2-0.1c-0.9,0.4-2,1.1-2.5,1.7c-0.1-0.1-0.2-0.2-0.3-0.3c-0.1,0.1-0.3,0.2-0.4,0.3c-0.3,0.3-0.6,0.6-0.9,0.9
	c-0.2-0.2-0.4-0.4-0.8-0.8c0,0.6,0,0.8,0,1C22.1,86.7,22,86.7,21.9,86.7c-0.1-0.1-0.2-0.2-0.6-0.3c-0.4-0.4-1-1-1.5-1.5
	c0.4,0.6,0.7,1.4,1.7,1.5C21.6,86.4,21.8,86.6,21.9,86.7z M75,65.9L75,65.9c0-0.2-0.1-0.3-0.2-0.3l-0.1,0.1
	C74.8,65.8,74.9,65.9,75,65.9L75,65.9c0.1,0.1,0.2,0.2,0.2,0.3l0.1-0.1C75.2,66,75.1,65.9,75,65.9z M46,82.9c0,0.1-0.1,0.1-0.2,0.1
	c0.1,0.1,0.2,0.2,0.3,0.2c-2,1.5-2.6,1.7-4.3,1.7c-0.2-0.2-0.3-0.3-0.5-0.5c0-0.3,0-0.7,0-0.9c1-1.5,2.1-2.8,3.4-3.6
	c1.8,0,3.4,0,5.1,0c0.1,0,0.2,0.1,0.3,0.2c0.4-0.3,0.8-0.7,1.1-1.1c0,0,0,0,0.1,0.1c0.1-0.1,0.2-0.2,0.3-0.2l-0.1-0.1
	c-0.1,0.1-0.2,0.2-0.2,0.3c-0.1,0-0.2,0-0.3,0c-1.2,0.4-2.6,0.5-3.8,0.1c-1.1-0.3-2.1,0-3.1,0.5c-0.7,0.4-1.3,0.9-2,1.4
	c0-0.2,0-0.5,0-0.7c0.3-0.2,0.6-0.5,0.9-0.7c0.3-0.2,0.5-0.4,0.8-0.6c0.3,0,0.7,0.1,0.8,0c0.6-0.6,1.3-0.3,1.9-0.3
	c0.7,0,1.4,0.1,2.1,0.2c0.6,0.1,1.2,0.5,1.7-0.2c0.2,0,0.3,0,0.5,0c-0.1-0.1-0.1-0.1-0.2-0.2c0.4-0.2,0.8-0.5,1-0.6
	c0-0.5,0-0.9,0-1.2c-0.7-0.6-1.4-1.2-2.5-2.1c0.4,1.1-0.8,1.2-0.6,2c-0.6,0.2-1.1,0.3-1.7,0.5c0,0,0,0.1,0,0.2
	c-0.3,0.1-0.7-0.2-0.7,0.3c-0.4-0.2-0.7-0.5-1.2-0.3c-0.6,0.3-1.2,0.7-1.9,0.8c-0.6,0.1-1.2,0.3-1.7,0.6c0,0,0,0,0.1-0.1
	c-0.1-0.1-0.2-0.2-0.2-0.3l-0.1,0.1c0.1,0.1,0.2,0.2,0.3,0.2c-0.1,0.5-0.3,0.4-0.6,0.2c-0.1-0.1-0.3-0.1-0.4-0.2c0,0,0,0,0.1-0.1
	c-0.1-0.1-0.2-0.2-0.2-0.3l-0.1,0.1c0.1,0.1,0.2,0.2,0.3,0.2c0.1,0.3,0.2,0.6,0.3,1c-0.2,0-0.4,0-0.9,0c0.1,0,0.2,0,0.3,0
	c0-0.2-0.1-0.4-0.1-0.7c-0.1,0-0.1,0-0.2,0c0,0.2,0,0.4,0.3,0.6c0.4,1.1,0.3,2.1-0.4,3c-0.3-0.4-0.7-0.8-1-1.2h-0.2
	c0,0.4,0,0.8,0,1.1c0.3,0.2,0.5,0.3,0.6,0.5c0.3,0.4,0.5,0.9,0.8,1.3c0.1,0.1,0.4,0,0.6,0c-0.2-0.5-0.3-0.9-0.5-1.4
	c0.4-0.3,0.7-0.6,1.1-0.9c-0.1,0.4-0.3,0.8-0.3,1.2c-0.1,0.4,0,0.9,0,1.3c0.3,0.3,0.6,0.6,0.8,0.9c1,0,1.9,0,2.9,0
	c-0.6,0.9-1.7,0.9-2.5,0.6c-0.9-0.4-1.7-0.1-2.6-0.3c-0.1,0.4-0.1,0.7-0.2,1c-0.5,0-0.8,0-1.4,0c0.2-0.3,0.4-0.5,1.3-0.2
	C39,86.1,38.9,86,38.9,86c-0.2,0-0.3,0.1-0.5,0.1c0.2,0.1,0.4,0.1,0-0.2c-0.2-0.1-0.3-0.3-0.7-0.5c0,0.8,0,1.3,0,2
	c-0.3-0.2-0.4-0.3-0.5-0.5c-0.2,0.3-0.3,0.6-0.6,1c0.9,0,1.7,0,2.4,0c0.7-0.1,1.5-0.4,2.2-0.3c0.8,0.1,1.4-0.4,2-0.3
	c0,0.2,0,0.4,0,0.6c0.3-0.1,0.6-0.2,0.9-0.3c0.2-0.1,0.5-0.1,0.7-0.1c0-0.1,0-0.1,0-0.2c-0.5,0-1.1,0-1.6,0c0.2-0.2,0.4-0.5,0.6-0.9
	c0.7,0.4,1.4,0.7,2.2,1.2c0.2,0,0.7,0,1.1,0c0.9-1,3-4.8,3.1-5.7c-1.5,1.2-3.7,1.6-4.7,3.4c-0.4,0-0.6,0-0.9,0
	c0.6-0.5,1.1-1.1,1.8-1.6c1-0.7,1.9-1.6,3-2c0.6-0.2,1.1-0.4,1.7-0.6c0-0.4,0-0.6-0.1-0.9c-0.3,0.2-0.5,0.3-0.6,0.4
	c-0.1-0.1-0.3-0.3-0.4-0.3c-0.4-0.1-0.9-0.2-1.4-0.3c0,0-0.1,0.1-0.2,0.1c-0.2,0.1-0.4,0.1-0.6,0.2c-0.9,0.2-1.8,0.3-2.5,1.3
	c0-0.1,0-0.2,0-0.3c-0.2,0-0.4,0.1-0.7,0.1c0,0.1,0,0.1,0,0.2c0.2,0,0.4,0,0.6-0.3c0.2,0.1,0.4,0.2,0.5,0.3c0.2-0.1,0.3-0.2,0.6-0.4
	c0.2,0.3,0.4,0.6,0.6,0.8c-0.1,0.1-0.2,0.2-0.3,0.3C46.3,82.7,46.2,82.8,46,82.9z M44.7,82.9L44.7,82.9c0,0.2,0.1,0.3,0.2,0.3
	l0.1-0.1C44.9,83,44.8,83,44.7,82.9c0-0.1,0-0.2,0-0.6c0,0.1,0,0.2,0,0.3c0.2,0,0.4-0.1,0.7-0.1c0-0.1,0-0.1,0-0.2
	c-0.2,0-0.4,0-0.6,0.3c-0.1,0-0.2,0-0.4,0c0,0,0,0,0.1-0.1c-0.1-0.1-0.2-0.2-0.2-0.3l-0.1,0.1c0.1,0.1,0.2,0.2,0.3,0.2
	C44.5,82.7,44.6,82.8,44.7,82.9z M43.7,82.9L43.7,82.9c0,0.2,0.1,0.3,0.2,0.3l0.1-0.1C43.9,83,43.8,83,43.7,82.9L43.7,82.9
	c-0.1-0.1-0.2-0.2-0.2-0.3l-0.1,0.1C43.4,82.8,43.5,82.9,43.7,82.9z M18.4,80.8C18.5,80.9,18.5,80.9,18.4,80.8
	c0.2,0,0.3-0.1,0.3-0.2l-0.1-0.1C18.6,80.7,18.5,80.8,18.4,80.8c-0.1,0.1-0.2,0.3-0.3,0.4c-0.3,0.1-0.6,0.2-0.9,0.2
	c-0.1-0.1-0.3-0.2-0.5-0.3c-0.3,0.2-0.6,0.4-0.8,0.6c0.3,0.7,0.4,1.1,0.6,1.5c0.9-0.4,1.3-0.4,1.9,0.3c0.4,0.4,0.7,0.7,1.3,0.7
	c0.6,0,1.1,0,1.6,0c0.3-0.2,0.4-0.4,0.6-0.5c0.1-1-0.2-2,0.3-3c-0.3,0-0.4,0.1-0.5,0.1c-0.3,0.3,0.2,0.9-0.5,1c0-0.2,0-0.4,0-0.9
	c-0.5,0.7-0.8,1.2-1.2,1.7c-0.1-0.3-0.2-0.5-0.5-1c-0.2,0.4-0.4,0.7-0.5,1c-0.1,0-0.1-0.1-0.2-0.1c0-0.2,0-0.4,0-0.6
	c0.1-0.1,0.2-0.2,0.3-0.3c0.5,0,0.3-0.4,0.3-0.7c0,0,0,0,0.1,0.1c0.1-0.1,0.2-0.2,0.3-0.2l-0.1-0.1c-0.1,0.1-0.2,0.2-0.2,0.3
	c-0.5,0-0.3,0.4-0.3,0.7c-0.1,0.1-0.2,0.2-0.3,0.3c-0.3,0.1-0.6,0.2-1.1,0.3c0.2-0.4,0.3-0.7,0.4-1C18.2,81.1,18.4,81,18.4,80.8z
	 M34.8,79.2c0.1,0.1,0.2,0.2,0.3,0.3c0.3,0.3,0.5,0.7,0.8,1c0.6,0,1,0,1.5,0c0.2-0.4,0.9-0.5,0.7-1.3c-0.2,0-0.4,0-0.6,0
	c0-0.1-0.1-0.2-0.1-0.3c-0.1,0.1-0.2,0.2-0.2,0.3c-0.2,0-0.5,0-0.7,0c0-0.2-0.1-0.4-0.1-0.6c-0.1,0-0.2,0-0.2,0c0,0.2,0,0.4,0,0.6
	c-0.2-0.1-0.4-0.2-0.5-0.3c-0.2,0.2-0.3,0.4-0.5,0.6C35,79.4,34.9,79.3,34.8,79.2c-0.1-0.1-0.2-0.2-0.4-0.3c0,0,0,0,0.1-0.1
	c-0.1-0.1-0.2-0.2-0.2-0.3l-0.1,0.1c0.1,0.1,0.2,0.2,0.3,0.2C34.6,79,34.7,79.1,34.8,79.2z M52.5,77.5c0,0.1,0.1,0.2,0.1,0.3
	c0.1-0.1,0.2-0.2,0.2-0.3c0.2,0.1,0.4,0.2,0.5,0.3c0.1-0.1,0.2-0.2,0.4-0.3c0.2,0.6,0.4,1.1,0.6,1.7c0.2-0.3,0.1-0.7,0.2-1
	c0-0.3,0.1-0.6,0.1-0.9c0.1,0,0.1,0,0.2,0c0,0.5,0,1,0,1.4c0.3,0.5,0.6,0.9,0.8,1.3c1,0,2,0,3,0c-0.3,0.3-0.5,0.7-0.8,1
	c-0.7,0.1-1.3-0.1-2.2,0.2c0.9,0.2,1.5,0.4,2.1,0.5c1.5,0.1,2.8,0.5,4.2,0.9c1.1,0.3,2.1,0.6,3.2,0.9c0.9-1.7,1.7-3.4,2.6-5.2
	c0-0.5,0-1.2,0-1.8c0.5-0.7,1.5-0.6,1.7-1.7c0-0.1,0-0.4-0.2-0.5c-0.3-0.3-0.7-0.6-1.1-0.7c-0.3-0.1-0.7,0-1,0
	c-0.9,1.3-0.8,1.4-2,1.6c-0.7,0.1-1,0.6-1.6,0.8c0-0.2-0.1-0.4-0.1-0.6c-0.1,0-0.2,0-0.2,0c0,0.2,0,0.4,0,0.6
	c-0.2,0.1-0.5,0.2-0.7,0.3c0.1-0.3,0.1-0.7,0.2-1c-1.2-0.3-2.3,0.1-3.2,0.8c0.2,0.1,0.4,0.2,0.6,0.3c0,0.1,0,0.1,0,0.2
	c-0.3,0-0.7,0-1,0c-0.1-0.1-0.2-0.2-0.4-0.3c0,0,0,0,0.1-0.1c-0.1-0.1-0.2-0.2-0.2-0.3L58.5,76c0.1,0.1,0.2,0.2,0.3,0.2
	c0.1,0.1,0.2,0.2,0.3,0.3c0,0.5-0.4,0.3-0.7,0.3c-0.1-0.1-0.2-0.2-0.4-0.3c0,0,0,0,0.1-0.1c-0.1-0.1-0.2-0.2-0.2-0.3l-0.1,0.1
	c0.1,0.1,0.2,0.2,0.3,0.2c0.1,0.1,0.2,0.2,0.3,0.3c0.2,0.2,0.4,0.4,0.7,0.6c-0.4,0.1-0.7,0.3-1.1,0.4c0-0.1-0.1-0.2-0.1-0.3
	c-0.1,0.1-0.2,0.2-0.2,0.3c-0.5,0-0.6-1-1.3-0.6c0.2,0.3,0.4,0.6,0.7,0.9c-0.2,0-0.4,0-0.6,0c0.2,0.2,0.3,0.4,0.5,0.6
	c0.4,0,0.9,0,1.4,0c0.1-0.3,0.1-0.4,0.2-0.7c0.3,0.2,0.5,0.3,0.7,0.4c0.6-0.4,1.3-0.9,1.9-1.3c0.1,0,0.2,0,0.3,0c0,0.3,0,0.6,0,0.9
	c-0.3,0.3-0.6,0.7-0.9,0.9c-0.7,0.4-1.2,1.2-2.1,1c0.3-0.3,0.7-0.6,1-0.9c-1.1,0.4-2.1,0.8-3.2,0.5c-0.3-0.3-0.6-0.5-1-0.9
	c0.2-0.8,0.3-1.6,0.4-2.2c0.5-0.5,0.8-1,1.2-1.4c2-0.8,4.1-0.7,6.2-0.6c1,0,1.8-0.4,2.8-0.6c-0.2-0.1-0.4-0.1-0.6-0.1
	c-2.2-0.2-4.4,0.5-6.7,0.4c-0.9,0-1.9,0.4-2.6,1.1c-0.3,0.3-0.7,0.6-1,0.8c0.1-1.2,1.1-1.7,2.1-2c1.3-0.4,2.6-0.6,4-0.7
	c1.2-0.1,2.4,0,3.6,0c0.8,0,1.6-0.3,2.3-0.8c0-0.7,0-1.4,0-2.3c-0.4-0.1-0.7-0.3-1.1-0.4c-0.4,1.6-1.8,0.8-2.6,1.2
	c0.1-0.2,0.2-0.4,0.4-0.7c-1.6-0.2-2.2,1.3-3.4,1.7c-0.8-0.4-1.5-0.6-2.4,0.1c-0.2-0.2-0.3-0.5-0.7-1.1c0,0.6,0,0.8,0,1
	c-0.2,0-0.5,0-0.7,0c0,0,0,0,0.1-0.1c-0.1-0.1-0.2-0.2-0.2-0.3l-0.1,0.1c0.1,0.1,0.2,0.2,0.3,0.2c-0.1,0.3,0.2,0.7-0.3,0.7
	c0-0.1-0.1-0.2-0.1-0.3c-0.1,0.1-0.2,0.2-0.2,0.3c-0.2,0-0.4,0.1-0.6,0.1c0,0.1,0,0.2,0,0.2c0.2,0,0.4,0,0.6,0c0,0.2,0,0.4,0,0.7
	c-0.3-0.2-0.5-0.3-0.8-0.4c-0.2,0.4-0.5,0.7-0.7,1.1c-0.5,0-1,0.1-1.5,0.1c0,0.3,0,0.4,0,0.6c-0.2,0-0.4,0-0.8,0
	c0.4,0.4,0.6,0.6,1,1c-0.4,0-0.6,0-0.8,0c-0.1-0.1-0.2-0.2-0.4-0.3c0,0,0,0,0.1-0.1c-0.1-0.1-0.2-0.2-0.2-0.3l-0.1,0.1
	c0.1,0.1,0.2,0.2,0.3,0.2c0.1,0.1,0.2,0.2,0.3,0.3c0.2,0.2,0.3,0.4,0.5,0.6c0.1,0.2,0.2,0.5,0.2,0.7C52.7,77.5,52.6,77.5,52.5,77.5
	c-0.1-0.1-0.2-0.2-0.4-0.3c0,0,0,0,0.1-0.1C52.1,77,52,76.9,52,76.8l-0.1,0.1c0.1,0.1,0.2,0.2,0.3,0.2
	C52.3,77.2,52.4,77.4,52.5,77.5z M75.7,68.3c-0.1,0.1-0.2,0.2-0.3,0.3c-0.1,0.1-0.2,0.2-0.3,0.3c-0.1,0.1-0.2,0.2-0.3,0.3
	c-0.1,0.1-0.2,0.2-0.3,0.3c-0.1,0.1-0.2,0.2-0.3,0.3c-0.1,0.1-0.2,0.2-0.3,0.3c-0.2,0-0.5,0-0.7,0c0.8-0.9,1.6-1.7,2.3-2.6
	c0-0.4,0-0.8,0-1.2c-1.4,1.7-1.3,2.3-2.8,2.8c-0.1-0.1-0.3-0.2-0.5-0.3c-0.1,0.3-0.2,0.5-0.2,0.7c-0.2,0-0.4,0-0.6,0
	c0,0,0,0,0.1-0.1c-0.1-0.1-0.2-0.2-0.2-0.3l-0.1,0.1c0.1,0.1,0.2,0.2,0.3,0.2c0,0.2,0,0.4,0,0.7c-0.8-0.3-1-1.3-2.3-1.4
	c0.6,0.6,0.9,0.9,1.4,1.4c-0.4,0-0.6,0-0.9,0c0,0,0,0,0.1-0.1c-0.1-0.1-0.2-0.2-0.2-0.3l-0.1,0.1c0.1,0.1,0.2,0.2,0.3,0.2
	c-0.1,0.3-0.2,0.6-0.3,1.2c0.1,0,0.4,0.2,0.7,0.3c-0.3,0.2-0.6,0.3-1,0.4c0.5,0.6,1,1,1.5,1.6c0.6-1,0.6-2.3,1.8-2.8
	c0,0.2,0,0.5,0,0.7c-0.1,0.1-0.2,0.2-0.3,0.3c-0.5,0-0.3,0.4-0.3,0.7c-0.7,0.4-0.1,1.1-0.3,1.5c0.5,0.8,1.1,0.5,1.7,0.6
	c0,0.1,0,0.2,0,0.2c1.1,0.3,2.3,0.3,3.4,0c0,0,0-0.1,0-0.2c0.4,0,0.9,0,1.3,0c0.1,0,0.3-0.2,0.4-0.3c0.7,0.1,1.3-0.2,1.8-0.6
	c0.8-0.6,1.5-1.2,2.3-1.8c-0.1,0.3-0.1,0.6-0.3,0.7c-0.6,0.5-1.2,1-1.8,1.5c1.3,0.2,2.5,0.3,3.6,0.5c0.4-0.7,0.4-1.5,1.2-1.7
	c0,0.1,0.1,0.2,0.1,0.3c0.1-0.1,0.2-0.2,0.2-0.3c0,0,0,0,0.1,0.1c0.1-0.1,0.2-0.2,0.3-0.2l-0.1-0.1c-0.1,0.1-0.2,0.2-0.2,0.3
	c-0.1,0-0.2,0-0.3,0c0-0.2-0.1-0.4,0-0.5c0.6-0.8,1.3-1.5,1.9-2.3c0-0.1,0-0.2,0.1-0.4c-0.4,0.1-0.6,0.3-0.8,0.3
	c-0.3-0.2-0.6-0.3-0.8-0.4c0-0.3,0-0.6,0-0.8c-0.5,0-0.9,0-1.2,0c-0.5,0.5-0.8,1.1-0.8,1.8c0,0.1,0.1,0.1,0.1,0.2
	c0.2-0.1,0.5-0.2,0.7-0.3c0.1,0.9,0.1,0.9-0.7,1.5c-0.1-0.2-0.2-0.5-0.3-0.7c-0.3,0.2-0.6,0.4-0.9,0.6c0.1-0.4,0.2-0.9,0.3-1.4
	c-0.3,0.2-0.5,0.3-0.6,0.4c0.1-0.3,0.2-0.6,0.3-1.1c0-0.3,0-0.9,0-1.6c-0.6-0.1-1.2-0.1-1.7,0.3c0-0.1-0.1-0.2-0.1-0.3
	c-0.1,0.1-0.2,0.2-0.2,0.3c-0.2,0.1-0.4,0.2-0.5,0.3c-0.1-0.1-0.2-0.2-0.3-0.3c-0.2,0.1-0.4,0.2-0.5,0.3c-0.1-0.5-0.3-0.4-0.6-0.2
	c-0.2,0.2-0.5,0.4-0.7,0.5c-0.1-0.1-0.2-0.2-0.3-0.3s-0.2-0.2-0.4-0.3c0,0,0,0,0.1-0.1c-0.1-0.1-0.2-0.2-0.2-0.3l-0.1,0.1
	c0.1,0.1,0.2,0.2,0.3,0.2c0.1,0.1,0.2,0.2,0.3,0.3c0.1,0.1,0.2,0.2,0.3,0.3c-0.1,0.1-0.1,0.3-0.2,0.3c-0.4,0.1-0.7,0.2-1.2,0.4
	c0,0,0,0,0.1-0.1c-0.1-0.1-0.2-0.2-0.2-0.3l-0.1,0.1c0.1,0.1,0.2,0.2,0.3,0.2c0.2,0.6-0.5,0.8-0.6,1.2c0.2,0.2,0.2,0.2,0.3,0.3
	c-0.2,0.1-0.5,0.2-0.8,0.3c0.2,0.1,0.4,0.1,0.5,0.2s0.2,0.2,0.3,0.3c-0.2,0-0.4,0-0.6,0c0,0.1,0,0.2,0,0.2c0.6,0.2-0.1,1,0.9,1.1
	c-0.1,0-0.2,0-0.3,0c0,0.2,0.1,0.4,0.1,0.7c0.1,0,0.1,0,0.2,0c0-0.2,0-0.4-0.3-0.6c0.4-0.6,0.9-0.3,1.6-0.3
	c-0.5,0.2-0.7,0.3-1.1,0.5c1,0.3,1.6-0.2,2.3-0.5c0.7-0.3,1.1-1,1.9-1.1c-0.2,0.5-0.6,0.8-1.1,1s-0.9,0.7-1.3,1c-0.4,0-0.9,0-1.3,0
	c-0.1,0-0.3,0.2-0.4,0.3c-1.1,0-2.3,0-3.4,0c-0.2-0.6-1.2-0.1-1.4-0.9c0-0.4,0-0.8,0-1.2c0.5,0,0.3-0.4,0.3-0.7
	c0.1-0.1,0.2-0.2,0.3-0.3c0.5-0.5,0.9-0.9,1.4-1.4c0.1-0.1,0.2-0.2,0.3-0.3c0.1-0.1,0.2-0.2,0.3-0.3c0.1-0.1,0.2-0.2,0.3-0.3
	c0.1-0.1,0.2-0.2,0.3-0.3c0.1-0.1,0.2-0.2,0.3-0.3C75.4,68.5,75.6,68.4,75.7,68.3L75.7,68.3c0.1,0,0.2-0.1,0.3-0.2L75.9,68
	C75.8,68.1,75.7,68.2,75.7,68.3z M74.6,76.1C74.6,76.1,74.7,76.1,74.6,76.1c0.2,0,0.3-0.1,0.3-0.2l-0.1-0.1
	C74.8,75.9,74.7,76,74.6,76.1s-0.2,0.3-0.2,0.2c-0.5,0.2-0.9,0.3-1.2,0.4c-1.1,0.2-2.1,1.1-3.4,0.8c-0.1,0-0.2,0.1-0.3,0.1
	c0,0.1,0,0.3,0,0.5c1.2,0.3,2.2-0.2,3.3-0.4c0.6-0.1,1.1-0.6,1.4-1.2C74.4,76.3,74.5,76.2,74.6,76.1z M45,75.4
	c0.1,0.1,0.2,0.2,0.3,0.3c0.5,0.7,1.2,0.8,2,0.6c0.9-0.3,1.2-1,1.5-2c-1,0.2-1.9,0.4-2.8,0.6c0,0,0,0.1,0,0.2
	c-0.3,0.1-0.7-0.2-0.7,0.3C45.3,75.4,45.1,75.4,45,75.4L45,75.4c0-0.1-0.1-0.2-0.2-0.3l-0.1,0.1C44.8,75.3,44.9,75.4,45,75.4z
	 M9.6,76.1c0.2,0,0.4-0.1,0.6-0.1c0-0.1,0-0.2,0-0.2c-0.2,0-0.4,0-0.6,0c0-0.1-0.1-0.2-0.1-0.3c-0.1,0.1-0.2,0.2-0.2,0.3
	c-0.6-0.1-0.3-0.5-0.4-0.9c-0.2-0.2-0.5-0.5-0.9-0.8c-0.1,0-0.2,0-0.4,0c0,0.4,0,0.7,0,1.2c0.2,0.1,0.4,0.3,0.7,0.6
	c0,0.4,0,0.8,0,1.2C8.7,77.1,9,77,9.6,77c-0.6-0.3-0.8-0.5-1.1-0.7c0-0.1,0.1-0.1,0.1-0.2c0.2,0,0.4,0,0.6,0c0,0.1,0.1,0.2,0.1,0.3
	C9.5,76.3,9.5,76.2,9.6,76.1z M53.4,80.1c0.2,0.3,0.3,0.4,0.4,0.4c0.2,0,0.3-0.1,0.5-0.1c-0.2-0.1-0.4-0.1,0,0.2
	c0,0.1,0,0.2,1.8,1.3c-2-1-2-1-3.1-0.7c1.1-0.1,1.9,1,1.3-0.3c0.2,0,0.4-0.1,0.6-0.1c0-0.1,0-0.2,0-0.2
	C54.6,80.5,54.4,80.5,53.4,80.1z M22.2,85.3c0.1,0,0.2,0,0.4,0c0,0,0,0-0.1,0.1c0.1,0.1,0.2,0.2,0.2,0.3l0.1-0.1
	c-0.1-0.1-0.2-0.2-0.3-0.2c0-0.2-0.1-0.4-0.1-0.6c-0.1,0-0.2,0-0.2,0C22.2,84.9,22.2,85.1,22.2,85.3L22.2,85.3
	c-0.1,0-0.2,0.1-0.3,0.2l0.1,0.1C22.1,85.5,22.2,85.4,22.2,85.3z M51.9,79.9c0.1,0,0.2,0,0.3,0c0-0.2-0.1-0.4-0.1-0.7
	c-0.1,0-0.1,0-0.2,0c0,0.2,0,0.4,0.4,0.7c0.4,0.3,0.4,0.3,1,0C52.8,79.9,52.5,79.9,51.9,79.9z M39.6,80.8
	C39.6,80.9,39.6,80.9,39.6,80.8c0,0.2,0.1,0.3,0.2,0.3l0.1-0.1c-0.1-0.1-0.2-0.2-0.5,0C39.5,81,39.5,80.9,39.6,80.8
	c0-0.2,0-0.4-0.1-0.6c-0.2,0-0.4,0-0.6,0C39.1,80.6,39.3,80.8,39.6,80.8z M89.3,67.3c0.1,0,0.2-0.1,0.3-0.1
	c-0.1-0.1-0.2-0.2-0.3-0.2c0-0.5,0.4-0.3,0.7-0.4c0,0,0,0-0.1,0.1c0.1,0.1,0.2,0.2,0.2,0.3l0.1-0.1c-0.1-0.1-0.2-0.2-0.3-0.2
	c0.7-0.7,1.3-1.5,2-2.3c0-0.4,0-0.9,0-1.4c-0.2-0.2-0.3-0.3-0.6-0.5c0,0.4,0,0.6,0,1.1c-0.5,0.5-1.1,1-1.7,1.6
	c0.1,0.2,0.2,0.4,0.3,0.5c-0.4,0.8-1.3,0.7-1.7,1.3c-0.2,0-0.4,0.1-0.6,0.1c0,0.1,0,0.2,0,0.2c0.2,0,0.4,0,0.6,0c0,0.1,0,0.2,0,0.3
	c-0.3,0.1-0.7-0.2-0.7,0.3c-0.3,0-0.6,0-1,0c-0.1,0-0.3,0.2-0.4,0.6c-1-0.3-2-0.1-2.9-0.6c0,0-0.1,0.1-0.2,0.2
	c0.2,0.2,0.4,0.4,0.4,0.4c1,0,1.9,0,2.7-0.3c0.5,0,0.9,0,1.4-0.1c-0.1,0.4-0.3,0.7-0.5,1.3c0.6-0.6,0.8-0.9,1.1-1.2
	c-0.1,0-0.3-0.1-0.6-0.1c0-0.1,0-0.2,0-0.3c0.3-0.1,0.7,0.2,0.7-0.3C88.6,67.5,89.1,67.9,89.3,67.3z M86.2,69.1
	c0.2,0.2,0.4,0.4,0.8,0.7c-0.1-0.5-0.1-0.6-0.1-0.9c-0.3,0.1-0.4,0.1-0.6,0.7c0-0.1,0-0.2,0-0.3c-0.2,0-0.4,0.1-0.7,0.1
	c0,0.1,0,0.1,0,0.2C85.8,69.6,86,69.6,86.2,69.1z M87.8,72.2c-0.1-0.1-0.1-0.1-0.2-0.2c-0.2,0-0.4,0-0.7,0c0,0.2,0,0.4,0,0.6
	c0.3-0.2,0.6-0.4,0.6-0.7c0.1-0.1,0.2-0.2,0.3-0.3c1-0.3,1-0.3,0.8-1.1c-0.5,0.2-0.9,0.5-0.8,1.1C87.8,71.8,87.7,71.9,87.8,72.2z
	 M52.7,85.6c0.4,0.2,0.7,0.3,1,0.4C53.5,85.7,53.3,85,52.7,85.6C52.9,85.7,52.9,85.6,52.7,85.6c0,0.1-0.1,0.2-0.2,0.3l0.1,0.1
	C52.7,85.9,52.8,85.8,52.7,85.6z M43,76.8L43,76.8c0,0.2,0.1,0.3,0.2,0.3l0.1-0.1C43.2,76.9,43.1,76.8,43,76.8
	c-0.1-0.2,0.1-0.6-0.4-0.6c-0.1-0.1-0.2-0.2-0.3-0.3c0.1-0.5-0.2-0.8-0.6-1c-0.8,0.3-1.6,0.6-1.9,1.8c0.4-0.2,0.7-0.3,1-0.4
	c0.3,0.4,0.7,0.3,1.2,0.3C42.1,77.1,42.6,76.7,43,76.8z M52.4,81.8c0.2,0.3,0.3,0.4,0.4,0.4c0.2,0,0.3-0.1,0.5-0.1
	c-0.2-0.1-0.4-0.1,0,0.2c-0.1,0.2-0.2,0.4-0.3,0.6c0.6-0.1,0.6-0.1,1-0.7c0,0,0,0,0.1,0.1c0.1-0.1,0.2-0.2,0.3-0.2L54.3,82
	c-0.1,0.1-0.2,0.2-0.2,0.3C53.7,82.2,53.4,82.2,52.4,81.8z M82.9,75.4C82.8,75.4,82.8,75.4,82.9,75.4c0,0.2,0.1,0.3,0.2,0.3l0.1-0.1
	C83,75.6,83,75.5,82.9,75.4c-0.8-0.4-1.7-0.4-2.8,0C81.1,75.4,81.9,75.4,82.9,75.4z M71.5,76.4c1.2,0.1,1.9-0.2,2.3-1
	c-0.6,0.3-1.3,0.6-1.9,1.3c-0.6-0.3-1.1-0.3-1.7,0C70.8,76.7,71.4,76.7,71.5,76.4z M21.2,90.7c-0.2,0.1-0.5,0.3-0.7,0.4
	s-0.5,0.1-0.7,0.2c0.3,0.8,0.8,1.1,1.5,0.7c0-0.4,0-0.8-0.1-1.1c0.5-0.2,1-0.4,1.5-0.6C21.8,89.9,21.4,90.1,21.2,90.7z M50.8,74
	c-0.4-0.3-0.4-0.3-1,0c0.4,0,0.7,0,0.9,0.2s0.5,0.4,0.8,0.7c0.8-0.8,1.6-1.4,2.9-1.2c0.1-0.5,0.1-0.9,0.2-1.2c0.1-0.3,0.5-0.5,0.7-1
	c-1.1,0.3-1.4,1-1.5,1.9c-0.2-0.2-0.3-0.3-0.3-0.3C52.6,73.5,51.7,73.8,50.8,74z M54.6,85.4c-0.1,0.8,0.3,1.4,0.9,2
	c0.3-0.5,0.6-0.9,0.8-1.4c-0.2-0.5-0.4-1-0.6-1.6c-0.4,0.4-0.8,0.7-1.1,2.1c0-0.1,0-0.2,0-0.3c-0.2,0-0.4,0.1-0.7,0.1
	c0,0.1,0,0.1,0,0.2C54.1,86.6,54.4,86.6,54.6,85.4z M72.6,67.3C72.6,67.3,72.6,67.2,72.6,67.3c0-0.2-0.1-0.3-0.2-0.3l-0.1,0.1
	c0.1,0.1,0.2,0.2,0.7,0.1c-0.6,0.3-1.1,0.7-1.6,1c0.7,0.7,1.5,0.6,2.3,0c0.1-0.4,0.3-0.9,0.3-1c-0.5-0.4-0.8-0.7-1-1
	C73,66.4,73,66.8,72.6,67.3z M54.8,82.3c-0.5,0.3-1,0.6-1.5,1c-0.4,0.4-1.2,0.4-1.1,1.2c1.9,0.4,2.6-1.2,3.9-2.3
	C55.5,82.3,55.1,82.3,54.8,82.3z M66.5,68C66.5,68,66.5,67.9,66.5,68c0-0.2-0.1-0.3-0.2-0.3l-0.1,0.1C66.3,67.8,66.4,67.9,66.5,68
	c0,0.1,0,0.2,0,0.3c-0.6,0.1-0.3,0.6-0.3,0.9c0.7,0.2,1.5,0.3,2.2,0.5c0.2-0.6,0.4-1,0.6-1.5C67.8,67.6,67.8,67.6,66.5,68z
	 M24.9,90.6c-0.4-0.2-0.8-0.4-1.2-0.5c-0.3,0.3-0.6,0.7-0.9,1c0.6,0.6,1.2,1.2,1.8,1.8c0.3-0.1,0.8-0.3,1.3-0.4c0-0.7,0-1.3,0-1.9
	c0,0-0.1-0.1-0.3-0.2c0,0.3-0.1,0.7-0.2,1.1c-0.4-0.2-0.7-0.4-1-0.6C24.7,90.8,24.8,90.7,24.9,90.6z M36.2,90.5
	c-0.4-0.2-0.8-0.3-1-0.4c-0.5,0.2-0.9,0.3-1.8,0.6c1.8,0,1.1,1.6,2.1,2.2c0.4-0.4,0.8-0.8,1.1-1.1c0.4,0,0.6-0.1,0.7-0.1
	c0.1-0.6,0.2-1.1,0.4-1.7c-0.4-0.2-0.9-0.5-1.5-0.8C36.2,89.8,36.2,90.1,36.2,90.5z M14,80.2c-0.5-0.1-0.9,0.2-1.4,0.3
	c-0.5,0.1-1.1,0-1.7,0c0.4,0.4,0.8,0.8,1.1,1.1c0,0.5,0,0.9,0,1.3c0.2,0.1,0.4,0.1,0.5,0.1c-0.1,0.5-0.1,0.9-0.2,1.4
	c0.6-0.1,0.9-0.2,1.3-0.3c0.1,0.2,0.1,0.4,0.2,0.6c0.4,0,0.7,0,1.2,0c0.2-0.3,0.3-0.7,0.5-1.1c-0.5-0.4-0.9-0.7-1.2-1
	c0.2-0.6-0.4-1.1,0-1.6c-0.3,0-0.5,0-0.6,0c0.1-0.2,0.2-0.5-0.1-0.6c1-0.1,1.4-0.3,1.4-0.9C14.7,79.6,14.3,79.9,14,80.2z M11,78.8
	c-0.3,0.1-0.9-0.3-1,0.3c-0.8-0.4-0.8-0.4-1.7-0.2c0-0.1,0-0.2,0-0.4c0.3-0.1,0.6-0.3,0.9-0.4c0.7,0.7,1.2-0.1,1.8-0.3
	c-1.2,0-2.3,0-3.2,0c-0.5,0.5-1,1-1.5,1.5c-0.1,0.6,0.6,0.8,1,1.3c0.9-0.3,1.7-0.5,2.6-0.8c1.1,0.9,2.3-0.4,3.4,0
	c0.3-0.2,0.4-0.4,0.6-0.5c-0.2-0.2-0.3-0.3-0.5-0.5c-0.2,0.1-0.4,0.2-0.5,0.3c0-0.1-0.1-0.2-0.1-0.3c-0.1,0.1-0.2,0.2-0.2,0.3
	c-0.4,0.1-0.8,0.2-1.4,0.4c0-0.3,0-0.5,0-1C11,78.7,11,78.8,11,78.8c0.2,0,0.4-0.1,0.7-0.1c0-0.1,0-0.1,0-0.2
	C11.4,78.5,11.2,78.6,11,78.8z M79.5,65.5c-0.6-0.2-0.8-0.3-1.2-0.4c0,0-0.2,0.1-0.6,0.4c0.6,0,0.9,0,1.2,0.2
	c0.3,0.2,0.7,0.5,1.1,0.8c-0.2,0.1-0.4,0.1-0.6,0.2c0.6,0.6,0.6,0.6,2,1.2c0.5-0.2,1-0.3,1.4-0.5c-0.3-0.6-0.5-1.2-0.9-2
	c1.4,0.4,2.5,0.9,3.6,0c-0.4-0.4-0.8-0.8-1.2-1.2c-0.6,0-1.3,0-2,0c-0.6-0.1-1.2-0.2-2-0.4c0.2,0.5,0.3,0.7,0.4,0.9
	c-0.1,0.1-0.2,0.2-0.3,0.3c-0.1,0.2,0.5,0.2,0.1,0.5c-0.3-0.1-0.6-0.3-0.9-0.4C79.5,65.3,79.3,65.5,79.5,65.5z M16.5,85.6
	c-0.2-0.7-0.4-1.4-0.5-2c-0.3,0.7-0.4,1.4-0.2,2c0.2,0,0.3,0,1.8-0.6c-0.4,0.2-0.6,0.7-1.2,0.7c-0.4,0-0.8,0.6-1.4,1.2
	c-0.4-0.5-0.8-1-1.2-1.5c-0.3,0.3-0.5,0.5-0.7,0.7c-0.2,0-0.2-0.4-0.6-0.1c0.4,1,0.9,1.6,2,2c2.1,0.9,4.1,1.2,6.2,0.4
	c0-0.1,0-0.3,0-0.4c-1.2,0.3-1.2,0.3-2.4-0.4c0-0.1,0-0.2,0.1-0.5c0.5,0.6,1,0.5,1.5,0.3c-0.1-0.2-0.2-0.4-0.3-0.6
	c-0.2,0.2-0.4,0.3-0.5,0.4c-0.1-0.3-0.2-0.5-0.2-0.5c-0.5,0.1-0.8,0.1-1.4,0.2c0.1-0.6,0.2-1,0.3-1.3C17.9,85.2,17.8,85.1,16.5,85.6
	z M57.3,52.3c-0.2,0-0.4,0.1-0.7,0.1c0.2,0.2,0.4,0.5,0.5,0.5c0.2,0.1,0.5,0.1,0.5-0.3c0.5,0.1,0.8-0.1,0.9-0.5
	c-0.1-0.2-0.1-0.3-0.2-0.5c0.3,0,0.5,0,1.5,0.4c-0.2-0.3-0.3-0.4-0.4-0.4c-0.2,0-0.3,0.1-0.5,0.1c0.2,0.1,0.4,0.1,0-0.2
	c0.2-0.2,0.3-0.4,0.5-0.7c0.3,0.2,0.5,0.5,0.7,0.6c0.2-0.1,0.4-0.3,0.6-0.3c0.4-0.1,0.9,0.1,1.2-0.1c0.6-0.5,1.3-0.2,1.9-0.3
	s1.2-0.4,1.9-0.4c1.5,0.1,2.9,0,4.4,0c0.3,0,0.5-0.3,0.7-0.4c-0.1-0.2-0.2-0.4-0.3-0.5c0.1-0.1,0.1-0.1,0.2-0.2
	c0.4,0.2,0.7,0.5,1.1,0.8c0-0.3,0-0.5,0-0.7c0.3,0.1,0.6,0.3,0.8,0.4c0.1-0.2,0.1-0.2,0.2-0.3s0.1-0.3,0.1-0.3
	c0.6,0,1.1,0.3,1.5,0.1c0.4-0.3,0.9-0.2,1.3-0.2c1.2,0,2.3,0,3.5,0c0.1-0.3,0.2-0.5,0.3-0.7c0.1,0.3,0.2,0.5,0.4,0.8
	c0.2,0,0.3-0.1,0.6-0.1c-0.2-0.4-0.4-0.7-0.5-0.8c-1.2-0.3-2.2-0.5-3.3-0.1c-0.3,0.1-0.7,0.3-1,0.3c-2.4,0.1-4.9,0.2-7.3,0.4
	c-0.3,0-0.7,0-1,0c-0.1,0-0.2,0.2-0.3,0.3c-0.6,0-1.1,0-1.6,0c-0.1,0.3-0.1,0.4-0.2,0.7c-0.4,0-0.8-0.1-1.2-0.2
	c-0.6-0.2-1.6,0-2.4,0.5c-0.3,0-0.7,0-1,0c0.1-0.1,0.2-0.3,0.3-0.3c1.4-0.5,2.7-1.2,4.2-1c0.2,0,0.4,0.1,0.5,0
	c0.6-0.7,1.4-0.2,2.1-0.3s1.4-0.3,2.1-0.3c2.1-0.1,4.1,0.2,6.2-0.3c0.9-0.2,1.9-0.3,2.8-0.5c-0.1-0.1-0.2-0.2-0.3-0.2
	c-3.3,0-6.6,0-9.9,0c-0.8,0-1.5,0.3-2.3,0.5c-0.3-0.4-0.9-0.4-1.3-0.2s-0.7,0.2-1.1,0.3c-1.4,0.1-2.8,0-4.1,0.4c-1,0.3-2,0.2-3,0.5
	c-1.3,0.4-2.7,0.7-4.1,0.8c-0.7,0.1-1.4,0.1-2.1,0.3c-1.6,0.6-3.4,0.5-5,0.9c-0.9,0.2-1.9,0-2.7,0.4c-1.5,0.7-3.3,0.8-4.8,1.6
	c-0.5,0.2-1,0.3-1.3,0.6c-1.2,0.2-2.4,0.1-3.3,0.5c-0.8,0.3-1.8,0.3-2.4,1c-0.4,0.1-0.7-0.1-1.1,0.2c-0.5,0.4-1.2,0.6-1.8,0.8
	c-0.1,0-0.1,0.1-0.1,0.2c0.2,0.1,0.4,0.1,0.6,0.2c-0.7,0.6-0.7,0.6-1.4,0.2c0,0,0,0,0.1,0.1c0.1-0.1,0.2-0.2,0.3-0.2l-0.1-0.1
	c-0.1,0.1-0.2,0.2-0.2,0.3c-0.8-0.1-1.3,0.7-2.1,0.8c0.2,0.2,0.3,0.3,0.5,0.6c-0.5-0.1-0.7-0.2-1.1-0.2c-0.7,0.8-2,1-2.8,1.9
	c-0.1,0.1-0.2,0.2-0.3,0.3c-0.1,0-0.3,0-0.3,0c-1.5,1-3.2,2-4.3,3.5c-0.5,0.6-1,1.2-1.5,1.7c-0.7,0.8-1.5,1.5-2,2.4
	s-1.4,1.8-1.5,2.9c-0.7,0.2-0.2,0.7-0.3,1C11,72.3,11,73.1,11,73.8c0,0.4-0.1,0.7-0.2,1.2c0.3,0.3,0.3,1.1,1.1,1.2
	c0.6,0.9,1.8,1,2.5,1.8c0.5,0.5,1.1,0.7,1.7,0.9c1.4,0.5,2.9,0.6,4.3,0.9c1.1,0.3,2.4,0,3.5,0.1c1.2,0,2.2-0.6,3.4-0.3
	c0.4-0.5,1-0.3,1.6-0.4c0.5-0.1,1-0.3,1.6-0.3c1.1,0,2-0.9,3.1-0.7l0.1-0.1c0.1-0.2,0.1-0.4,0.2-0.6c0.2,0,0.4,0,0.6,0
	c0.1,0.1,0.2,0.2,0.3,0.3c0.1-0.1,0.3-0.2,0.4-0.3c1.2,0,2.2-0.7,3.1-0.7c1.3-1.1,2.3-1.9,3.3-2.8c0.5,0.5,0.8,0.9,1.2,1.3
	c0.9-0.3,1.7-0.6,2.6-0.8c1.7-0.4,5.7-1.7,7.6-2.7c0.9-0.4,1.7-1.2,2.8-1.1c0.4-0.6,1.2-0.3,1.5-1c1.7-0.1,3.3-0.5,4.4-2
	c0.7,0,1.4,0.1,1.9-0.2c0.7-0.4,1.5,0.2,2-0.5c1.3,0.1,2.4-0.7,3.8-0.7c0,0,0.1-0.1,0.1-0.3c-0.5,0-0.9-0.1-1.5-0.1
	c0.6-0.3,1.1-0.5,1.5-0.6c0.3,0,0.9-0.4,1.1,0.6c0-0.1,0-0.2,0-0.3c-0.2,0-0.4,0.1-0.7,0.1c0,0.1,0,0.1,0,0.2c0.2,0,0.4,0,0.6-0.3
	c0.4,0,0.8,0.1,1.2,0c2.1-0.9,4.4-1.5,6.5-2.4c1.6-0.7,3.3-1.4,5-2c2.7-0.9,5.2-2.2,7.8-3.2c0-0.9,0-1.7,0-2.3
	c-0.2-0.4-0.2-0.6-0.3-0.8c-0.8-1.1-1.2-2.3-2.5-3c-1.1-0.6-2.2-1.3-3.4-1.7c-1.3-0.4-2.6-0.7-4-0.7c-1.1,0.1-2.3,0.1-3.4,0
	s-2,0.3-3,0.5c-1.6,0.3-3.1,0.9-4.8,0.8c-1.1,0-2.3,0-3.4,0c-1.1-0.1-2.1,0.4-3.3,0.4c-0.8,0-1.6,0.4-2.4,0.7
	c-1.5,0.6-2.9,1.3-4.3,1.9c-0.9,0.4-1.9,0.6-3.2,1c-0.1,0.1-0.3,0.4-0.5,0.7c-0.3-0.1-0.6-0.3-0.8-0.2c-0.5,0.1-0.9,0.3-1.4,0.3
	c-1.3-0.1-2.6,0.4-3.8,0.7c-1.1,0.3-2.4,0.4-3.4,1.3c-0.3,0.3-1,0.4-1.5,0.3c-1.3-0.1-2.6,0.1-3.8,0.4c-0.7,0.2-1.8,0.1-2,1.3
	c-2.6,0.1-5,0.6-7.1,2.1c-1.4,1-2.9,1.9-4.1,3.1c-1.3,1.1-2.6,2.1-4,3c-1.5,1-3,2.1-3.6,4c0.1,0.1,0.2,0.2,0.3,0.4
	c-0.7,0.2-0.9-0.3-1-0.6c0.1-0.3,0.3-0.6,0.5-1c-0.6,0-1.3,0.2-1.4-0.7c0.5,0.1,0.9,0.3,1.5,0.4c0.4-0.6,0.8-1.2,1.1-1.7
	c0.2-0.4,0.5-0.8,0.7-1.2c0.7-1.3,2-2.2,3.1-3.4c0-0.3,0-0.7,0-1.1c0.7-0.3,1.4-0.6,2-0.9c1.8-0.8,3.4-2,5.1-2.9c0,0.2,0,0.3,0,0.5
	c-2.1,1.2-4.3,2.5-6.4,3.7c-0.1,0.5-0.3,1.1-0.4,1.8c0-0.1,0-0.2,0-0.3c-0.2,0-0.4,0.1-0.7,0.1c0,0.1,0,0.1,0,0.2
	c0.2,0,0.4,0,0.6-0.3c0.1,0.2,0.3,0.3,0.4,0.5c-0.3,0.2-0.6,0.3-0.8,0.4c0,0.3,0,0.6,0,1c-0.3-0.4-0.5-0.8-0.8-1.2
	c-0.3,0.3-0.6,0.6-0.9,0.9c0,0.4,0.1,0.7,0.1,1.1c0.6-0.3,1.1-0.6,1.6-1c0.6-0.4,1.2-0.7,1.7-1.2c1.1-1,2-2.1,3.4-2.7
	c0.3-0.1,0.5-0.6,0.7-0.9c1.3-0.3,2.3-1.3,3.3-2.1c-0.4,0.1-0.8,0.2-1.2,0.4c0-0.1-0.1-0.2-0.1-0.3c0.6-0.4,1.3-0.7,2-1.1
	c0.2,0.4,0.4,0.7,0.6,1.1c0.4-0.1,0.9-0.3,1.3-0.4c0.6-0.1,1.1,0,1.6,0c0.3-0.4,0.5-0.8,0.8-1c0.6-0.4,4.1-1,4.8-1
	c0.8,0,1.6,0,2.2,0c0.2-0.3,0.3-0.5,0.5-0.7c0.5-0.3,1.1-0.2,1.5-0.4c1-0.5,2-0.5,3-0.8c1-0.4,2.2-0.6,3.4-0.5
	c0.1,0,0.2-0.2,0.3-0.3c0.1,0,0.2,0,0.4,0c0,0,0,0-0.1,0.1c0.1,0.1,0.2,0.2,0.2,0.3l0.1-0.1c-0.1-0.1-0.2-0.2-0.3-0.2
	c0-0.4,0-0.9,0-1.4c0.4,0.4,0.7,0.7,1.1,1.1c0,0,0,0-0.1-0.1c-0.1,0.1-0.2,0.2-0.3,0.2l0.1,0.1c0.1-0.1,0.2-0.2,0.2-0.3
	c0.2,0,0.4,0,0.6,0c0.1-0.3,0.2-0.5,0.2-0.6c0.3,0.1,0.5,0.2,0.9,0.4c0-0.4,0-0.6,0-0.8c0.3,0.1,0.6,0.2,1,0.3c0-0.2,0-0.4,0-0.6
	c0.2,0,0.5,0,0.7,0c0,0,0,0-0.1,0.1c0.1,0.1,0.2,0.2,0.2,0.3l0.1-0.1c-0.1-0.1-0.2-0.2-0.3-0.2c-0.1-0.3-0.1-0.6-0.3-1.2
	C56.4,52.2,57,51.5,57.3,52.3z M27.3,80.2c1,0,1.7,0,2.3,0c-0.1-0.2-0.2-0.3-0.3-0.5c0.3,0,0.5,0,0.8,0c-0.8-0.1-1.4,0.1-2,0.1
	c-0.7,0-1.4,0.1-1.9,0.7c-0.1,0-0.1,0-0.2,0c-0.5,0-1,0-1.3,0c-0.5,0.4-0.8,0.6-1.1,0.8c0.1,1.7,0.6,2.3,2,2.6
	c0.2-0.4,0.6-0.7,0.7-1.2c0.1-0.6,0.3-0.9,1-0.9c0.4,0,0.8-0.3,1.1-0.5c0-0.3,0-0.5,0-0.7C28.1,80.6,27.9,80.5,27.3,80.2z
	 M21.2,88.7c-1.1,0.7-2.3,0.2-3.4,0.4c-1.2,0.2-2.2-0.4-3.4-0.7c0,0.3,0,0.5,0,0.5c1,0.4,2,0.8,3.2,1.2c1.4-0.1,3.2,0.4,4.6-0.8
	C21.9,89,21.5,88.9,21.2,88.7z M75.6,80.2c0.2-1-0.2-2.1,0.4-3c-0.6,0-1,0-1.5,0c-0.3,0.5-0.6,0.9-0.9,1.4c-0.3,0-0.5,0-0.8,0
	c0.4,1.1,1.7,0.9,2.3,1.6C75,80.3,75.4,80.2,75.6,80.2z M92.5,67.4c-0.7,0.4-1.2,0.8-1.7,0.8c-0.7,0.1-0.6,0.9-1.1,1
	c0.9,0.2,1.9,0.3,2.8,0.5c0.3-0.3,0.4-0.4,0.7-0.7C93,68.6,92.8,68.1,92.5,67.4z M31.6,92c0.3,0,0.5,0,0.7,0.1s0.4,0.2,0.7,0.3
	c0.3-0.3,0.6-0.7,0.9-1c-0.4-0.4-0.7-0.7-1-1.1c-0.3,0.2-0.6,0.3-0.9,0.4c-0.3-0.3-0.6-0.5-0.8-0.7c-0.1,0.1-0.1,0.1-0.2,0.2
	C31.2,90.8,31.4,91.3,31.6,92z M51.6,88.4c0.2-0.8,0.4-1.5,0.5-2.3c0,0-0.1-0.1-0.2-0.2c-0.2,0.1-0.4,0.3-0.6,0.4
	c-0.1,0.1-0.1,0.3-0.2,0.4c0.1,0.2,0.2,0.3,0.6,0.7c-1-0.2-1.6-0.4-2.2-0.5c-0.1,0-0.3,0.1-0.4,0.1c0.3,0.4,0.5,0.8,0.8,1.2
	C50.4,88.4,50.9,88.4,51.6,88.4z M77.6,77.1c0.6,0,1.1,0,1.7,0c0.1,0,0.1-0.2,0.2-0.4c-0.3-0.3-0.6-0.7-0.8-0.9c-0.9,0-1.6,0-2.2,0
	C76.8,76.3,77.1,76.6,77.6,77.1z M36,86.6c-0.1-0.1-0.2-0.2-0.3-0.3c-1.2,0.7-2.6,0.2-3.8,0.4c-0.2,0.4-0.3,0.6-0.5,1.1
	c1.4-0.3,2.7-0.6,4-0.9C35.6,86.9,35.8,86.7,36,86.6z M36.8,78c0.7,0.6,1.5,0.8,2.3,0.9c0-0.7,0.8-1.1,0.2-1.8
	c-0.3,0.2-0.7,0.5-1,0.7c-0.1-0.1-0.2-0.2-0.4-0.3C37.6,77.6,37.2,77.8,36.8,78z M10.9,86.7c-0.3,0-0.6-0.1-1-0.1
	c0.1-0.2,0.2-0.4,0.4-0.8c-0.6,0.3-0.9,0.5-1.1,0.6c0,0.6,0,1.1,0,1.6c0.7,0,1.3,0,2,0c0-0.1,0-0.1,0-0.2c-0.4-0.1-0.9-0.1-1.3-0.2
	c0-0.1,0-0.1,0-0.2c0.3,0,0.6-0.1,1-0.1C10.9,87.1,10.9,86.9,10.9,86.7z M89.4,70.4c0.3,0.4,0.5,0.7,0.7,0.9c0.4,0,0.8,0,1.1,0
	c0.2-0.2,0.3-0.3,0.5-0.5c-0.2-0.3-0.3-0.6-0.4-0.9c-0.5,0-1,0-1.4,0C89.6,70.2,89.5,70.3,89.4,70.4z M59.7,71.3c0.5,0,0.8,0,1.2,0
	c0.2-0.2,0.3-0.3,0.4-0.4c0-0.7,0-1.3,0-2c-0.2,0-0.3,0-0.4,0c-0.2,0.7-0.4,1.3-0.6,2c-0.2,0.1-0.3,0.2-0.5,0.3
	c-0.1-0.3-0.2-0.6-0.3-1c-0.1,0.1-0.2,0.1-0.3,0.2C59.4,70.7,59.5,71,59.7,71.3z M71.1,80.2c0.3-0.3,0.6-0.5,0.8-0.7
	c0-0.4,0-0.6,0-0.8c-0.7,0.3-1.3,0.5-1.9,0.8c0,0.2,0,0.5,0,0.8C70.3,80.2,70.6,80.2,71.1,80.2z M45.3,76.5c-0.6-0.5-0.8-1.1-1.6-1
	c0.1,0.3,0.2,0.6,0.3,0.9c0,0.1-0.2,0.2-0.3,0.3c0.3,0.2,0.5,0.4,0.7,0.5C44.7,77,44.9,76.8,45.3,76.5z M41.9,88.3
	c-1.1,0.2-2.2,0.3-3.3,0.5c0,0,0,0.1,0,0.2c1.1,0,2.2,0,3.3,0C41.9,88.8,41.9,88.6,41.9,88.3z M58.2,85.3c0-0.3,0-0.6,0-0.5
	c-0.4-0.4-0.7-0.7-1-1c0,0-0.1,0.1-0.3,0.3C57.4,84.5,57.3,85.3,58.2,85.3z M85.1,64.1c0,0.1,0.1,0.2,0.1,0.4c0.3,0,0.7,0,1.1,0
	c-0.1-0.4-0.1-0.7-0.2-1.2C85.7,63.7,85.4,63.9,85.1,64.1z M39.2,90.2c0.2,0.2,0.3,0.3,0.3,0.3c0.4-0.2,0.7-0.4,1.3-0.7
	c-0.5,0-0.8,0-1.1,0C39.6,89.9,39.4,90.1,39.2,90.2z M77.2,66.2c-0.3-0.6-0.5-0.9-0.7-1.3c-0.2,0.5-0.3,0.8-0.5,1.2l0.1,0.1
	C76.4,66.2,76.7,66.2,77.2,66.2z M91,59.8c-0.3,0-0.6,0-1,0c0,0.2,0,0.4,0,0.6c0.3,0,0.6,0,1,0C91,60.2,91,60,91,59.8z M69.2,76.3
	c0.8-0.1,1-0.6,0.9-1.5C69.7,75.5,69.5,75.9,69.2,76.3z M50.9,83c0.5,0.2,1.1,0.4,2,0C51.9,83,51.4,83,50.9,83z M47,88.7
	c0-0.1,0-0.2,0-0.3c-0.5,0-1,0-1.5,0c0,0-0.1,0.1-0.1,0.3C46,88.7,46.5,88.7,47,88.7z M35.2,88.8c0.5,0.2,1.1,0.4,1.6,0
	C36.3,88.8,35.7,88.8,35.2,88.8z M85.6,62c-0.3-0.2-0.4-0.8-1-0.4C84.8,61.9,84.9,62.4,85.6,62z M69.2,76.9
	c-0.2-0.2-0.3-0.3-0.7-0.7c0,0.6,0.1,0.9,0.1,1.4C68.8,77.3,69,77.2,69.2,76.9z M58.3,83.7c0,0.1,0,0.1,0,0.2c0.5,0,0.9,0,1.4,0
	c0-0.1,0-0.1,0-0.2C59.2,83.7,58.8,83.7,58.3,83.7z M62.3,69.4c0-0.4,0-0.8,0-1.1c-0.2,0.2-0.4,0.3-0.6,0.4
	C61.9,69,62.1,69.1,62.3,69.4z M27.6,89.7c-0.3,0.5-0.4,0.7-0.4,0.8c0.1,0.1,0.2,0.4,0.3,0.6c0.1,0,0.1-0.1,0.2-0.1
	C27.6,90.7,27.6,90.4,27.6,89.7z M31,87.3c-0.3,0.1-0.4,0.1-0.7,0.1c0,0.2,0.1,0.4,0.1,0.6c0.2,0,0.4-0.1,0.6-0.1
	C31,87.8,31,87.6,31,87.3z M64.9,70c0.2-0.6,0.1-0.8-0.3-0.7C64.7,69.6,64.8,69.8,64.9,70z M65.7,68.6c-0.1,0-0.1,0-0.2,0
	c0,0.3,0,0.7,0,1c0.1,0,0.1,0,0.2,0C65.7,69.3,65.7,69,65.7,68.6z M19.2,67.9c0.1,0,0.2,0,0.3,0c0-0.3-0.1-0.6-0.1-0.9
	c-0.1,0-0.1,0-0.2,0C19.2,67.3,19.2,67.6,19.2,67.9z M56.9,84.9c-0.1-0.3-0.3-0.5-0.5-1c0,0.6,0,0.8,0,1
	C56.5,84.9,56.7,84.9,56.9,84.9z M22.6,80.6c0,0.1,0,0.2,0,0.3c0.3,0,0.6-0.1,0.9-0.1c0-0.1,0-0.1,0-0.2
	C23.2,80.6,22.9,80.6,22.6,80.6z M92.4,60c0-0.1,0-0.1,0-0.2c-0.2,0-0.5,0-0.7,0c0,0.1,0,0.1,0,0.2C91.9,60,92.1,60,92.4,60z
	 M21.1,93.4c0-0.1,0-0.2,0-0.3c-0.2,0-0.4,0.1-0.6,0.1c0,0.1,0,0.1,0,0.2C20.8,93.4,20.9,93.4,21.1,93.4z M83.1,62.4
	c0-0.1,0-0.2,0-0.3c-0.2,0-0.4,0.1-0.6,0.1c0,0.1,0,0.1,0,0.2C82.7,62.4,82.9,62.4,83.1,62.4z M21.8,92.5c-0.1,0-0.1,0-0.2,0
	c0,0.2,0,0.5,0,0.7c0.1,0,0.1,0,0.2,0C21.8,92.9,21.8,92.7,21.8,92.5z M18.2,91.5c0,0.1,0,0.2,0,0.3c0.2,0,0.4-0.1,0.6-0.1
	c0-0.1,0-0.1,0-0.2C18.6,91.5,18.4,91.5,18.2,91.5z M84.8,63.5c0-0.1,0-0.2,0-0.3c-0.2,0-0.4,0.1-0.6,0.1c0,0.1,0,0.1,0,0.2
	C84.4,63.5,84.6,63.5,84.8,63.5z M38.3,90.1c0,0.1,0,0.2,0,0.3c0.2,0,0.4-0.1,0.6-0.1c0-0.1,0-0.1,0-0.2
	C38.7,90.1,38.5,90.1,38.3,90.1z M39.2,85.6c0-0.1,0-0.1,0-0.2c-0.2,0-0.5,0-0.7,0c0,0.1,0,0.1,0,0.2C38.8,85.6,39,85.6,39.2,85.6z
	 M15,85c-0.1,0-0.2,0-0.3,0c0,0.2,0.1,0.4,0.1,0.6c0.1,0,0.1,0,0.2,0C15,85.4,15,85.2,15,85z M12.1,85.6c0.1,0,0.2,0,0.3,0
	c0-0.2-0.1-0.4-0.1-0.6c-0.1,0-0.1,0-0.2,0C12.1,85.2,12.1,85.4,12.1,85.6z M60.4,83.7c0,0.1,0,0.2,0,0.3c0.2,0,0.4-0.1,0.6-0.1
	c0-0.1,0-0.1,0-0.2C60.8,83.7,60.6,83.7,60.4,83.7z M37.5,81c0,0.1,0,0.1,0,0.2c0.2,0,0.5,0,0.7,0c0-0.1,0-0.1,0-0.2
	C38,81,37.8,81,37.5,81z M51.9,80.6c0,0.1,0,0.2,0,0.3c0.2,0,0.4-0.1,0.6-0.1c0-0.1,0-0.1,0-0.2C52.3,80.6,52.1,80.6,51.9,80.6z
	 M71.9,67.2c0-0.1,0-0.2,0-0.3c-0.2,0-0.4,0.1-0.6,0.1c0,0.1,0,0.1,0,0.2C71.5,67.2,71.7,67.2,71.9,67.2z M15.1,80.3
	c0,0.1,0,0.2,0,0.3c0.2,0,0.4-0.1,0.6-0.1c0-0.1,0-0.1,0-0.2C15.5,80.3,15.3,80.3,15.1,80.3z M81,48.5c-0.1,0-0.1,0-0.2,0
	c0,0.2,0,0.5,0,0.7c0.1,0,0.1,0,0.2,0C81,49,81,48.8,81,48.5z M65.1,49.5c0-0.1,0-0.2,0-0.3c-0.2,0-0.4,0.1-0.6,0.1
	c0,0.1,0,0.1,0,0.2C64.7,49.5,64.9,49.5,65.1,49.5z M73.7,74.1c0,0.1,0,0.2,0,0.3c0.2,0,0.4-0.1,0.6-0.1c0-0.1,0-0.1,0-0.2
	C74.1,74.1,73.9,74.1,73.7,74.1z M74.3,71.1c0,0.1,0,0.1,0,0.2c0.2,0,0.5,0,0.7,0c0-0.1,0-0.1,0-0.2C74.8,71.1,74.5,71.1,74.3,71.1z
	 M74.1,72L74.1,72c0.1-0.1,0.1-0.2,0.1-0.3h-0.1C74.1,71.8,74.1,71.9,74.1,72z M73.5,73L73.5,73c-0.1,0.1-0.1,0.2-0.1,0.3h0.1
	C73.5,73.3,73.5,73.2,73.5,73z M74.9,73L74.9,73c-0.1,0.1-0.1,0.2-0.1,0.3h0.1C74.9,73.3,74.9,73.2,74.9,73z M72.6,74L72.6,74
	c-0.1-0.1-0.2-0.1-0.3-0.1V74C72.4,74,72.5,74,72.6,74z M75.1,70.7L75.1,70.7c0.1-0.1,0.1-0.2,0.1-0.3h-0.1
	C75.1,70.4,75.1,70.6,75.1,70.7z M75.3,74.3L75.3,74.3c-0.1-0.1-0.2-0.1-0.3-0.1v0.1C75.1,74.3,75.2,74.3,75.3,74.3z M63.4,69.8
	L63.4,69.8c0.1,0.1,0.2,0.1,0.3,0.1v-0.1C63.6,69.8,63.5,69.8,63.4,69.8z M71.5,75.8L71.5,75.8c-0.1,0.1-0.1,0.2-0.1,0.3h0.1
	C71.5,76,71.5,75.9,71.5,75.8z M79.9,76.5L79.9,76.5c0.1-0.1,0.1-0.2,0.1-0.3h-0.1C79.9,76.2,79.9,76.3,79.9,76.5z M64.4,68.7
	L64.4,68.7c0.1,0.1,0.2,0.1,0.3,0.1v-0.1C64.7,68.7,64.6,68.7,64.4,68.7z M63.3,68.6L63.3,68.6c-0.1,0.1-0.1,0.2-0.1,0.3h0.1
	C63.3,68.8,63.3,68.7,63.3,68.6z M18.4,68.6h-0.1c0,0.1,0,0.2,0,0.3h0.1C18.4,68.8,18.4,68.7,18.4,68.6z M57.5,76.5L57.5,76.5
	c-0.1,0.1-0.1,0.2-0.1,0.3h0.1C57.5,76.7,57.5,76.6,57.5,76.5z M41.5,77.8L41.5,77.8c-0.1,0.1-0.1,0.2-0.1,0.3h0.1
	C41.5,78,41.5,77.9,41.5,77.8z M60.1,78.8L60.1,78.8c0.1-0.1,0.1-0.2,0.1-0.3h-0.1C60.1,78.6,60.1,78.7,60.1,78.8z M65.3,67.6
	L65.3,67.6c-0.1,0.1-0.1,0.2-0.1,0.3h0.1C65.3,67.8,65.3,67.7,65.3,67.6z M33.9,79.9L33.9,79.9c0.1-0.1,0.1-0.2,0.1-0.3h-0.1
	C33.9,79.6,33.9,79.7,33.9,79.9z M76.2,67.3L76.2,67.3c-0.1,0.1-0.1,0.2-0.1,0.3h0.1C76.2,67.5,76.2,67.4,76.2,67.3z M70.3,67.6
	L70.3,67.6c0.1-0.1,0.1-0.2,0.1-0.3h-0.1C70.3,67.4,70.3,67.5,70.3,67.6z M16.6,80.2h-0.1c0,0.1,0,0.2,0,0.3h0.1
	C16.6,80.4,16.6,80.3,16.6,80.2z M38.8,80.9L38.8,80.9c-0.1,0.1-0.1,0.2-0.1,0.3h0.1C38.8,81.1,38.8,81,38.8,80.9z M20.2,81.4
	L20.2,81.4c-0.1-0.1-0.2-0.1-0.3-0.1v0.1C19.9,81.4,20.1,81.4,20.2,81.4z M39.5,81.6L39.5,81.6c-0.1,0.1-0.1,0.2-0.1,0.3h0.1
	C39.5,81.8,39.5,81.7,39.5,81.6z M83.6,66.9L83.6,66.9c0.1-0.1,0.1-0.2,0.1-0.3h-0.1C83.6,66.7,83.6,66.8,83.6,66.9z M51.2,84.1
	L51.2,84.1c0.1,0.1,0.2,0.1,0.3,0.1v-0.1C51.4,84.1,51.3,84.1,51.2,84.1z M50.9,85L50.9,85c0.1-0.1,0.1-0.2,0.1-0.3h-0.1
	C50.9,84.7,50.9,84.9,50.9,85z M51.6,85L51.6,85c0.1-0.1,0.1-0.2,0.1-0.3h-0.1C51.6,84.7,51.6,84.9,51.6,85z M21.5,85.2L21.5,85.2
	c-0.1-0.1-0.2-0.1-0.3-0.1v0.1C21.3,85.2,21.4,85.2,21.5,85.2z M89.2,65.6L89.2,65.6c-0.1,0.1-0.1,0.2-0.1,0.3h0.1
	C89.2,65.8,89.2,65.7,89.2,65.6z M87.7,65.9L87.7,65.9c0.1-0.1,0.1-0.2,0.1-0.3h-0.1C87.7,65.7,87.7,65.8,87.7,65.9z M88.3,65.3
	L88.3,65.3c0.1,0.1,0.2,0.1,0.3,0.1v-0.1C88.5,65.3,88.4,65.3,88.3,65.3z M27.7,86.9L27.7,86.9c-0.1-0.1-0.2-0.1-0.3-0.1v0.1
	C27.4,86.9,27.5,86.9,27.7,86.9z M29.9,86.7h-0.1c0,0.1,0,0.2,0,0.3h0.1C29.9,86.9,29.9,86.8,29.9,86.7z M31,86.7h-0.1
	c0,0.1,0,0.2,0,0.3H31C31,86.9,31,86.8,31,86.7z M12.7,87.2L12.7,87.2c-0.1-0.1-0.2-0.1-0.3-0.1v0.1C12.4,87.2,12.6,87.2,12.7,87.2z
	 M29,87.1L29,87.1c0.1,0.1,0.2,0.1,0.3,0.1v-0.1C29.2,87.1,29.1,87.1,29,87.1z M27.7,87.8L27.7,87.8c0.1,0.1,0.2,0.1,0.3,0.1v-0.1
	C27.9,87.8,27.8,87.8,27.7,87.8z M29.9,87.7h-0.1c0,0.1,0,0.2,0,0.3h0.1C29.9,87.9,29.9,87.8,29.9,87.7z M13.8,88.4h0.1
	c0-0.1,0-0.2,0-0.3h-0.1C13.8,88.1,13.8,88.3,13.8,88.4z M42.5,89.7L42.5,89.7c-0.1,0.1-0.1,0.2-0.1,0.3h0.1
	C42.5,90,42.5,89.8,42.5,89.7z M22.1,91.1H22c0,0.1,0,0.2,0,0.3h0.1C22.1,91.3,22.1,91.2,22.1,91.1z M19.3,92.1h0.1
	c0-0.1,0-0.2,0-0.3h-0.1C19.3,91.9,19.3,92,19.3,92.1z M34.5,92L34.5,92c-0.1-0.1-0.2-0.1-0.3-0.1V92C34.2,92,34.4,92,34.5,92z
	 M14.9,92.5h-0.1c0,0.1,0,0.2,0,0.3h0.1C14.9,92.7,14.9,92.6,14.9,92.5z M84.5,62.4L84.5,62.4c-0.1-0.1-0.2-0.1-0.3-0.1v0.1
	C84.3,62.4,84.4,62.4,84.5,62.4z M19.8,93.3L19.8,93.3c0.1,0.1,0.2,0.1,0.3,0.1v-0.1C20.1,93.3,19.9,93.3,19.8,93.3z M86.5,61.1
	L86.5,61.1c-0.1,0.1-0.1,0.2-0.1,0.3h0.1C86.5,61.4,86.5,61.2,86.5,61.1z"/>
<path class="st0" d="M91.7,65.9c-0.1,0.1-0.2,0.2-0.3,0.3c0-0.1,0-0.2,0-0.3C91.5,65.9,91.6,65.9,91.7,65.9z"/>
<path class="st0" d="M60.7,50.2c0,0.5-0.4,0.3-0.6,0.3c-1.1,0-2.2-0.1-3.2,0.3c-0.2,0.1-0.5,0.2-0.7,0.3c-0.6,0.2-1.2,0.3-1.9,0.5
	c0.1,0.1,0.1,0.3,0.3,0.5c-0.3,0-0.5,0-0.7,0C53.3,51.5,52.6,52,52,52c-0.1,0-0.3,0.3-0.4,0.3c-1.2-0.2-2.4,0.4-3.6,0.4
	c-0.4,0.2-0.9,0.5-1.3,0.7c-0.2-0.2-0.3-0.3-0.4-0.4c-0.3,0.6-0.8,1-1.6,1.1c0,0,0,0,0.1-0.1c0-0.2,0-0.4,0-0.7c-0.2,0-0.4,0-0.6,0
	c0.2,0.3,0.4,0.6,0.6,0.7c-0.1,0.1-0.4,0.4-0.6,0.6c0.1-0.5-0.2-0.8-0.7-1c-0.4,0.2-0.8,0.4-1.1,0.6c-1.1,0.2-2.1,0.3-3.1,0.4
	c-1,0.1-1.9,0.1-2.9,0.4c-0.6,0.2-1.3,0.5-1.8,0.9c-0.6,0.5-1.2,0.9-1.9,1.2c-0.7,0.2-1,1-1.8,1c0.4-0.5,0.8-0.9,1.1-1.4
	c1.3,0,1.9-0.9,2.6-1.5c0.5-0.2,0.8-0.4,1.2-0.5c1.3-0.3,2.5-0.7,3.8-0.6c1.7,0,3.1-0.4,4.4-1.4c0.9,0,1.8,0,2.7,0
	c0.6-0.8,1.8,0.1,2.4-0.7c1.1,0.1,2.1-0.3,3.1-0.3c1.4-0.1,2.6-0.4,3.9-0.9c0.7-0.3,1.6-0.4,2.3-0.5C59.1,50.2,59.9,50.2,60.7,50.2z
	"/>
<path class="st0" d="M11.7,71.7c0.3,0.1,0.5,0.3,0.8,0.4c0.6-0.8-0.5-0.9-0.5-1.4c0.3,0.1,0.6,0.2,0.9,0.2c0.1-0.2,0.2-0.6,0.3-0.9
	s0.3-0.5,0.5-0.8c0.6-1,1.1-2,1.7-3c0.2-0.3,0.4-0.4,0.7-0.6c0.1,0.5-0.2,1-0.5,1.3c-0.9,1-1.2,2.3-1.9,3.5c-0.1,0.1,0,0.2,0,0.3
	c-0.6,0.3-0.1,0.9-0.4,1.3c-0.2,0.2-0.4,0.4-0.6,0.6c0,0.5,0.1,1,0.1,1.7c0.5-1.2,0.8-2.2,1.2-3.2c-0.1-0.2-0.2-0.3-0.3-0.5
	c0.4,0,0.7,0,1.1,0c-0.2,0.3-0.3,0.4-0.4,0.5c0.4,0.2,0.9,0.4,1.3,0.7c-0.5,0.6-1,0-1.5-0.3c-0.1,0.8-0.6,1.4-0.5,2.2
	c-0.3,0.4-0.3,0.4,0,1c0-0.4,0-0.7,0-1c0.2-0.1,0.5-0.3,0.7-0.4c0,0.5-0.5,2.1-0.7,2.4c-0.1-0.1-0.2-0.2-0.3-0.3
	c-0.1-0.1-0.2-0.2-0.3-0.3c-0.1-0.1-0.2-0.2-0.3-0.3c-0.1-0.1-0.2-0.2-0.3-0.3c0.1-0.1,0.1-0.1,0.2-0.2c-0.2-0.2-0.5-0.3-0.8-0.5
	c0,0.2,0,0.4,0,0.6c0.3,0,0.5,0,0.7,0c0.1,0.1,0.2,0.2,0.3,0.3c0.1,0.1,0.2,0.2,0.3,0.3c0.1,0.1,0.2,0.2,0.3,0.3c0,0.1,0,0.2,0,0.3
	c-0.2,0-0.5,0-0.7,0c-0.1-0.1-0.2-0.2-0.3-0.3c-0.1-0.1-0.2-0.2-0.3-0.3c-0.2-0.1-0.4-0.3-0.6-0.5c0-0.4,0-0.9,0-1.5
	c0.3,0.1,0.6,0.2,0.9,0.4c0-0.4,0-0.7,0-1c-0.1,0-0.3-0.1-0.6-0.2C11.7,72.1,11.7,71.9,11.7,71.7z"/>
<path class="st0" d="M14,76.5c0.6-0.6,0.7-1.4,0.7-2.2c0.2-0.2,0.5-0.4,0.8-0.6c-0.1-0.3-0.2-0.6-0.4-1.1c0.7,0.4,1.2,0.6,1.7,0.9
	c0,0.1,0,0.2-0.1,0.2c-0.3-0.1-0.6-0.1-0.9-0.2c-0.1,0.3-0.3,0.6-0.5,1c0.3,0.3,0.7,0.5,1.3,0.9c-0.5,0-0.7,0-1.3,0.5
	c0-0.1,0.1-0.4,0.4-0.9c-0.3,0.1-0.5,0.1-0.7,0.1c0,0.3,0,0.6,0.3,0.8c0.3-0.1,0.3,0.4,0.3,1c-0.4-0.1-0.6-0.2-1-0.4
	C14.6,76.5,14.3,77.3,14,76.5z"/>
<path class="st0" d="M19.8,78.5c-0.5,0-0.3-0.4-0.3-0.7c0.1-0.1,0.3-0.2,0.3-0.3c-0.1-0.7,0.3-1.2,0.6-1.8c0.1,0.2,0.1,0.4,0.2,0.7
	c0.4,0,0.8,0,1.6,0c-0.5,0.4-0.7,0.5-0.8,0.6c-0.2-0.1-0.4-0.2-0.5-0.3C19.9,77,20.3,78,19.8,78.5z"/>
<path class="st0" d="M76,62.7c1.1-0.4,2.1-1.1,3.5-1.3C78.5,62.4,77.5,62.8,76,62.7z"/>
<path class="st0" d="M65.5,66.1c-0.4,0.3-0.8,0.6-1.2,0.8c-0.7,0.2-1.4,0.3-2.2,0.1c1.1-0.4,2.2-0.8,3.3-1.2
	C65.4,65.9,65.4,66,65.5,66.1z"/>
<path class="st0" d="M33.2,63c0.8-1,1.7-1.2,2.5-1.4C35.1,62.3,34.3,62.6,33.2,63z"/>
<path class="st0" d="M17,75.8c0,0.6,0,1.3,0,2.1c-0.4-0.2-0.7-0.4-1.1-0.6c0.3-0.1,0.5-0.2,0.8-0.3c0-0.4,0-0.8,0-1.2
	C16.9,75.8,17,75.8,17,75.8z"/>
<path class="st0" d="M30.7,58.1c-0.1,0.1-0.2,0.3-0.2,0.3c-0.8-0.2-1.2,0.4-1.8,0.7c0.1-0.3,0.2-0.7,0.3-1
	C29.7,58.1,30.2,58.1,30.7,58.1z"/>
<path class="st0" d="M19.8,78.5c0.5,0,1,0,1.5,0c-0.1,0.1-0.1,0.1-0.2,0.2c0.2,0.1,0.5,0.2,0.7,0.3c-0.1,0.1-0.1,0.1-0.2,0.2
	c-0.7-0.2-1.3-0.3-2-0.5C19.8,78.6,19.8,78.5,19.8,78.5z"/>
<path class="st0" d="M42.3,63.1c0-0.2,0-0.4,0-0.6c0.3,0,0.6,0,1,0C43.3,63.5,42.8,63.1,42.3,63.1z"/>
<path class="st0" d="M26.3,76c0.4-0.5,0.8-0.7,1.3-0.4C27.3,76.1,26.9,76.3,26.3,76z"/>
<ellipse class="st0" cx="28.9" cy="72.7" rx="0.7" ry="0.4"/>
<path class="st0" d="M81.2,60.6c0.8-0.2,1.2-0.8,2-0.3C82.6,60.5,82.2,61,81.2,60.6z"/>
<path class="st0" d="M25.2,76.8c0,0.2,0,0.4,0,0.6c-0.4,0-0.9,0-1.6,0C24.3,77.2,24.7,77,25.2,76.8z"/>
<path class="st0" d="M27.8,76.6c-0.4,0.9-0.8,1-1.5,0.8C26.7,77.1,27.1,76.9,27.8,76.6z"/>
<path class="st0" d="M19.5,77.8c-0.3,0-0.5,0-0.9,0c-0.1-0.2-0.3-0.4-0.5-0.7c0.2,0,0.5,0,0.7,0c0.1,0.1,0.2,0.2,0.3,0.3
	C19.2,77.6,19.3,77.7,19.5,77.8z"/>
<path class="st0" d="M22.9,74.4c0.3,0,0.4,0.1,0.8,0.1c-0.3,0.4-0.5,0.6-0.8,1.1C22.9,75.1,22.9,74.8,22.9,74.4z"/>
<path class="st0" d="M18.1,75.8c0-0.9-0.1-1.5,0.8-1.7C18.6,74.6,18.5,75.1,18.1,75.8z"/>
<path class="st0" d="M18.9,72.5c-0.1,0.3-0.2,0.5-0.3,0.8c-0.3-0.3-0.6-0.5-0.9-0.8C18.1,72.5,18.5,72.5,18.9,72.5z"/>
<path class="st0" d="M52.8,70.9c0.5-0.2,0.9-0.4,1.3-0.7C53.8,70.9,53.8,70.9,52.8,70.9z"/>
<path class="st0" d="M57.3,69.1c0.4-0.2,0.8-0.3,1.4-0.5C58.4,69.4,57.8,69.3,57.3,69.1z"/>
<path class="st0" d="M22.9,67.9c0-0.6,0.3-0.9,0.8-0.9C23.4,67.2,23.1,67.6,22.9,67.9z"/>
<path class="st0" d="M22.6,78.6c0.4,0,0.8,0,1.2,0c0,0.1,0,0.1,0,0.2c-0.4,0-0.8,0.1-1.2,0.1C22.6,78.7,22.6,78.7,22.6,78.6z"/>
<path class="st0" d="M58.6,49.5c-0.4,0-0.8,0-1.2,0c0-0.1,0-0.1,0-0.2c0.4,0,0.8-0.1,1.3-0.1C58.6,49.3,58.6,49.4,58.6,49.5z"/>
<path class="st0" d="M53.6,49.9c0.4,0,0.8,0,1.2,0c0,0.1,0,0.1,0,0.2c-0.4,0-0.8,0.1-1.2,0.1C53.6,50.1,53.6,50,53.6,49.9z"/>
<path class="st0" d="M82.1,50.7c0.2-0.1,0.5-0.2,0.7-0.3c0,0,0.2,0.2,0.4,0.4c-0.4,0-0.7,0.1-1,0.1C82.2,50.9,82.1,50.8,82.1,50.7z"
	/>
<path class="st0" d="M33.1,74.9c-0.3,0.2-0.4,0.8-1.1,0.4C32.4,75.1,32.5,74.5,33.1,74.9z"/>
<path class="st0" d="M19.3,71.4c-0.3-0.2-0.6-0.3-0.9-0.5C19,70.3,19.2,71,19.3,71.4z"/>
<path class="st0" d="M45.3,74c0.4-0.3,0.6-0.5,1-0.8C46,73.9,46,73.9,45.3,74z"/>
<path class="st0" d="M42.2,73c0.5,0,0.8,0.1,1.3,0.1c-0.5,0.3-0.8,0.4-1.2,0.6C42.3,73.5,42.3,73.4,42.2,73z"/>
<path class="st0" d="M36.9,74c-0.3,0-0.5,0-0.6,0c0.1-0.2,0.3-0.4,0.4-0.7C36.8,73.6,36.8,73.7,36.9,74z"/>
<path class="st0" d="M20.2,73.8c0.3,0,0.6,0,0.9,0c0,0.1,0,0.1,0,0.2c-0.3,0-0.6,0.1-0.9,0.1C20.2,74,20.2,73.9,20.2,73.8z"/>
<ellipse class="st0" cx="40.1" cy="52.8" rx="0.7" ry="0.1"/>
<path class="st0" d="M80.3,53.2c-0.2-0.1-0.4-0.2-0.7-0.4C80.4,52.7,80.4,52.7,80.3,53.2z"/>
<path class="st0" d="M17.4,74.5c0,0.3,0,0.6,0,1C17.1,74.9,17.1,74.9,17.4,74.5z"/>
<path class="st0" d="M38.1,70c-0.2,0-0.3,0-0.5,0c0-0.2,0-0.4,0-1C37.9,69.5,38,69.7,38.1,70z"/>
<path class="st0" d="M30.5,69.5c0.1-0.1,0.3-0.3,0.5-0.4C31,69.6,31,69.6,30.5,69.5z"/>
<path class="st0" d="M19.5,75.4c-0.3,0-0.5,0-0.6,0c0.1-0.2,0.3-0.4,0.4-0.7C19.5,75,19.5,75.1,19.5,75.4z"/>
<path class="st0" d="M31.2,55.5c-0.2,0.2-0.5,0.3-0.8,0.5c0-0.2,0-0.4,0-0.6C30.7,55.4,30.9,55.4,31.2,55.5
	C31.1,55.4,31.2,55.4,31.2,55.5z"/>
<path class="st0" d="M18.2,65.3c0,0,0-0.2,0-0.4c0.2,0,0.4,0,0.6,0l0.1,0.1C18.6,65.2,18.3,65.2,18.2,65.3z"/>
<path class="st0" d="M56.4,65.1c-0.3,0.1-0.4,0.1-0.7,0.1c0-0.2-0.1-0.4-0.2-1C55.9,64.7,56.1,64.9,56.4,65.1z"/>
<path class="st0" d="M18.8,77.1c0-0.3,0-0.6,0-1C19.2,76.7,19.2,76.7,18.8,77.1z"/>
<path class="st0" d="M59.6,49c0.2-0.1,0.5-0.2,0.7-0.3C60.5,49.1,60.2,49.2,59.6,49z"/>
<path class="st0" d="M57.6,63.1c-0.3,0-0.6,0-0.9,0c0-0.1,0-0.1,0-0.2c0.3,0,0.6-0.1,0.9-0.1C57.6,62.9,57.6,63,57.6,63.1z"/>
<path class="st0" d="M21.9,77.9c0.3,0,0.6,0,0.9,0c0,0.1,0,0.1,0,0.2c-0.3,0-0.6,0.1-0.9,0.1C21.9,78.1,21.9,78,21.9,77.9z"/>
<path class="st0" d="M81.2,59c0-0.2,0-0.3,0-0.5c0.2,0,0.4,0,1,0C81.6,58.7,81.4,58.9,81.2,59z"/>
<path class="st0" d="M25.9,78.8c-0.3,0-0.6,0-0.9,0c0-0.1,0-0.1,0-0.2c0.3,0,0.6-0.1,0.9-0.1C25.9,78.6,25.9,78.7,25.9,78.8z"/>
<path class="st0" d="M58.6,59.1c0,0.2,0,0.4,0,0.6c-0.1,0-0.1,0-0.2,0c0-0.2-0.1-0.4-0.1-0.6C58.4,59.2,58.5,59.2,58.6,59.1z"/>
<ellipse class="st0" cx="68" cy="59.4" rx="0.1" ry="0.5"/>
<ellipse class="st0" cx="86.6" cy="58.9" rx="0.5" ry="0.1"/>
<path class="st0" d="M78.7,59.7c-0.2,0-0.4,0-0.6,0c0-0.1,0-0.1,0-0.2c0.2,0,0.4-0.1,0.6-0.1C78.7,59.5,78.7,59.6,78.7,59.7z"/>
<path class="st0" d="M50.1,58.7c-0.2,0-0.4,0-0.6,0c0-0.1,0-0.1,0-0.2c0.2,0,0.4-0.1,0.6-0.1C50.1,58.5,50.1,58.6,50.1,58.7z"/>
<path class="st0" d="M88.3,57.8c0.2,0,0.4,0,0.6,0c0,0.1,0,0.1,0,0.2c-0.2,0-0.4,0.1-0.6,0.1C88.4,58,88.3,57.9,88.3,57.8z"/>
<path class="st0" d="M30.1,62.4c-0.2,0-0.4,0-0.7,0.1c0-0.1,0-0.1,0-0.2c0.2,0,0.4-0.1,0.7-0.1C30,62.2,30,62.3,30.1,62.4z"/>
<path class="st0" d="M76,63.1c-0.2,0-0.4,0-0.7,0.1c0-0.1,0-0.1,0-0.2c0.2,0,0.4-0.1,0.7-0.1C76,62.9,76,63,76,63.1z"/>
<ellipse class="st0" cx="56.8" cy="57" rx="0.1" ry="0.5"/>
<ellipse class="st0" cx="70.9" cy="64.4" rx="0.5" ry="0.1"/>
<ellipse class="st0" cx="89.8" cy="56.7" rx="0.1" ry="0.5"/>
<path class="st0" d="M81.7,56.6c-0.2,0-0.4,0-0.6,0c0-0.1,0-0.1,0-0.2c0.2,0,0.4-0.1,0.6-0.1C81.7,56.4,81.7,56.5,81.7,56.6z"/>
<path class="st0" d="M68.1,56.1c0,0.2,0,0.4,0,0.6c-0.1,0-0.1,0-0.2,0c0-0.2-0.1-0.4-0.1-0.6C67.9,56.1,68,56.1,68.1,56.1z"/>
<path class="st0" d="M28.7,65.3c0.2,0,0.4,0,0.7-0.1c0,0.1,0,0.1,0,0.2c-0.2,0-0.4,0.1-0.7,0.1C28.7,65.5,28.7,65.4,28.7,65.3z"/>
<ellipse class="st0" cx="60" cy="55.8" rx="0.5" ry="0.1"/>
<path class="st0" d="M58,66c0.2,0,0.4,0,0.6,0c0,0.1,0,0.1,0,0.2c-0.2,0-0.4,0.1-0.6,0.1C58,66.2,58,66.1,58,66z"/>
<path class="st0" d="M59.7,66c0.2,0,0.4,0,0.7-0.1c0,0.1,0,0.1,0,0.2c-0.2,0-0.4,0.1-0.7,0.1C59.7,66.2,59.7,66.1,59.7,66z"/>
<ellipse class="st0" cx="35.7" cy="66.9" rx="0.1" ry="0.5"/>
<path class="st0" d="M18.1,78.8c-0.2,0-0.4,0-0.7,0.1c0-0.1,0-0.1,0-0.2c0.2,0,0.4-0.1,0.7-0.1C18.1,78.6,18.1,78.7,18.1,78.8z"/>
<path class="st0" d="M18.1,78.5c0.1-0.1,0.3-0.2,0.4-0.3c0.1,0.1,0.2,0.2,0.3,0.3C18.6,78.5,18.4,78.5,18.1,78.5z"/>
<ellipse class="st0" cx="28.7" cy="68.1" rx="0.5" ry="0.1"/>
<path class="st0" d="M89.6,55c-0.5,0-0.3-0.4-0.3-0.7C89.8,54.3,89.6,54.7,89.6,55z"/>
<path class="st0" d="M35.2,77.5c-0.2,0-0.5,0-0.7,0c0.1-0.1,0.3-0.2,0.4-0.3C35,77.2,35.1,77.4,35.2,77.5z"/>
<path class="st0" d="M31.7,77.4c-0.2,0-0.4,0-0.6,0c0-0.1,0-0.1,0-0.2c0.2,0,0.4-0.1,0.6-0.1C31.7,77.2,31.7,77.3,31.7,77.4z"/>
<path class="st0" d="M29.8,76.5c0.2,0,0.4,0,0.6,0c0,0.1,0,0.1,0,0.2c-0.2,0-0.4,0.1-0.6,0.1C29.8,76.7,29.8,76.6,29.8,76.5z"/>
<ellipse class="st0" cx="37.5" cy="76.3" rx="0.5" ry="0.1"/>
<path class="st0" d="M33.8,76.1c0,0.5-0.4,0.3-0.7,0.3C33.1,75.9,33.5,76.2,33.8,76.1z"/>
<path class="st0" d="M16.4,69.2c-0.2,0-0.4,0-0.6,0c0-0.1,0-0.1,0-0.2c0.2,0,0.4-0.1,0.6-0.1C16.3,69,16.4,69.1,16.4,69.2z"/>
<path class="st0" d="M33.8,75.8c0.2,0,0.4,0,0.7-0.1c0,0.1,0,0.1,0,0.2c-0.2,0-0.4,0.1-0.7,0.1C33.8,76,33.8,75.9,33.8,75.8z"/>
<path class="st0" d="M23.6,75.8c0.2,0,0.4,0,0.6,0c0,0.1,0,0.1,0,0.2c-0.2,0-0.4,0.1-0.6,0.1C23.6,76,23.6,75.9,23.6,75.8z"/>
<path class="st0" d="M37.5,75.7c-0.2,0-0.4,0-0.6,0c0-0.1,0-0.1,0-0.2c0.2,0,0.4-0.1,0.6-0.1C37.5,75.5,37.5,75.6,37.5,75.7z"/>
<path class="st0" d="M17.7,76.3c0.1-0.4,0.2-0.6,0.2-0.8C18,75.7,18,75.8,18,76C18.1,76,18,76,17.7,76.3z"/>
<path class="st0" d="M78.3,51.2c-0.2,0-0.4,0-0.6,0c0-0.1,0-0.1,0-0.2c0.2,0,0.4-0.1,0.6-0.1C78.3,51,78.3,51.1,78.3,51.2z"/>
<ellipse class="st0" cx="29.7" cy="74.6" rx="0.5" ry="0.1"/>
<path class="st0" d="M44,74.4c-0.2,0-0.4,0-0.6,0c0-0.1,0-0.1,0-0.2c0.2,0,0.4-0.1,0.6-0.1C43.9,74.2,43.9,74.3,44,74.4z"/>
<ellipse class="st0" cx="70.6" cy="53.1" rx="0.5" ry="0.1"/>
<path class="st0" d="M28.3,70.6c-0.2,0-0.4,0-0.6,0c0-0.1,0-0.1,0-0.2c0.2,0,0.4-0.1,0.6-0.1C28.3,70.4,28.3,70.5,28.3,70.6z"/>
<path class="st0" d="M17.8,73.6c-0.1,0.4-0.2,0.6-0.2,0.8c-0.1-0.2-0.1-0.3-0.1-0.5C17.4,73.9,17.6,73.8,17.8,73.6z"/>
<path class="st0" d="M26.2,70.9c-0.2,0-0.4,0-0.6,0c0-0.1,0-0.1,0-0.2c0.2,0,0.4-0.1,0.6-0.1C26.2,70.7,26.2,70.8,26.2,70.9z"/>
<path class="st0" d="M61.8,52.3c0.2,0,0.4,0,0.6,0c0,0.1,0,0.1,0,0.2c-0.2,0-0.4,0.1-0.6,0.1C61.8,52.5,61.8,52.4,61.8,52.3z"/>
<ellipse class="st0" cx="76" cy="52.4" rx="0.5" ry="0.1"/>
<path class="st0" d="M44.7,72.8c0.2,0,0.4,0,0.6,0c0,0.1,0,0.1,0,0.2c-0.2,0-0.4,0.1-0.6,0.1C44.8,73,44.8,72.9,44.7,72.8z"/>
<path class="st0" d="M33.7,73c-0.2,0-0.4,0-0.6,0c0-0.1,0-0.1,0-0.2c0.2,0,0.4-0.1,0.6-0.1C33.7,72.8,33.7,72.9,33.7,73z"/>
<path class="st0" d="M21.8,73.5c0.1-0.4,0.2-0.6,0.2-0.8c0.1,0.2,0.1,0.3,0.1,0.5C22.2,73.2,22.1,73.3,21.8,73.5z"/>
<path class="st0" d="M14.8,72.5c-0.1,0.4-0.2,0.6-0.2,0.8c-0.1-0.2-0.1-0.3-0.1-0.5C14.4,72.9,14.5,72.8,14.8,72.5z"/>
<ellipse class="st0" cx="85.4" cy="52.6" rx="0.1" ry="0.5"/>
<path class="st0" d="M40.9,71.3c-0.2,0-0.4,0-0.6,0c0-0.1,0-0.1,0-0.2c0.2,0,0.4-0.1,0.6-0.1C40.9,71.1,40.9,71.2,40.9,71.3z"/>
<path class="st0" d="M50.2,72.1c0.2,0,0.4,0,0.6,0c0,0.1,0,0.1,0,0.2c-0.2,0-0.4,0.1-0.6,0.1C50.2,72.3,50.2,72.2,50.2,72.1z"/>
<path class="st0" d="M22.6,71.9c-0.1,0.4-0.2,0.6-0.2,0.8c-0.1-0.2-0.1-0.3-0.1-0.5C22.2,72.2,22.3,72.1,22.6,71.9z"/>
<path class="st0" d="M21.5,72c-0.2,0-0.4,0-0.6,0c0-0.1,0-0.1,0-0.2c0.2,0,0.4-0.1,0.6-0.1C21.5,71.8,21.5,71.9,21.5,72z"/>
<ellipse class="st0" cx="25.1" cy="71.9" rx="0.1" ry="0.2"/>
<ellipse class="st0" cx="48.6" cy="71.9" rx="0.2" ry="0.1"/>
<ellipse class="st0" cx="65.6" cy="52.8" rx="0.1" ry="0.2"/>
<ellipse class="st0" cx="83" cy="52.8" rx="0.1" ry="0.2"/>
<path class="st0" d="M87.9,52.6c0.1,0.1,0.2,0.2,0.3,0.3C88.2,52.8,88,52.7,87.9,52.6z"/>
<ellipse class="st0" cx="26.1" cy="72.5" rx="0.2" ry="0.1"/>
<ellipse class="st0" cx="30.6" cy="72.5" rx="0.1" ry="0.2"/>
<ellipse class="st0" cx="47.9" cy="72.5" rx="0.1" ry="0.2"/>
<path class="st0" d="M87.9,52.7c-0.1-0.1-0.2-0.2-0.3-0.2l0.1-0.1C87.8,52.4,87.9,52.5,87.9,52.7C87.9,52.6,87.9,52.6,87.9,52.7z"/>
<ellipse class="st0" cx="41.5" cy="52.4" rx="0.2" ry="0.1"/>
<ellipse class="st0" cx="21.7" cy="73.9" rx="0.1" ry="0.2"/>
<ellipse class="st0" cx="24.1" cy="73.9" rx="0.1" ry="0.2"/>
<path class="st0" d="M38.5,74c0.1-0.1,0.2-0.2,0.2-0.3l0.1,0.1C38.8,73.9,38.7,74,38.5,74C38.6,74.1,38.5,74.1,38.5,74z"/>
<ellipse class="st0" cx="35" cy="70.5" rx="0.2" ry="0.1"/>
<ellipse class="st0" cx="73.1" cy="53.1" rx="0.1" ry="0.2"/>
<path class="st0" d="M38.6,74.1c-0.1,0.1-0.2,0.2-0.2,0.3l-0.1-0.1C38.3,74.2,38.4,74.1,38.6,74.1C38.5,74.1,38.6,74.1,38.6,74.1z"
	/>
<path class="st0" d="M88.3,52.9c0.1,0.1,0.2,0.2,0.3,0.2l-0.1,0.1C88.4,53.2,88.3,53.1,88.3,52.9C88.3,53,88.3,52.9,88.3,52.9z"/>
<ellipse class="st0" cx="44.9" cy="51.4" rx="0.2" ry="0.1"/>
<ellipse class="st0" cx="50" cy="50.7" rx="0.2" ry="0.1"/>
<path class="st0" d="M12,75.4c-0.1-0.1-0.2-0.2-0.3-0.2c0.1,0,0.2-0.1,0.3-0.1C12,75.2,12,75.3,12,75.4z"/>
<ellipse class="st0" cx="21" cy="75.3" rx="0.1" ry="0.2"/>
<path class="st0" d="M28.6,75.4c0.1-0.1,0.2-0.2,0.2-0.3l0.1,0.1C28.9,75.3,28.8,75.4,28.6,75.4C28.7,75.4,28.7,75.4,28.6,75.4z"/>
<path class="st0" d="M57.3,69.6c-0.1-0.1-0.2-0.2-0.3-0.2c0.1,0,0.2-0.1,0.3-0.1C57.3,69.4,57.3,69.5,57.3,69.6z"/>
<path class="st0" d="M12.3,75.8c-0.1-0.1-0.2-0.2-0.3-0.3c0.1,0,0.2,0,0.3,0C12.3,75.5,12.3,75.7,12.3,75.8z"/>
<ellipse class="st0" cx="14.9" cy="69.5" rx="0.2" ry="0.1"/>
<path class="st0" d="M28.7,75.5c-0.1,0.1-0.2,0.2-0.2,0.3l-0.1-0.1C28.5,75.6,28.6,75.5,28.7,75.5C28.7,75.4,28.7,75.4,28.7,75.5z"
	/>
<path class="st0" d="M12.7,75.8c-0.1,0.1-0.2,0.2-0.2,0.3c0-0.1-0.1-0.2-0.1-0.3C12.4,75.8,12.6,75.8,12.7,75.8z"/>
<path class="st0" d="M13.7,75.8c0,0.1,0,0.2,0,0.3c-0.1-0.1-0.2-0.2-0.3-0.3C13.5,75.8,13.6,75.8,13.7,75.8z"/>
<ellipse class="st0" cx="49.3" cy="69.1" rx="0.1" ry="0.2"/>
<path class="st0" d="M21.9,69c-0.1,0.1-0.2,0.2-0.2,0.3l-0.1-0.1C21.7,69.1,21.7,69,21.9,69C21.9,68.9,21.9,69,21.9,69z"/>
<ellipse class="st0" cx="20.7" cy="69.1" rx="0.1" ry="0.2"/>
<path class="st0" d="M13.7,76.1c0.1,0.1,0.2,0.2,0.3,0.3C13.9,76.3,13.8,76.2,13.7,76.1z"/>
<ellipse class="st0" cx="25.1" cy="76.3" rx="0.1" ry="0.2"/>
<path class="st0" d="M21.9,69c0.1-0.1,0.2-0.2,0.3-0.3C22.1,68.7,22,68.8,21.9,69z"/>
<path class="st0" d="M33.1,76.5c-0.1,0.1-0.2,0.2-0.2,0.3l-0.1-0.1C32.9,76.6,33,76.5,33.1,76.5C33.1,76.4,33.1,76.5,33.1,76.5z"/>
<path class="st0" d="M89.3,54.4c-0.1-0.1-0.2-0.2-0.3-0.2l0.1-0.1C89.2,54.1,89.3,54.2,89.3,54.4C89.3,54.3,89.3,54.3,89.3,54.4z"/>
<path class="st0" d="M18.1,77.2C18,77.1,17.9,77,17.8,77l0.1-0.1C18,76.9,18.1,77,18.1,77.2C18.1,77.1,18.1,77.1,18.1,77.2z"/>
<path class="st0" d="M22.6,68.3c-0.1,0.1-0.2,0.2-0.3,0.3C22.3,68.5,22.4,68.4,22.6,68.3z"/>
<ellipse class="st0" cx="69.7" cy="47.7" rx="0.2" ry="0.1"/>
<ellipse class="st0" cx="21" cy="78" rx="0.1" ry="0.2"/>
<ellipse class="st0" cx="30.6" cy="78" rx="0.2" ry="0.1"/>
<ellipse class="st0" cx="62.6" cy="54.5" rx="0.1" ry="0.2"/>
<path class="st0" d="M22.6,68.3c0.1-0.1,0.2-0.2,0.3-0.3C22.8,68.1,22.7,68.2,22.6,68.3z"/>
<path class="st0" d="M18.8,78.5c0.1,0.1,0.2,0.2,0.3,0.2L19,78.8C18.9,78.7,18.8,78.6,18.8,78.5L18.8,78.5z"/>
<ellipse class="st0" cx="60.9" cy="67.8" rx="0.1" ry="0.2"/>
<ellipse class="st0" cx="16.9" cy="67.8" rx="0.1" ry="0.2"/>
<path class="st0" d="M61.7,67.6c-0.1-0.1-0.2-0.2-0.3-0.2l0.1-0.1C61.6,67.4,61.7,67.5,61.7,67.6L61.7,67.6z"/>
<ellipse class="st0" cx="42.8" cy="67.4" rx="0.1" ry="0.2"/>
<ellipse class="st0" cx="74.8" cy="54.8" rx="0.1" ry="0.2"/>
<path class="st0" d="M31.1,55c0.1,0.1,0.2,0.2,0.3,0.2c-0.1,0-0.2,0.1-0.3,0.1C31.1,55.2,31.1,55.1,31.1,55z"/>
<ellipse class="st0" cx="51.3" cy="66.7" rx="0.1" ry="0.2"/>
<ellipse class="st0" cx="16.3" cy="66.7" rx="0.1" ry="0.2"/>
<ellipse class="st0" cx="85.7" cy="55.2" rx="0.1" ry="0.2"/>
<path class="st0" d="M89.7,55c0.1,0.1,0.2,0.2,0.3,0.2l-0.1,0.1C89.8,55.2,89.7,55.1,89.7,55C89.6,55,89.6,55,89.7,55z"/>
<path class="st0" d="M59.7,66.3c-0.1,0.1-0.2,0.2-0.2,0.3l-0.1-0.1C59.5,66.4,59.5,66.3,59.7,66.3C59.7,66.2,59.7,66.2,59.7,66.3z"
	/>
<path class="st0" d="M28,66.3c-0.1,0.1-0.2,0.2-0.2,0.3l-0.1-0.1C27.8,66.4,27.9,66.3,28,66.3C28,66.2,28,66.2,28,66.3z"/>
<ellipse class="st0" cx="17.6" cy="66.4" rx="0.1" ry="0.2"/>
<path class="st0" d="M28,66.2c0.1-0.1,0.2-0.2,0.3-0.3C28.2,66,28.1,66.1,28,66.2z"/>
<path class="st0" d="M28.3,65.9c0.1-0.1,0.2-0.2,0.3-0.3C28.6,65.7,28.5,65.8,28.3,65.9z"/>
<path class="st0" d="M16,65.5c0.1-0.1,0.2-0.2,0.2-0.3l0.1,0.1C16.3,65.4,16.2,65.5,16,65.5C16.1,65.6,16.1,65.5,16,65.5z"/>
<ellipse class="st0" cx="72.1" cy="56.2" rx="0.1" ry="0.2"/>
<ellipse class="st0" cx="37.7" cy="65" rx="0.2" ry="0.1"/>
<ellipse class="st0" cx="85.7" cy="56.5" rx="0.2" ry="0.1"/>
<ellipse class="st0" cx="48.6" cy="64.7" rx="0.2" ry="0.1"/>
<ellipse class="st0" cx="46.2" cy="64.7" rx="0.1" ry="0.2"/>
<ellipse class="st0" cx="58.8" cy="64.4" rx="0.1" ry="0.2"/>
<ellipse class="st0" cx="19.3" cy="63.7" rx="0.2" ry="0.1"/>
<ellipse class="st0" cx="77.5" cy="56.9" rx="0.1" ry="0.2"/>
<path class="st0" d="M18.2,63.2c-0.1,0.1-0.2,0.2-0.2,0.3l-0.1-0.1C17.9,63.3,18,63.2,18.2,63.2C18.1,63.2,18.1,63.2,18.2,63.2z"/>
<path class="st0" d="M33.5,62.9c-0.1,0.1-0.2,0.2-0.2,0.3l-0.1-0.1C33.2,63,33.3,62.9,33.5,62.9C33.4,62.8,33.5,62.8,33.5,62.9z"/>
<path class="st0" d="M18.1,63.1c0.1-0.1,0.2-0.2,0.2-0.3l0.1,0.1C18.3,63,18.2,63.1,18.1,63.1C18.1,63.2,18.1,63.2,18.1,63.1z"/>
<ellipse class="st0" cx="63.6" cy="57.2" rx="0.1" ry="0.2"/>
<ellipse class="st0" cx="84" cy="57.2" rx="0.2" ry="0.1"/>
<path class="st0" d="M30,62.1c0.1-0.1,0.2-0.2,0.2-0.3l0.1,0.1C30.3,62,30.2,62.1,30,62.1C30.1,62.2,30,62.1,30,62.1z"/>
<path class="st0" d="M39.6,61.5c-0.1,0.1-0.2,0.2-0.2,0.3l-0.1-0.1C39.4,61.6,39.5,61.5,39.6,61.5L39.6,61.5z"/>
<ellipse class="st0" cx="55.8" cy="61.3" rx="0.1" ry="0.2"/>
<path class="st0" d="M39.5,61.4c0.1-0.1,0.2-0.2,0.2-0.3l0.1,0.1C39.8,61.3,39.7,61.4,39.5,61.4C39.6,61.5,39.6,61.5,39.5,61.4z"/>
<path class="st0" d="M21.5,60.1c0.1,0,0.2,0,0.3,0c-0.1,0.1-0.2,0.2-0.2,0.3C21.6,60.3,21.6,60.2,21.5,60.1z"/>
<path class="st0" d="M21.9,60.1c0-0.1,0-0.2,0-0.3c0.1,0.1,0.2,0.2,0.3,0.2C22.1,60,22,60.1,21.9,60.1z"/>
<ellipse class="st0" cx="62.6" cy="59.6" rx="0.1" ry="0.2"/>
<ellipse class="st0" cx="44.5" cy="58.9" rx="0.2" ry="0.1"/>
<ellipse class="st0" cx="23.4" cy="59.3" rx="0.2" ry="0.1"/>
<path class="st0" d="M27.3,92.5c0.4,0,0.8,0,1.3,0c0,0.1,0,0.1,0,0.2c-0.3,0.1-0.6,0.1-1,0.2c0,0.1,0,0.2-0.1,0.5
	c0.6,0.1,1.1,0.1,1.8,0.2c-0.2,0.2-0.3,0.3-0.5,0.5c0.6,0,1.2,0.1,2.1,0.1c-0.8,0.3-1.2,0.4-1.7,0.6c-0.3-0.1-0.7-0.7-1.2,0
	C27.5,94.2,27.2,93.4,27.3,92.5z M28.7,94.1c0-0.1,0-0.1,0-0.2c-0.2,0-0.5,0-0.7,0c0,0.1,0,0.1,0,0.2C28.2,94.1,28.5,94.1,28.7,94.1
	z"/>
<path class="st0" d="M25,94.9c0.1-0.1,0.3-0.2,0.5-0.4c0.1,0.1,0.2,0.2,0.3,0.3c0.4-0.2,0.7-0.4,1.2-0.6c0,0.2,0.1,0.3,0.1,0.5
	C25.7,95.3,25.7,95.3,25,94.9z"/>
<path class="st0" d="M47.1,90.1c0.2,0.1,0.4,0.3,0.7,0.4c-0.6,0.6-1.3,0.6-2,0.6c0.1-0.1,0.3-0.3,0.4-0.3
	C46.6,90.8,46.9,90.6,47.1,90.1z"/>
<ellipse class="st0" cx="33.3" cy="94" rx="1.2" ry="0.1"/>
<path class="st0" d="M31.1,93.2c0.5,0,1.1,0,1.6,0C32.2,93.6,31.7,93.4,31.1,93.2z"/>
<path class="st0" d="M40.6,91.8c0-0.3,0-0.7,0-1c0.4,0.4,0.5,0.7,0.6,1.3C41,92,40.8,91.9,40.6,91.8z"/>
<path class="st0" d="M24.9,94.8c-0.3,0-0.6,0-1,0c-0.1,0-0.3-0.2-0.4-0.3c0.3,0,0.6,0,1,0C24.7,94.5,24.8,94.7,24.9,94.8z"/>
<path class="st0" d="M60.3,86.3c0.6-0.4,0.9-0.5,1.2-0.7c0.1,0.1,0.1,0.1,0.2,0.2c-0.2,0.2-0.3,0.4-0.5,0.5
	C61.1,86.3,60.9,86.3,60.3,86.3z"/>
<path class="st0" d="M49.4,89.8c0,0.2,0,0.4,0,0.6c-0.3,0-0.6,0-1.2,0C48.8,90.1,49.1,89.9,49.4,89.8z"/>
<path class="st0" d="M54.2,88.3c0.5,0,0.8,0.1,1.3,0.1c-0.5,0.3-0.8,0.4-1.2,0.6C54.3,88.8,54.2,88.7,54.2,88.3z"/>
<path class="st0" d="M57.9,87.6c-0.4,0-0.8,0-1.2,0c0-0.1,0-0.1,0-0.2c0.4,0,0.8-0.1,1.2-0.1C57.9,87.4,57.9,87.5,57.9,87.6z"/>
<path class="st0" d="M64,85.2c-0.3,0-0.6,0-0.9,0c0-0.1,0-0.1,0-0.2c0.3,0,0.6-0.1,0.9-0.1C64,85,64,85.1,64,85.2z"/>
<path class="st0" d="M42.1,91.3c0.2,0.2,0.3,0.5,0.5,0.8c-0.2,0-0.4,0-0.6,0c0-0.3,0-0.5,0-0.7C42,91.4,42.1,91.3,42.1,91.3z"/>
<path class="st0" d="M39.6,91.8c0.3,0,0.7,0,1,0C40.3,92.2,39.9,92.2,39.6,91.8z"/>
<path class="st0" d="M31,92.7c-0.3,0-0.6,0-0.9,0c0-0.1,0-0.1,0-0.2c0.3,0,0.6-0.1,0.9-0.1C31,92.5,31,92.6,31,92.7z"/>
<path class="st0" d="M39.9,92.5c0.3,0,0.7,0,1,0c0,0.1,0,0.2,0,0.2c-0.3,0-0.7,0.1-1,0.1C39.9,92.7,39.9,92.6,39.9,92.5z"/>
<path class="st0" d="M39.9,93.1c-0.2,0-0.4,0.1-0.6,0.1c-0.1,0-0.3-0.1-0.4-0.2c0.3,0,0.7-0.1,1-0.1C39.9,92.9,39.9,93,39.9,93.1z"
	/>
<path class="st0" d="M71.2,81.7c-0.5,0.2-0.7,0.3-0.8,0.3C70.2,81.6,70.2,81.6,71.2,81.7z"/>
<path class="st0" d="M68.6,81.5c0-0.2,0-0.3,0-0.5c0.2,0,0.4,0,1,0C69,81.2,68.8,81.3,68.6,81.5z"/>
<path class="st0" d="M22.8,94.2c0,0.2,0,0.4,0.1,0.7c-0.1,0-0.1,0-0.2,0c0-0.2-0.1-0.4-0.1-0.7C22.6,94.2,22.7,94.2,22.8,94.2z"/>
<path class="st0" d="M23.6,94.5c-0.5,0-0.3-0.4-0.3-0.7C23.7,93.8,23.5,94.2,23.6,94.5z"/>
<path class="st0" d="M26.6,93.1c0,0.2,0,0.4,0.1,0.7c-0.1,0-0.1,0-0.2,0c0-0.2-0.1-0.4-0.1-0.7C26.4,93.1,26.5,93.1,26.6,93.1z"/>
<path class="st0" d="M43,91.5c0.2,0,0.4,0,0.6,0c0,0.1,0,0.1,0,0.2c-0.2,0-0.4,0.1-0.6,0.1C43.1,91.7,43.1,91.6,43,91.5z"/>
<path class="st0" d="M45,91.4c0-0.5,0.4-0.3,0.7-0.3C45.7,91.6,45.3,91.4,45,91.4z"/>
<path class="st0" d="M68.9,83.9c-0.2,0-0.4,0-0.7,0.1c0-0.1,0-0.1,0-0.2c0.2,0,0.4-0.1,0.7-0.1C68.9,83.7,68.9,83.8,68.9,83.9z"/>
<path class="st0" d="M72,82c0.2,0,0.4,0,0.6,0c0,0.1,0,0.1,0,0.2c-0.2,0-0.4,0.1-0.6,0.1C72,82.2,72,82.1,72,82z"/>
<path class="st0" d="M78.1,79.5c0-0.2,0-0.4-0.1-0.7c0.1,0,0.1,0,0.2,0c0,0.2,0.1,0.4,0.1,0.7C78.3,79.5,78.2,79.5,78.1,79.5z"/>
<path class="st0" d="M85.9,75.8c0,0.5-0.4,0.3-0.7,0.3C85.2,75.6,85.6,75.8,85.9,75.8z"/>
<path class="st0" d="M85.9,75.5c0.2,0,0.4,0,0.7-0.1c0,0.1,0,0.1,0,0.2c-0.2,0-0.4,0.1-0.7,0.1C85.9,75.7,85.9,75.6,85.9,75.5z"/>
<path class="st0" d="M86.4,75.1C86,75,85.8,75,85.6,74.9c0.2-0.1,0.3-0.1,0.5-0.1C86.1,74.8,86.1,74.9,86.4,75.1z"/>
<path class="st0" d="M88.9,73.7c0.1-0.1,0.2-0.2,0.2-0.3l0.1,0.1C89.2,73.6,89.1,73.7,88.9,73.7C89,73.7,88.9,73.7,88.9,73.7z"/>
<path class="st0" d="M88.6,74.1c0.1-0.1,0.2-0.2,0.3-0.3C88.8,73.8,88.7,74,88.6,74.1z"/>
<path class="st0" d="M88.3,74.4c0.1-0.1,0.2-0.2,0.3-0.3C88.5,74.2,88.4,74.3,88.3,74.4z"/>
<path class="st0" d="M88.3,74.4c-0.1,0.1-0.2,0.2-0.2,0.3L88,74.6C88.1,74.5,88.2,74.5,88.3,74.4L88.3,74.4z"/>
<path class="st0" d="M87.2,75.4c0.1-0.1,0.2-0.2,0.2-0.3l0.1,0.1C87.5,75.3,87.4,75.4,87.2,75.4C87.3,75.4,87.2,75.4,87.2,75.4z"/>
<path class="st0" d="M87.3,75.4c0,0.1,0,0.2,0,0.3c-0.1-0.1-0.2-0.2-0.3-0.2C87.1,75.5,87.2,75.5,87.3,75.4z"/>
<path class="st0" d="M85.2,76.1c-0.1,0.1-0.2,0.2-0.2,0.3l-0.1-0.1C85,76.2,85.1,76.2,85.2,76.1L85.2,76.1z"/>
<path class="st0" d="M82.8,77.4c0.1-0.1,0.2-0.2,0.2-0.3l0.1,0.1C83,77.4,83,77.4,82.8,77.4C82.8,77.5,82.8,77.5,82.8,77.4z"/>
<path class="st0" d="M82.9,77.5c-0.1,0.1-0.2,0.2-0.2,0.3l-0.1-0.1C82.6,77.6,82.7,77.5,82.9,77.5C82.8,77.5,82.8,77.5,82.9,77.5z"
	/>
<path class="st0" d="M77.4,77.8c0.1,0.1,0.2,0.2,0.3,0.2l-0.1,0.1C77.5,78,77.4,77.9,77.4,77.8L77.4,77.8z"/>
<path class="st0" d="M79.7,78.1c0.1-0.1,0.2-0.2,0.2-0.3l0.1,0.1C80,78,79.9,78.1,79.7,78.1C79.8,78.2,79.7,78.1,79.7,78.1z"/>
<path class="st0" d="M79.8,78.2c-0.1,0.1-0.2,0.2-0.2,0.3l-0.1-0.1C79.5,78.3,79.6,78.2,79.8,78.2C79.8,78.1,79.8,78.2,79.8,78.2z"
	/>
<ellipse class="st0" cx="79.9" cy="79" rx="0.2" ry="0.1"/>
<path class="st0" d="M78.7,79.9c-0.1-0.1-0.2-0.2-0.3-0.3C78.5,79.6,78.6,79.7,78.7,79.9z"/>
<ellipse class="st0" cx="72.4" cy="81.1" rx="0.2" ry="0.1"/>
<ellipse class="st0" cx="67.7" cy="83.1" rx="0.2" ry="0.1"/>
<path class="st0" d="M68.8,83.6c0.1-0.1,0.2-0.2,0.2-0.3l0.1,0.1C69.1,83.5,69,83.6,68.8,83.6C68.9,83.6,68.9,83.6,68.8,83.6z"/>
<ellipse class="st0" cx="60.2" cy="86.5" rx="0.1" ry="0.2"/>
<ellipse class="st0" cx="53" cy="88.2" rx="0.1" ry="0.2"/>
<ellipse class="st0" cx="52.7" cy="88.9" rx="0.2" ry="0.1"/>
<path class="st0" d="M48.1,89.8c-0.1-0.1-0.2-0.2-0.3-0.2l0.1-0.1C48,89.5,48,89.6,48.1,89.8C48.1,89.7,48.1,89.7,48.1,89.8z"/>
<ellipse class="st0" cx="45.9" cy="89.9" rx="0.1" ry="0.2"/>
<path class="st0" d="M48.4,90.1c-0.1-0.1-0.2-0.2-0.3-0.3C48.2,89.8,48.3,90,48.4,90.1z"/>
<path class="st0" d="M41.9,91.5c-0.1-0.1-0.2-0.2-0.3-0.2l0.1-0.1C41.8,91.2,41.9,91.3,41.9,91.5C42,91.4,42,91.5,41.9,91.5z"/>
<path class="st0" d="M45.1,91.5c-0.1,0.1-0.2,0.2-0.2,0.3l-0.1-0.1C44.8,91.6,44.9,91.5,45.1,91.5C45,91.4,45,91.4,45.1,91.5z"/>
<ellipse class="st0" cx="44.2" cy="91.9" rx="0.2" ry="0.1"/>
<ellipse class="st0" cx="36" cy="93.7" rx="0.1" ry="0.2"/>
<ellipse class="st0" cx="24.1" cy="94" rx="0.1" ry="0.2"/>
<ellipse class="st0" cx="25.1" cy="94" rx="0.1" ry="0.2"/>
<ellipse class="st0" cx="31.6" cy="94.3" rx="0.1" ry="0.2"/>
<path class="st0" d="M38.6,57c0-0.1,0-0.3,0-0.5c-0.2-0.1-0.4-0.2-0.7-0.3c0.9-0.5,1.6,0.3,2.4,0.4C39.7,56.7,39.1,56.8,38.6,57z"/>
<path class="st0" d="M27.3,61.6c-0.7,0.4-1.3,0.8-2,1.2c-0.4-1,0.8-0.7,1-1.2C26.5,61.3,27,61.3,27.3,61.6z"/>
<path class="st0" d="M48.8,54.9c-0.3,0-0.7,0-1,0c0-0.1,0-0.2,0-0.2c0.3,0,0.7-0.1,1-0.1C48.8,54.7,48.8,54.8,48.8,54.9z"/>
<path class="st0" d="M67.4,49.2c0,0.3,0,0.7,0,1c-0.1,0-0.2,0-0.2,0c0-0.3-0.1-0.7-0.1-1C67.2,49.2,67.3,49.2,67.4,49.2z"/>
<path class="st0" d="M35.6,56.8c0.3,0,0.6,0,0.9,0c0,0.1,0,0.1,0,0.2c-0.3,0-0.6,0.1-0.9,0.1C35.6,57,35.6,56.9,35.6,56.8z"/>
<path class="st0" d="M34.4,58.3c-0.2,0-0.4,0-0.6,0c0-0.1,0-0.1,0-0.2c0.2,0,0.4-0.1,0.6-0.1C34.4,58.2,34.4,58.2,34.4,58.3z"/>
<path class="st0" d="M41.6,57c-0.2,0-0.4,0-0.7,0.1c0-0.1,0-0.1,0-0.2c0.2,0,0.4-0.1,0.7-0.1C41.6,56.8,41.6,56.9,41.6,57z"/>
<path class="st0" d="M42.6,56c0,0.5-0.4,0.3-0.7,0.3C42,55.9,42.4,56.1,42.6,56z"/>
<path class="st0" d="M41.6,56c-0.2,0-0.4,0-0.6,0c0-0.1,0-0.1,0-0.2c0.2,0,0.4-0.1,0.6-0.1C41.5,55.8,41.6,55.9,41.6,56z"/>
<path class="st0" d="M45.4,54.7c0,0.5-0.4,0.3-0.7,0.3C44.7,54.5,45.1,54.7,45.4,54.7z"/>
<path class="st0" d="M50.7,54.3c0.4,0.1,0.6,0.2,0.8,0.2c-0.2,0.1-0.3,0.1-0.5,0.1C51,54.7,50.9,54.5,50.7,54.3z"/>
<path class="st0" d="M48.8,54.4c0.2,0,0.4,0,0.7-0.1c0,0.1,0,0.1,0,0.2c-0.2,0-0.4,0.1-0.7,0.1C48.8,54.6,48.8,54.5,48.8,54.4z"/>
<path class="st0" d="M47.4,53.9c-0.2,0-0.4,0-0.6,0c0-0.1,0-0.1,0-0.2c0.2,0,0.4-0.1,0.6-0.1C47.3,53.7,47.3,53.8,47.4,53.9z"/>
<path class="st0" d="M49.7,53.6c-0.2,0-0.4,0-0.6,0c0-0.1,0-0.1,0-0.2c0.2,0,0.4-0.1,0.6-0.1C49.7,53.4,49.7,53.5,49.7,53.6z"/>
<path class="st0" d="M62.6,50.6c-0.4-0.1-0.6-0.2-0.8-0.2c0.2-0.1,0.3-0.1,0.5-0.1C62.2,50.2,62.3,50.4,62.6,50.6z"/>
<path class="st0" d="M55.6,53c-0.1-0.1-0.2-0.2-0.3-0.2l0.1-0.1C55.5,52.7,55.5,52.8,55.6,53C55.6,52.9,55.6,53,55.6,53z"/>
<path class="st0" d="M57.6,52.6c-0.1-0.1-0.2-0.2-0.3-0.3C57.4,52.4,57.5,52.5,57.6,52.6z"/>
<path class="st0" d="M53.9,52.3c-0.1,0.1-0.2,0.2-0.2,0.3l-0.1-0.1C53.7,52.4,53.8,52.3,53.9,52.3L53.9,52.3z"/>
<path class="st0" d="M54.5,53.3c-0.1-0.1-0.2-0.2-0.3-0.2l0.1-0.1C54.4,53.1,54.5,53.2,54.5,53.3C54.6,53.3,54.6,53.3,54.5,53.3z"/>
<path class="st0" d="M71.9,49.6c-0.1-0.1-0.2-0.2-0.3-0.2l0.1-0.1C71.8,49.3,71.9,49.4,71.9,49.6C71.9,49.5,71.9,49.6,71.9,49.6z"/>
<path class="st0" d="M45.3,54.6c0.1-0.1,0.2-0.2,0.2-0.3l0.1,0.1C45.6,54.5,45.5,54.6,45.3,54.6C45.4,54.7,45.4,54.6,45.3,54.6z"/>
<path class="st0" d="M43.7,55c0.1-0.1,0.2-0.2,0.3-0.3C43.9,54.8,43.8,54.9,43.7,55z"/>
<path class="st0" d="M43.3,55.3c0.1-0.1,0.2-0.2,0.3-0.3C43.6,55.1,43.4,55.2,43.3,55.3z"/>
<path class="st0" d="M44.7,55c-0.1,0.1-0.2,0.2-0.2,0.3l-0.1-0.1C44.5,55.1,44.6,55,44.7,55L44.7,55z"/>
<path class="st0" d="M43,55.7c0.1-0.1,0.2-0.2,0.3-0.3C43.2,55.5,43.1,55.6,43,55.7z"/>
<path class="st0" d="M43,55.7c-0.1,0.1-0.2,0.2-0.3,0.3C42.8,55.9,42.9,55.8,43,55.7z"/>
<path class="st0" d="M41.6,56.7c0.1-0.1,0.2-0.2,0.3-0.3C41.8,56.5,41.7,56.6,41.6,56.7z"/>
<path class="st0" d="M38.2,57.1c-0.1-0.1-0.2-0.2-0.3-0.2l0.1-0.1C38.1,56.8,38.2,56.9,38.2,57.1C38.2,57,38.2,57.1,38.2,57.1z"/>
<path class="st0" d="M38.6,57c-0.1,0.1-0.2,0.2-0.2,0.3c0-0.1-0.1-0.2-0.1-0.3C38.3,57,38.4,57,38.6,57z"/>
<path class="st0" d="M63.1,80.2c-0.5,0-0.8-0.3-1.2-0.6c0.1-0.2,0.2-0.4,0.3-0.5c0.7-0.7,1.4-1.2,2.4-1c0.4,0.6,0.4,0.6,0.4,1.5
	C64.4,80,63.8,80.3,63.1,80.2c0.6-0.3,1.2-0.1,1.7-1C64.1,79.2,63.5,79,63.1,80.2z"/>
<path class="st0" d="M67.1,74.3c0.2-0.2,0.3-0.3,0.6-0.6c0.2,0.3,0.4,0.5,0.6,0.8C67.6,75.1,67.5,74.4,67.1,74.3z"/>
<path class="st0" d="M58.7,80.6c0.2,0,0.4,0,0.6,0c0,0.1,0,0.1,0,0.2c-0.2,0-0.4,0.1-0.6,0.1C58.7,80.8,58.7,80.7,58.7,80.6z"/>
<path class="st0" d="M63.4,75.8c0.1,0,0.2,0,0.3,0c-0.1,0.3,0.2,0.7-0.3,0.7C63.4,76.2,63.4,76,63.4,75.8z"/>
<ellipse class="st0" cx="65.5" cy="75.6" rx="0.5" ry="0.1"/>
<path class="st0" d="M62.4,76.5c0.1-0.1,0.2-0.2,0.3-0.3C62.6,76.2,62.5,76.3,62.4,76.5z"/>
<path class="st0" d="M62.1,76.8c0.1-0.1,0.2-0.2,0.3-0.3C62.3,76.6,62.2,76.7,62.1,76.8z"/>
<path class="st0" d="M63.4,76.5c-0.1,0.1-0.2,0.2-0.3,0.3C63.2,76.7,63.3,76.6,63.4,76.5z"/>
<path class="st0" d="M61.7,77.1c0-0.1,0-0.2,0-0.3c0.1,0,0.2,0,0.3,0C61.9,76.9,61.8,77,61.7,77.1z"/>
<path class="st0" d="M62.7,77.1c0.1-0.1,0.2-0.2,0.3-0.3C63,76.9,62.8,77,62.7,77.1z"/>
<path class="st0" d="M62.7,77.1c-0.1,0.1-0.2,0.2-0.3,0.3C62.5,77.4,62.6,77.2,62.7,77.1z"/>
<path class="st0" d="M62.4,77.5c-0.1,0.1-0.2,0.2-0.2,0.3l-0.1-0.1C62.2,77.6,62.3,77.5,62.4,77.5L62.4,77.5z"/>
<ellipse class="st0" cx="60.5" cy="79.7" rx="0.2" ry="0.1"/>
<path class="st0" d="M61.7,73c-0.4,0-0.8,0-1.2,0c0-0.1,0-0.1,0-0.2c0.4,0,0.8-0.1,1.2-0.1C61.6,72.8,61.7,72.9,61.7,73z"/>
<path class="st0" d="M54.9,76.9c0.1-0.4,0.2-0.6,0.2-0.8c0.1,0.2,0.1,0.3,0.1,0.5C55.2,76.6,55.1,76.7,54.9,76.9z"/>
<path class="st0" d="M65.4,71.4c0,0.2,0,0.4,0,0.6c-0.1,0-0.1,0-0.2,0c0-0.2-0.1-0.4-0.1-0.6C65.2,71.4,65.3,71.4,65.4,71.4z"/>
<path class="st0" d="M57.3,72c0.1,0.1,0.2,0.2,0.3,0.2l-0.1,0.1C57.4,72.2,57.3,72.1,57.3,72L57.3,72z"/>
<path class="st0" d="M55.9,72.7c0.1,0,0.2,0,0.3,0c-0.1,0.1-0.2,0.2-0.3,0.3C55.9,72.9,55.9,72.8,55.9,72.7z"/>
<ellipse class="st0" cx="66.7" cy="70.8" rx="0.1" ry="0.2"/>
<path class="st0" d="M52.9,75.1c0.1,0.1,0.2,0.2,0.3,0.2l-0.1,0.1C53,75.3,52.9,75.2,52.9,75.1C52.8,75.1,52.9,75.1,52.9,75.1z"/>
<path class="st0" d="M42.8,78.8c0.4,0.1,0.6,0.2,0.8,0.2c-0.2,0.1-0.3,0.1-0.5,0.1C43.1,79.2,43.1,79,42.8,78.8z"/>
<path class="st0" d="M48.7,76.8c0,0.2,0,0.4,0.1,0.7c-0.1,0-0.1,0-0.2,0c0-0.2-0.1-0.4-0.1-0.7C48.5,76.8,48.6,76.8,48.7,76.8z"/>
<ellipse class="st0" cx="49.6" cy="75.9" rx="0.1" ry="0.2"/>
<path class="st0" d="M46.7,77.5c0.1,0.1,0.2,0.2,0.3,0.3C47,77.7,46.8,77.6,46.7,77.5z"/>
<ellipse class="st0" cx="47.9" cy="77.6" rx="0.1" ry="0.2"/>
<path class="st0" d="M46.1,77.8c0.1,0.1,0.2,0.2,0.3,0.2l-0.1,0.1C46.2,78,46.1,77.9,46.1,77.8C46,77.8,46.1,77.8,46.1,77.8z"/>
<path class="st0" d="M47.4,78.2c-0.1-0.1-0.2-0.2-0.3-0.3C47.2,77.9,47.3,78,47.4,78.2z"/>
<ellipse class="st0" cx="49.6" cy="78" rx="0.1" ry="0.2"/>
<ellipse class="st0" cx="50.6" cy="78" rx="0.2" ry="0.1"/>
<path class="st0" d="M47.4,78.1c0.1,0.1,0.2,0.2,0.3,0.2l-0.1,0.1C47.5,78.4,47.5,78.3,47.4,78.1C47.4,78.2,47.4,78.1,47.4,78.1z"/>
<path class="st0" d="M50.1,78.9c-0.1-0.1-0.2-0.2-0.3-0.2l0.1-0.1C50,78.6,50.1,78.7,50.1,78.9C50.1,78.8,50.1,78.9,50.1,78.9z"/>
<path class="st0" d="M41.6,80.5c0.1-0.1,0.2-0.2,0.2-0.3c0,0.1,0.1,0.2,0.1,0.3C41.8,80.5,41.7,80.5,41.6,80.5z"/>
<path class="st0" d="M41.7,80.6c-0.1,0.1-0.2,0.2-0.2,0.3l-0.1-0.1C41.4,80.7,41.5,80.6,41.7,80.6C41.6,80.5,41.6,80.5,41.7,80.6z"
	/>
<path class="st0" d="M42,81.2c-0.1,0.1-0.2,0.2-0.3,0.3C41.7,81.4,41.8,81.3,42,81.2z"/>
<path class="st0" d="M41.6,81.6c-0.1,0.1-0.2,0.2-0.3,0.3C41.4,81.8,41.5,81.7,41.6,81.6z"/>
<path class="st0" d="M41.3,81.9c-0.1,0.1-0.2,0.2-0.3,0.3C41.1,82.1,41.2,82,41.3,81.9z"/>
<path class="st0" d="M47.7,85.6c-0.2,0-0.5,0-0.8,0c-0.1-0.1-0.3-0.3-0.5-0.5c0.3-0.3,0.6-0.5,0.9-0.8C47.7,84.6,47.9,85,47.7,85.6z
	"/>
<path class="st0" d="M36.2,82.2c-0.1,0.3,0.3,0.9-0.3,1c-0.2-0.2-0.4-0.4-0.6-0.5C35.5,82.6,35.8,82.4,36.2,82.2z"/>
<path class="st0" d="M35.2,84.5c-0.4,0-0.9,0-1.3,0c0-0.1,0-0.1,0-0.2c0.4,0,0.9,0,1.3,0C35.2,84.4,35.2,84.5,35.2,84.5z"/>
<path class="st0" d="M37.1,82.6c0,0.3,0,0.6,0,0.9c-0.1,0-0.1,0-0.2,0c0-0.3-0.1-0.6-0.1-0.9C36.9,82.7,37,82.6,37.1,82.6z"/>
<path class="st0" d="M35.1,84c0.2,0,0.4,0,0.7-0.1c0,0.1,0,0.1,0,0.2c-0.2,0-0.4,0.1-0.7,0.1C35.2,84.2,35.1,84.1,35.1,84z"/>
<path class="st0" d="M35.9,83.3c-0.1,0.1-0.2,0.2-0.2,0.3l-0.1-0.1C35.6,83.4,35.7,83.3,35.9,83.3C35.8,83.3,35.8,83.3,35.9,83.3z"
	/>
<ellipse class="st0" cx="33.3" cy="84.1" rx="0.2" ry="0.1"/>
<path class="st0" d="M80.4,70.7c0.1-0.6,0.1-0.6,0.7-1c0,0.3,0,0.5,0,0.7c-0.1,0.1-0.2,0.2-0.3,0.3C80.7,70.7,80.6,70.7,80.4,70.7z"
	/>
<path class="st0" d="M80,71.5c0.1-0.4,0.2-0.6,0.2-0.8c0.1,0.2,0.1,0.3,0.1,0.5C80.4,71.2,80.3,71.3,80,71.5z"/>
<path class="st0" d="M75.9,72.4c0,0.2,0,0.4,0.1,0.7c-0.1,0-0.1,0-0.2,0c0-0.2-0.1-0.4-0.1-0.7C75.7,72.4,75.8,72.4,75.9,72.4z"/>
<path class="st0" d="M81.1,71.7c-0.1,0.1-0.2,0.2-0.3,0.3C80.9,71.9,81,71.8,81.1,71.7z"/>
<path class="st0" d="M80.8,72c-0.1,0.1-0.2,0.2-0.3,0.3C80.6,72.3,80.7,72.1,80.8,72z"/>
<path class="st0" d="M81.5,71.3c-0.1,0.1-0.2,0.2-0.3,0.3C81.2,71.6,81.4,71.5,81.5,71.3z"/>
<path class="st0" d="M81.8,71c-0.1,0.1-0.2,0.2-0.3,0.3C81.6,71.2,81.7,71.1,81.8,71z"/>
<ellipse class="st0" cx="77.5" cy="73.2" rx="0.2" ry="0.1"/>
<path class="st0" d="M81.1,70.7c-0.1,0.1-0.2,0.2-0.2,0.3c0-0.1-0.1-0.2-0.1-0.3C80.9,70.7,81,70.7,81.1,70.7z"/>
<ellipse class="st0" cx="76.5" cy="70.8" rx="0.2" ry="0.1"/>
<path class="st0" d="M81.1,70.3c0.1,0.1,0.2,0.2,0.3,0.2c-0.1,0-0.2,0.1-0.3,0.1C81.1,70.6,81.1,70.4,81.1,70.3z"/>
<ellipse class="st0" cx="81.6" cy="69.8" rx="0.1" ry="0.2"/>
<path class="st0" d="M78.8,69c-0.1,0.1-0.2,0.2-0.2,0.3l-0.1-0.1C78.5,69.1,78.6,69,78.8,69C78.7,68.9,78.8,69,78.8,69z"/>
<path class="st0" d="M80.1,68.6c0.1,0,0.2,0,0.3,0c-0.1,0.1-0.2,0.2-0.2,0.3C80.2,68.8,80.1,68.7,80.1,68.6z"/>
<path class="st0" d="M47.4,82.2c0.2-0.2,0.4-0.6,0.6-0.7c0.7-0.3,1.4-0.5,2.1-0.7c-0.1,0.1-0.1,0.4-0.2,0.4
	C49,81.5,48.3,82.1,47.4,82.2z"/>
<path class="st0" d="M46.4,82.9c0-0.1,0-0.2,0-0.3c0.1-0.1,0.2-0.2,0.3-0.3c0.2,0,0.5,0,0.7,0C47.3,82.8,46.9,83,46.4,82.9z"/>
<path class="st0" d="M46,83.3c0-0.1,0-0.2,0-0.3c0.1,0,0.2,0,0.3,0C46.3,83,46.2,83.2,46,83.3z"/>
<path class="st0" d="M80.8,67c0.3,0,0.6,0,0.9,0c0,0.1,0,0.1,0,0.2c-0.3,0-0.6,0.1-0.9,0.1C80.9,67.2,80.8,67.1,80.8,67z"/>
<path class="st0" d="M82.4,65.2c-0.3,0-0.6,0-0.9,0c0-0.1,0-0.1,0-0.2c0.3,0,0.6-0.1,0.9-0.1C82.4,65,82.4,65.1,82.4,65.2z"/>
<path class="st0" d="M25,80.9c0.2,0,0.4,0,0.6,0c0,0.1,0,0.1,0,0.2c-0.2,0-0.4,0.1-0.6,0.1C25,81.1,25,81,25,80.9z"/>
<ellipse class="st0" cx="25.1" cy="81.7" rx="0.2" ry="0.1"/>
<path class="st0" d="M20.5,83.4c0.1-0.4,0.2-0.6,0.2-0.8c0.1,0.2,0.1,0.3,0.1,0.5C20.8,83.1,20.7,83.2,20.5,83.4z"/>
<path class="st0" d="M21.2,81.9c-0.1,0.3,0.2,0.7-0.3,0.7C20.9,82.3,20.7,81.9,21.2,81.9z"/>
<ellipse class="st0" cx="70.1" cy="71.2" rx="0.2" ry="0.1"/>
<path class="st0" d="M72.6,70.7c-0.1,0.1-0.2,0.2-0.3,0.3C72.4,70.9,72.5,70.8,72.6,70.7z"/>
<path class="st0" d="M73,70.3c-0.1,0.1-0.2,0.2-0.3,0.3C72.7,70.6,72.8,70.4,73,70.3z"/>
<path class="st0" d="M10.8,79.6c-0.4-0.1-0.6-0.2-0.8-0.2c0.2-0.1,0.3-0.1,0.5-0.1C10.5,79.2,10.5,79.3,10.8,79.6z"/>
<path class="st0" d="M12.3,79.2c0.1,0,0.2,0,0.3,0c-0.1,0.1-0.2,0.2-0.2,0.3C12.4,79.4,12.4,79.3,12.3,79.2z"/>
<path class="st0" d="M13.7,80.9c-0.1,0.1-0.2,0.2-0.2,0.3l-0.1-0.1C13.5,81,13.6,80.9,13.7,80.9L13.7,80.9z"/>
<path class="st0" d="M86.9,62.5c0.1,0.1,0.2,0.2,0.3,0.2l-0.1,0.1C87,62.7,87,62.6,86.9,62.5L86.9,62.5z"/>
<path class="st0" d="M86.9,62.1c0,0.1,0,0.2,0,0.3c-0.1-0.1-0.2-0.2-0.3-0.2C86.7,62.2,86.8,62.2,86.9,62.1z"/>
<path class="st0" d="M86.9,62.1c0-0.1,0-0.2,0-0.3c0.1,0.1,0.2,0.2,0.3,0.2C87.1,62.1,87,62.1,86.9,62.1z"/>
<path class="st0" d="M61.7,76.8c-0.1,0-0.2,0-0.3,0c0.1-0.3-0.2-0.7,0.3-0.7C61.7,76.3,61.7,76.6,61.7,76.8z"/>
<path class="st0" d="M61.7,76.1c0.1-0.1,0.2-0.2,0.2-0.3l0.1,0.1C61.9,76,61.8,76.1,61.7,76.1L61.7,76.1z"/>
<ellipse class="st0" cx="60.2" cy="77" rx="0.1" ry="0.2"/>
<path class="st0" d="M61.4,76.8c0,0.1,0,0.2,0,0.3c-0.1-0.1-0.2-0.2-0.3-0.2C61.2,76.9,61.3,76.8,61.4,76.8z"/>
<path class="st0" d="M58,77.8c0.1,0,0.2,0,0.3,0c-0.1,0.1-0.2,0.2-0.2,0.3C58,78,58,77.9,58,77.8z"/>
<path class="st0" d="M57.3,78.1c0.1,0.1,0.2,0.2,0.3,0.2l-0.1,0.1C57.4,78.4,57.3,78.3,57.3,78.1C57.3,78.2,57.3,78.1,57.3,78.1z"/>
<path class="st0" d="M36.2,90.4c0.1,0.1,0.2,0.2,0.3,0.2l-0.1,0.1C36.3,90.6,36.2,90.5,36.2,90.4L36.2,90.4z"/>
<path class="st0" d="M94.1,57.2c0,0.6-0.5,1-1.2,1.2C93.3,58,93.7,57.6,94.1,57.2z"/>
<path class="st0" d="M94.1,57c0.1-0.1,0.2-0.2,0.2-0.3c0,0.1,0.1,0.2,0.1,0.3C94.3,57,94.2,57,94.1,57z"/>
<path class="st0" d="M74.8,78.7c0.2,0.2,0.3,0.5,0.5,0.8c-0.2,0-0.4,0-0.6,0c0-0.3,0-0.5,0-0.7C74.7,78.8,74.8,78.7,74.8,78.7z"/>
<path class="st0" d="M73.8,78.4c0.4,0.1,0.6,0.2,0.8,0.2c-0.2,0.1-0.3,0.1-0.5,0.1C74.1,78.8,74.1,78.7,73.8,78.4z"/>
<path class="st0" d="M24.3,90.4c-0.1,0.1-0.2,0.2-0.2,0.3L24,90.6C24,90.5,24.1,90.5,24.3,90.4C24.2,90.4,24.3,90.4,24.3,90.4z"/>
<ellipse class="st0" cx="88.8" cy="67.1" rx="0.7" ry="0.2"/>
<path class="st0" d="M66.7,68.3c0,0.2,0,0.4,0.1,0.7c-0.1,0-0.1,0-0.2,0c0-0.2-0.1-0.4-0.1-0.7C66.6,68.3,66.6,68.3,66.7,68.3z"/>
<path class="st0" d="M45.4,75.8c0-0.1,0-0.2,0-0.3c0.2,0,0.5,0,0.7,0C46,75.9,45.6,75.7,45.4,75.8z"/>
<path class="st0" d="M46,75.4c0-0.1,0-0.2,0-0.3c0.1,0.1,0.2,0.2,0.3,0.3C46.3,75.4,46.2,75.4,46,75.4z"/>
<path class="st0" d="M46.7,75.4c0.1-0.1,0.2-0.2,0.2-0.3l0.1,0.1C46.9,75.3,46.9,75.4,46.7,75.4L46.7,75.4z"/>
<path class="st0" d="M46.4,75.4c0.1,0,0.2,0,0.3,0c-0.1,0.1-0.2,0.2-0.2,0.3C46.5,75.6,46.4,75.5,46.4,75.4z"/>
<path class="st0" d="M52.6,83.9c0.1,0.1,0.2,0.2,0.3,0.2l-0.1,0.1C52.6,84.2,52.6,84.1,52.6,83.9C52.5,84,52.5,83.9,52.6,83.9z"/>
<circle class="st0" cx="9.4" cy="75.9" r="0.2"/>
<path class="st0" d="M42.3,75.8c0.1,0.1,0.2,0.2,0.3,0.3c0,0.5-0.4,0.3-0.7,0.3C42,76.2,41.8,75.8,42.3,75.8z"/>
<path class="st0" d="M36.5,79.5c0.2,0,0.5,0,0.7,0c-0.1,0.1-0.3,0.2-0.4,0.3C36.7,79.7,36.6,79.6,36.5,79.5z"/>
<path class="st0" d="M36.2,79.2c0.1,0,0.2,0,0.3,0c0,0.1,0,0.2,0,0.3C36.4,79.4,36.3,79.3,36.2,79.2z"/>
<path class="st0" d="M37.2,79.2c0.1,0,0.2,0,0.3,0c-0.1,0.1-0.2,0.2-0.3,0.3C37.2,79.4,37.2,79.3,37.2,79.2z"/>
<path class="st0" d="M16.5,91.1c-0.1,0.1-0.2,0.2-0.2,0.3l-0.1-0.1C16.2,91.2,16.3,91.1,16.5,91.1C16.4,91.1,16.4,91.1,16.5,91.1z"
	/>
<path class="st0" d="M17.1,91.8c-0.1-0.1-0.2-0.2-0.3-0.2l0.1-0.1C17,91.6,17.1,91.7,17.1,91.8L17.1,91.8z"/>
</svg>
