<?xml version="1.0" encoding="utf-8"?>
<!-- Generator: Adobe Illustrator 26.0.3, SVG Export Plug-In . SVG Version: 6.00 Build 0)  -->
<svg version="1.1" id="Ebene_1" xmlns="http://www.w3.org/2000/svg" xmlns:xlink="http://www.w3.org/1999/xlink" x="0px" y="0px"
	 viewBox="0 0 100 100" style="enable-background:new 0 0 100 100;" xml:space="preserve">
<style type="text/css">
	.st0{fill:#FFFFFF;}
</style>
<g>
	<path class="st0" d="M56.5,37.7c0.2,0.2,0.5,0.3,0.6,0.5s0.2,0.4,0.3,0.7c0.2-0.1,0.3-0.2,0.4-0.4c0.2,0.3,0.4,0.7,0.6,1
		c-0.3,0.2-0.5,0.3-0.8,0.5c0-0.3,0.2-0.8-0.6-0.8c-0.2,0.6-0.4,1.2-0.6,1.8c0.3,0.1,0.5,0.2,0.7,0.2c0.3,0.7,0.1,1.3-0.3,1.9
		C56,43,56.7,42.3,56.2,42c-0.1,0.1-0.3,0.2-0.5,0.4c-0.2-0.1-0.5-0.3-0.8-0.4c0,0.4,0,0.7,0,1.2c0.2-0.2,0.4-0.3,0.6-0.5
		c0.1,0.4,0.1,0.7,0.1,1.1c-0.3,0.1-0.5,0.2-0.9,0.3c0.1,0.3,0.3,0.6,0.5,1.1c-0.2,0.3-0.6,0.7-1,1.1c0.2,0.3,0.5,0.5,0.7,0.8
		c0.1-0.3,0.2-0.5,0.4-0.8c0.1,0.1,0.3,0.2,0.4,0.4c0.1-0.1,0.3-0.2,0.5-0.5c0,0.5,0.1,0.8,0.1,1.3c-0.3-0.2-0.5-0.3-0.9-0.5
		c0.2,0.5,0.3,0.8,0.4,1.2c-0.3,0.3-0.5,0.2-1-0.8c-0.4,0.3-0.7,0.6-1.2,1c0.7,0.3,1.3,0.5,1.9,0.7c0.2-0.1,0.4-0.3,0.4-0.3
		c1,0.1,1.8,0.2,2.6,0.3c0.2,0,0.3-0.2,0.5-0.4c1.4,0.5,3,0.4,4.4,0.4c0.1,0,0.2-0.2,0.3-0.4c0.8-0.1,1.6,0.9,2.5,0.1
		c0.8,0.3,1.6,0.6,2.4,0c1.2,0.7,2.5,0.1,4,0.4c-0.3-0.4-0.3-0.5-0.5-0.6c0.1-0.2,0.2-0.5,0.4-0.8c-0.3-0.1-0.5-0.1-0.7-0.2
		c-0.3-0.1-0.5-0.3-0.8-0.4c-0.2,0-0.4,0.2-0.6,0.2s-0.4-0.2-0.7-0.3c-0.1,0.3-0.1,0.5-0.2,0.8c0.6,0.1,1.1,0.1,1.6,0.2
		c0,0.1,0,0.2,0,0.3c-0.5,0-1-0.1-1.5,0c-0.4,0.1-0.7-0.8-1.1,0c-0.7-1.2,0.3-2.1,0.3-3.6c0.2,0.7,0.3,0.9,0.4,1.2
		c0.2-0.1,0.4-0.2,0.7-0.4c0,0.3,0,0.6,0,0.8c0,0,0,0-0.1-0.1c-0.1,0.1-0.2,0.2-0.3,0.3l0.1,0.1c0.1-0.1,0.2-0.2,0.3-0.3
		c0.4,0.1,1,0.1,1.3,0.4c0.7,0.7,1.2,0.3,2.3,0.2c0.2-0.1,0.1-0.2,0.1-0.2c-0.2,0-0.4,0.1-0.6,0.2c0.2,0.1,0.5,0.1,0.5,0
		c-1.2-1.2-1.2-1.2-1.4-2.2c-0.2,0-0.4,0-0.7,0c0-0.2,0-0.4,0-0.7c0.3,0.1,0.6,0.3,1,0.4c0.1-0.2,0.2-0.3,0.3-0.5
		c-0.4-0.3-0.8-0.5-1.4-0.9c0.3-0.1,0.5-0.3,0.9-0.4c0,0,0.3,0.2,0.5,0.2c0.3,0.1,0.6,0,1.1,0c0,0.3,0,0.5,0,0.8c0,0,0,0-0.1-0.1
		c-0.1,0.1-0.2,0.2-0.3,0.3l0.1,0.1c0.1-0.1,0.2-0.2,0.3-0.3c0.2,0,0.5,0,0.9,0c-0.2,0.5-0.3,0.8-0.4,1.1c0.2,0,0.4,0,0.6,0.1
		c0.1-0.5,0.1-1.1,0.2-1.6c0.1,1.1,0.6,2.3,0,3.4c0.1,0.1,0.2,0.4,0.3,0.6c-0.8,0.4-1.6,0.9-2.4,1.3c0,0.1,0,0.1,0.1,0.2
		c0.4-0.1,0.9-0.1,1.5-0.2c-0.1-0.1,0.1,0.1,0.2,0.2c0.5-0.2,1-0.3,1.7-0.5c0-0.1,0.1-0.4,0.2-0.5s0.3-0.1,0.5-0.1
		c0.5,0.8-0.3,1.9,0.4,2.5c-0.2,0.9-0.5,1.8-0.6,2.7c-0.1,0.6-0.2,1.2-0.8,1.5c-0.1-0.3,0.2-0.8-0.4-0.8c0.4-1,0.7-2.1,1.1-3.2
		c-0.3,0-0.5,0-0.7,0c0-0.5-0.4-0.5-0.6-0.3c-0.3,0.3-0.3,0.6,0.2,0.7c-0.8,0.6-0.8,0.6-1.4,2c-0.2,0.3-0.4,0.6-0.5,1
		c-0.4,1.1-0.7,2.2-1,3c-0.8,1-1.5,1.9-2.2,2.7c-0.4-0.1-0.8-0.2-1.3-0.4c0,0.5,0,0.8,0,1.2c-0.4,0-0.8-0.1-1-0.1
		c-0.2-0.4,0.4-0.4,0-0.8c-0.6,0-1.3,0-2.3,0c0.3-0.4,0.4-0.6,0.6-0.7c0.2,0.1,0.4,0.3,0.6,0.5c0.1-0.4,0.2-0.6,0.3-0.8
		c0.7-0.2,1.5,0.2,1.8-0.9c-0.8,0.2-1.6,0.3-2.6,0.5c0.7-0.5,1-0.8,1.6-1.2c-0.6-0.1-0.9-0.1-1.6-0.2c0.6-0.2,0.8-0.3,1-0.4
		c0.2-0.8,0.4-1.5,0.6-2.2c0.3-0.1,0.5-0.1,0.8-0.2c-0.4-0.2-0.6-0.3-1.1-0.5c0.9,0,1.4-0.5,2.1-0.2c0.7-0.7,1.6,0,2.4-0.4
		c0-0.2,0-0.3,0-0.7c-0.8,0.2-1.5,0.3-2.2,0.4c-0.8,0.1-1.6,0-2.4,0c-0.2,0.3-0.5,0.5-0.5,0.8c0.1,1.2-0.7,2.1-0.8,3.2
		c-0.1,0.5-0.4,1-1,0.7c0.6-2,1.2-3.9,1.8-5.9c-0.3,0-0.5,0.1-0.5,0.1c-0.6,0.5,0.2,1.3-0.6,1.5c0-0.2,0-0.5,0-0.7
		c-0.5,0-0.9,0.8-1.2-0.1c0.8-0.1,0.1-1,0.6-1.2c1,0.1,1.9-0.1,3,0.1c-0.2,0.3-0.3,0.4-0.5,0.6c0.3,0.1,0.4,0.1,0.6,0.1
		c0.2-0.3,0.4-0.6,0.6-0.8c0,0.2,0,0.5,0,0.7c1.1,0.2,1.8-0.3,2.2-1.2c0.3,0.1,0.6,0.1,1.2,0.2c-0.5,0.2-0.7,0.3-1.1,0.5
		c1.2,0.5,1.6-0.1,1.8-0.9c1.2-0.2,2.3-0.4,3.5-0.6c-0.1-0.3-0.1-0.4-0.2-0.6c-0.9,0.1-1.8,0.4-2.6,0.4c-0.9,0-1.5,0.4-2.2,0.8
		c-0.1-0.1-0.2-0.3-0.3-0.3c-0.7-0.1-1.4-0.3-2,0.3c-0.7-0.6-1.4-0.3-2.2-0.3c-0.1,0-0.2,0-0.3,0.1c-0.8,0.5-1.7,0.4-2.5,0.1
		c-0.6-0.2-1.3-0.2-1.8,0c-0.8,0.3-1.6,0.3-2.4,0c-1-0.4-2-0.3-2.9,0.2c-0.6-0.5-1.2-0.5-1.8-0.3c0.1,0.4,0.2,0.7,0.3,1.2
		c-0.5-0.4-0.7-0.8-1.1-0.9C54.6,50,53.9,50,53.4,50c-0.4,0-0.8,0-1.1,0c-0.8,0.1-1.6,0.7-2.3,0.5c-1.4-0.5-2.7-0.2-4-0.2
		c-1,0-1.9,0-2.6-0.8c-0.1-0.1-0.3,0-0.4,0c0.1,0.1,0.1,0.1,0.2,0.2c-0.3,0.1-0.6,0.2-0.8,0.3c0.2,0.3,0.3,0.4,0.6,0.8
		c-1.9-0.1-3.4-0.3-5.2-0.4c-0.2,0.1-0.5,0.4-0.8,0.7c-0.1-0.4-0.2-0.6-0.3-0.9c-0.4,0.2-0.7,0.4-1.1,0.5c-0.2-0.1-0.4-0.2-1-0.6
		c-0.1,0.3-0.2,0.7-0.3,1.2c-0.2-0.6-0.3-0.8-0.4-1c-0.4,0-0.8,0-1.2,0c-0.5,0-0.9,0.1-1.2-0.4c-0.3,0.5-0.5,0.2-0.9,0
		s-0.8-0.2-1.2-0.3c-0.6,0.6-1.3,0.2-2.1-0.1c0,0.5,0.1,1,0.1,1.5c0.3,0,0.5,0,0.7,0c-0.1,0.4-0.3,0.8-0.4,1.2
		c-0.1,0-0.2,0.1-0.3,0.1c0.1,0.1,0.2,0.2,0.3,0.3c0.2,0.1,0.3,0.3,0.5,0.4c0.1,0.1,0.2,0.3,0.3,0.4c-0.3,0.1-0.7,0.2-1,0.3
		c-0.3-0.4-0.7-0.9-1-1.5c0-0.4,0-0.8,0.2-1.7c-0.1-0.2-0.2-0.1-0.2-0.1c0,0.2,0.1,0.4,0.2,0.6c0.1-0.2,0.1-0.5,0-0.5
		C26.2,51,26,51,25.7,51c0,0.3,0,0.6,0,0.8c-0.8-0.2-0.2-1.1-0.8-1.5c-0.3-0.3-0.3-1-0.4-1.5c-0.1-0.3-0.2-0.5-0.4-0.9
		c0.2-0.2,0.4-0.4,0.5-0.6c0.2-0.2,0.3-0.5,0.4-0.8c0.3,0,0.6-0.1,1-0.1c-0.5-0.8-0.5-1.6,0.1-2.3c0.6,0,0.3,0.5,0.4,0.8
		c-0.1,0.1-0.3,0.2-0.6,0.3c0.4,0.5,0.8,0.9,1.2,1.3c0.2-0.2,0.2-0.2,0.4-0.4c0.3,0.6,0.6,1.2,1,1.9c-0.7,0-1.3,0-2.1,0
		c0.7,0.7,1.6,0.6,2.2,0.9c0.9,0.4,1.5,0.4,2.3,0.1c0.4-0.2,0.9,0.6,1.5,0.1c-0.3-0.2-0.5-0.4-0.8-0.6c0.8,0.1,1.1-0.4,1.2-1
		c0.3,0.3,0.7,0.6,1.2,1c0.1,0.6-0.8,0.6-1.2,0.9c0.1,0.1,0.1,0.1,0.2,0.2c1.1,0.4,2.3-1.1,3.4,0c1.2,0,2.5,0,3.7,0
		c-0.1-0.4-0.2-0.8-0.3-1.2c0.4,0.4,0.7,0.7,1.1,1.1c0.2,0,0.5,0,1.1,0c-0.5-0.2-0.8-0.4-1-0.5c0-0.2,0-0.4,0.1-0.7
		c0.6,0.3,1.2,0.5,1.9,0.8c-0.2-0.6-0.3-1.1-0.4-1.6c0.4,0,0.8,0,1.2,0c-0.1,0.2-0.2,0.4-0.3,0.5c0.2,0.2,0.3,0.5,0.4,0.7
		c0.7,0,1.3,0,1.8,0c0,0.2,0,0.4,0,0.7c0.8,0.2,1.6,0.1,2.4,0.1c0.8,0,1.7,0,2.5,0c0.1-0.1,0.3-0.3,0.4-0.4c0.1,0.1,0.2,0.2,0.3,0.3
		c0.3,0.1,0.8-0.6,1.1-1.5c0,0,0,0,0.1,0.1c0.1-0.1,0.2-0.2,0.3-0.3l-0.1-0.1c-0.1,0.1-0.2,0.2-0.3,0.3c-0.6,0.2-1.2,0.3-2.1,0.5
		c0.4-0.8,1.2-1.2,0.9-1.9c0.7-0.6,0.3-1.3,0.4-1.8C51.3,44,51,43.5,50.8,43c0.1-0.1,0.1-0.1,0.2-0.2c0.2,0.1,0.3,0.2,0.7,0.5
		c-0.2-0.7-0.3-1.1-0.5-1.6c0.1,0,0.2-0.1,0.3-0.1c0.3,0.5,0.6,0.9,0.9,1.4c-0.1,0.2-0.2,0.3-0.4,0.5c0.3,0,0.4,0.1,0.7,0.1
		c0.2-1,0.4-2.1,0.6-3.1c-0.3-0.1-0.5-0.1-0.7-0.2c0.1-1.4,1.2-2.3,1.9-3.4c0.7-1.1,1.4-2.1,2.2-3.2c0.2,0.2,0.5,0.4,0.8,0.7
		c0.1,0.1,0.2,0,0.6,0c-0.2-0.4-0.3-0.8-0.4-1.1c0.3,0,0.5,0,0.8,0c0,0.2,0,0.5,0,0.8c0.6-0.3,1.1-0.6,1.6-0.8
		c-0.1,0.3-0.1,0.8-0.3,0.8c-1,0.3-1.2,1.4-2.1,1.8c-0.3,0.1-0.5,0.6-0.8,0.9c0-0.4,0-0.8,0-1.1c-0.6,0.5-0.9,1-1.2,1.6
		C56,37.2,55.9,37.7,56.5,37.7z M53.3,46.4L53.3,46.4c0,0.2,0.1,0.3,0.2,0.4l0.1-0.1c-0.1-0.1-0.2-0.2-1.1,0.2
		c0.7-0.6,0.7-0.6,0-1.2C52.5,46,52.5,46.3,53.3,46.4z M69.5,54.9c1.2-0.1,2.4-0.2,3.6-0.3C73,54.3,73,54.1,73,53.9
		c-1.2,0.2-2.3,0.4-3.5,0.5C69.5,54.6,69.5,54.8,69.5,54.9z M53.7,43.2c0,0.6,0.1,1.1,0.1,1.8c0.6-0.8,0.6-0.8,0.5-1.7
		C54.2,43.3,54.1,43.3,53.7,43.2z M72,54.8c-0.9,0.8-1.4,1.4-1.3,2.3C71.5,56.6,71.7,55.9,72,54.8z M41.7,49.9
		c-0.7-0.2-1.5-0.5-2.2,0C40.2,49.9,41,49.9,41.7,49.9z M25.6,49.1c0.3-0.2,0.6-0.3,0.8-0.4c-0.3-0.3-0.4-0.5-0.7-0.9
		C25.6,48.3,25.6,48.7,25.6,49.1z M70.4,59c0.3-0.7,0.5-1,0.7-1.5c-0.3,0-0.4,0-0.7,0C70.4,57.9,70.4,58.2,70.4,59z M69.7,57
		c0,0,0.3,0,0.6,0c0-0.3-0.1-0.4-0.1-0.5C70.1,56.6,69.9,56.8,69.7,57z M54.4,41.3c-0.1,0-0.2,0-0.4,0c0,0.3,0.1,0.7,0.1,1
		c0.1,0,0.1,0,0.2,0C54.4,42,54.4,41.7,54.4,41.3z M54,45.3c-0.1,0-0.2,0-0.3,0c0.1,0.2,0.1,0.4,0.2,0.6c0.1,0,0.1,0,0.2,0
		C54,45.7,54,45.5,54,45.3z M56,40.5c-0.1,0-0.1,0-0.2,0c0,0.3,0,0.5,0,0.8c0.1,0,0.1,0,0.2,0C56,41,56,40.7,56,40.5z M70,53.6
		c0,0.1,0,0.2,0,0.3c0.2,0,0.4-0.1,0.7-0.1c0-0.1,0-0.1,0-0.2C70.4,53.6,70.2,53.6,70,53.6z M70.2,55.5L70.2,55.5
		c-0.1,0.1-0.1,0.3-0.1,0.4h0.1C70.2,55.8,70.2,55.6,70.2,55.5z M73.1,53.3L73.1,53.3c0.1,0.1,0.3,0.1,0.4,0.1v-0.1
		C73.3,53.3,73.2,53.3,73.1,53.3z M72.4,53.5L72.4,53.5c0.1-0.1,0.1-0.3,0.1-0.4h-0.1C72.4,53.3,72.4,53.4,72.4,53.5z M74.1,52.7
		L74.1,52.7C74,52.8,74,53,74,53.1h0.1C74.1,53,74.1,52.9,74.1,52.7z M66.3,51.3L66.3,51.3c0.1,0.1,0.3,0.1,0.4,0.1v-0.1
		C66.6,51.3,66.5,51.3,66.3,51.3z M74.8,50.8L74.8,50.8c0.1-0.1,0.1-0.3,0.1-0.4h-0.1C74.8,50.5,74.8,50.6,74.8,50.8z M26.5,49.6
		h0.1c0-0.1,0-0.3,0-0.4h-0.1C26.5,49.3,26.5,49.4,26.5,49.6z M53.3,48.9L53.3,48.9c0.1,0.1,0.3,0.1,0.4,0.1v-0.1
		C53.6,48.9,53.4,48.9,53.3,48.9z"/>
	<path class="st0" d="M41.8,75.3c-1-0.4,0-1.2-0.5-1.7c1.5-1.1,2.2-2.5,2.6-4.3c-0.9-1.5-2.7-1.4-3.6-1.8c-2.1-1.4-3.8-2.5-5.5-3.5
		c0.1-0.1,0.2-0.4,0.3-0.6c0.4-0.1,0.7,0.1,1,0.4c1.3,1.2,2.7,2.1,4.4,2.5c0.3,0.4,0.4,0.7,0.6,1c1.3,0.2,2.6,0.4,4.1,0.6
		c0,0.1,0.2,0.5,0.3,0.8c0.6-0.3,0.9-0.4,1.3-0.6c0.1,0.3,0.2,0.6,0.3,0.9c0.5,0,1.1,0,1.7,0c0.6,0,1.2-0.2,1.6-0.2
		c0.7,0.1,1.5,0.4,1.8,0.2c0.7-0.5,1.4-0.3,2-0.3c0.8,0,1.6,0,2,0c1.8-0.7,3.3-1.3,5.1-2c0.7,0.1,1.6-0.2,2.5-0.8
		c0.9-0.6,1.9-1.1,3-1.4c1.4-0.4,2.4-1.3,3.4-2.2c1.3-1.2,2.2-2.6,3.3-3.9c0,0.6,0.5,0.3,0.8,0.4c-1.5,2.6-3.8,4.4-5.9,6.4
		c-0.9,0.8-2,1.4-3,2.2c-0.7,0.5-1.7,0.7-2.6,0.8c-0.6,0.1-1.1,0.4-1.6,0.4c-0.6,0-0.9,0.8-1.6,0.3c-0.2-0.2-0.9,0.1-1.4,0.2
		c-0.2,0.4-0.4,0.8-0.5,1.2c-0.1,0.5,0.5,0.8,0.2,1.4c-0.1,0.2,0.5,0.8,0.8,1.2c0.2,0.3,0.5,0.5,0.6,0.7c0.2,0.3,0.3,0.7,0.4,1.1
		c-0.9,0.9-1.7,2-3.2,2.3c-0.2,1.2,0.1,2.4-0.4,3.6c-0.3,0.7-0.1,1.6,0.3,2.4c0.4,0.7,0.6,1.4,1,2.2c0.1-0.1,0.2-0.1,0.4-0.3
		c0.8,0.4,1.6,0.9,2.4,1.4c1.2,0.8,2.6,1.4,4,1.7c0.7,0.2,1.5,0.4,1.8,1.2c-0.3,0-0.6,0-1,0c-0.2-0.3-0.5-0.5-0.7-0.8
		c-0.6,0-1.1,0-2,0c-0.1-0.2-0.3-0.6-0.3-0.8c-0.7,0.2-1.1,0.3-1.4,0.4c-0.2-0.6-0.6-0.9-1.2-0.8c-0.2-0.6-0.6-0.9-1.2-0.8
		c0-0.6-0.5-0.3-0.8-0.4c0.1-0.1,0.1-0.1,0.2-0.2c-0.3-0.2-0.6-0.4-0.9-0.6c0,0.3,0,0.5-0.1,0.8c0.3,0,0.6,0,0.8,0.1
		c0,0.6,0.5,0.3,0.8,0.4c0.2,0.6,0.6,0.9,1.2,0.8c0,0.6-0.1,1.3,0.4,2c-0.4,0-0.8,0-1.2,0c-0.5-0.7-0.9-1.6-2-1.6
		c-0.1-0.1-0.3-0.3-0.4-0.4c-0.1-0.8-1-0.1-1.2-0.6c0-0.2,0-0.3,0-0.5c0.4-0.1,0.8-0.2,1.2-0.2c0-0.1,0-0.1,0-0.2
		c-0.4,0-0.9,0-1.4,0c-0.2,0.2-0.5,0.4-0.7,0.7c-1,0-2,0-2.9,0c-0.1-0.1-0.2-0.3-0.3-0.4c-0.2,0.1-0.3,0.3-0.5,0.4
		c-0.7,0.1-1.5,0.2-2.3,0.3c-0.1-0.1-0.2-0.2-0.3-0.3c-0.6,0.3-0.8,1.2-1.7,1.1c-0.1-0.4-0.1-0.8-0.2-1.2c-0.6,0.3-0.8,1-1.5,0.8
		c0.1-0.2,0.2-0.5,0.4-0.9c-0.4,0.2-0.7,0.2-0.8,0.4c-0.5,0.5-1,1-1.5,1.5c-0.2,0.2-0.5,0.2-1,0.4c0.6-0.7,1-1.2,1.3-1.7
		c0.1-0.1,0.3-0.3,0.4-0.4c0,0,0,0,0.1,0.1c0.1-0.1,0.2-0.2,0.3-0.3l-0.1-0.1c-0.1,0.1-0.2,0.2-0.3,0.3c-0.1,0.1-0.2,0.3-0.4,0.4
		c-0.7-0.2-0.9,0.5-1.4,0.8c-0.2-0.2-0.4-0.4-0.5-0.5c0.1-0.2,0.2-0.4,0.4-0.6c0.5-0.2,1.1-0.4,1.9-0.6c-0.4-0.3-0.6-0.4-0.7-0.6
		c0.4-0.5,0.7-0.9,1.1-1.4c0.8-2.3,0.4-4.8,0.5-7.1C43,76.2,42.1,76.2,41.8,75.3c0.3,0,0.5-0.1,0.6-0.1c-0.1-0.2-0.2-0.5-0.3-0.8
		c-0.1,0.1-0.1,0.1-0.2,0.2C41.8,74.8,41.8,75,41.8,75.3z M57.7,87.1C57.6,87.1,57.6,87.2,57.7,87.1c0,0.2,0.1,0.3,0.2,0.4l0.1-0.1
		c-0.1-0.1-0.2-0.2-1.3-0.7c0.3,0.3,0.4,0.5,0.4,0.4c0.2,0,0.4-0.1,0.6-0.2C57.4,86.9,57.2,86.8,57.7,87.1z M58,73.7
		c0-0.2-0.1-0.5-0.1-0.8c-0.2,0.2-0.4,0.3-0.6,0.4c0-0.6-0.1-1-0.1-1.4c-0.4-0.4-0.7-0.7-1-1.1c-0.3,0.4-0.6,0.8-0.8,1.2
		c-0.2-0.9-0.5-1.8-0.7-2.7c-0.1,0-0.2,0-0.3,0c0,0.6,0,1.2,0,1.9c-0.1,0-0.2,0-0.3,0c-0.1-0.5-0.1-1-0.2-1.6
		c-0.3,0-0.5,0.1-0.8,0.1c0.1,0.4,0.2,0.7,0.3,0.9c-0.3,0.5-0.5,1-0.7,1.5c0.2,0.2,0.3,0.3,0.4,0.5c0,0.2-0.1,0.4-0.1,0.4
		c0.2,0.5,0.3,1,0.4,1.3c0.5-0.1,0.9-0.2,1.3-0.2c0.4-0.1,0.9-0.1,1.3-0.2c0.4-0.1,0.8-0.2,1.2-0.3c0,0.1,0.1,0.2,0.1,0.3
		c-1.6,0.5-3.1,1-4.5,1.5c-0.5-0.1-0.7-0.1-1.1-0.2l0.1-0.1c-0.1-0.1-0.2-0.2-0.3-0.3l-0.1,0.1c0.1,0.1,0.2,0.2,0.4,0.2
		c-0.1,0.1-0.2,0.4-0.3,0.4c-0.6,0.1-1.1,0.1-1.7,0.1c1.8,0.2,3.6,0.7,5.5,0c0.4-0.2,1-0.2,1.4,0.3c0.1,0.1,0.5,0.1,0.4,0.1
		c0.6-0.4,1-0.7,1.4-0.9C58.4,74.3,58.4,74.3,58,73.7z M49.8,71c-0.3,0.4-0.5,0.7-0.7,1c-0.1-0.1-0.3-0.2-0.3-0.3
		c-0.3,0.1-0.6,0.2-0.9,0.4c-0.1-0.3-0.2-0.6-0.3-0.9c-0.2,0.3-0.3,0.6-0.4,0.8c-0.5,0-0.9,0-1.4,0c0-0.6,0-1.2,0-1.6
		c-0.3-0.3-0.4-0.5-0.7-0.9C45,70.2,45,70.7,45,71.2c-0.7,0.5-1.3,1-2.2,1.6c0.6,0,0.9-0.1,1.1,0c1.9,1.2,4.1,0.5,6,1.1
		c0.6,0.2,1.3-0.2,2-0.3c0.1,0,0.2,0.1,0.3,0.2c-0.1,0.1-0.2,0.3-0.5,0.5c0.3,0,0.6,0,1,0.1c-0.3-1.4-0.5-2.6-0.7-3.9
		c0,0,0.1-0.1,0.3-0.3c-0.3-0.2-0.6-0.5-0.8-0.7c-0.3,0.2-0.5,0.3-0.7,0.4c-0.1-0.3-0.2-0.5-0.2-0.7c-0.4,0-0.7,0-1,0
		c0,0.2,0,0.4,0,0.6c0.3,0.1,0.5,0.2,0.7,0.3c0,0.1,0,0.2-0.1,0.3c-0.5,0-1,0-1.5,0c0,0.1,0,0.2,0,0.2C48.9,70.9,49.3,71,49.8,71z
		 M47.7,80c0-0.2,0-0.5,0.1-0.7c0.6-0.8,1.2-1.5,2.1-2.6c-1.3,0.4-1.9,1.1-2.7,1.8c0.1-0.7,0.2-1.1,0.3-1.6c-0.4,0-0.7,0-1.1,0
		c0.1,0.5,0.3,1,0.4,1.5c-0.2,0-0.4,0-0.6,0C46.1,78,46.1,77.7,46,77c-0.3,0.7-0.5,1.1-0.8,1.6c0.5,0.1,0.9,0.2,1.3,0.3
		c0,0.1,0,0.1,0,0.2c-0.4,0.1-0.7,0.1-1,0.2c-0.3,0.3,0.2,1-0.8,1.1c0.1,0,0.2,0,0.4,0C45,80,45,79.6,44.9,79.2c-0.1,0-0.2,0-0.3,0
		c0,0.4,0,0.8,0.4,1.1c-0.4,1.1-0.7,2.3-1,3.3c0.4,0.5,0.9,1,1.3,1.4c0.4,0.2,1.1-0.4,0.8,1.4c0.3-0.3,0.5-0.4,0.4-0.4
		c0-0.2-0.1-0.4-0.2-0.6c-0.1,0.2-0.1,0.5,0.2,0c2,0,3.9,0,5.9,0c0-0.7,0-1.3,0-1.7c0.3-0.3,0.4-0.5,0.6-0.7c0.3,0.7,0.5,1.3,0.7,2
		c0.3-0.4,0.2-0.7,0.3-1c0-0.3,0.2-0.6,0.2-0.9c-0.1-0.2-0.2-0.4-0.3-0.6c0.3-0.4,0.6-0.7,0.9-1.1l-0.1,0.1c0.1,0.1,0.2,0.2,0.3,0.3
		l0.1-0.1c-0.1-0.1-0.2-0.2-0.4-0.2c0-0.9,0-1.8,0-2.7c0.3-0.1,0.5-0.1,0.8-0.2c0-0.3,0-0.6,0-0.9s0.2-0.6,0.3-1.1
		c-0.7,0.1-1.3,0.2-1.8,0.3c0.1,0.1,0,0.1-0.1,0c-0.2,0.1-0.4,0.3-0.6,0.4c-0.8-0.6-1.4-0.7-2,0.1c0.1,0.1,0.2,0.3,0.3,0.4
		c-0.1,0.2-0.2,0.4-0.4,0.6c0.4,0,0.6,0,0.8,0c-0.3,0.3-0.5,0.5-0.8,0.8c0-0.1-0.1-0.2-0.1-0.3c-0.1,0.1-0.2,0.2-0.3,0.3
		c-1.1,0.4-0.9,1.7-1.6,2.3c0.5,1.1,0.5,1.1,0.1,2.4c-0.3-1.2-1-2.4-0.3-3.4c-0.2-0.5-0.3-0.8-0.4-1C48.3,79.7,48,79.9,47.7,80z
		 M45.9,74.5c-0.8-1.2-2.3-0.5-3.5-1.3c0.2,0.7,0.3,1.1,0.5,1.3c0.9,1.3,2.4,1,3.6,1.4c0-0.2,0.1-0.4,0.1-0.6c0.6,0,1.3-0.1,1.9-0.1
		c0-0.3,0-0.4,0-0.6c-0.7-0.2-1.4-0.3-2.2-0.5C46.3,74.2,46.1,74.3,45.9,74.5z M48.9,74.6c0,0.1,0,0.1,0,0.2c0.5,0,1.1,0,1.6,0
		c0-0.1,0-0.1,0-0.2C50,74.6,49.5,74.6,48.9,74.6z M44.7,78.4c0.3-0.7,0.5-1.1,0.7-1.5c-0.3,0-0.4,0-0.7,0
		C44.7,77.3,44.7,77.6,44.7,78.4z M50.9,77.6c0-0.1,0-0.2,0-0.3c-0.2,0.1-0.4,0.1-0.6,0.2c0,0.1,0,0.1,0,0.2
		C50.4,77.6,50.6,77.6,50.9,77.6z M45.7,69.3c0-0.1,0-0.2,0-0.3c-0.2,0-0.5,0-0.7,0.1c0,0.1,0,0.1,0,0.2
		C45.3,69.3,45.5,69.3,45.7,69.3z M47.7,69.6L47.7,69.6c-0.1-0.1-0.3-0.1-0.4-0.1v0.1C47.5,69.6,47.6,69.6,47.7,69.6z M48.5,69.5
		L48.5,69.5c0.1,0.1,0.3,0.1,0.4,0.1v-0.1C48.8,69.5,48.7,69.5,48.5,69.5z M55.5,69.3L55.5,69.3c-0.1,0.1-0.1,0.3-0.1,0.4h0.1
		C55.5,69.6,55.5,69.5,55.5,69.3z M46.3,70.5L46.3,70.5c0.1-0.1,0.1-0.3,0.1-0.4h-0.1C46.3,70.3,46.3,70.4,46.3,70.5z M47.6,70.5
		L47.6,70.5c-0.1,0.1-0.1,0.3-0.1,0.4h0.1C47.6,70.8,47.6,70.7,47.6,70.5z M46.3,71.7L46.3,71.7c0.1-0.1,0.1-0.3,0.1-0.4h-0.1
		C46.3,71.5,46.3,71.6,46.3,71.7z M43.4,75.8L43.4,75.8c0.1,0.1,0.3,0.1,0.4,0.1v-0.1C43.7,75.8,43.5,75.8,43.4,75.8z M48.8,75.7
		L48.8,75.7c-0.1,0.1-0.1,0.3-0.1,0.4h0.1C48.8,75.9,48.8,75.8,48.8,75.7z"/>
	<path class="st0" d="M32.3,88.3c-0.1,0.2-0.2,0.4-0.4,0.7c0.7-0.1,1.4-0.2,2-0.3c-0.4,0.8-1.4,0.6-2.1,1.1c0.8,0.7,1.6,1.4,2.3,2
		c0.2-0.2,0.3-0.2,0.5-0.4c0.1,0.3,0.2,0.5,0.2,0.7c0.7,0.1,1.2,0.3,1.8,0.4c0.1-0.1,0.2-0.2,0.3-0.2c0.2,0.1,0.4,0.3,0.6,0.4
		c0.3-0.2,0.5-0.3,0.8-0.4c0.1,0.4,0.1,0.5,0.2,0.8c1.3-0.1,2.5,0,3.7,0.7c0.3,0.2,0.8-0.1,1.3-0.2c0.2,0.4,0.8,0.2,1.3,0.2
		c0.6,0,1.2-0.1,1.8,0c2,0.2,4.1,0.1,6.1,0c0.8,0,1.7-0.2,2.3-0.8c0.1,0.1,0.3,0.2,0.4,0.2c0.4,0.2,0.6,0.3,0.7-0.2
		c0.2-0.1,0.4-0.2,0.4-0.2c0.6,0.1,1.1,0.3,1.4,0.2c0.4-0.2,0.7-0.2,1-0.3c1-0.4,2,0.3,3.2,0.2c0.4-0.4,0.8-0.8,1.1-1.1
		c-0.1,0.3-0.2,0.5-0.4,1c0.3,0,0.5,0,0.8,0c-0.5,0.4-1.1,0.8-1.7,1.2c0,0,0.1,0,0.2,0c-0.1-0.3-0.1-0.5-0.2-0.8c-0.1,0-0.2,0-0.3,0
		c0,0.3,0,0.5,0.2,0.8c0.6,0.3,1,0.6,1.4,0.9c0.6-0.4-0.1-1.2,1.3-1.7c0.1-0.1-0.5,0.1-0.5,0.4c-0.1,0.3,0.3,0.8,0.5,1.1
		c0.9-0.4,0.6-1.1,0-1.5c-0.7,0.1-0.4-0.3-1-0.4c0-0.2,0-0.5,0-0.8c0.4,0.2,0.6,0.3,0.8,0.5c0.3-0.2,0.6-0.4,0.8-0.5
		c0.2,0.2,0.4,0.3,0.6,0.5c0.1-0.5,0.2-0.9,0.3-1.3c0.6,0.9,1.6,0.2,2.3,0.7c-0.2,0.7-0.3,1.4-0.5,2.2c0.5-0.3,0.9-0.4,1.1-0.5
		c-0.1-0.9-0.2-1.8-0.2-2.7c0.1,0,0.2,0,0.2,0c0.2,0.2,0.4,0.4,0.6,0.6c-0.1,0.1-0.2,0.3-0.4,0.4c0.3,0.3,0.5,0.6,0.8,0.8
		c-0.4,2-2.1,2.4-3.7,2.9c-0.1-0.1-0.3-0.2-0.4-0.4c-0.3,0.3-0.5,0.5-0.8,0.8c-1,0-2,0-3,0c-0.7,0-1.3,0.3-2,0.4
		c-0.6,0.1-1.2,0-1.8,0.4c-0.4,0.2-1,0-1.6,0.1c-0.6,0-1.1,0.1-1.7,0.2c-0.5,0.1-1-0.6-1.4,0.1c-0.1,0.2-1,0.2-1.3,0
		c-1.2-0.6-2.5-0.3-3.8-0.4c-1.1-0.1-2.1,0-3.2,0c-0.9,0-1.8-0.5-2.8-0.4c-0.6,0-1.1-0.3-1.7-0.5c0-0.2,0-0.3,0-0.5
		c0.6,0.3,1-0.2,1.6-0.1c0.4,0.3,0.7,0.7,1.1,0.8c1.6,0.2,3.2,0.5,4.8,0.4c1-0.1,2.1-0.4,3.1-0.3c0.2-0.4,0.4-0.7,0.6-1.1
		c-1.6-0.2-2.9-0.1-4.3,0.4c-0.1-0.3-0.2-0.5-0.3-1c-0.3,0.4-0.9-0.3-1,0.5c-1-0.1-2,0.3-3-0.3c-0.3,0.2-0.7,0.5-1,0.7
		c-0.3-0.3-0.5-0.5-0.8-0.8c-0.3-0.8-1.2-0.5-1.4-0.3c-0.6,0.5-1.2,0.2-1.8,0.3c0-0.3-0.1-0.5-0.2-1c-0.4,0.3-0.7,0.6-1.2,1
		c0.7,0,1,0,1.4,0c0.4,0.8,1.3,0.6,2.3,1.2c-0.8,0-1.4,0.1-1.9,0c-1.6-0.5-3.3-0.7-4.7-1.4c-1.1-0.5-2.5-0.6-3.2-2.2
		c0.1-0.4,0.3-1.1,0.4-1.7c-0.2-0.1-0.5-0.2-0.8-0.4C30.6,88.7,31.4,88.4,32.3,88.3z M34,93.1c0.1,0,0.2,0,0.3,0
		c-0.1-0.3-0.1-0.5-0.2-0.8c-0.1,0-0.2,0-0.3,0c0,0.3,0,0.5,0.4,0.7c0.2,0.3,0.4,0.5,0.5,0.7c0.5-0.1,0.8-0.2,1.1-0.3l-0.1,0.1
		c0.1,0.1,0.2,0.2,0.3,0.3l0.1-0.1c-0.1-0.1-0.2-0.2-0.4-0.2c-0.2-0.3-0.5-0.6-0.7-0.9C34.8,92.8,34.5,92.9,34,93.1z M53.3,96
		c0.7,0.2,1.4,0.4,2,0c-0.1-0.3-0.2-0.4-0.2-0.6c-0.2,0.2-0.3,0.3-0.4,0.4c-0.1-0.1-0.3-0.2-0.4-0.3C54,95.7,53.6,95.8,53.3,96z
		 M58.4,94c0.5,0.4,1,0.7,1.6,1C59.7,93.9,59.6,93.9,58.4,94z M55.9,94.2c-0.5,0.3-0.5,0.3-0.9,0.9c0.4,0,0.8-0.1,1.2-0.1
		C56,94.6,55.9,94.4,55.9,94.2z M57.1,96.2c-0.3-0.4-0.5-0.6-0.7-0.9c-0.3,0.4-0.5,0.6-0.9,0.9C56.1,96.2,56.4,96.2,57.1,96.2z
		 M52.1,95.7c0.5-0.4,0.8-0.6,1.4-1c-0.6,0-1,0-1.4,0C52.1,95,52.1,95.1,52.1,95.7z M57.8,95.7c0.1,0,0.3,0,0.6,0
		c0-0.3-0.1-0.4-0.2-1C58,95.3,57.9,95.5,57.8,95.7z M65.6,94.2c0.1,0,0.2,0,0.3,0c-0.1-0.2-0.1-0.4-0.2-0.6c-0.1,0-0.1,0-0.2,0
		C65.6,93.8,65.6,94,65.6,94.2z M66.8,93.5c0.1,0,0.1,0,0.2,0c0-0.3,0-0.5,0-0.8c-0.1,0-0.1,0-0.2,0C66.8,92.9,66.8,93.2,66.8,93.5z
		 M32.2,92.3L32.2,92.3c-0.1,0.1-0.1,0.3-0.1,0.4h0.1C32.2,92.5,32.2,92.4,32.2,92.3z M64.5,95.4L64.5,95.4c0.1-0.1,0.1-0.3,0.1-0.4
		h-0.1C64.5,95.2,64.5,95.3,64.5,95.4z"/>
	<path class="st0" d="M34.7,17.9c0.2,0.8-0.5,1.3-0.4,1.9c-0.4,0-0.7,0.1-1.1,0.1C33,21.3,34,22,34.7,22.8c0,0.4,0,0.8,0,1.2
		c-0.3,0.1-0.5,0.3-0.9,0.4c0.3,0.5,0.5,1,0.8,1.6c-0.2,0.1-0.4,0.2-0.9,0.4c-0.2-0.1-0.6-0.3-1.1-0.6c0.1-0.2,0.2-0.5,0.4-0.8
		c-0.4-0.4-0.8-1-1.4-1.6c0.3-0.2,0.7-0.4,1.1-0.7c0-0.6-1-1.2-0.1-1.9c0.1-0.1,0.2-0.6,0.1-0.7c-0.6-0.9-0.2-1.9-0.4-2.9
		c-0.4-0.5-0.8-1-1.5-1.9c0-0.1,0-0.6,0-1c0.3-0.3,0.4-0.6,0.6-0.9c0.7-1.1,0.5-2.4,0.9-3.6c0.3-0.9,0.1-2,0.1-3
		c-0.4-0.3-0.6-0.4-1-0.7c-1,2-0.6,4.3-1.4,6.1c0.3,0.7,0.5,1.3,0.8,2c-0.7,0-0.8,0.7-1,1.1c-0.5,1.1-1.1,2-2,2.7
		c-0.1-0.1-0.3-0.3-0.5-0.5c0.5-1.2,0.3-2.7,1.2-3.9c0.3,0.3,0.6,0.6,0.9,0.8c0.2-0.2,0.4-0.4,0.5-0.5c-0.5-0.4-1-0.8-1.5-1.4
		c-0.3-0.4-0.4-1-0.8-1.4c-0.3-0.4-0.8-0.5-1.1-0.7c0.1-0.5,0.2-0.8,0.3-1.1c0.1,0,0.3,0,0.4,0c0,0.2,0,0.5,0,0.8
		c0.3-0.2,0.5-0.3,0.5-0.3c0.6,0.9,1.1,1.8,1.8,3c0.1-2,0.9-3.7,0.2-5.8c-0.1,0.8-0.2,1.1-0.2,1.5c-0.2,0-0.4,0-0.7,0
		c0-0.4,0-0.8,0.2-1.6c-0.1-0.2-0.2-0.1-0.2-0.1c0,0.2,0.1,0.4,0.2,0.6c0.1-0.2,0.1-0.5,0-0.5c-0.9,1-0.6,1.9-1.3,2.5
		c-0.2,0-0.4,0-0.6,0c0-0.3,0-0.7,0-1c0.2-0.1,0.4-0.2,0.7-0.2c0-1.3,1.1-2.3,0.8-4c-0.2,0.4-0.4,0.9-0.5,0.9
		c-0.7-0.1-0.4,0.5-0.7,0.7c-0.3,0.3-0.6,0.6-0.9,0.9c-0.2-0.3-0.3-0.6-0.5-1c0.4-0.8,0.9-1.6,1.3-2.5c0,0,0.2,0.1,0.4,0.3
		c0.3-0.4,0.5-0.8,0.8-1.2c0.5,0.6,1,1.2,1,2c-0.1,0-0.3,0.1-0.3,0.1c-0.1,0.3-0.1,0.6-0.1,1.1c0.4-0.1,0.7-0.2,1.1-0.3
		c0.7,0.3,1.5,0.6,2.4,0.9c0.2,1.1,0.5,2.1,0.7,3.1c1,0.9,1.9,2,2.4,3.4c0.3,0,0.6,0,0.9,0c0,0.1,0,0.1,0,0.2
		c-0.2,0.1-0.4,0.1-0.6,0.2c-0.1,0.3-0.3,0.7-0.4,1.1c-0.1,0.4,0.1,0.7,0.1,1.1c-0.1,0.4-0.3,0.8-0.5,1.4c-0.3-1.1,0.1-2-0.2-2.8
		c-0.4-0.8-0.2-1.7-0.5-3c-0.2,0.8-0.2,1.2-0.3,1.6c-0.1,0-0.1,0-0.2,0c0-0.5-0.1-1-0.1-1.5c-0.1,0-0.1,0-0.2,0
		c-0.1,0.5-0.2,1-0.2,1.4c-0.3-0.3-0.7-1.1-0.9-1.6c-0.3,1.3-0.6,2.4-0.9,3.8c0.2,0.3,0.5,0.9,0.8,1.4c0.2-0.2,0.3-0.3,0.5-0.4
		c0.9,0.3,0.5,1.2,0.7,1.9C33.9,17.9,34.3,17.9,34.7,17.9z M33,16.7c-0.1,0-0.1,0-0.2,0c0,0.3,0,0.5,0,0.8c0.1,0,0.1,0,0.2,0
		C33,17.3,33,17,33,16.7z M33.8,18.7L33.8,18.7c-0.1,0.1-0.1,0.3-0.1,0.4h0.1C33.8,19,33.8,18.8,33.8,18.7z M32.8,18.3L32.8,18.3
		c0.1-0.1,0.1-0.3,0.1-0.4h-0.1C32.8,18.1,32.8,18.2,32.8,18.3z"/>
	<path class="st0" d="M61.6,32.6c1-0.2,2.1-0.3,3.1-0.5c-0.6-0.9-0.2-1.8-0.3-2.7c0.5,0.6-0.1,1.8,1.1,2c0,0.1,0,0.3,0,0.4
		c0,0,0,0-0.1-0.1c-0.1,0.1-0.2,0.2-0.3,0.3l0.1,0.1c0.1-0.1,0.2-0.2,0.3-0.3c0.1-0.1,0.2-0.3,0.4-0.4c0.4,0,0.8,0,1.4,0
		c-0.3-0.5-0.5-0.9-0.7-1.2c-0.2,0.2-0.3,0.3-0.8,0.7c0.3-0.7,0.4-1,0.5-1.3c-0.2-0.1-0.4-0.1-0.6-0.2c-0.2-0.7-0.3-1.4-0.6-2.6
		c0.5,0.7,0.8,1.1,1.1,1.5c0.1-0.1,0.3-0.3,0.6-0.6c0-0.4,0-0.9,0-1.4c0.4-0.1,0.8-0.3,1.2-0.4c0,0.7,0,1.4,0,2.2
		c-0.2,0.1-0.4,0.1-0.7,0.2c0.1,0.2,0.3,0.5,0.3,0.7c0.1,0.2,0,0.5,0,0.8c0,0,0,0-0.1-0.1c-0.1,0.1-0.2,0.2-0.3,0.3l0.1,0.1
		c0.1-0.1,0.2-0.2,0.3-0.3c0.2-0.1,0.4-0.3,0.7-0.4c0.3,0.9-0.8,1.4-0.7,2c0.8,0.6,1.6,1.2,2.4,1.7s1.4,1,1.8,1.8s1.3,1.3,1.9,2
		c0.2,0.2,0.2,0.6,0.3,0.9c-0.2-0.1-0.5-0.2-0.9-0.4c0.3,0.8,0.5,1.4,0.7,2c0.2,0,0.3-0.1,0.6-0.1c0-0.4,0-0.7,0-1.1
		c0.8,0.1,0.3,0.7,0.5,1.1c0.4,1,0.6,2,0.9,3.2c-0.8,0-1.4,0.1-2.1,0.1c0-0.9,0-1.8,0-2.5c-0.3-0.3-0.4-0.4-0.7-0.7
		c-0.3,0.1-0.6,0.3-0.9,0.4c0.2-0.6,0.4-1.2,0.6-1.9c-0.5-0.7-0.6-1.9-1.8-2.5c-0.2,0.1-0.4,0.2-0.5,0.3c-0.3-0.3-0.6-0.7-0.8-1
		c0.1,0,0.3-0.1,0.6-0.2c-0.7-0.6-1.3-1.2-2-1.8c-0.8,0-1.6,0-2.5,0c-1.3-0.1-2.5,0.3-3.7,0.7c-0.4,0.1-0.9,0.4-1.1-0.3
		C61.1,32.9,61.6,33.1,61.6,32.6z M74.4,41.6c0.1,0,0.1,0,0.2,0c0-0.5,0-1,0-1.5c-0.3,0.1-0.5,0.1-0.6,0.1
		C74.1,40.7,74.3,41.1,74.4,41.6z"/>
	<path class="st0" d="M26.4,43.6c-0.8-0.4-0.6-1.4-1.3-1.9c0.2-0.3,0.3-0.5,0.6-0.8c-0.7-0.9-0.3-2-0.2-3.2c0.1,0.2,0.2,0.4,0.2,0.6
		c0.4,0,0.7,0,1.1,0c0-0.1,0-0.4,0-0.6c0.2-0.1,0.4-0.2,0.6-0.4c0.2,0.2,0.4,0.4,0.6,0.6c-0.2,1-1.4,1.7-0.7,2.9c0.1,0,0.3,0,0.4,0
		c0.6-0.4-0.3-1.3,0.6-1.6c-0.2,1,0.9,1.1,1.1,1.8c-0.1,0.3-0.3,0.5-0.5,0.8c0.6,0.1,1.1,0.1,1.5,0.2c0.2-0.2,0.4-0.4,0.5-0.5
		c-0.1-0.5-0.1-0.9-0.2-1.4c-0.1-0.3-0.2-0.6-0.4-1.3c0.5,0.5,0.7,0.7,1.1,1.1c0.1,0,0.4,0.1,0.8,0.1c0,0.1,0,0.1,0,0.2
		c-0.3,0.1-0.6,0.1-1.1,0.2c0.1,0.3,0.3,0.6,0.4,1.1c0.5,0,1,0.1,1.5,0.1c-0.1,0.7-0.3,1.3-0.4,1.9c-0.5,0.4-1,0.8-1.3,1.1
		c-0.5,0.2-0.9,0.3-1.4,0.4c-0.6-0.5-0.9-1.2-0.9-2.1c0-0.4-0.4-0.7-0.7-1.2c-0.3,0.5-0.5,0.8-0.6,1.1c-0.2,0-0.4,0-0.6,0
		c0.1-0.4,0.3-0.8,0.4-1.2c0,0,0,0,0.1,0.1c0.1-0.1,0.2-0.2,0.3-0.3l-0.1-0.1c-0.1,0.1-0.2,0.2-0.3,0.3c-0.4-0.1-0.7-0.4-0.8-0.9
		c0-0.3-0.2-0.7-0.4-1.2c0.1-0.1,0.2-0.3,0.4-0.6c-0.4,0-0.8,0-1.3-0.1c0.3,0.8,0.6,1.5,0.8,2.2c-0.4,0.3-0.5,0.8-0.2,1.3
		C26.5,42.8,26.3,43.2,26.4,43.6z M29.7,43.6c0.1,0,0.1,0,0.2,0c0-0.3,0-0.5,0-0.8c-0.1,0-0.1,0-0.2,0
		C29.7,43.1,29.7,43.4,29.7,43.6z"/>
	<path class="st0" d="M38.3,19.5c-0.1,0-0.2,0-0.2,0c-0.2,1.8-0.7,3.5-0.6,5.3c0,0.2,0.2,0.3,0.3,0.3c-0.2,0.5-0.3,1-0.4,1.4
		c-0.3-0.1-0.5-0.3-0.8-0.5c-0.2,0.4-0.3,0.6-0.5,1c-0.3-0.2-0.6-0.4-0.9-0.6c0.2-0.9,0.3-1.8,0.5-2.6c0.2,0,0.4,0,0.7,0
		c-0.2,0.6-0.3,1.2-0.4,1.8c0.4,0.1,0.5-0.3,0.7-0.4c0.2-1.1,0.4-2.2,0.5-3.3c-0.5-0.1-0.9-0.2-1.5-0.3c0.5-0.2,0.7-0.2,1-0.3
		c-0.2-0.4-0.4-0.8-0.6-1.2c0.2-0.7,0.4-1.5,0.6-2.3c-0.6-1.2-0.5-2.6,0.3-3.9c0.2,0.8,0.4,1.4,0.7,2.3c0.3,0.4,0.7,0.9,1.1,1.4
		c-0.1,0.2-0.4,0.3-0.4,0.5C38.2,18.5,38.3,19,38.3,19.5z"/>
	<path class="st0" d="M37.8,47.6c-0.1,0.1-0.3,0.3-0.5,0.4c-0.3,0.1-0.7-0.1-0.7,0.4c-0.3-0.2-0.6-0.5-0.9-0.7
		c-0.3-0.1-0.7-0.2-1.2-0.2c0.1-0.3,0.2-0.5,0.3-0.9c-0.4-0.6-0.9-1.3-1.4-2c0.2,0,0.4-0.1,0.6-0.1c0.7-1-0.8-2-0.2-3
		c0.9,0.2,0.6,1,0.9,1.6c0.1-0.5,0.2-0.9,0.3-1.5c0.3,1,0.5,1.7,0.8,2.5c0.2,0,0.5,0,0.8,0c0.2,0.5,0.5,0.8,0.4,1.3
		c-0.1,0.3,0.1,0.8,0.4,1.1c0.3,0.4,0.8,0.6,1,1.3C38.3,47.6,38.1,47.6,37.8,47.6c-0.5-0.9-1-1.8-1.5-2.8c-0.3-0.1-0.7-0.2-1.5-0.5
		c0.4,0.4,0.5,0.6,0.6,0.7c-0.1,0.1-0.2,0.3-0.4,0.4c0.6,0.7,1.2,1.4,1.9,2.1C37.2,47.6,37.5,47.6,37.8,47.6z M35.5,43.5L35.5,43.5
		c-0.1-0.1-0.3-0.1-0.4-0.1v0.1C35.2,43.5,35.4,43.5,35.5,43.5z"/>
	<path class="st0" d="M30.5,23.4c-0.6-0.6,0.4-1.2,0.2-2.1c-0.1-0.1-0.3-0.3-0.6-0.7C30,21.1,30,21.5,29.9,22
		c-1.3-0.4-1.5-1.4-1.5-2.6c1.2-0.5,1-2.1,2.2-3c0.5,1.2,1.3,2.5,0.9,3.6C31,21.1,31.8,22.5,30.5,23.4z M30.7,18
		c-0.3,0.2-0.6,0.3-1.2,0.6c0.7,0,0.9,0,1.2,0C30.7,18.4,30.7,18.2,30.7,18z M30.1,19.9h0.1c0-0.1,0-0.3,0-0.4h-0.1
		C30.1,19.6,30.1,19.8,30.1,19.9z"/>
	<path class="st0" d="M58.4,44c0-0.2,0-0.5,0-0.8c0.3,0,0.6,0,1.2-0.3c0,0.1-0.2,0.3-0.5,0.6c0.4,0,0.6,0.1,0.9,0.1
		c0-0.3,0-0.5-0.4-0.6c-0.3,0-0.3-0.3-0.2-0.8c-0.1,0-0.5-0.1-0.9-0.2c0.1-0.1,0.2-0.3,0.4-0.4c0-0.6,0-1.1,0-1.9
		c0.3,0.2,0.4,0.3,0.7,0.5c0.4-0.4,0.9-0.9,1.4-1.3c0.1,0.1,0.1,0.1,0.2,0.2c-0.4,1.1-0.7,2.1-1.1,3.3c0.2,0.2,0.5,0.5,0.9,0.8
		c0.2-0.4,0.4-0.7,0.7-1.3c0,0.9,0,1.4,0,1.9c-0.7-0.1-1,0.3-1.2,0.9c-0.1,0.3-0.2,0.6-0.3,1c0.2,0.1,0.6,0.3,0.6,0.3
		c0,0.7,0,1,0,1.7c-0.7-1-1.2-1.6-1.6-2.3c0.2-0.3,0.3-0.5,0.5-0.8C59.2,44.3,58.8,44.2,58.4,44z M60,40.8c0-0.1,0-0.1,0-0.2
		c-0.3,0-0.5,0-0.8,0c0,0.1,0,0.1,0,0.2C59.5,40.8,59.7,40.8,60,40.8z"/>
	<path class="st0" d="M52.1,33c0.1-0.1,0.4-0.2,0.4-0.3c0-0.5,0-1,0-1.5c0.4-0.2,0.8-0.4,1.2-0.6c0.9,0.6,0.9,0.6,1.6-0.4
		c0.1-0.2,0.3-0.3,0.5-0.4c0,0,0.1,0,0.3,0.1c-0.2,0.2-0.3,0.3-0.4,0.5c0.1,0.6,0.2,1.2,0.4,1.8c-0.2-0.2-0.3-0.4-0.4-0.5
		c-0.3,0.3-0.6,0.6-0.9,0.9c-0.1-0.1-0.1-0.2-0.2-0.2c-0.1,0.6-0.4,1.2-0.3,1.7c0.2,0.6,0.2,1.1,0.1,1.7c-0.2-0.2-0.3-0.3-0.5-0.4
		c-0.1,0.3-0.2,0.5-0.4,0.8c-0.2-0.9-0.4-1.8-0.6-2.8c-0.3,0.2-0.5,0.3-0.8,0.4C52.1,33.4,52.1,33.2,52.1,33z M54.1,31.6
		c-0.3,0.3-0.5,0.3-0.4,0.4c0,0.2,0.1,0.4,0.2,0.6c0.1-0.2,0.1-0.5-0.6,1c0.3-0.3,0.5-0.3,0.4-0.4c0-0.2-0.1-0.4-0.2-0.6
		C53.4,32.8,53.4,33,54.1,31.6z"/>
	<path class="st0" d="M50.1,37.7c-0.6,0.1-0.5,0.4-0.2,0.8c0.1,0.2,0.2,0.5,0.2,0.8c-0.3,0.1-0.8-0.2-0.8,0.4c-0.3,0-0.5,0-0.9,0
		c-0.4-0.3-0.9-0.6-1.4-1c-0.1-0.3-0.2-0.8-0.4-1.3c0.1-0.2,0.2-0.4,0.4-0.8c0.4-0.2,0.9-0.4,1.5-0.6C49.1,36.6,49.6,37.1,50.1,37.7
		z"/>
	<path class="st0" d="M44.6,42.8c-0.2,0-0.4,0-0.7,0c-0.2,0.6-0.4,1.2-0.7,1.8c0.4,0.1,0.6,0.2,0.9,0.3c0,0.2,0,0.4,0,0.7
		c-0.7-0.1-1.2-0.3-1.6-0.9c-0.2-0.4-0.8-0.6-1.1-0.8c0-0.6,0-1.1,0-1.5c0.4-0.4,0.8-0.8,1.2-1.2c0.6,0.2,1.2,0.9,1.9-0.2
		C44.5,41.8,44.6,42.3,44.6,42.8z"/>
	<path class="st0" d="M67.1,24.6c-0.6-0.3-1.2-0.5-1.4-1.2c-0.2,0-0.4,0-0.6,0c0-0.6,0.1-1.2,0-1.8c-0.1-0.6,0.2-1,0.4-1.4
		c0.2,0,0.5,0.1,0.7,0.1c-0.1,0.7,0.7,0.5,0.9,1c-0.1,0.2-0.2,0.5-0.5,1c0.7-0.4,1-0.6,1.4-0.8c-0.2-0.3-0.3-0.6-0.5-0.8
		c0.2-0.4,0.3-0.7,0.5-1c0.3,1.1,0.6,2.2,1,3.5c-0.3-0.2-0.5-0.3-0.8-0.4c-0.2,0.1-0.5,0.3-0.7,0.4c-1.1-0.2-1.1-1.4-2-2
		c0,0.5,0,0.9,0,1.5c0-0.1,0,0,0,0c0.7,0.2,0.9,0.9,1.5,1.3C67.2,24.3,67.1,24.5,67.1,24.6z"/>
	<path class="st0" d="M28.8,54.3c0-0.4,0-0.8,0-1.2c0.1-0.2,0.4-0.3,0.4-0.5c-0.1-0.5-0.2-0.9-0.4-1.3c0.2-0.2,0.4-0.4,0.7-0.7
		c0,0.4,0,0.6,0.1,0.8s0.3,0.3,0.4,0.5c0,0.3,0.1,0.5,0.1,1c0.4-0.3,0.6-0.4,0.8-0.5c0.2,0.2,0.4,0.5,0.6,0.7c0,0.4,0.1,0.8,0.1,1.2
		c0.3,0,0.5,0,0.7,0c-0.2,0.5-0.3,1-0.6,1.8c-0.4-0.6-0.6-1-0.8-1.4c-0.3,0.5-0.5,1-0.8,1.6c-0.2-0.4-0.4-0.8-0.6-1.2
		c0.4-0.3,0.8-0.6,1.2-1c-0.1-0.1-0.1-0.2-0.2-0.3c-0.3,0.1-0.7,0.3-1,0.4c0-0.3-0.1-0.5-0.1-0.8c-0.1,0-0.2,0-0.3,0
		c0,0.2,0,0.5,0,0.7C29,54.3,28.9,54.3,28.8,54.3z"/>
	<path class="st0" d="M39.4,25.8c0-0.5,0-0.9,0-1.4c-0.2-0.1-0.4-0.1-0.8-0.3c0.1-0.3,0.2-0.6,0.4-0.9c-0.1-0.1-0.2-0.2-0.3-0.3
		c0.7-0.6,1.1,0.2,1.9,0.3c-0.1-0.4-0.2-0.8-0.3-1.2c0.1-0.5,0.3-1.2,0.5-2c0.2,0,0.4,0,0.6,0c0.2,0.7-0.3,1.5,0.4,2.2
		c0.1,0.1,0.1,0.6,0,0.7c-0.9,0.7,0,1.4,0.1,2c-0.9,0.1-0.7-0.7-0.9-1c-0.3,0-0.6,0-0.9,0C39.4,24.4,40.4,25.4,39.4,25.8z"/>
	<path class="st0" d="M64.8,23.9c-0.4,0.3-0.7,0.6-1.1,0.9c0,0.3,0,0.6,0,1c0.5-0.1,0.9-0.3,1.4-0.4c0,0.1,0.1,0.2,0.1,0.2
		c-0.3,0.2-0.6,0.4-1.1,0.8c-0.1,0.2-0.3,0.7-0.6,1.2c-0.2,0.1-0.4,0.1-0.7,0.2c0,1.2,0,2.5,0,3.8c-0.3,0-0.5,0-0.8,0
		c0.1-0.3,0.2-0.7,0.3-1.1c-0.1-0.6-0.3-1.4-0.5-2.5c-0.1,0-0.4-0.2-1-0.7c1,0,1.6,0,2.4,0c-0.1-0.9-0.2-1.7-0.4-2.7
		c0.1-0.1,0.2-0.4,0.5-0.9C63.7,23.9,64.3,23.9,64.8,23.9z"/>
	<path class="st0" d="M65.9,47.2c0,0.2,0,0.5,0,0.8c-0.5-0.2-0.8-0.4-1.2-0.6c0.8-0.6,0.2-1.4,0.5-2.2c-0.4,0.2-0.5,0.3-0.9,0.4
		c0-0.3,0-0.6,0-0.8c0.5,0,1-0.2,1.4,0.4c0.1-0.2,0.1-0.4,0.2-0.7c-0.4-0.1-0.8-0.2-1.3-0.3c0.2-0.6,0.4-1.2,0.6-2.1
		c0.3,0.7,0.5,1.1,0.8,1.7c0,0,0.3,0.1,0.5,0.2c0,0.5,0.1,1,0.1,1.6c0.3-0.5,0.6-0.9,0.9-1.4c0.7,0.9-0.4,1.3-0.2,1.9
		c-0.5-0.2-0.9-0.3-1.3-0.4c-0.3,0.3-0.5,0.5-0.9,0.8C65.6,46.9,65.8,47.1,65.9,47.2z"/>
	<path class="st0" d="M31.6,38.1c0.3-1.3,0.9-2.4,2.4-2.7c0.3,0.2,0.7,0.4,1.1,0.6c0,0.4,0.1,0.8,0,1.1c-0.1,0.4-0.4,0.7-0.7,1
		c-0.2,0.2-0.5,0.4-0.8,0.7c-0.2-0.5-0.5-1.2-0.7-1.8c-0.1,0-0.2,0-0.5,0c-0.1,0.5-0.1,1.1-0.2,1.6C32,38.3,31.8,38.2,31.6,38.1z"/>
	<path class="st0" d="M31.4,26.9c0.2,0.4,0.3,0.8,0.5,1.2c-0.3,0.7-0.6,1.6-1,2.4c-0.2-0.2-0.5-0.5-0.6-0.6c-0.4,0.3-0.7,0.6-1.3,1
		c0.3,0.5,0.5,1,0.8,1.5c-0.3,0-0.6,0-0.8,0c-0.3-0.3-0.6-0.6-0.9-1c0,0.1,0,0,0-0.1c0.2-0.4,0.4-0.8,0.7-1.1
		c0.9-0.8,1.7-1.7,2.1-2.9C31,27.2,31.3,27.1,31.4,26.9z"/>
	<path class="st0" d="M40.5,29.7c0.2-0.6,0.3-1.1,0.5-1.6c-0.1-0.3-0.3-0.6-0.6-1.3c0.5,0.4,0.7,0.5,0.9,0.7c1-0.9,1.9-0.3,2.8,0.5
		c-0.4,0.6-0.8,1.2-1.2,1.8C42.2,29.7,41.4,29.7,40.5,29.7z M42.6,28.2c-0.7,0-1.1,0.3-1.2,1.1c0.4,0,0.8,0,1.2,0
		C42.6,28.9,42.6,28.6,42.6,28.2L42.6,28.2c0.2,0,0.3-0.1,0.4-0.2l-0.1-0.1C42.7,28,42.7,28.1,42.6,28.2z"/>
	<path class="st0" d="M56.2,9.7c-0.4,0.7-0.8,1.3-1.2,2c-0.5-0.3-1.1-0.6-1.7-0.9c0.1-0.3,0.3-0.5,0.3-0.8c0.1-0.3,0-0.7,0-1
		c0.3-0.3,0.7-0.6,1-1C55.1,8.5,55.6,9,56.2,9.7z M55.1,9.6L55.1,9.6C55,9.7,55,9.9,55,10h0.1C55.1,9.9,55.1,9.7,55.1,9.6z"/>
	<path class="st0" d="M40.5,40c-0.4-0.2-0.8-0.5-1.2-0.7c-0.6-0.9,0.1-1.6,0.3-2.3c0.9-0.4,1.5,0.2,2.4,0.6
		C41.4,38.4,40.9,39.2,40.5,40z"/>
	<path class="st0" d="M34.3,63c0,0.2,0,0.5,0,0.9c-1.9-1.7-3.3-3.4-4.6-5.3c-0.1-0.2-0.1-0.5-0.1-0.7c0.4,0.4,0.8,0.8,1.2,1.2
		c0.3,0.4,0.6,0.9,1,1.1c1.1,0.6,1.9,1.5,2.6,2.4c-0.1,0-0.2,0.1-0.3,0.1C34.1,62.8,34.2,62.9,34.3,63z"/>
	<path class="st0" d="M36.5,28.3c0.2,0.5,0.3,1,0.5,1.6c-0.1,0.2-0.3,0.6-0.5,1.1c-0.5,0-1.1,0-1.7,0c-0.4-0.9,0-1.7,0.3-2.7
		C35.6,28.3,36,28.3,36.5,28.3z"/>
	<path class="st0" d="M51.3,11.2c-0.2,0.4-0.4,0.8-0.6,1.1c-0.3,0.1-0.6,0.3-0.9,0.4c-0.9-0.8-1-1.8-0.9-3c0.5,0,1,0,1.5,0
		C50.7,10.2,51,10.6,51.3,11.2z"/>
	<path class="st0" d="M29.5,34.5c0.4-1,0.8-1.9,1.2-2.7c0.6,0,1,0,1.6,0c0.2,0.4,0.3,0.8,0.5,1.2C32,34,31.1,34.7,29.5,34.5z
		 M32,33.2c-0.3-0.3-0.5-0.5-0.6-0.7c-0.2,0.4-1,0.6-0.3,1.3C31.3,33.6,31.6,33.5,32,33.2z"/>
	<path class="st0" d="M49.7,16.1c-0.2-1.3,1-1.3,1.6-1.8c0.2,0.1,0.4,0.2,0.4,0.4c0.3,0.4,0.5,0.8,0.7,1.3c-0.4,0.4-0.8,0.8-1.2,1.2
		C50.8,16.8,50.3,16.5,49.7,16.1z M50.3,15.9L50.3,15.9c0.1-0.1,0.1-0.3,0.1-0.4h-0.1C50.3,15.7,50.3,15.8,50.3,15.9z"/>
	<path class="st0" d="M49.7,47.6c-0.2,0.2-0.5,0.3-0.7,0.6c-0.1,0.2-0.1,0.4-0.2,0.6c-0.8-0.7-1.8-0.3-2.6-0.4c0-0.2,0-0.5,0-0.6
		c-0.4-0.4-1.1,0.2-1.2-0.6c0.3,0,0.6,0,1,0c0.1-0.3,0.2-0.5,0.5-1c0.3,0.7,0.5,1.2,0.7,1.7c0.9-0.1,0.5-0.9,0.8-1.6
		c0.1,0.5,0.2,0.9,0.3,1.4c0.4-0.2,0.8-0.3,1.2-0.5C49.6,47.3,49.6,47.4,49.7,47.6z"/>
	<path class="st0" d="M41.4,32.9c0.5-0.7,1.2-0.9,1.9-1.2c0.8,0.3,1.1,0.8,0.7,1.6c-0.2-0.2-0.3-0.3-0.4-0.4
		c-0.2,0.2-0.3,0.4-0.6,0.6c0.2,0.1,0.5,0.2,0.7,0.4C43.5,34.5,42.5,34.1,41.4,32.9z"/>
	<path class="st0" d="M36.7,87.5c-0.1-0.2-0.2-0.4-0.3-0.6c0.8-0.3,1.7-0.7,2.5-1c0.8-0.2,1.7-0.3,2.6-0.4c-0.1,0.3-0.3,0.5-0.4,0.8
		c-0.3,0.1-0.6,0.2-0.9,0.3c-0.9,0.3-1.8,0.6-2.7,0.9C37.2,87.6,36.9,87.5,36.7,87.5z"/>
	<path class="st0" d="M41,45.2c0.3,0.2,0.5,0.4,0.8,0.7c-0.2,0.4-0.3,0.8-0.5,1.2c-0.3,0.2-0.7,0.3-1.1,0.5c0-0.1-0.1-0.2-0.1-0.3
		c-0.1,0.1-0.2,0.2-0.3,0.3c-0.1,0-0.3,0-0.4,0c-0.1-0.3-0.2-0.7-0.3-1c0.3-0.1,0.7-0.3,1.1-0.5c0,0.2,0,0.5,0.1,0.8
		c0.3,0,0.5-0.1,0.7-0.1c0-0.3,0-0.4-0.1-0.7c-0.3,0-0.5,0-0.7-0.1c0-0.2,0-0.4,0-0.7c-0.3-0.1-0.7-0.1-1.1-0.2
		c0-0.2-0.1-0.3-0.1-0.7c0.3,0,0.6,0,0.9-0.1C40.3,44.7,40.7,45,41,45.2z"/>
	<path class="st0" d="M49.2,44.8c0.1-0.3,0.2-0.5,0.4-1c0.1,0.5,0.2,0.9,0.2,1.1c0.3,0.2,0.6,0.4,1.1,0.9c-1.2,0-1.9,0-2.5,0
		c-0.3-0.3-0.7-0.6-1-0.9c0.2-0.1,0.4-0.1,0.8-0.2c0-0.4,0-0.9,0-1.7c0.4,0.6,0.6,1,0.7,1.3C48.4,44.7,48.5,44.9,49.2,44.8z"/>
	<path class="st0" d="M55.8,29.4c-0.1-0.4-0.1-0.7-0.2-1.2c-0.5,0.2-0.9,0.5-1.4,0.7c-0.2-0.6-0.3-1.2-0.6-1.9
		c0.6,0.3,1.1,0.5,1.7,0.8c0.8-0.4,1.2-1,1.4-2c0.1,0.5,0.1,0.9,0.2,1.3c-0.3,0.3-0.5,0.5-0.8,0.8c0,0.5-0.1,1-0.1,1.4
		C55.9,29.4,55.8,29.4,55.8,29.4z"/>
	<path class="st0" d="M63.2,46.6c-0.1,0.2-0.3,0.3-0.6,0.7c0.5-0.1,0.8-0.2,1-0.3s0.4-0.1,1-0.3c-0.3,0.6-0.4,0.9-0.6,1.3
		c-0.8-0.3-1.5-0.5-2.2-0.8c-0.1-0.3-0.1-0.7-0.3-1c-0.1-0.3-0.4-0.4-0.5-0.9c0.3,0.1,0.5,0.1,0.7,0.3
		C62.2,45.8,62.7,46.2,63.2,46.6z"/>
	<path class="st0" d="M68,42.4c0.7,0.2,1.3,0.5,1.9,0.7c0.1,0,0.2,0.2,0.3,0.3c-0.1,0.3-0.2,0.5-0.3,0.8c-0.1,0.2-0.1,0.5-0.3,0.7
		c0-0.5-0.1-1-0.1-1.5c-0.2,0-0.4-0.1-0.9-0.1c0.2,0.3,0.4,0.5,0.5,0.7c-0.2,0.5-0.3,1.1-0.6,2.1C68.4,44.5,67.7,43.6,68,42.4z"/>
	<path class="st0" d="M50.4,27.9c-0.1,0.4-0.2,0.7-0.4,1.3c0.4-0.4,0.5-0.5,0.7-0.7c0.3,0.9-0.5,1.4-0.6,1.9c0.2,0.6,0.3,1.1,0.5,2
		c-0.5-0.5-0.7-0.6-0.8-0.7c-0.2-1.4-0.3-2.8-0.5-4.5c0.3,0.3,0.4,0.4,0.5,0.5C50.1,27.8,50.3,27.9,50.4,27.9z"/>
	<path class="st0" d="M44.2,15.9c0,0.8,0,1.7,0,2.7c0.5,0.2,1,0.4,1.6,0.7c0,0.9-0.7,0.7-1.1,0.4c-0.4-0.3-0.5-0.1-0.7,0.1
		c-0.2-0.3-0.4-0.5-0.6-0.8c0.5-0.9,0.7-1.7,0-2.6C43.7,16.3,43.9,16.1,44.2,15.9z"/>
	<path class="st0" d="M42.8,21.7c-0.3,2.2-0.3,2.2,1,4.3c-0.5,0.2-1,0.3-1.6,0.5c-0.3-0.6,0.9-1.2,0.1-2c-0.4-0.4-0.1-1.4,0.1-1.9
		C42.6,22.3,42.7,22,42.8,21.7z"/>
	<path class="st0" d="M46.3,24.7c1.1,0.7,0.4,1.8,0.7,2.5c-0.3,0.3-0.5,0.5-0.7,0.7c-0.3-0.5-0.6-0.9-0.9-1.4
		C45.7,25.9,46,25.3,46.3,24.7z"/>
	<path class="st0" d="M58.8,46.8c-0.3-0.2-0.7-0.5-1-0.7c-0.1,0.1-0.2,0.2-0.3,0.3c-0.8-0.9-0.6-2.1-0.6-3.1
		c0.2,0.2,0.5,0.3,0.8,0.5c-0.1,0.2-0.2,0.3-0.4,0.5c0.3,0.2,0.5,0.4,0.8,0.6c-0.1,0.4,0,0.8,0.4,1C58.8,46,58.9,46.4,58.8,46.8z"/>
	<path class="st0" d="M44.2,15.9c0.5-0.8,0.9-1.6,1.3-2.3c0.1,0,0.1,0,0.2,0.1c-0.1,0.3-0.1,0.6-0.2,1.1c0.1,0.1,0.4,0.2,0.6,0.3
		c0-0.1,0.1-0.3,0.3-0.8c0.1,0.5,0.2,0.8,0.2,1.2c-0.5,0.3-1,0.6-1.4,0.9C44.9,16.1,44.6,16,44.2,15.9z"/>
	<path class="st0" d="M64,12c0.1,0.3,0.2,0.7,0.3,1.1c0,0-0.1,0.2-0.4,0.4c0.5,0,0.9,0.1,1.3,0.1c-0.3,0.2-0.6,0.5-1,0.8
		c-0.2-0.3-0.3-0.5-0.6-0.9c-0.7,0.1-1.3,0.2-1.9,0.3c0.3-0.7,0.7-0.9,1.4-0.6C63.3,12.8,63.6,12.4,64,12z"/>
	<path class="st0" d="M58.5,22.5c0.2,0.3,0.3,0.3,0.5,0.5c0.3-0.1,0.6-0.2,1-0.4c0,0.9,0,1.6,0,2.4c-0.1,0-0.1,0-0.2,0
		c-0.1-0.2-0.1-0.5-0.2-0.7c0-0.2,0-0.5,0-1c-0.5,0.2-0.8,0.4-1.2,0.6c0,0.6,0,1.2,0,2.3C57.9,24.6,57.9,24.6,58.5,22.5z"/>
	<path class="st0" d="M59.7,13c-0.3,0.6-0.5,0.9-0.8,1.5c-0.5-0.2-0.9-0.5-1.6-0.8c0.5-0.6,0.9-1,1.4-1.5
		C59.1,12.5,59.4,12.7,59.7,13z M58.8,13.4v-0.1c-0.1,0-0.3,0-0.4,0v0.1C58.6,13.4,58.7,13.4,58.8,13.4z"/>
	<path class="st0" d="M58.4,29.4c-0.3,0.9,0.4,1.6,0.4,2.4c-0.2-0.1-0.5-0.2-0.8-0.4c0,0.6,0,1.1,0,1.6c-0.3-0.2-0.5-0.3-0.7-0.5
		c0.2-0.9,0.3-1.7,0.5-2.6C57.9,29.7,58.2,29.6,58.4,29.4z"/>
	<path class="st0" d="M29.6,57.9c-1.5-0.7-1.6-2.2-2-3.6c0.2-0.1,0.4-0.2,0.6-0.3c0.2,0.1,0.4,0.2,0.6,0.3c-0.1,0.4-0.2,0.8-0.4,1.3
		c0.3,0.4,0.7,1,1.1,1.5C29.5,57.4,29.5,57.6,29.6,57.9z"/>
	<path class="st0" d="M55.7,13.2c-0.4,1-1.2,0.8-1.8,0.8c-0.5-0.7-0.1-1.3,0.4-1.5C54.9,12.1,55.4,12.5,55.7,13.2z M54.6,13.6
		c0.1,0,0.1,0,0.2,0c0-0.3,0-0.5,0-0.8c-0.1,0-0.1,0-0.2,0C54.6,13,54.6,13.3,54.6,13.6z"/>
	<path class="st0" d="M45,43.2c0.4-0.4,0.8-0.8,1.2-1.2c0.3-0.1,0.8,0.2,0.8-0.4c0.3,0.2,0.5,0.3,0.8,0.5c-0.9,0.6-1.7,1.2-2.8,2
		C45,43.7,45,43.5,45,43.2z"/>
	<path class="st0" d="M51.3,25.4c1.4,0.2,1.6-0.7,2.3-1.1c0.1,0.2,0.3,0.5,0.5,0.8c-0.2,0.5-0.3,1.1-0.6,1.8c-0.1-0.6-0.2-1-0.3-1.6
		c-0.2,0.5-0.2,0.7-0.3,1C52.4,26,52,25.8,51.3,25.4z"/>
	<path class="st0" d="M64.5,17.1c0.6,0,0.9,0,1.3,0c0.1-0.3,0.2-0.5,0.4-0.8c0.7,0.8-0.5,1.4-0.1,2.3c0.3,0.2,0.7,0.4,1.1,0.7
		c-0.6,0.4-1,0.2-1.5-0.4c0-0.4,0-0.8,0-1.2C65.3,17.6,65,17.4,64.5,17.1z"/>
	<path class="st0" d="M39.4,18.7C39.3,18.8,39,18.9,39,19c0,0.5,0,1,0,1.6c-0.2,0-0.5,0.1-0.8,0.1c0-0.5,0-0.8,0-1.2
		c0.1-0.2,0.4-0.3,0.4-0.5c0.1-0.5,0-1,0-1.5C39.3,17.7,39.5,18.1,39.4,18.7z"/>
	<path class="st0" d="M26.8,38c-0.4-0.5-0.6-0.6-0.9-0.9c0.2-0.4,0.3-0.8,0.5-1.2c0.3-0.2,0.6-0.3,1-0.5c0,0.3,0,0.6,0,1
		c-0.1,0-0.4,0.1-0.7,0.2C26.8,36.9,26.8,37.3,26.8,38z"/>
	<path class="st0" d="M59.3,17.3c0,0.6,0,0.9,0,1.5c0.6-0.3,1-0.6,1.5-0.9c0.1,0.9-0.7,1.1-1.3,2.2c-0.2-0.7-0.3-1.1-0.3-1.4
		C58.9,18.5,58.6,17.9,59.3,17.3z"/>
	<path class="st0" d="M27.7,34.7c-0.4-0.4-0.7-0.6-1.2-1.1c0.7-0.3,1.2-0.6,2-0.9C28.2,33.6,28,34.1,27.7,34.7z"/>
	<path class="st0" d="M62.8,20.1c0.2-0.2,0.4-0.4,0.6-0.6c0.2,0.7,0.4,1.3-0.4,2c0.4,0.2,0.7,0.4,1.4,0.8c-1.8-0.2-1.9-0.4-1.2-1.7
		C63,20.4,62.9,20.2,62.8,20.1z"/>
	<path class="st0" d="M26.8,9.5c-0.3,0.2-0.4,0.3-0.4,0.3c-0.3-0.2-0.6-0.3-0.9-0.4c0.4-0.7,0.8-1.2,1.2-1.7C27,8.3,26.6,9,26.8,9.5
		z"/>
	<path class="st0" d="M31.5,47.5c-0.6,0-1.2,0-1.9,0c0.5-0.5,1-0.9,1.4-1.3c0.2,0.2,0.6,0.5,0.9,0.8C31.8,47.2,31.6,47.4,31.5,47.5z
		"/>
	<path class="st0" d="M51.3,40.9c0,0.2,0,0.5,0,1.1c-0.7-0.8-1.1-1.3-1.6-1.9c0.6,0,0.3-0.5,0.4-0.8c0.6,0.2,0.5,0.9,0.8,1.3
		C51,40.7,51.2,40.8,51.3,40.9z"/>
	<path class="st0" d="M47.1,30.6c-0.2-0.4-0.4-0.7-0.6-1.1c0.5,0,0.9,0,1.5,0c0.2,0.2,0.4,0.5,0.9,1.2c-0.7-0.3-1-0.4-1.2-0.5
		C47.5,30.3,47.3,30.4,47.1,30.6z"/>
	<path class="st0" d="M65.9,89.1c1,0.4,2.2,0.5,2.8,1.6C67.7,90.3,66.6,90.2,65.9,89.1z"/>
	<path class="st0" d="M58.8,31.8c0.2,0.1,0.4,0.2,0.6,0.4c0.1-0.2,0.2-0.5,0.3-0.8c0.2,0,0.4,0,0.6,0c0,0.3,0,0.5,0,0.8
		c-0.5,0.3-1.1,0.5-1.6,0.8C58.8,32.6,58.8,32.2,58.8,31.8z"/>
	<path class="st0" d="M64.4,44.8c-0.4,0-0.7,0-1,0c-0.1,0.3-0.2,0.5-0.5,1c0-0.8,0-1.2,0-1.7C63.6,43.8,64.1,44.1,64.4,44.8z"/>
	<path class="st0" d="M45,40.9c0.6,0,1.2,0,2,0c0,0.3,0,0.6,0,0.8c-0.2-0.1-0.4-0.2-0.8-0.4c0,0.3,0,0.6,0,0.8
		C45.8,41.7,45.4,41.3,45,40.9z"/>
	<path class="st0" d="M44.2,27.6c0-0.9,0-1.4,0-2c0.2-0.2,0.4-0.4,0.9-0.9c-0.3,0.8-0.4,1.2-0.6,1.6c0.1,0.2,0.2,0.4,0.4,0.5
		C44.8,27,44.6,27.2,44.2,27.6z"/>
	<path class="st0" d="M46,22.1c-0.5,1-0.4,2-1.3,2.5C45,23.8,44.8,22.7,46,22.1z"/>
	<path class="st0" d="M49.5,27.7c0.2-0.8,0.4-1.3,0.6-2.1c0.4,0.8,0.6,1.2,0.8,1.7c-0.1,0.1-0.1,0.1-0.2,0.2
		c-0.1-0.1-0.3-0.2-0.4-0.4C50.1,27.2,50,27.3,49.5,27.7z"/>
	<path class="st0" d="M35.7,36.6c0.3,0.7,0.5,1.4,0.8,2.2c-0.1,0-0.3,0.1-0.5,0.1C35.8,38.1,35,37.4,35.7,36.6z"/>
	<path class="st0" d="M33.9,88.7c0.7-0.6,1.5-0.8,2.4-0.8c-0.2,0.7-0.6,0.8-1.2,0.8C34.7,88.7,34.3,88.7,33.9,88.7z"/>
	<path class="st0" d="M66.4,43.5c0.2-0.6,0.5-1.2,0.8-1.9c0.3,0.9,0.3,1-0.1,1.7c-0.1,0.2-0.4,0.3-0.5,0.5
		C66.5,43.6,66.5,43.5,66.4,43.5z"/>
	<path class="st0" d="M62,31.8c-0.1,0.3-0.3,0.5-0.4,0.8c-0.3,0.1-0.8-0.2-0.8,0.4c-0.1,0-0.3,0-0.4,0c0-0.3,0-0.5,0-0.8
		C60.9,31.8,61.4,31.7,62,31.8z"/>
	<path class="st0" d="M38.1,44.5c-0.3-0.5-0.7-1-1-1.5c0.2-0.2,0.3-0.4,0.6-0.6c0.2,0.7,0.4,1.3,0.7,2
		C38.2,44.4,38.2,44.5,38.1,44.5z"/>
	<path class="st0" d="M38.3,41.7c0.7,0,1.3,0,2,0c-0.2,0.3-0.4,0.6-0.7,0.9C39.1,42.2,38.7,42,38.3,41.7z"/>
	<path class="st0" d="M71.1,45.3c-0.4-0.1-0.6-0.1-0.8-0.2c0.1-0.7,0.5-1.1,0.8-1.7c0.1,0.1,0.3,0.2,0.4,0.2
		c-0.1,0.2-0.2,0.5-0.3,0.7C71,44.7,71.1,45,71.1,45.3z"/>
	<path class="st0" d="M58.2,48.6c-0.2-0.5-0.4-1-0.7-1.5c-0.1,0.1,0,0,0.3-0.3c0.2,0.6,0.4,1.1,0.7,1.6
		C58.4,48.4,58.3,48.5,58.2,48.6z"/>
	<path class="st0" d="M28.9,37.3c0.6,0,0.9,0,1.4,0c0,0.5,0,1,0.1,1.5c-0.1,0-0.2,0-0.3,0c-0.1-0.3-0.1-0.6-0.2-1
		C29.7,37.7,29.4,37.6,28.9,37.3z"/>
	<path class="st0" d="M63.9,28.3c0,0.7,0,1.5,0,2.2C63.4,29.8,63.6,29,63.9,28.3z"/>
	<path class="st0" d="M39.4,26c-0.2,0.2-0.4,0.4-0.7,0.7c0-0.6,0-1.1,0-1.7C39,25.4,39.2,25.7,39.4,26z"/>
	<path class="st0" d="M60.6,26.1c0.3-0.7,0.5-1.1,0.7-1.5c0.2,0.2,0.4,0.3,0.7,0.6C61.6,25.5,61.3,25.7,60.6,26.1z"/>
	<path class="st0" d="M47.7,31c0.6,0.2,0.9,0.6,0.8,1.2c-0.2,0-0.4,0-0.7,0C47.8,31.8,47.8,31.4,47.7,31z"/>
	<path class="st0" d="M71.9,44.8c0.1,0.3,0.2,0.7,0.3,1.1c-0.6,0.3-0.8-0.2-1.1-0.7C71.4,45.1,71.6,44.9,71.9,44.8z"/>
	<path class="st0" d="M43,36.5c-0.9-0.4,0-1-0.2-1.6c0.2,0.3,0.4,0.5,0.6,0.8C42.8,35.8,43.1,36.2,43,36.5z"/>
	<path class="st0" d="M52.1,35.9c0,0-0.2-0.2-0.4-0.4c0.2-0.2,0.4-0.3,0.6-0.5c0.1,0.1,0.3,0.3,0.6,0.6
		C52.7,35.7,52.4,35.8,52.1,35.9z"/>
	<path class="st0" d="M53.3,21.9c0.5,0.2,1,0.4,1.9,0.7c-0.8,0-1.3,0-1.8,0C53.3,22.4,53.3,22.1,53.3,21.9z"/>
	<path class="st0" d="M61.2,22.8c-0.5-0.3-0.8-0.4-1.2-0.7c0.2-0.2,0.4-0.4,0.5-0.5c0.1,0,0.3,0,0.3,0.1C60.9,22,61,22.3,61.2,22.8z
		"/>
	<path class="st0" d="M45,36.9c-0.4-0.1-0.8-0.3-1.2-0.4c0-0.1,0-0.3,0-0.4c0.3-0.1,0.7-0.2,1.1-0.3C44.9,36.1,44.9,36.5,45,36.9z"
		/>
	<path class="st0" d="M71,36.5c0,0.6,0,1.3,0,2.3C70.5,37.8,70.8,37.2,71,36.5z"/>
	<path class="st0" d="M60.4,21.6c0.6-0.5,0.9-0.8,1.3-1.1c0.2,0.3,0.3,0.5,0.4,0.9C61.6,21.4,61.2,21.5,60.4,21.6z"/>
	<path class="st0" d="M76.6,54.3c0,0.7,0.1,1.4-0.8,1.6c0.1-0.3,0.2-0.6,0.3-0.9c0.1-0.2,0.1-0.5,0.1-0.7
		C76.4,54.3,76.5,54.3,76.6,54.3z"/>
	<path class="st0" d="M47.2,28.1c0.2,0.2,0.4,0.4,0.8,0.7c-0.5,0.1-0.7,0.1-1,0.2c0-0.3-0.1-0.4-0.1-0.6
		C47,28.3,47.1,28.2,47.2,28.1z"/>
	<path class="st0" d="M61.5,43.6c0.3,0,0.5,0,0.8,0.1c-0.2,0.4-0.4,0.8-0.6,1.3C61.6,44.4,61.6,44,61.5,43.6z"/>
	<path class="st0" d="M51,42.8c-0.3,0.6-0.5,0.9-0.8,1.5c0-0.6-0.1-0.9-0.1-1.3C50.4,42.9,50.5,42.8,51,42.8z"/>
	<path class="st0" d="M26.9,44.3c0.4,0.2,0.7,0.5,1.2,0.8C27.2,45.4,27,44.9,26.9,44.3z"/>
	<path class="st0" d="M64.3,42.1c0,0.5,0,1,0,1.4c-0.1,0-0.2,0-0.2,0c0-0.5-0.1-1-0.1-1.5C64.1,42.1,64.2,42.1,64.3,42.1z"/>
	<path class="st0" d="M58.7,46.9c0.6,0.1,1.1,0.3,0.8,1.2C59.1,47.6,58.9,47.3,58.7,46.9z"/>
	<path class="st0" d="M32.3,87.8c0.6-0.2,0.7-0.3,0.9-0.3c0.4,0,0.7,0,1.1,0.3C33.8,87.8,33.2,87.8,32.3,87.8z"/>
	<path class="st0" d="M67.5,47.2c-0.5,0-1.1,0-1.6,0C66.4,46.7,67,46.7,67.5,47.2z"/>
	<path class="st0" d="M59.2,17.5c0-0.3,0-0.5,0.1-0.8c0.2,0,0.4,0,0.7-0.1c0,0.2,0,0.5,0.1,0.7C59.7,17.5,59.5,17.5,59.2,17.5z"/>
	<path class="st0" d="M60.9,25.9c-0.3,0.3-0.5,0.5-0.8,0.8c-0.1-0.4-0.1-0.8-0.2-1.2C60.3,25.6,60.6,25.7,60.9,25.9z"/>
	<path class="st0" d="M51.8,33c0-0.5,0-1,0-1.6c0.1,0,0.1,0,0.2,0c0,0.5,0,1,0,1.6C51.9,33,51.9,33,51.8,33z"/>
	<path class="st0" d="M66.7,26.4c-0.3-0.3-0.5-0.5-0.7-0.7c0.2-0.2,0.3-0.4,0.7-0.9C66.7,25.5,66.7,25.9,66.7,26.4z"/>
	<path class="st0" d="M57.3,19.4c0-0.5,0-1,0-1.4c0.1,0,0.2,0,0.2,0c0,0.5,0.1,1,0.1,1.5C57.5,19.4,57.4,19.4,57.3,19.4z"/>
	<path class="st0" d="M65.6,42c0-0.5,0-1,0-1.4c0.1,0,0.2,0,0.2,0c0,0.5,0.1,1,0.1,1.5C65.8,42,65.7,42,65.6,42z"/>
	<path class="st0" d="M61.1,11.3c0.2-0.1,0.5-0.1,0.8-0.2c0,0.4,0,0.8,0,1.4C61.6,12,61.4,11.7,61.1,11.3z"/>
	<path class="st0" d="M42.3,41.3c0-0.5,0-1,0-1.6c0.1,0,0.1,0,0.2,0c0,0.5,0,1,0,1.6C42.4,41.3,42.4,41.3,42.3,41.3z"/>
	<path class="st0" d="M65.1,38.6c0,0.4,0,0.9,0,1.4c-0.1,0-0.3-0.1-0.3-0.1C64.7,39.1,64.7,39.1,65.1,38.6z"/>
	<path class="st0" d="M50.1,20.4c0,0.3,0,0.6,0,1c-0.2,0-0.4,0.1-0.7,0.2c0.2-0.5,0.4-0.9,0.6-1.3C50,20.3,50,20.4,50.1,20.4z"/>
	<path class="st0" d="M53,21.9c0-0.5,0-1,0-1.6c0.1,0,0.1,0,0.2,0c0,0.5,0,1,0,1.6C53.1,21.9,53.1,21.9,53,21.9z"/>
	<path class="st0" d="M69.6,38.9c0-0.8,0-1.2,0-1.5c0.1,0,0.1-0.1,0.2-0.1c0.1,0.3,0.2,0.5,0.3,0.7C70,38,69.9,38.3,69.6,38.9z"/>
	<path class="st0" d="M52,37.3c0,0.5,0,1,0,1.6c-0.1,0-0.1,0-0.2,0c0-0.5,0-1,0-1.6C51.9,37.3,51.9,37.3,52,37.3z"/>
	<path class="st0" d="M57.2,36.5c0,0.4,0,0.7,0,1.2c-0.3,0-0.6,0-0.8,0C56.7,37.3,57,36.9,57.2,36.5z"/>
	<path class="st0" d="M75,57.5c0.1,0.6-0.2,1-0.8,1.2C74.2,58,74.4,57.6,75,57.5z"/>
	<ellipse class="st0" cx="49.9" cy="22.5" rx="0.1" ry="0.8"/>
	<path class="st0" d="M41.6,35.5c0.2,0.3,0.4,0.6,0.6,0.9c-0.3,0-0.5,0-0.8,0.1c0-0.3,0-0.6-0.1-0.8C41.5,35.7,41.5,35.6,41.6,35.5z
		"/>
	<path class="st0" d="M39.2,20.9c0.3-0.2,0.6-0.4,0.9-0.6c0,0.3,0,0.5,0.1,0.8c-0.3,0-0.6,0-0.8,0.1C39.4,21,39.3,21,39.2,20.9z"/>
	<path class="st0" d="M51,25c0-0.4,0-0.8-0.1-1.2c0.1,0,0.2,0,0.3,0c0.1,0.4,0.1,0.8,0.2,1.2C51.2,25,51.1,25,51,25z"/>
	<path class="st0" d="M69.4,23.9c0,0.4,0,0.7,0,1.1c-0.1,0-0.1,0-0.2,0c0-0.4-0.1-0.7-0.1-1.1C69.2,23.9,69.3,23.9,69.4,23.9z"/>
	<path class="st0" d="M55.3,20.7c-0.8-0.2-0.2-0.8-0.4-1.2C55.6,19.7,55.1,20.3,55.3,20.7z"/>
	<ellipse class="st0" cx="66.1" cy="39.5" rx="0.1" ry="0.8"/>
	<path class="st0" d="M68.2,39c0,0.4,0,0.7,0,1.1c-0.1,0-0.1,0-0.2,0c0-0.4-0.1-0.7-0.1-1.1C68,39,68.1,39,68.2,39z"/>
	<path class="st0" d="M56.1,32.1c0.2,0,0.5,0,0.8,0.1c0,0.3,0,0.5-0.1,0.8c-0.4-0.2-0.7-0.4-0.9-0.6C55.9,32.3,56,32.2,56.1,32.1z"
		/>
	<path class="st0" d="M46.5,40c0,0,0,0.2,0,0.4c-0.2,0-0.5,0-0.7,0c0-0.1-0.1-0.1-0.1-0.2C46,40.1,46.3,40,46.5,40z"/>
	<path class="st0" d="M63.5,39.8c0,0.4,0,0.7,0,1.1c-0.1,0-0.1,0-0.2,0c0-0.4-0.1-0.7-0.1-1.1C63.3,39.8,63.4,39.8,63.5,39.8z"/>
	<path class="st0" d="M41.8,18.7c-0.2,0.4,0.4,1-0.4,1.2C41.6,19.5,41.1,18.9,41.8,18.7z"/>
	<path class="st0" d="M61.7,41.6c0-0.4,0-0.7,0-1.1c0.1,0,0.1,0,0.2,0c0,0.4,0.1,0.7,0.1,1.1C61.9,41.6,61.8,41.6,61.7,41.6z"/>
	<path class="st0" d="M64,11.7c0.4,0,0.8,0,1.2-0.1c0,0.1,0,0.2,0,0.3c-0.4,0-0.8,0.1-1.2,0.1C64,11.9,64,11.8,64,11.7z"/>
	<path class="st0" d="M40.1,41.4c0.3-0.1,0.5-0.1,0.8-0.2c0,0.3,0.1,0.5,0.1,1C40.6,41.9,40.4,41.7,40.1,41.4z"/>
	<path class="st0" d="M62.8,42.8c0-0.3,0-0.7,0-1.1C63.2,42.3,63.2,42.3,62.8,42.8z"/>
	<path class="st0" d="M48.9,26.3c0,0.3,0,0.7,0,1c-0.1,0-0.1,0-0.2,0c0-0.3-0.1-0.7-0.1-1C48.6,26.3,48.8,26.3,48.9,26.3z"/>
	<path class="st0" d="M58.8,26.7c0,0.3,0,0.7,0,1c-0.1,0-0.1,0-0.2,0c0-0.3-0.1-0.7-0.1-1C58.5,26.7,58.6,26.7,58.8,26.7z"/>
	<path class="st0" d="M41.4,94.6c-0.4,0-0.8,0-1.2,0.1c0-0.1,0-0.2,0-0.3c0.4-0.1,0.8-0.1,1.2-0.2C41.4,94.3,41.4,94.5,41.4,94.6z"
		/>
	<path class="st0" d="M48.3,27.9c0.2,0.6,0.3,0.8,0.3,1C48.2,29,48.2,29,48.3,27.9z"/>
	<path class="st0" d="M64.4,14.8c0.2,0,0.4,0,0.7,0c0,0.1,0,0.1,0,0.2c-0.2,0.1-0.4,0.1-0.6,0.2C64.5,15.1,64.4,14.9,64.4,14.8z"/>
	<path class="st0" d="M58,44.8c0.1-0.3-0.2-0.8,0.4-0.8C58.4,44.3,58.6,44.8,58,44.8z"/>
	<path class="st0" d="M64.8,17.1c-0.1-0.2-0.3-0.3-0.4-0.5c0.1-0.1,0.3-0.2,0.4-0.3C64.8,16.6,64.8,16.9,64.8,17.1z"/>
	<path class="st0" d="M33.6,46.4c0-0.3,0-0.5-0.1-0.8c0.1,0,0.2,0,0.3,0c0.1,0.3,0.1,0.5,0.2,0.8C33.8,46.4,33.7,46.4,33.6,46.4z"/>
	<path class="st0" d="M45.1,46.1c-0.5-0.1-0.7-0.2-1-0.3c0.2-0.1,0.4-0.1,0.6-0.2C44.8,45.6,44.9,45.8,45.1,46.1z"/>
	<path class="st0" d="M35.2,16.9c-0.1,0.5-0.2,0.7-0.3,1c-0.1-0.2-0.1-0.4-0.2-0.6C34.7,17.3,34.8,17.2,35.2,16.9z"/>
	<path class="st0" d="M70.4,42.8c0-0.2,0-0.4,0-0.7c0.1,0,0.1,0,0.2,0c0.1,0.2,0.1,0.4,0.2,0.6C70.6,42.7,70.5,42.8,70.4,42.8z"/>
	<path class="st0" d="M41.4,85.6c0-0.6,0.5-0.3,0.8-0.4C42.2,85.8,41.7,85.5,41.4,85.6z"/>
	<path class="st0" d="M42.2,17.9c-0.1,0.3,0.2,0.8-0.4,0.8C41.9,18.4,41.6,18,42.2,17.9z"/>
	<path class="st0" d="M55.3,17.8c-0.1,0.5-0.2,0.7-0.3,1c-0.1-0.2-0.1-0.4-0.2-0.6C54.9,18.1,55,18,55.3,17.8z"/>
	<path class="st0" d="M44.2,47.2c0.2-0.1,0.3-0.3,0.5-0.4c0.1,0.1,0.2,0.3,0.3,0.4C44.7,47.2,44.5,47.2,44.2,47.2z"/>
	<ellipse class="st0" cx="68.9" cy="41.7" rx="0.1" ry="0.6"/>
	<ellipse class="st0" cx="26.8" cy="18.9" rx="0.6" ry="0.1"/>
	<path class="st0" d="M35.8,18.8c0,0.2,0,0.4,0,0.7c-0.1,0-0.1,0-0.2,0c0-0.2-0.1-0.4-0.1-0.7C35.6,18.8,35.7,18.8,35.8,18.8z"/>
	<path class="st0" d="M68.5,47.6c-0.5-0.1-0.7-0.2-1-0.3c0.2-0.1,0.4-0.1,0.6-0.2C68.1,47.2,68.2,47.3,68.5,47.6z"/>
	<path class="st0" d="M76.8,47.6c-0.5-0.1-0.7-0.2-1-0.3c0.2-0.1,0.4-0.1,0.6-0.2C76.4,47.2,76.5,47.3,76.8,47.6z"/>
	<path class="st0" d="M54.9,18.7c0,0.3,0,0.5,0,0.8c-0.1-0.2-0.3-0.3-0.4-0.5C54.6,18.9,54.7,18.8,54.9,18.7z"/>
	<path class="st0" d="M71.2,41.6c0-0.2,0-0.4,0-0.7c0.1,0,0.1,0,0.2,0c0,0.2,0.1,0.4,0.1,0.7C71.4,41.6,71.3,41.6,71.2,41.6z"/>
	<path class="st0" d="M64.4,41.6c0-0.2,0-0.4,0-0.7c0.1,0,0.1,0,0.2,0c0.1,0.2,0.1,0.4,0.2,0.6C64.7,41.6,64.5,41.6,64.4,41.6z"/>
	<path class="st0" d="M65.2,20.3c0-0.3,0-0.5-0.1-0.8c0.1,0,0.2,0,0.3,0c0.1,0.3,0.1,0.5,0.2,0.8C65.5,20.3,65.4,20.3,65.2,20.3z"/>
	<path class="st0" d="M38.7,48.7c-0.3,0-0.5,0-0.8,0.1c0-0.1,0-0.2,0-0.3c0.3-0.1,0.5-0.1,0.8-0.2C38.6,48.5,38.7,48.6,38.7,48.7z"
		/>
	<path class="st0" d="M59.2,48.8c-0.3-0.1-0.8,0.2-0.8-0.4C58.7,48.4,59.2,48.2,59.2,48.8z"/>
	<path class="st0" d="M63,48.3c0.5,0.1,0.7,0.2,1,0.3c-0.2,0.1-0.4,0.1-0.6,0.2C63.4,48.8,63.3,48.6,63,48.3z"/>
	<ellipse class="st0" cx="70.1" cy="40.9" rx="0.1" ry="0.6"/>
	<ellipse class="st0" cx="67.7" cy="40.9" rx="0.1" ry="0.6"/>
	<path class="st0" d="M52.2,21.8c0-0.2,0-0.4,0-0.7c0.1,0,0.1,0,0.2,0c0.1,0.2,0.1,0.4,0.2,0.6C52.4,21.8,52.3,21.8,52.2,21.8z"/>
	<path class="st0" d="M56.6,21.5c-0.5-0.1-0.7-0.2-1-0.3c0.2-0.1,0.4-0.1,0.6-0.2C56.3,21.1,56.3,21.2,56.6,21.5z"/>
	<path class="st0" d="M57.5,10.7c0.5,0.1,0.7,0.2,1,0.3c-0.2,0.1-0.4,0.1-0.6,0.2C57.8,11.2,57.7,11,57.5,10.7z"/>
	<path class="st0" d="M58.1,22.7c0-0.3,0-0.5-0.1-0.8c0.1,0,0.2,0,0.3,0c0.1,0.3,0.1,0.5,0.2,0.8C58.3,22.7,58.2,22.7,58.1,22.7z"/>
	<path class="st0" d="M69.2,40.8c0-0.2,0-0.4,0-0.7c0.1,0,0.1,0,0.2,0c0.1,0.2,0.1,0.4,0.2,0.6C69.4,40.8,69.3,40.8,69.2,40.8z"/>
	<path class="st0" d="M57.2,41c0.1-0.5,0.2-0.7,0.3-1c0.1,0.2,0.1,0.4,0.2,0.6C57.6,40.7,57.5,40.8,57.2,41z"/>
	<path class="st0" d="M47.7,23.6c0.1-0.5,0.2-0.7,0.3-1c0.1,0.2,0.1,0.4,0.2,0.6C48.1,23.3,48,23.4,47.7,23.6z"/>
	<ellipse class="st0" cx="53.5" cy="23.5" rx="0.1" ry="0.6"/>
	<path class="st0" d="M59.4,11.7c-0.5-0.1-0.7-0.2-1-0.3c0.2-0.1,0.4-0.1,0.6-0.2C59,11.2,59.1,11.3,59.4,11.7z"/>
	<path class="st0" d="M48.9,23.9c0,0.2,0,0.4,0,0.7c-0.1,0-0.1,0-0.2,0c-0.1-0.2-0.1-0.4-0.2-0.6C48.6,23.9,48.8,23.9,48.9,23.9z"/>
	<ellipse class="st0" cx="56.6" cy="24.6" rx="0.1" ry="0.6"/>
	<path class="st0" d="M70.6,39c0,0.2,0,0.4,0,0.7c-0.1,0-0.1,0-0.2,0c0-0.2-0.1-0.4-0.1-0.7C70.4,39,70.5,39,70.6,39z"/>
	<path class="st0" d="M26.8,51.9c0,0.2,0,0.5,0,0.7c-0.1,0-0.2,0-0.3,0c0-0.3-0.1-0.5-0.1-0.8C26.5,51.9,26.7,51.9,26.8,51.9z"/>
	<path class="st0" d="M60.7,12.5c0.1-0.5,0.2-0.7,0.3-1c0.1,0.2,0.1,0.4,0.2,0.6C61.2,12.2,61,12.3,60.7,12.5z"/>
	<path class="st0" d="M32,26.1c-0.1,0.5-0.2,0.7-0.3,1c-0.1-0.2-0.1-0.4-0.2-0.6C31.5,26.4,31.7,26.3,32,26.1z"/>
	<path class="st0" d="M64.7,27.9c0,0.2,0,0.4,0,0.7c-0.1,0-0.1,0-0.2,0c0-0.2-0.1-0.4-0.1-0.7C64.5,27.9,64.6,27.9,64.7,27.9z"/>
	<path class="st0" d="M68.4,28.9c0-0.2,0-0.4,0-0.7c0.1,0,0.1,0,0.2,0c0,0.2,0.1,0.4,0.1,0.7C68.6,28.9,68.5,28.9,68.4,28.9z"/>
	<path class="st0" d="M37.6,38.9c0-0.3,0-0.5-0.1-0.8c0.1,0,0.2,0,0.3,0c0.1,0.3,0.1,0.5,0.2,0.8C37.8,38.9,37.7,38.9,37.6,38.9z"/>
	<path class="st0" d="M54.1,29.6c-0.1,0.5-0.2,0.7-0.3,1c-0.1-0.2-0.1-0.4-0.2-0.6C53.7,30,53.8,29.9,54.1,29.6z"/>
	<ellipse class="st0" cx="65.4" cy="30.2" rx="0.1" ry="0.6"/>
	<path class="st0" d="M65.6,37.5c-0.1,0.5-0.2,0.7-0.3,1c-0.1-0.2-0.1-0.4-0.2-0.6C65.2,37.9,65.3,37.8,65.6,37.5z"/>
	<ellipse class="st0" cx="51.1" cy="31.8" rx="0.1" ry="0.6"/>
	<path class="st0" d="M38.3,32.5c0-0.2,0-0.4,0-0.7c0.1,0,0.1,0,0.2,0c0.1,0.2,0.1,0.4,0.2,0.6C38.6,32.5,38.4,32.5,38.3,32.5z"/>
	<ellipse class="st0" cx="40" cy="32.6" rx="0.1" ry="0.6"/>
	<path class="st0" d="M43,37.2c-0.3,0-0.5,0-0.8,0.1c0-0.1,0-0.2,0-0.3c0.3-0.1,0.5-0.1,0.8-0.2C43,37,43,37.1,43,37.2z"/>
	<path class="st0" d="M50,33.7c-0.2,0-0.4,0-0.7,0c0-0.1,0-0.1,0-0.2c0.2,0,0.4-0.1,0.7-0.1C50,33.4,50,33.6,50,33.7z"/>
	<path class="st0" d="M44.9,33.8c0,0.2,0,0.4,0,0.7c-0.1,0-0.1,0-0.2,0c0-0.2-0.1-0.4-0.1-0.7C44.7,33.8,44.8,33.8,44.9,33.8z"/>
	<ellipse class="st0" cx="40.8" cy="34.5" rx="0.1" ry="0.6"/>
	<path class="st0" d="M75.8,55.9c-0.1,0.3,0.2,0.8-0.4,0.8C75.5,56.4,75.2,55.9,75.8,55.9z"/>
	<path class="st0" d="M43,36.9c0-0.1,0-0.3,0-0.4c0.3,0,0.5,0,0.8,0C43.8,37.1,43.3,36.8,43,36.9z"/>
	<path class="st0" d="M34.2,13.2c0,0.2,0,0.4,0,0.7c-0.1,0-0.1,0-0.2,0c0-0.2-0.1-0.4-0.1-0.7C34,13.3,34.1,13.3,34.2,13.2z"/>
	<path class="st0" d="M75.4,56.7c-0.1,0.3,0.2,0.8-0.4,0.8C75.1,57.2,74.8,56.7,75.4,56.7z"/>
	<path class="st0" d="M51.1,35.7c0.1,0.2,0.1,0.3,0.2,0.5c0,0.1-0.1,0.2-0.2,0.5C51,36.3,51,36,50.9,35.8
		C51,35.7,51.1,35.7,51.1,35.7z"/>
	<path class="st0" d="M65.1,13.5c0.1-0.1,0.2-0.2,0.3-0.3l0.1,0.1C65.4,13.4,65.3,13.5,65.1,13.5C65.2,13.6,65.1,13.6,65.1,13.5z"/>
	<path class="st0" d="M43.4,35.7c0.1,0.1,0.3,0.3,0.4,0.4C43.7,36,43.5,35.9,43.4,35.7z"/>
	<path class="st0" d="M35.8,36.5c0.1-0.1,0.2-0.2,0.3-0.3l0.1,0.1C36.1,36.4,36,36.5,35.8,36.5C35.9,36.5,35.9,36.5,35.8,36.5z"/>
	<path class="st0" d="M70.7,36.6c-0.1-0.1-0.2-0.2-0.3-0.3l0.1-0.1C70.5,36.3,70.6,36.4,70.7,36.6C70.7,36.5,70.7,36.5,70.7,36.6z"
		/>
	<ellipse class="st0" cx="55.1" cy="35.5" rx="0.1" ry="0.3"/>
	<path class="st0" d="M50.9,35.8c-0.1-0.1-0.2-0.2-0.3-0.3l0.1-0.1C50.8,35.5,50.9,35.6,50.9,35.8C50.9,35.7,50.9,35.7,50.9,35.8z"
		/>
	<path class="st0" d="M41.4,35.8c-0.1-0.1-0.2-0.2-0.3-0.3l0.1-0.1C41.3,35.5,41.4,35.6,41.4,35.8C41.4,35.7,41.4,35.7,41.4,35.8z"
		/>
	<path class="st0" d="M53.6,36.9c-0.1-0.1-0.2-0.2-0.3-0.3l0.1-0.1C53.5,36.7,53.6,36.8,53.6,36.9C53.7,36.9,53.7,36.9,53.6,36.9z"
		/>
	<ellipse class="st0" cx="51.5" cy="34.7" rx="0.3" ry="0.1"/>
	<ellipse class="st0" cx="50.3" cy="34.7" rx="0.1" ry="0.3"/>
	<ellipse class="st0" cx="68.5" cy="34.3" rx="0.1" ry="0.3"/>
	<ellipse class="st0" cx="34.5" cy="33.9" rx="0.1" ry="0.3"/>
	<ellipse class="st0" cx="51.1" cy="33.1" rx="0.1" ry="0.3"/>
	<ellipse class="st0" cx="45.6" cy="32.8" rx="0.1" ry="0.3"/>
	<path class="st0" d="M29.1,37.3c-0.1-0.1-0.2-0.2-0.3-0.3l0.1-0.1C29,37.1,29.1,37.2,29.1,37.3C29.2,37.3,29.1,37.3,29.1,37.3z"/>
	<path class="st0" d="M45,36.9c0.1,0.1,0.2,0.2,0.3,0.3l-0.1,0.1C45.1,37.2,45,37.1,45,36.9L45,36.9z"/>
	<path class="st0" d="M34.7,63c-0.1,0-0.3,0-0.4,0c0-0.1,0-0.3,0-0.4C34.4,62.8,34.6,62.9,34.7,63z"/>
	<path class="st0" d="M51.7,37.3c-0.1-0.1-0.2-0.2-0.3-0.3l0.1-0.1C51.6,37.1,51.7,37.2,51.7,37.3L51.7,37.3z"/>
	<path class="st0" d="M53.7,36.9c0.1,0.1,0.2,0.2,0.3,0.3l-0.1,0.1C53.8,37.2,53.7,37.1,53.7,36.9L53.7,36.9z"/>
	<path class="st0" d="M48.6,32.1c0.1,0.1,0.2,0.2,0.3,0.3l-0.1,0.1C48.7,32.4,48.6,32.3,48.6,32.1C48.5,32.2,48.5,32.1,48.6,32.1z"
		/>
	<path class="st0" d="M35.1,63.4c-0.1-0.1-0.3-0.3-0.4-0.4C34.8,63.1,35,63.3,35.1,63.4z"/>
	<path class="st0" d="M27,31.9c0.2,0,0.3,0,0.3,0.1s-0.1,0.1-0.3,0.1s-0.3,0-0.3-0.1S26.8,31.9,27,31.9z"/>
	<ellipse class="st0" cx="63.4" cy="31.6" rx="0.1" ry="0.3"/>
	<ellipse class="st0" cx="56.6" cy="31.6" rx="0.1" ry="0.3"/>
	<path class="st0" d="M65.5,31.4c0.1-0.1,0.2-0.2,0.3-0.3c0,0.1,0.1,0.2,0.1,0.3C65.8,31.4,65.7,31.4,65.5,31.4z"/>
	<path class="st0" d="M50.2,37.7c0.1,0.1,0.2,0.2,0.3,0.3l-0.1,0.1C50.3,37.9,50.2,37.8,50.2,37.7C50.1,37.7,50.1,37.7,50.2,37.7z"
		/>
	<path class="st0" d="M60.4,31.3c0.1-0.1,0.2-0.2,0.3-0.3l0.1,0.1C60.7,31.2,60.6,31.3,60.4,31.3C60.4,31.4,60.4,31.4,60.4,31.3z"/>
	<ellipse class="st0" cx="38.8" cy="31.2" rx="0.1" ry="0.3"/>
	<ellipse class="st0" cx="27.4" cy="31.2" rx="0.1" ry="0.3"/>
	<ellipse class="st0" cx="58.2" cy="37.9" rx="0.1" ry="0.3"/>
	<path class="st0" d="M73.9,37.7c0.1,0.1,0.3,0.3,0.4,0.4C74.1,38,74,37.8,73.9,37.7z"/>
	<path class="st0" d="M47.4,30.6c0.1,0.1,0.3,0.3,0.4,0.4C47.6,30.8,47.5,30.7,47.4,30.6z"/>
	<path class="st0" d="M27.5,54.4c-0.1-0.1-0.2-0.2-0.3-0.3l0.1-0.1C27.4,54.1,27.5,54.2,27.5,54.4C27.6,54.3,27.6,54.3,27.5,54.4z"
		/>
	<ellipse class="st0" cx="51.5" cy="30" rx="0.3" ry="0.1"/>
	<path class="st0" d="M58.9,29.3c0.1,0.1,0.2,0.2,0.3,0.3l-0.1,0.1C59,29.6,58.9,29.5,58.9,29.3C58.8,29.4,58.8,29.4,58.9,29.3z"/>
	<ellipse class="st0" cx="53.1" cy="29.6" rx="0.1" ry="0.3"/>
	<path class="st0" d="M58.4,29.4c0.1-0.1,0.2-0.2,0.3-0.3c0,0.1,0.1,0.2,0.1,0.3C58.7,29.4,58.6,29.4,58.4,29.4z"/>
	<path class="st0" d="M31.6,38.1c-0.1,0.1-0.2,0.2-0.3,0.3l-0.1-0.1C31.3,38.2,31.4,38.1,31.6,38.1C31.5,38.1,31.5,38.1,31.6,38.1z"
		/>
	<ellipse class="st0" cx="53.5" cy="28.4" rx="0.3" ry="0.1"/>
	<ellipse class="st0" cx="51.1" cy="38.3" rx="0.3" ry="0.1"/>
	<ellipse class="st0" cx="51.1" cy="28" rx="0.1" ry="0.3"/>
	<path class="st0" d="M37.5,27.4c0.1,0.1,0.2,0.2,0.3,0.3l-0.1,0.1C37.6,27.7,37.5,27.6,37.5,27.4C37.4,27.4,37.5,27.4,37.5,27.4z"
		/>
	<ellipse class="st0" cx="68.9" cy="27.2" rx="0.3" ry="0.1"/>
	<ellipse class="st0" cx="60.2" cy="27.2" rx="0.1" ry="0.3"/>
	<ellipse class="st0" cx="38.8" cy="27.2" rx="0.1" ry="0.3"/>
	<path class="st0" d="M37.4,27.5c-0.1-0.1-0.2-0.2-0.3-0.3l0.1-0.1C37.3,27.2,37.4,27.3,37.4,27.5C37.5,27.4,37.5,27.4,37.4,27.5z"
		/>
	<ellipse class="st0" cx="27" cy="53.3" rx="0.1" ry="0.3"/>
	<ellipse class="st0" cx="47.6" cy="26" rx="0.1" ry="0.3"/>
	<path class="st0" d="M67.9,25.8c0.1-0.1,0.2-0.2,0.3-0.3l0.1,0.1C68.2,25.7,68.1,25.8,67.9,25.8L67.9,25.8z"/>
	<path class="st0" d="M51.3,25c0.1,0.1,0.3,0.3,0.4,0.4C51.6,25.3,51.4,25.2,51.3,25z"/>
	<ellipse class="st0" cx="49.1" cy="25.2" rx="0.1" ry="0.3"/>
	<path class="st0" d="M28.3,39.2c0.1-0.1,0.2-0.2,0.3-0.3l0.1,0.1C28.6,39.1,28.5,39.2,28.3,39.2C28.4,39.3,28.4,39.3,28.3,39.2z"/>
	<ellipse class="st0" cx="29.4" cy="39.1" rx="0.1" ry="0.3"/>
	<path class="st0" d="M37.9,38.8c0.1,0.1,0.2,0.2,0.3,0.3l-0.1,0.1C38,39.1,37.9,39,37.9,38.8C37.8,38.9,37.9,38.9,37.9,38.8z"/>
	<path class="st0" d="M67.5,24.6c-0.1,0.1-0.2,0.2-0.3,0.3c0-0.1-0.1-0.2-0.1-0.3C67.3,24.6,67.4,24.6,67.5,24.6z"/>
	<ellipse class="st0" cx="65.7" cy="24.8" rx="0.1" ry="0.3"/>
	<ellipse class="st0" cx="47.9" cy="24.8" rx="0.1" ry="0.3"/>
	<ellipse class="st0" cx="63.4" cy="39.1" rx="0.3" ry="0.1"/>
	<ellipse class="st0" cx="69.7" cy="39.1" rx="0.1" ry="0.3"/>
	<path class="st0" d="M26.4,51.9c-0.1-0.1-0.3-0.3-0.4-0.4C26.1,51.7,26.3,51.8,26.4,51.9z"/>
	<path class="st0" d="M67.5,24.6c0.1-0.1,0.3-0.3,0.4-0.4C67.8,24.4,67.7,24.5,67.5,24.6z"/>
	<path class="st0" d="M34.3,39.7c-0.1-0.1-0.2-0.2-0.3-0.3l0.1-0.1C34.2,39.4,34.2,39.5,34.3,39.7L34.3,39.7z"/>
	<path class="st0" d="M67.9,24.2c0.1-0.1,0.2-0.2,0.3-0.3l0.1,0.1C68.2,24.1,68.1,24.2,67.9,24.2C67.9,24.3,67.9,24.2,67.9,24.2z"/>
	<ellipse class="st0" cx="61" cy="24.1" rx="0.1" ry="0.3"/>
	<path class="st0" d="M64.8,23.9c0.1-0.1,0.3-0.3,0.4-0.4C65,23.6,64.9,23.7,64.8,23.9z"/>
	<path class="st0" d="M34.3,39.6c0.1,0.1,0.2,0.2,0.3,0.3L34.5,40C34.4,39.9,34.4,39.8,34.3,39.6C34.3,39.7,34.3,39.7,34.3,39.6z"/>
	<path class="st0" d="M49.7,40.1c-0.1-0.1-0.3-0.3-0.4-0.4C49.5,39.8,49.6,39.9,49.7,40.1z"/>
	<path class="st0" d="M71.9,39.7c-0.1,0.1-0.2,0.2-0.3,0.3l-0.1-0.1C71.6,39.8,71.7,39.7,71.9,39.7L71.9,39.7z"/>
	<ellipse class="st0" cx="49.1" cy="23.3" rx="0.3" ry="0.1"/>
	<path class="st0" d="M44.5,40.5c-0.1-0.1-0.2-0.2-0.3-0.3l0.1-0.1C44.4,40.2,44.5,40.3,44.5,40.5C44.6,40.5,44.6,40.5,44.5,40.5z"
		/>
	<path class="st0" d="M48.5,22.3c-0.1,0.1-0.3,0.3-0.4,0.4C48.3,22.5,48.4,22.4,48.5,22.3z"/>
	<ellipse class="st0" cx="72.9" cy="40.3" rx="0.1" ry="0.3"/>
	<path class="st0" d="M48.5,22.2c0.1-0.1,0.2-0.2,0.3-0.3l0.1,0.1C48.8,22.1,48.7,22.2,48.5,22.2C48.5,22.3,48.5,22.3,48.5,22.2z"/>
	<path class="st0" d="M45.7,22.2c0.1-0.1,0.2-0.2,0.3-0.3l0.1,0.1C46,22.1,45.9,22.2,45.7,22.2C45.8,22.3,45.8,22.3,45.7,22.2z"/>
	<path class="st0" d="M45,21.9c-0.1,0.1-0.2,0.2-0.3,0.3l-0.1-0.1C44.7,22,44.8,21.9,45,21.9L45,21.9z"/>
	<path class="st0" d="M44.9,21.8c0.1-0.1,0.2-0.2,0.3-0.3l0.1,0.1C45.2,21.7,45.1,21.8,44.9,21.8C45,21.9,45,21.9,44.9,21.8z"/>
	<path class="st0" d="M43.4,21.5c-0.1,0.1-0.3,0.3-0.4,0.4C43.1,21.7,43.3,21.6,43.4,21.5z"/>
	<path class="st0" d="M45,40.9c-0.1-0.1-0.3-0.3-0.4-0.4C44.7,40.6,44.8,40.7,45,40.9z"/>
	<path class="st0" d="M51.3,40.8c0.1-0.1,0.2-0.2,0.3-0.3l0.1,0.1C51.6,40.7,51.5,40.8,51.3,40.8C51.3,40.9,51.3,40.9,51.3,40.8z"/>
	<ellipse class="st0" cx="51.9" cy="11" rx="0.1" ry="0.3"/>
	<path class="st0" d="M43.4,21.4c0.1-0.1,0.2-0.2,0.3-0.3l0.1,0.1C43.6,21.3,43.5,21.4,43.4,21.4C43.4,21.5,43.4,21.5,43.4,21.4z"/>
	<path class="st0" d="M39.5,21.1c-0.1,0.1-0.2,0.2-0.3,0.3l-0.1-0.1C39.2,21.2,39.3,21.1,39.5,21.1C39.4,21.1,39.5,21.1,39.5,21.1z"
		/>
	<path class="st0" d="M55.3,20.7c0.1,0.1,0.3,0.3,0.4,0.4C55.5,21,55.4,20.8,55.3,20.7z"/>
	<ellipse class="st0" cx="51.9" cy="20.5" rx="0.1" ry="0.3"/>
	<ellipse class="st0" cx="43.6" cy="20.5" rx="0.1" ry="0.3"/>
	<ellipse class="st0" cx="67.7" cy="48.6" rx="0.3" ry="0.1"/>
	<ellipse class="st0" cx="65.7" cy="48.6" rx="0.1" ry="0.3"/>
	<path class="st0" d="M36.7,48.3c0.1,0.1,0.2,0.2,0.3,0.3l-0.1,0.1C36.8,48.6,36.7,48.5,36.7,48.3C36.7,48.4,36.7,48.4,36.7,48.3z"
		/>
	<ellipse class="st0" cx="57.8" cy="20.1" rx="0.1" ry="0.3"/>
	<ellipse class="st0" cx="42.8" cy="20.1" rx="0.1" ry="0.3"/>
	<ellipse class="st0" cx="61.4" cy="19.7" rx="0.1" ry="0.3"/>
	<path class="st0" d="M39,48c-0.1,0.1-0.3,0.3-0.4,0.4C38.8,48.2,38.9,48.1,39,48z"/>
	<path class="st0" d="M49.8,47.5c0.1,0.1,0.2,0.2,0.3,0.3L50,47.9C49.9,47.8,49.8,47.7,49.8,47.5C49.7,47.6,49.7,47.6,49.8,47.5z"/>
	<path class="st0" d="M40.2,47.6c0,0.1,0,0.3,0,0.4c-0.1-0.1-0.3-0.3-0.4-0.4C40,47.6,40.1,47.6,40.2,47.6z"/>
	<path class="st0" d="M39,48c0.1-0.1,0.3-0.3,0.4-0.4C39.3,47.7,39.2,47.9,39,48z"/>
	<path class="st0" d="M31.9,48c-0.1-0.1-0.3-0.3-0.4-0.4C31.7,47.7,31.8,47.9,31.9,48z"/>
	<path class="st0" d="M43.4,19.1c-0.1,0.1-0.2,0.2-0.3,0.3L43,19.3C43.1,19.2,43.3,19.2,43.4,19.1L43.4,19.1z"/>
	<path class="st0" d="M39.5,18.7c0.1,0.1,0.2,0.2,0.3,0.3l-0.1,0.1C39.6,19,39.5,18.9,39.5,18.7C39.4,18.7,39.5,18.7,39.5,18.7z"/>
	<path class="st0" d="M38.2,41.7c-0.1-0.1-0.2-0.2-0.3-0.3l0.1-0.1C38.1,41.4,38.2,41.5,38.2,41.7C38.3,41.6,38.2,41.7,38.2,41.7z"
		/>
	<path class="st0" d="M72.6,41.6c0.1-0.1,0.2-0.2,0.3-0.3l0.1,0.1C72.9,41.5,72.8,41.6,72.6,41.6C72.7,41.7,72.7,41.6,72.6,41.6z"/>
	<ellipse class="st0" cx="50.3" cy="41.9" rx="0.3" ry="0.1"/>
	<path class="st0" d="M72.7,41.7c-0.1,0.1-0.2,0.2-0.3,0.3l-0.1-0.1C72.4,41.8,72.5,41.7,72.7,41.7C72.7,41.6,72.7,41.7,72.7,41.7z"
		/>
	<path class="st0" d="M43,47.2c-0.1-0.1-0.2-0.2-0.3-0.3l0.1-0.1C42.9,46.9,43,47,43,47.2L43,47.2z"/>
	<path class="st0" d="M33.9,46.4c0.1,0.1,0.2,0.2,0.3,0.3l-0.1,0.1C34,46.7,34,46.5,33.9,46.4L33.9,46.4z"/>
	<path class="st0" d="M42.2,17.9c0.1-0.1,0.2-0.2,0.3-0.3l0.1,0.1C42.5,17.8,42.4,17.9,42.2,17.9L42.2,17.9z"/>
	<ellipse class="st0" cx="69.7" cy="42.2" rx="0.1" ry="0.3"/>
	<ellipse class="st0" cx="68.1" cy="46.2" rx="0.1" ry="0.3"/>
	<ellipse class="st0" cx="45.2" cy="17.3" rx="0.3" ry="0.1"/>
	<ellipse class="st0" cx="35.7" cy="86.9" rx="0.3" ry="0.1"/>
	<ellipse class="st0" cx="26.2" cy="16.9" rx="0.1" ry="0.3"/>
	<ellipse class="st0" cx="34.9" cy="87.3" rx="0.1" ry="0.3"/>
	<ellipse class="st0" cx="63.8" cy="45.8" rx="0.3" ry="0.1"/>
	<ellipse class="st0" cx="38.8" cy="45.8" rx="0.1" ry="0.3"/>
	<path class="st0" d="M36.3,87.9c0.1-0.1,0.3-0.3,0.4-0.4C36.5,87.7,36.4,87.8,36.3,87.9z"/>
	<path class="st0" d="M32.7,87.9c-0.1,0.1-0.3,0.3-0.4,0.4C32.5,88.2,32.6,88.1,32.7,87.9z"/>
	<ellipse class="st0" cx="66.9" cy="16.5" rx="0.3" ry="0.1"/>
	<ellipse class="st0" cx="46" cy="45.4" rx="0.3" ry="0.1"/>
	<path class="st0" d="M41,45.2c0.1-0.1,0.2-0.2,0.3-0.3l0.1,0.1C41.3,45.1,41.2,45.2,41,45.2L41,45.2z"/>
	<path class="st0" d="M64.8,16.3c0.1-0.1,0.3-0.3,0.4-0.4C65,16.1,64.9,16.2,64.8,16.3z"/>
	<path class="st0" d="M27.2,42.9c-0.1,0.1-0.2,0.2-0.3,0.3l-0.1-0.1C26.9,43,27,42.9,27.2,42.9C27.2,42.8,27.2,42.9,27.2,42.9z"/>
	<path class="st0" d="M46.6,44.4c0.1,0.1,0.2,0.2,0.3,0.3l-0.1,0.1C46.7,44.7,46.6,44.6,46.6,44.4C46.5,44.4,46.6,44.4,46.6,44.4z"
		/>
	<path class="st0" d="M38.3,44.4c0.1,0.1,0.2,0.2,0.3,0.3l-0.1,0.1C38.4,44.7,38.3,44.6,38.3,44.4C38.2,44.4,38.3,44.4,38.3,44.4z"
		/>
	<ellipse class="st0" cx="40" cy="43" rx="0.1" ry="0.3"/>
	<path class="st0" d="M45,43.2c-0.1-0.1-0.3-0.3-0.4-0.4C44.7,43,44.8,43.1,45,43.2z"/>
	<path class="st0" d="M62.8,42.9c-0.1,0.1-0.2,0.2-0.3,0.3l-0.1-0.1C62.5,43,62.6,42.9,62.8,42.9C62.8,42.8,62.8,42.9,62.8,42.9z"/>
	<path class="st0" d="M65.1,15.9c0.1-0.1,0.2-0.2,0.3-0.3l0.1,0.1C65.4,15.8,65.3,15.9,65.1,15.9C65.2,16,65.1,15.9,65.1,15.9z"/>
	<path class="st0" d="M46.5,44.5c-0.1-0.1-0.2-0.2-0.3-0.3l0.1-0.1C46.4,44.2,46.5,44.3,46.5,44.5C46.6,44.4,46.6,44.4,46.5,44.5z"
		/>
	<path class="st0" d="M29.6,4.4c0.1,0.1,0.2,0.2,0.3,0.3l-0.1,0.1C29.7,4.7,29.6,4.6,29.6,4.4C29.5,4.5,29.6,4.5,29.6,4.4z"/>
	<path class="st0" d="M63.6,15.2c-0.1,0.1-0.2,0.2-0.3,0.3l-0.1-0.1C63.3,15.3,63.4,15.2,63.6,15.2C63.6,15.1,63.6,15.2,63.6,15.2z"
		/>
	<path class="st0" d="M32.8,43.6c0.1,0.1,0.2,0.2,0.3,0.3L33,44C32.9,43.9,32.8,43.8,32.8,43.6C32.7,43.6,32.7,43.6,32.8,43.6z"/>
	<ellipse class="st0" cx="27.4" cy="43.8" rx="0.1" ry="0.3"/>
	<ellipse class="st0" cx="38.8" cy="43.4" rx="0.1" ry="0.3"/>
	<path class="st0" d="M63.5,15.1c0.1-0.1,0.2-0.2,0.3-0.3l0.1,0.1C63.8,15,63.7,15.1,63.5,15.1C63.6,15.2,63.6,15.1,63.5,15.1z"/>
	<path class="st0" d="M45.4,62.6c0,0.2,0,0.4,0,0.7c0.3,0,0.7,0.1,0.8,0.1c0.4-0.5,0.8-0.8,1.1-1.2c0.1,0.4,0.3,0.8,0.4,1.2
		c-0.2,0-0.4,0-0.7,0c0.1,0.8-1.1,1-0.9,2c-0.6,0-0.3,0.5-0.4,0.8c-0.3-0.1-0.8,0.2-0.8-0.4c0.6,0,0.3-0.5,0.4-0.8
		c0.5,0,0.5-0.4,0.3-0.6c-0.2-0.4-0.6-0.7-1.1-0.5c-0.2-0.3-0.3-0.6-0.5-1c0.1-0.1,0.1-0.1,0.2-0.2c0.2,0.1,0.3,0.2,0.5,0.3
		C45,62.9,45.2,62.7,45.4,62.6z"/>
	<path class="st0" d="M62.4,52.3c0-0.3,0-0.7,0-1c0.6-0.1,1.3-0.3,2.1-0.5c-0.2,0.4-0.3,0.7-0.5,1.2c0.4-0.2,0.6-0.3,0.8-0.5
		c0.2-0.2,0.4-0.6,0.8-1.2c0,0.8,0,1.2,0,1.5c-0.7,0.2-1.5,0.5-2.3,0.7c0-0.4,0.1-0.8,0.1-1.2c-0.3,0.1-0.5,0.1-0.5,0.2
		C62.7,51.9,62.5,52.1,62.4,52.3z"/>
	<path class="st0" d="M32.3,54.3c0.1-0.6-0.2-1-0.8-1.2c0-0.4,0-0.8,0-1.2c0.3-0.1,0.5-0.3,0.8-0.4c0.3,0.4,0.5,0.8,0.8,1.2
		C33.1,53.4,32.8,53.9,32.3,54.3z"/>
	<path class="st0" d="M51.7,63c0,0.3,0,0.5,0,0.8c-0.3,0.4-0.5,0.8-0.8,1.2c-0.3,0.5-0.7,0.9-1,1.5c-0.2-0.3-0.3-0.7-0.5-1.1
		c0.2,0,0.4,0,0.6,0C50.5,64.6,50.7,63.5,51.7,63z"/>
	<path class="st0" d="M47.7,63.4c0.7,0,1.4,0.1,2-0.4c0.1,0.3,0.2,0.7,0.3,1.2c-0.3,0.1-0.7,0.3-1.1,0.4c-0.3-0.3-0.6-0.5-0.9-0.8
		C47.9,63.7,47.8,63.5,47.7,63.4z"/>
	<path class="st0" d="M43.4,63.8c-0.6,0-0.3,0.5-0.4,0.8c-0.6,0.1-1-0.2-1.2-0.8c0.6,0.1,0.9-0.2,1.2-0.7c0.2-0.3,0.5-0.6,0.8-0.9
		c-0.1,0.3-0.2,0.6-0.3,0.9C43.5,63.3,43.4,63.6,43.4,63.8z"/>
	<path class="st0" d="M52.1,65c0.6,0,0.3-0.5,0.4-0.8c0.7,0,1.2,0.3,1.6,0.8c-0.3,0-0.6,0-0.9,0c-0.2,0.4-0.5,0.8-0.9,1.4
		C52.2,65.8,52.1,65.4,52.1,65z"/>
	<path class="st0" d="M54.1,65c0.3-0.1,0.5-0.3,0.8-0.4c0.1,0.2,0.2,0.4,0.4,0.7c-0.9-0.1-0.7,1.1-1.4,1.3
		C53.4,65.9,53.9,65.5,54.1,65z"/>
	<path class="st0" d="M35.5,56.3c-0.1-1,0.8-1.5,0.9-2.4c0.3,0,0.5,0,0.6,0C36.5,54.7,36.5,55.8,35.5,56.3z"/>
	<path class="st0" d="M39.4,52.7c0,0.3,0,0.6,0,0.9c-0.4,0.4-0.8,0.7-1.2,1.1c0-0.3,0-0.6,0-1C38.6,53.4,39,53.1,39.4,52.7z"/>
	<path class="st0" d="M48.9,64.6c0.1,0.3,0.3,0.5,0.4,0.8c-0.3,0.1-0.7,0.2-1.1,0.3c-0.1-0.1-0.2-0.3-0.4-0.5
		C48,64.7,48.4,64.5,48.9,64.6z"/>
	<path class="st0" d="M41.8,63.9c-0.3-0.1-0.5-0.1-0.7-0.1c-0.1-0.8,0.6-1,1.2-1.4c-0.1,0.2-0.2,0.5-0.3,0.7
		C41.9,63.3,41.8,63.6,41.8,63.9z"/>
	<path class="st0" d="M34.8,55.1c-0.3,0.6-0.6,1.1-1,1.7c-0.6-0.8,0.4-1.1,0.3-1.7C34.3,55.1,34.5,55.1,34.8,55.1z"/>
	<path class="st0" d="M37.5,53.4c-0.2-1.1,0.6-1.3,1.1-2.1C38.7,52.5,37.9,52.7,37.5,53.4z"/>
	<path class="st0" d="M38.7,57.1c0.1-0.5,0.3-1,0.5-1.6c0.2,0,0.5,0,0.7,0C39.4,56,39.5,56.9,38.7,57.1z"/>
	<path class="st0" d="M63.2,63.5c0,0.3,0,0.4,0,0.7c-0.3,0-0.7,0.1-1.1,0.1c0-0.3-0.1-0.5-0.1-0.8C62.4,63.5,62.8,63.5,63.2,63.5z"
		/>
	<path class="st0" d="M60.6,64.2c0.3-0.5,0.5-0.9,0.9-1.6c0,0.7,0,1.1,0,1.5C61.3,64.2,61,64.2,60.6,64.2z"/>
	<path class="st0" d="M43.8,64.2c0.3-0.1,0.5-0.3,0.8-0.4c-0.2,0.5-0.3,1-0.5,1.5c-0.1,0-0.1,0-0.2,0C43.9,65,43.8,64.6,43.8,64.2z"
		/>
	<path class="st0" d="M56.5,65.1c0,0.6-0.3,1-0.9,1.1C55.8,65.8,56.2,65.4,56.5,65.1z"/>
	<path class="st0" d="M33.9,53.9c0-0.7-0.1-1.4,0.8-1.6C34.7,53,34.4,53.5,33.9,53.9z"/>
	<path class="st0" d="M41,55.9c0.1,0.6-0.2,1-0.8,1.2C40.2,56.5,40.4,56,41,55.9z"/>
	<path class="st0" d="M39.8,63c0.1,0.3,0.2,0.7,0.3,1.1c-0.2,0-0.4,0.1-0.7,0.1C39.6,63.8,39.1,63.2,39.8,63z"/>
	<path class="st0" d="M69.8,50.5c0.3-0.1,0.4-0.1,0.6-0.2c0.2,0,0.4,0,0.7,0.2c-0.3,0-0.7,0.1-1,0.1c0.1,0.1,0.3,0.3,0.4,0.4
		C70.3,50.9,70.1,50.8,69.8,50.5z"/>
	<path class="st0" d="M60.7,51.2c0.6,0,0.9,0,1.2,0C61.3,51.9,61.3,51.9,60.7,51.2z"/>
	<ellipse class="st0" cx="65.9" cy="62.8" rx="1.1" ry="0.1"/>
	<path class="st0" d="M63.1,63.3c0.3-0.3,0.5-0.5,0.8-0.8c0.1,0.4,0.1,0.8,0.2,1.2C63.7,63.6,63.4,63.5,63.1,63.3z"/>
	<path class="st0" d="M59.1,63.7c0.2-0.4,0.5-0.7,0.8-1.2C60.2,63.4,59.7,63.6,59.1,63.7z"/>
	<path class="st0" d="M40.6,53.9c0-0.4,0-0.7,0-1.2c0.3,0,0.6,0,0.8,0C41.2,53.1,40.9,53.5,40.6,53.9z"/>
	<circle class="st0" cx="37.5" cy="55.9" r="0.6"/>
	<path class="st0" d="M35.6,56.4c-0.2,0.4-0.5,0.7-0.8,1.2C34.5,56.7,35,56.5,35.6,56.4z"/>
	<path class="st0" d="M74.6,56.3c0.1,0.6-0.2,1-0.8,1.2C73.8,56.9,74,56.4,74.6,56.3z"/>
	<path class="st0" d="M60.4,54c0,0.3,0,0.7,0,1.1C60,54.4,60,54.4,60.4,54z"/>
	<path class="st0" d="M33.9,53.9c0,0.2,0,0.5,0,0.8c-0.3,0-0.6,0-0.8,0C33.4,54.4,33.6,54.2,33.9,53.9z"/>
	<path class="st0" d="M66.7,52.8c0,0.3,0,0.7,0,1.1C66.3,53.2,66.3,53.2,66.7,52.8z"/>
	<path class="st0" d="M60.4,53.9c0.2-0.4-0.4-1,0.4-1.2C60.7,53.1,61.2,53.7,60.4,53.9z"/>
	<path class="st0" d="M34.5,52.1c0.3-0.2,0.6-0.4,0.9-0.6c0,0.3,0,0.5,0.1,0.8c-0.3,0-0.5,0-0.8,0.1C34.6,52.3,34.6,52.2,34.5,52.1z
		"/>
	<path class="st0" d="M31.1,51.1c-0.3,0-0.5,0-0.8,0c0.2-0.3,0.4-0.5,0.8-1.1C31.1,50.7,31.1,50.9,31.1,51.1z"/>
	<path class="st0" d="M30.3,51.1c-0.1,0.3,0.2,0.8-0.4,0.8C30,51.6,29.8,51.2,30.3,51.1z"/>
	<path class="st0" d="M31.5,51.9c-0.6,0-0.3-0.5-0.4-0.8C31.7,51.2,31.5,51.6,31.5,51.9z"/>
	<path class="st0" d="M34,51.4c-0.1,0.5-0.2,0.7-0.3,1c-0.1-0.2-0.1-0.4-0.2-0.6C33.5,51.7,33.7,51.6,34,51.4z"/>
	<path class="st0" d="M36.7,51.4c-0.1,0.5-0.2,0.7-0.3,1c-0.1-0.2-0.1-0.4-0.2-0.6C36.3,51.7,36.4,51.6,36.7,51.4z"/>
	<path class="st0" d="M39.4,52.7c0.1-0.3-0.2-0.8,0.4-0.8C39.8,52.2,40,52.7,39.4,52.7z"/>
	<path class="st0" d="M41.9,51.8c-0.1,0.5-0.2,0.7-0.3,1c-0.1-0.2-0.1-0.4-0.2-0.6C41.4,52.1,41.6,52,41.9,51.8z"/>
	<path class="st0" d="M61.2,51.9c-0.1,0.3,0.2,0.8-0.4,0.8C60.9,52.4,60.6,52,61.2,51.9z"/>
	<path class="st0" d="M35.9,52.7c-0.1,0.3,0.2,0.8-0.4,0.8C35.5,53.2,35.3,52.8,35.9,52.7z"/>
	<path class="st0" d="M65.9,52.8c0,0.2,0,0.4,0,0.7c-0.1,0-0.1,0-0.2,0c0-0.2-0.1-0.4-0.1-0.7C65.7,52.8,65.8,52.8,65.9,52.8z"/>
	<path class="st0" d="M37.5,53.1c-0.1,0.3,0.2,0.8-0.4,0.8C37.1,53.6,36.9,53.2,37.5,53.1z"/>
	<path class="st0" d="M63.2,53.9c0-0.2,0-0.4,0-0.7c0.1,0,0.1,0,0.2,0c0.1,0.2,0.1,0.4,0.2,0.6C63.5,53.8,63.4,53.8,63.2,53.9z"/>
	<path class="st0" d="M35.5,53.5c-0.1,0.3,0.2,0.8-0.4,0.8C35.2,54,34.9,53.6,35.5,53.5z"/>
	<path class="st0" d="M61.9,53.6c0,0.2,0,0.4,0,0.7c-0.1,0-0.1,0-0.2,0c-0.1-0.2-0.1-0.4-0.2-0.6C61.7,53.6,61.8,53.6,61.9,53.6z"/>
	<path class="st0" d="M76.2,54.3c-0.1,0-0.3,0-0.4,0c0.1-0.3-0.2-0.8,0.4-0.8C76.2,53.8,76.2,54,76.2,54.3z"/>
	<path class="st0" d="M42.1,66.5c-0.2,0-0.4,0-0.7,0c0-0.1,0-0.1,0-0.2c0.2,0,0.4-0.1,0.7-0.1C42.1,66.3,42.1,66.4,42.1,66.5z"/>
	<path class="st0" d="M40.6,53.9c-0.1,0.3,0.2,0.8-0.4,0.8C40.3,54.4,40,53.9,40.6,53.9z"/>
	<path class="st0" d="M58.8,64.2c0,0.3,0.2,0.8-0.4,0.8C58.5,64.7,58.2,64.2,58.8,64.2z"/>
	<path class="st0" d="M56.5,65c0.1-0.3-0.2-0.8,0.4-0.8C56.8,64.5,57,65,56.5,65z"/>
	<path class="st0" d="M29.2,54.3c0.1,0,0.3,0,0.4,0c0,0.3,0,0.5,0,0.8C29,55.1,29.2,54.6,29.2,54.3z"/>
	<path class="st0" d="M34.7,55.1c0.1-0.3-0.2-0.8,0.4-0.8C35,54.6,35.3,55.1,34.7,55.1z"/>
	<path class="st0" d="M38.7,64.2c0.3,0,0.5,0,0.8,0c0,0.1,0,0.3,0,0.4C39.1,64.5,38.7,64.8,38.7,64.2z"/>
	<ellipse class="st0" cx="63" cy="54.7" rx="0.1" ry="0.6"/>
	<path class="st0" d="M55.3,63.8c-0.1,0.3,0.2,0.8-0.4,0.8C54.9,64.3,54.7,63.8,55.3,63.8z"/>
	<path class="st0" d="M52.5,64.2c-0.3-0.1-0.8,0.2-0.8-0.4C52,63.9,52.5,63.6,52.5,64.2z"/>
	<path class="st0" d="M37.5,63.4c0.3,0.1,0.8-0.2,0.8,0.4C38,63.7,37.5,64,37.5,63.4z"/>
	<path class="st0" d="M32.7,55.5c0.1-0.3-0.2-0.8,0.4-0.8C33.1,55,33.3,55.5,32.7,55.5z"/>
	<path class="st0" d="M38.3,54.7c-0.1,0.3,0.2,0.8-0.4,0.8C37.9,55.2,37.7,54.7,38.3,54.7z"/>
	<path class="st0" d="M39.8,55.5c0.1-0.3-0.2-0.8,0.4-0.8C40.2,55,40.4,55.5,39.8,55.5z"/>
	<ellipse class="st0" cx="61.4" cy="55.1" rx="0.1" ry="0.6"/>
	<path class="st0" d="M63.6,55.4c0-0.2,0-0.4,0-0.7c0.1,0,0.1,0,0.2,0c0.1,0.2,0.1,0.4,0.2,0.6C63.9,55.4,63.8,55.4,63.6,55.4z"/>
	<path class="st0" d="M75.4,54.7c-0.1,0.3,0.2,0.8-0.4,0.8C75.1,55.2,74.8,54.7,75.4,54.7z"/>
	<path class="st0" d="M56.1,62.5c-0.1,0.5-0.2,0.7-0.3,1c-0.1-0.2-0.1-0.4-0.2-0.6C55.7,62.8,55.8,62.7,56.1,62.5z"/>
	<path class="st0" d="M41.5,54.9c-0.1,0.5-0.2,0.7-0.3,1c-0.1-0.2-0.1-0.4-0.2-0.6C41,55.3,41.2,55.2,41.5,54.9z"/>
	<path class="st0" d="M54.1,62.6c-0.1,0.3,0.2,0.8-0.4,0.8C53.7,63.1,53.5,62.7,54.1,62.6z"/>
	<path class="st0" d="M49.7,63c0.1-0.3-0.2-0.8,0.4-0.8C50.1,62.5,50.3,63,49.7,63z"/>
	<path class="st0" d="M32.3,56.5c0.1-0.5,0.2-0.7,0.3-1c0.1,0.2,0.1,0.4,0.2,0.6C32.7,56.1,32.6,56.2,32.3,56.5z"/>
	<path class="st0" d="M48.5,56.5c0.1-0.5,0.2-0.7,0.3-1c0.1,0.2,0.1,0.4,0.2,0.6C48.9,56.1,48.8,56.2,48.5,56.5z"/>
	<path class="st0" d="M75,55.5c-0.1,0.3,0.2,0.8-0.4,0.8C74.7,56,74.5,55.5,75,55.5z"/>
	<path class="st0" d="M43.8,62.2c0.1-0.3-0.2-0.8,0.4-0.8C44.1,61.7,44.4,62.2,43.8,62.2z"/>
	<path class="st0" d="M67.1,62c0.1-0.5,0.2-0.7,0.3-1c0.1,0.2,0.1,0.4,0.2,0.6C67.5,61.6,67.4,61.7,67.1,62z"/>
	<path class="st0" d="M41,61c-0.1,0.3,0.2,0.8-0.4,0.8C40.7,61.5,40.4,61.1,41,61z"/>
	<path class="st0" d="M37.1,56.3c-0.1,0.3,0.2,0.8-0.4,0.8C36.7,56.8,36.5,56.3,37.1,56.3z"/>
	<path class="st0" d="M42.6,56.3c-0.1,0.3,0.2,0.8-0.4,0.8C42.3,56.8,42,56.3,42.6,56.3z"/>
	<ellipse class="st0" cx="68.5" cy="61" rx="0.1" ry="0.6"/>
	<path class="st0" d="M46.2,61.4c0.1-0.3-0.2-0.8,0.4-0.8C46.5,60.9,46.8,61.4,46.2,61.4z"/>
	<path class="st0" d="M43,60.6c-0.1,0.3,0.2,0.8-0.4,0.8C42.7,61.1,42.4,60.7,43,60.6z"/>
	<path class="st0" d="M39.4,61.4c0.1-0.3-0.2-0.8,0.4-0.8C39.8,60.9,40,61.4,39.4,61.4z"/>
	<path class="st0" d="M41,61c0.1-0.3-0.2-0.8,0.4-0.8C41.4,60.5,41.6,61,41,61z"/>
	<path class="st0" d="M39.8,60.6c0.1-0.3-0.2-0.8,0.4-0.8C40.2,60.1,40.4,60.6,39.8,60.6z"/>
	<path class="st0" d="M36.7,57.1c-0.1,0.3,0.2,0.8-0.4,0.8C36.3,57.6,36.1,57.1,36.7,57.1z"/>
	<path class="st0" d="M38.7,57.1c-0.1,0.3,0.2,0.8-0.4,0.8C38.3,57.6,38.1,57.1,38.7,57.1z"/>
	<path class="st0" d="M66.3,59.8c-0.2,0-0.4,0-0.7,0c0-0.1,0-0.1,0-0.2c0.2,0,0.4-0.1,0.7-0.1C66.3,59.6,66.3,59.7,66.3,59.8z"/>
	<path class="st0" d="M47,60.2c0.1-0.3-0.2-0.8,0.4-0.8C47.3,59.8,47.5,60.2,47,60.2z"/>
	<path class="st0" d="M43.8,59.5c-0.1,0.3,0.2,0.8-0.4,0.8C43.5,59.9,43.2,59.5,43.8,59.5z"/>
	<path class="st0" d="M39.8,57.5c-0.1,0.3,0.2,0.8-0.4,0.8C39.5,58,39.2,57.5,39.8,57.5z"/>
	<path class="st0" d="M41.8,57.5c-0.1,0.3,0.2,0.8-0.4,0.8C41.5,58,41.2,57.5,41.8,57.5z"/>
	<path class="st0" d="M43,58.3c0.1-0.3-0.2-0.8,0.4-0.8C43.3,57.8,43.6,58.2,43,58.3z"/>
	<path class="st0" d="M73.9,57.5c-0.1,0.3,0.2,0.8-0.4,0.8C73.5,58,73.3,57.5,73.9,57.5z"/>
	<path class="st0" d="M42.2,59.5c0.1-0.3-0.2-0.8,0.4-0.8C42.5,59,42.8,59.4,42.2,59.5z"/>
	<path class="st0" d="M40.6,59.5c0.1-0.3-0.2-0.8,0.4-0.8C41,59,41.2,59.4,40.6,59.5z"/>
	<path class="st0" d="M38.7,59.5c0.1-0.3-0.2-0.8,0.4-0.8C39,59,39.2,59.4,38.7,59.5z"/>
	<path class="st0" d="M38.3,57.9c-0.1,0.3,0.2,0.8-0.4,0.8C37.9,58.4,37.7,57.9,38.3,57.9z"/>
	<path class="st0" d="M44.2,59.1c0.1-0.3-0.2-0.8,0.4-0.8C44.5,58.6,44.8,59,44.2,59.1z"/>
	<path class="st0" d="M39,58.7c0.1-0.1,0.3-0.3,0.4-0.4C39.3,58.4,39.2,58.5,39,58.7z"/>
	<path class="st0" d="M41,58.7c0.1-0.1,0.3-0.3,0.4-0.4C41.3,58.4,41.2,58.5,41,58.7z"/>
	<path class="st0" d="M43,58.3c-0.1,0.1-0.3,0.3-0.4,0.4C42.7,58.5,42.9,58.4,43,58.3z"/>
	<ellipse class="st0" cx="52.7" cy="58.5" rx="0.1" ry="0.3"/>
	<path class="st0" d="M67.1,58.6c0.1-0.1,0.2-0.2,0.3-0.3l0.1,0.1C67.4,58.5,67.3,58.6,67.1,58.6C67.1,58.7,67.1,58.7,67.1,58.6z"/>
	<path class="st0" d="M44.5,58.2c0.1-0.1,0.2-0.2,0.3-0.3l0.1,0.1C44.8,58.1,44.7,58.2,44.5,58.2C44.6,58.3,44.6,58.3,44.5,58.2z"/>
	<path class="st0" d="M36.3,57.9c-0.1,0.1-0.2,0.2-0.3,0.3l-0.1-0.1C36,58,36.1,57.9,36.3,57.9L36.3,57.9z"/>
	<path class="st0" d="M37.9,58.7c-0.1,0.1-0.2,0.2-0.3,0.3l-0.1-0.1C37.6,58.8,37.7,58.7,37.9,58.7C37.8,58.6,37.9,58.7,37.9,58.7z"
		/>
	<ellipse class="st0" cx="66.1" cy="58.9" rx="0.1" ry="0.3"/>
	<path class="st0" d="M44.2,59.1c-0.1,0.1-0.3,0.3-0.4,0.4C43.9,59.3,44.1,59.2,44.2,59.1z"/>
	<path class="st0" d="M45.7,59.4c0.1-0.1,0.2-0.2,0.3-0.3l0.1,0.1C46,59.3,45.9,59.4,45.7,59.4C45.8,59.5,45.8,59.4,45.7,59.4z"/>
	<ellipse class="st0" cx="52.3" cy="59.3" rx="0.1" ry="0.3"/>
	<ellipse class="st0" cx="51.9" cy="57.3" rx="0.3" ry="0.1"/>
	<ellipse class="st0" cx="49.9" cy="57.3" rx="0.1" ry="0.3"/>
	<ellipse class="st0" cx="37.3" cy="59.7" rx="0.3" ry="0.1"/>
	<path class="st0" d="M38.7,59.5c-0.1,0.1-0.2,0.2-0.3,0.3l-0.1-0.1C38.4,59.6,38.5,59.5,38.7,59.5C38.6,59.4,38.7,59.5,38.7,59.5z"
		/>
	<path class="st0" d="M40.6,59.5c-0.1,0.1-0.3,0.3-0.4,0.4C40.4,59.7,40.5,59.6,40.6,59.5z"/>
	<path class="st0" d="M42.2,59.5c-0.1,0.1-0.3,0.3-0.4,0.4C41.9,59.7,42.1,59.6,42.2,59.5z"/>
	<ellipse class="st0" cx="49.1" cy="57.3" rx="0.3" ry="0.1"/>
	<path class="st0" d="M45.8,59.5c-0.1,0.1-0.3,0.3-0.4,0.4C45.5,59.7,45.6,59.6,45.8,59.5z"/>
	<path class="st0" d="M48.2,57.1c-0.1,0.1-0.2,0.2-0.3,0.3l-0.1-0.1C47.9,57.2,48,57.1,48.2,57.1C48.1,57.1,48.2,57.1,48.2,57.1z"/>
	<path class="st0" d="M43.4,57.4c0.1-0.1,0.2-0.2,0.3-0.3l0.1,0.1C43.6,57.3,43.5,57.4,43.4,57.4C43.4,57.5,43.4,57.5,43.4,57.4z"/>
	<path class="st0" d="M41.8,57.5c0.1-0.1,0.3-0.3,0.4-0.4C42.1,57.2,41.9,57.3,41.8,57.5z"/>
	<path class="st0" d="M40.2,57.1c-0.1,0.1-0.3,0.3-0.4,0.4C40,57.3,40.1,57.2,40.2,57.1z"/>
	<path class="st0" d="M41.4,60.2c0.1-0.1,0.3-0.3,0.4-0.4C41.7,60,41.6,60.1,41.4,60.2z"/>
	<path class="st0" d="M45.4,59.9c-0.1,0.1-0.2,0.2-0.3,0.3L45,60.1C45.1,60,45.2,59.9,45.4,59.9C45.4,59.8,45.4,59.9,45.4,59.9z"/>
	<ellipse class="st0" cx="36.9" cy="60.4" rx="0.1" ry="0.3"/>
	<ellipse class="st0" cx="38.1" cy="60.4" rx="0.1" ry="0.3"/>
	<path class="st0" d="M43,60.6c0.1-0.1,0.3-0.3,0.4-0.4C43.3,60.4,43.1,60.5,43,60.6z"/>
	<path class="st0" d="M47,60.2c-0.1,0.1-0.3,0.3-0.4,0.4C46.7,60.5,46.8,60.4,47,60.2z"/>
	<path class="st0" d="M48.5,60.6c0.1-0.1,0.2-0.2,0.3-0.3l0.1,0.1C48.8,60.5,48.7,60.6,48.5,60.6C48.5,60.7,48.5,60.6,48.5,60.6z"/>
	<ellipse class="st0" cx="51.1" cy="60.4" rx="0.1" ry="0.3"/>
	<ellipse class="st0" cx="66.1" cy="60.4" rx="0.3" ry="0.1"/>
	<ellipse class="st0" cx="65.4" cy="56.9" rx="0.1" ry="0.3"/>
	<ellipse class="st0" cx="62.2" cy="56.9" rx="0.3" ry="0.1"/>
	<path class="st0" d="M48.1,57c0.1-0.1,0.2-0.2,0.3-0.3l0.1,0.1C48.4,56.9,48.3,57,48.1,57C48.2,57.1,48.1,57.1,48.1,57z"/>
	<path class="st0" d="M44.5,61c0.1-0.1,0.2-0.2,0.3-0.3l0.1,0.1C44.8,60.9,44.7,61,44.5,61C44.6,61.1,44.6,61,44.5,61z"/>
	<path class="st0" d="M48.5,60.6c-0.1,0.1-0.3,0.3-0.4,0.4C48.3,60.9,48.4,60.8,48.5,60.6z"/>
	<path class="st0" d="M67.5,61c0.1-0.1,0.2-0.2,0.3-0.3l0.1,0.1C67.8,60.9,67.7,61,67.5,61C67.5,61.1,67.5,61,67.5,61z"/>
	<ellipse class="st0" cx="64.6" cy="56.5" rx="0.1" ry="0.3"/>
	<ellipse class="st0" cx="51.5" cy="56.5" rx="0.1" ry="0.3"/>
	<ellipse class="st0" cx="49.5" cy="56.5" rx="0.3" ry="0.1"/>
	<ellipse class="st0" cx="37.7" cy="61.2" rx="0.1" ry="0.3"/>
	<path class="st0" d="M44.2,61.4c0.1-0.1,0.3-0.3,0.4-0.4C44.5,61.2,44.3,61.3,44.2,61.4z"/>
	<path class="st0" d="M48.2,61.1c-0.1,0.1-0.2,0.2-0.3,0.3l-0.1-0.1C47.9,61.2,48,61.1,48.2,61.1C48.1,61,48.2,61,48.2,61.1z"/>
	<ellipse class="st0" cx="50.7" cy="61.2" rx="0.1" ry="0.3"/>
	<ellipse class="st0" cx="65.4" cy="61.2" rx="0.1" ry="0.3"/>
	<ellipse class="st0" cx="61" cy="56.1" rx="0.1" ry="0.3"/>
	<path class="st0" d="M42.6,56.3c0.1-0.1,0.2-0.2,0.3-0.3l0.1,0.1C42.9,56.1,42.7,56.2,42.6,56.3L42.6,56.3z"/>
	<ellipse class="st0" cx="30.9" cy="56.1" rx="0.1" ry="0.3"/>
	<path class="st0" d="M39.5,61.5c-0.1,0.1-0.2,0.2-0.3,0.3l-0.1-0.1C39.2,61.6,39.3,61.5,39.5,61.5C39.4,61.4,39.5,61.4,39.5,61.5z"
		/>
	<path class="st0" d="M42.6,61.5c-0.1,0.1-0.2,0.2-0.3,0.3l-0.1-0.1C42.4,61.6,42.5,61.5,42.6,61.5C42.6,61.4,42.6,61.4,42.6,61.5z"
		/>
	<path class="st0" d="M46.2,61.5c-0.1,0.1-0.2,0.2-0.3,0.3l-0.1-0.1C45.9,61.6,46,61.5,46.2,61.5C46.2,61.4,46.2,61.4,46.2,61.5z"/>
	<ellipse class="st0" cx="37.3" cy="62" rx="0.1" ry="0.3"/>
	<path class="st0" d="M40.7,61.9c-0.1,0.1-0.2,0.2-0.3,0.3l-0.1-0.1C40.4,62,40.5,61.9,40.7,61.9C40.6,61.8,40.6,61.8,40.7,61.9z"/>
	<path class="st0" d="M47.3,62.2c0.1-0.1,0.2-0.2,0.3-0.3l0.1,0.1C47.6,62.1,47.5,62.2,47.3,62.2C47.4,62.2,47.3,62.2,47.3,62.2z"/>
	<path class="st0" d="M50.1,62.2c0.1-0.1,0.2-0.2,0.3-0.3l0.1,0.1C50.4,62.1,50.3,62.2,50.1,62.2L50.1,62.2z"/>
	<ellipse class="st0" cx="52.3" cy="62" rx="0.1" ry="0.3"/>
	<ellipse class="st0" cx="65" cy="62" rx="0.3" ry="0.1"/>
	<ellipse class="st0" cx="65.7" cy="55.7" rx="0.3" ry="0.1"/>
	<ellipse class="st0" cx="65" cy="55.7" rx="0.3" ry="0.1"/>
	<ellipse class="st0" cx="62.6" cy="55.7" rx="0.3" ry="0.1"/>
	<path class="st0" d="M45.3,62.6c0.1-0.1,0.2-0.2,0.3-0.3l0.1,0.1C45.6,62.5,45.5,62.6,45.3,62.6C45.4,62.6,45.4,62.6,45.3,62.6z"/>
	<path class="st0" d="M54,62.6c0.1-0.1,0.2-0.2,0.3-0.3l0.1,0.1C54.3,62.5,54.2,62.6,54,62.6C54.1,62.6,54.1,62.6,54,62.6z"/>
	<path class="st0" d="M39.8,63c0.1-0.1,0.2-0.2,0.3-0.3l0.1,0.1C40.1,62.9,40,63,39.8,63L39.8,63z"/>
	<path class="st0" d="M51.7,63c0.1-0.1,0.2-0.2,0.3-0.3l0.1,0.1C52,62.9,51.8,63,51.7,63L51.7,63z"/>
	<path class="st0" d="M48.9,55.5c0.1-0.1,0.2-0.2,0.3-0.3l0.1,0.1C49.2,55.4,49.1,55.4,48.9,55.5L48.9,55.5z"/>
	<path class="st0" d="M37.4,63.5c-0.1-0.1-0.2-0.2-0.3-0.3l0.1-0.1C37.3,63.2,37.4,63.3,37.4,63.5C37.5,63.4,37.5,63.4,37.4,63.5z"
		/>
	<path class="st0" d="M57.6,63.4c0.1-0.1,0.2-0.2,0.3-0.3l0.1,0.1C57.9,63.3,57.8,63.4,57.6,63.4L57.6,63.4z"/>
	<ellipse class="st0" cx="57.4" cy="54.9" rx="0.1" ry="0.3"/>
	<path class="st0" d="M53.7,63.4c-0.1,0.1-0.2,0.2-0.3,0.3l-0.1-0.1C53.4,63.6,53.5,63.5,53.7,63.4L53.7,63.4z"/>
	<path class="st0" d="M55.7,63.4c-0.1,0.1-0.3,0.3-0.4,0.4C55.4,63.7,55.5,63.5,55.7,63.4z"/>
	<path class="st0" d="M57.2,63.8c0.1-0.1,0.3-0.3,0.4-0.4C57.5,63.5,57.4,63.7,57.2,63.8z"/>
	<path class="st0" d="M38.3,63.8c0.1,0.1,0.3,0.3,0.4,0.4C38.5,64.1,38.4,63.9,38.3,63.8z"/>
	<path class="st0" d="M43.4,63.8c0.1,0.1,0.3,0.3,0.4,0.4C43.7,64.1,43.5,63.9,43.4,63.8z"/>
	<path class="st0" d="M75.8,54.3c-0.1,0.1-0.3,0.3-0.4,0.4C75.6,54.6,75.7,54.4,75.8,54.3z"/>
	<path class="st0" d="M57.2,63.8c-0.1,0.1-0.3,0.3-0.4,0.4C57,64.1,57.1,63.9,57.2,63.8z"/>
	<path class="st0" d="M58.8,64.2c0.1-0.1,0.3-0.3,0.4-0.4C59.1,63.9,59,64.1,58.8,64.2z"/>
	<ellipse class="st0" cx="66.1" cy="54.5" rx="0.1" ry="0.3"/>
	<ellipse class="st0" cx="49.5" cy="54.5" rx="0.3" ry="0.1"/>
	<path class="st0" d="M41,64.6c-0.1-0.1-0.2-0.2-0.3-0.3l0.1-0.1C40.9,64.3,41,64.5,41,64.6L41,64.6z"/>
	<path class="st0" d="M47.3,64.6c0.1-0.1,0.2-0.2,0.3-0.3l0.1,0.1C47.6,64.5,47.5,64.5,47.3,64.6C47.4,64.6,47.3,64.6,47.3,64.6z"/>
	<path class="st0" d="M60.8,64.2c-0.1,0.1-0.2,0.2-0.3,0.3l-0.1-0.1C60.6,64.3,60.7,64.3,60.8,64.2L60.8,64.2z"/>
	<path class="st0" d="M39.4,64.6c0.1,0.1,0.3,0.3,0.4,0.4C39.7,64.9,39.6,64.7,39.4,64.6z"/>
	<path class="st0" d="M41.1,64.6c0.1,0.1,0.2,0.2,0.3,0.3L41.3,65C41.2,64.8,41.1,64.7,41.1,64.6C41,64.6,41,64.6,41.1,64.6z"/>
	<path class="st0" d="M43,64.6c0.1,0.1,0.2,0.2,0.3,0.3L43.2,65C43.1,64.8,43.1,64.7,43,64.6L43,64.6z"/>
	<path class="st0" d="M45.3,65c-0.1-0.1-0.2-0.2-0.3-0.3l0.1-0.1C45.2,64.7,45.3,64.8,45.3,65C45.4,65,45.4,65,45.3,65z"/>
	<path class="st0" d="M47.4,64.6c-0.1,0.1-0.2,0.2-0.3,0.3L47,64.8C47.1,64.7,47.2,64.6,47.4,64.6C47.3,64.6,47.4,64.6,47.4,64.6z"
		/>
	<path class="st0" d="M52.1,65c-0.1-0.1-0.2-0.2-0.3-0.3l0.1-0.1C52,64.7,52,64.8,52.1,65L52.1,65z"/>
	<ellipse class="st0" cx="65.4" cy="54.1" rx="0.1" ry="0.3"/>
	<path class="st0" d="M39.9,65c0.1,0.1,0.2,0.2,0.3,0.3l-0.1,0.1C40,65.2,39.9,65.1,39.9,65C39.8,65,39.8,65,39.9,65z"/>
	<ellipse class="st0" cx="42" cy="65.2" rx="0.1" ry="0.3"/>
	<path class="st0" d="M50.9,65c0.1,0.1,0.2,0.2,0.3,0.3l-0.1,0.1C51.1,65.2,51,65.1,50.9,65L50.9,65z"/>
	<ellipse class="st0" cx="64.2" cy="54.1" rx="0.3" ry="0.1"/>
	<path class="st0" d="M58.5,65c-0.1,0.1-0.2,0.2-0.3,0.3l-0.1-0.1C58.2,65.1,58.3,65,58.5,65C58.4,65,58.4,65,58.5,65z"/>
	<ellipse class="st0" cx="60.2" cy="65.2" rx="0.1" ry="0.3"/>
	<ellipse class="st0" cx="40.8" cy="65.6" rx="0.3" ry="0.1"/>
	<path class="st0" d="M44.9,65.8c-0.1-0.1-0.2-0.2-0.3-0.3l0.1-0.1C44.8,65.5,44.9,65.6,44.9,65.8C45,65.8,45,65.8,44.9,65.8z"/>
	<path class="st0" d="M46.2,65.3c0.1,0.1,0.2,0.2,0.3,0.3l-0.1,0.1C46.3,65.6,46.2,65.5,46.2,65.3C46.2,65.4,46.2,65.4,46.2,65.3z"
		/>
	<ellipse class="st0" cx="43.6" cy="66" rx="0.3" ry="0.1"/>
	<path class="st0" d="M45.8,66.1c0.1,0.1,0.2,0.2,0.3,0.3L46,66.5C45.9,66.4,45.8,66.3,45.8,66.1C45.8,66.2,45.8,66.2,45.8,66.1z"/>
	<ellipse class="st0" cx="47.9" cy="66.4" rx="0.1" ry="0.3"/>
	<ellipse class="st0" cx="57.8" cy="53.7" rx="0.3" ry="0.1"/>
	<ellipse class="st0" cx="57" cy="53.7" rx="0.3" ry="0.1"/>
	<ellipse class="st0" cx="55.9" cy="53.7" rx="0.1" ry="0.3"/>
	<ellipse class="st0" cx="48.7" cy="66.8" rx="0.3" ry="0.1"/>
	<ellipse class="st0" cx="51.9" cy="66.8" rx="0.1" ry="0.3"/>
	<ellipse class="st0" cx="64.6" cy="53.3" rx="0.1" ry="0.3"/>
	<ellipse class="st0" cx="45.2" cy="53.3" rx="0.1" ry="0.3"/>
	<ellipse class="st0" cx="58.2" cy="52.9" rx="0.3" ry="0.1"/>
	<path class="st0" d="M62.4,52.4c-0.1,0.1-0.2,0.2-0.3,0.3L62,52.6C62.1,52.5,62.2,52.4,62.4,52.4C62.4,52.3,62.4,52.3,62.4,52.4z"
		/>
	<ellipse class="st0" cx="43.6" cy="52.5" rx="0.1" ry="0.3"/>
	<path class="st0" d="M36.3,52.3c-0.1,0.1-0.3,0.3-0.4,0.4C36,52.6,36.1,52.5,36.3,52.3z"/>
	<path class="st0" d="M33.1,52.7c0.1-0.1,0.3-0.3,0.4-0.4C33.4,52.5,33.2,52.6,33.1,52.7z"/>
	<ellipse class="st0" cx="59.4" cy="52.1" rx="0.1" ry="0.3"/>
	<path class="st0" d="M28,52.3c0-0.1,0-0.3,0-0.4c0.1,0.1,0.2,0.2,0.3,0.3C28.2,52.2,28.1,52.3,28,52.3z"/>
	<ellipse class="st0" cx="58.6" cy="51.7" rx="0.1" ry="0.3"/>
	<ellipse class="st0" cx="47.2" cy="51.7" rx="0.3" ry="0.1"/>
	<path class="st0" d="M39.8,51.9c0.1-0.1,0.2-0.2,0.3-0.3l0.1,0.1C40.1,51.8,40,51.9,39.8,51.9C39.8,52,39.8,51.9,39.8,51.9z"/>
	<path class="st0" d="M47.3,59.4c0.1-0.1,0.2-0.2,0.3-0.3l0.1,0.1C47.6,59.3,47.5,59.4,47.3,59.4C47.4,59.5,47.3,59.4,47.3,59.4z"/>
	<ellipse class="st0" cx="59.8" cy="51.3" rx="0.3" ry="0.1"/>
	<ellipse class="st0" cx="53.9" cy="51.3" rx="0.1" ry="0.3"/>
	<path class="st0" d="M32.3,51.5c0.1-0.1,0.2-0.2,0.3-0.3l0.1,0.1C32.6,51.4,32.5,51.5,32.3,51.5C32.3,51.6,32.3,51.5,32.3,51.5z"/>
	<path class="st0" d="M76.2,50.8c0.1-0.1,0.3-0.3,0.4-0.4C76.5,50.5,76.4,50.6,76.2,50.8z"/>
	<path class="st0" d="M28.3,50.7c0.1-0.1,0.2-0.2,0.3-0.3l0.1,0.1C28.6,50.6,28.5,50.7,28.3,50.7C28.4,50.8,28.4,50.7,28.3,50.7z"/>
	<path class="st0" d="M56.1,87.1c0.1,0.1,0.3,0.3,0.4,0.4c0.5,0.7,0.9,1.6,2,1.6c0,0.2,0,0.4,0,0.6c-1.4,0-1.8-1.7-3.3-2
		C55.5,87.5,55.8,87.3,56.1,87.1z"/>
	<path class="st0" d="M45.6,91.7c0.3-0.2,0.6-0.4,0.9-0.6c0,0.3,0,0.5,0.1,0.8c-0.3,0-0.6,0-0.8,0.1C45.7,91.8,45.6,91.8,45.6,91.7z
		"/>
	<path class="st0" d="M47.3,92c0,0.2,0,0.4,0,0.6c-0.3,0-0.5,0-1.2,0C46.8,92.3,47,92.1,47.3,92z"/>
	<path class="st0" d="M57.5,91.5c0,0.3,0,0.5,0.1,0.8c-0.1,0-0.2,0-0.3,0c-0.1-0.3-0.1-0.5-0.2-0.8C57.3,91.5,57.4,91.5,57.5,91.5z"
		/>
	<path class="st0" d="M58,91.1c-0.3,0-0.5,0-0.8,0c0.2-0.1,0.3-0.3,0.5-0.4C57.8,90.8,57.9,91,58,91.1z"/>
	<path class="st0" d="M50.1,86.4c0.3,0,0.5,0,0.8,0c-0.2,0.1-0.3,0.3-0.5,0.4C50.3,86.6,50.2,86.5,50.1,86.4z"/>
	<ellipse class="st0" cx="54.3" cy="86.9" rx="0.1" ry="0.3"/>
	<path class="st0" d="M39.8,87.5c0.1-0.1,0.2-0.2,0.3-0.3l0.1,0.1C40.1,87.4,40,87.5,39.8,87.5C39.8,87.6,39.8,87.5,39.8,87.5z"/>
	<path class="st0" d="M44.2,87.2c-0.1,0.1-0.2,0.2-0.3,0.3l-0.1-0.1C43.9,87.3,44,87.2,44.2,87.2C44.2,87.1,44.2,87.2,44.2,87.2z"/>
	<path class="st0" d="M39.9,87.6c-0.1,0.1-0.2,0.2-0.3,0.3l-0.1-0.1C39.6,87.7,39.7,87.6,39.9,87.6C39.8,87.5,39.9,87.5,39.9,87.6z"
		/>
	<path class="st0" d="M60.4,88.3c-0.1-0.1-0.2-0.2-0.3-0.3c0.1,0,0.2-0.1,0.3-0.1C60.4,88.1,60.4,88.2,60.4,88.3z"/>
	<ellipse class="st0" cx="45.6" cy="88.5" rx="0.3" ry="0.1"/>
	<path class="st0" d="M60.8,88.7c-0.1-0.1-0.3-0.3-0.4-0.4C60.5,88.5,60.7,88.6,60.8,88.7z"/>
	<ellipse class="st0" cx="41.2" cy="88.9" rx="0.1" ry="0.3"/>
	<ellipse class="st0" cx="51.1" cy="88.9" rx="0.1" ry="0.3"/>
	<path class="st0" d="M60.8,89.1c0-0.1,0-0.3,0-0.4c0.1,0.1,0.2,0.2,0.3,0.3C61,89,60.9,89.1,60.8,89.1z"/>
	<ellipse class="st0" cx="37.3" cy="89.3" rx="0.3" ry="0.1"/>
	<path class="st0" d="M60.8,89.2c-0.1,0.1-0.2,0.2-0.3,0.3l-0.1-0.1C60.6,89.3,60.7,89.2,60.8,89.2C60.8,89.1,60.8,89.1,60.8,89.2z"
		/>
	<ellipse class="st0" cx="61.8" cy="89.3" rx="0.3" ry="0.1"/>
	<path class="st0" d="M52.1,90c-0.1-0.1-0.2-0.2-0.3-0.3l0.1-0.1C52,89.7,52,89.8,52.1,90C52.1,89.9,52.1,89.9,52.1,90z"/>
	<ellipse class="st0" cx="47.2" cy="90.1" rx="0.3" ry="0.1"/>
	<path class="st0" d="M52.1,89.9c0.1,0.1,0.2,0.2,0.3,0.3l-0.1,0.1C52.2,90.2,52.2,90.1,52.1,89.9L52.1,89.9z"/>
	<path class="st0" d="M53.3,90.3c-0.1-0.1-0.2-0.2-0.3-0.3l0.1-0.1C53.1,90.1,53.2,90.2,53.3,90.3L53.3,90.3z"/>
	<path class="st0" d="M53.3,90.3c0.1,0.1,0.3,0.3,0.4,0.4C53.6,90.6,53.4,90.4,53.3,90.3z"/>
	<path class="st0" d="M54.1,91.1c-0.1-0.1-0.3-0.3-0.4-0.4C53.8,90.8,53.9,91,54.1,91.1z"/>
	<ellipse class="st0" cx="64.6" cy="90.9" rx="0.3" ry="0.1"/>
	<path class="st0" d="M54.5,91.5c-0.1-0.1-0.3-0.3-0.4-0.4C54.2,91.2,54.3,91.4,54.5,91.5z"/>
	<path class="st0" d="M56.4,91.5c-0.1-0.1-0.2-0.2-0.3-0.3l0.1-0.1C56.3,91.2,56.4,91.4,56.4,91.5C56.5,91.5,56.4,91.5,56.4,91.5z"
		/>
	<path class="st0" d="M56.8,91.5c0.1-0.1,0.3-0.3,0.4-0.4c0,0.1,0,0.3,0,0.4C57.1,91.5,57,91.5,56.8,91.5z"/>
	<path class="st0" d="M58.4,91.5c-0.1-0.1-0.3-0.3-0.4-0.4C58.2,91.2,58.3,91.4,58.4,91.5z"/>
	<path class="st0" d="M54.9,91.9c-0.1-0.1-0.3-0.3-0.4-0.4C54.6,91.6,54.7,91.8,54.9,91.9z"/>
	<path class="st0" d="M56.8,91.5c-0.1,0.1-0.2,0.2-0.3,0.3c0-0.1-0.1-0.2-0.1-0.3C56.6,91.5,56.7,91.5,56.8,91.5z"/>
	<path class="st0" d="M58.5,91.5c0.1,0.1,0.2,0.2,0.3,0.3l-0.1,0.1C58.6,91.7,58.5,91.6,58.5,91.5C58.4,91.5,58.4,91.5,58.5,91.5z"
		/>
	<path class="st0" d="M45.8,91.9c0,0.1,0,0.3,0,0.4c-0.1-0.1-0.2-0.2-0.3-0.3C45.6,92,45.7,91.9,45.8,91.9z"/>
	<path class="st0" d="M54,92.3c-0.1-0.1-0.2-0.2-0.3-0.3l0.1-0.1C53.9,92,54,92.1,54,92.3C54.1,92.3,54.1,92.3,54,92.3z"/>
	<path class="st0" d="M55.3,92.3c-0.1-0.1-0.3-0.3-0.4-0.4C55,92,55.1,92.2,55.3,92.3z"/>
	<path class="st0" d="M45.8,92.2c0.1,0.1,0.2,0.2,0.3,0.3L46,92.6C45.9,92.5,45.8,92.4,45.8,92.2C45.8,92.3,45.8,92.3,45.8,92.2z"/>
	<path class="st0" d="M54.5,92.7c-0.1-0.1-0.3-0.3-0.4-0.4C54.2,92.4,54.3,92.5,54.5,92.7z"/>
	<path class="st0" d="M55.3,92.3c0.1,0.1,0.3,0.3,0.4,0.4C55.5,92.5,55.4,92.4,55.3,92.3z"/>
	<path class="st0" d="M44.9,93c0.1-0.1,0.2-0.2,0.3-0.3l0.1,0.1C45.2,92.9,45.1,93,44.9,93C45,93.1,45,93.1,44.9,93z"/>
	<path class="st0" d="M54.9,93.1c-0.1-0.1-0.3-0.3-0.4-0.4C54.6,92.8,54.7,92.9,54.9,93.1z"/>
	<path class="st0" d="M55.7,92.7c0.1,0.1,0.3,0.3,0.4,0.4C55.9,92.9,55.8,92.8,55.7,92.7z"/>
	<path class="st0" d="M45,93.1c-0.1,0.1-0.2,0.2-0.3,0.3l-0.1-0.1C44.7,93.2,44.8,93.1,45,93.1L45,93.1z"/>
	<path class="st0" d="M53,77.6c0.2,0,0.4,0,0.6,0c0,0.2,0.1,0.4,0.1,0.7c-0.3,0.1-0.4,0.1-0.7,0.1C53,78.2,53,77.9,53,77.6z"/>
	<path class="st0" d="M46.6,80.3c0-0.2,0-0.4,0-0.7c0.1,0,0.1,0,0.2,0c0,0.2,0.1,0.4,0.1,0.7C46.9,80.3,46.7,80.3,46.6,80.3z"/>
	<path class="st0" d="M50.9,79.2c0.1,0,0.3,0,0.4,0c0,0.2,0,0.5,0,0.7c-0.1,0-0.2,0-0.3,0C51,79.7,51,79.5,50.9,79.2z"/>
	<path class="st0" d="M52.6,77.5c-0.1,0.5-0.2,0.7-0.3,1c-0.1-0.2-0.1-0.4-0.2-0.6C52.1,77.8,52.3,77.8,52.6,77.5z"/>
	<ellipse class="st0" cx="55.1" cy="78" rx="0.1" ry="0.6"/>
	<path class="st0" d="M47.8,80.1c-0.1,0.1-0.2,0.2-0.3,0.3l-0.1-0.1C47.5,80.2,47.6,80.1,47.8,80.1C47.7,80,47.8,80,47.8,80.1z"/>
	<ellipse class="st0" cx="47.6" cy="81.8" rx="0.3" ry="0.1"/>
	<ellipse class="st0" cx="50.3" cy="82.2" rx="0.3" ry="0.1"/>
	<path class="st0" d="M50.7,71.8c-0.5-0.1-0.7-0.2-1-0.3c0.2-0.1,0.4-0.1,0.6-0.2C50.3,71.3,50.4,71.5,50.7,71.8z"/>
	<path class="st0" d="M55.6,73.6c-0.4,0-0.7,0-1.1,0c0-0.1,0-0.1,0-0.2c0.3,0,0.7-0.1,1-0.1C55.6,73.4,55.6,73.5,55.6,73.6z"/>
	<path class="st0" d="M54.8,72.8c-0.4,0-0.7,0-1.1,0c0-0.1,0-0.1,0-0.2c0.4,0,0.7-0.1,1.1-0.1C54.8,72.6,54.8,72.7,54.8,72.8z"/>
	<path class="st0" d="M58.1,73.7c-0.1,0.1-0.2,0.2-0.3,0.3l-0.1-0.1C57.8,73.8,57.9,73.7,58.1,73.7C58,73.7,58,73.7,58.1,73.7z"/>
	<path class="st0" d="M46.2,94.6c0.1,0.1,0.2,0.2,0.3,0.3L46.4,95C46.3,94.9,46.2,94.8,46.2,94.6C46.2,94.7,46.2,94.6,46.2,94.6z"/>
	<ellipse class="st0" cx="31.3" cy="10.2" rx="0.1" ry="0.3"/>
</g>
</svg>
