<?xml version="1.0" encoding="utf-8"?>
<!-- Generator: Adobe Illustrator 26.0.3, SVG Export Plug-In . SVG Version: 6.00 Build 0)  -->
<svg version="1.1" id="Ebene_1" xmlns="http://www.w3.org/2000/svg" xmlns:xlink="http://www.w3.org/1999/xlink" x="0px" y="0px"
	 viewBox="0 0 100 100" style="enable-background:new 0 0 100 100;" xml:space="preserve">
<style type="text/css">
	.st0{fill:#9E833E;}
</style>
<g id="Tx86Tl_00000014597093932173564150000004606511256790422173_">
	<g>
		<path class="st0" d="M27.3,89.7c-0.6,0.1-1.3,0.2-2,0.3c0-0.1-0.1-0.2-0.2-0.5c1.3-0.5,2.7-1.1,4.3-1.7c-1.2-0.3-2.2-0.1-2.9-0.2
			c-0.4-0.2-0.7-0.4-1-0.5c0.1-1.6-0.6-3.2-0.4-4.9c-0.6-0.7-0.3-1.6-0.4-2.4c-0.1-0.7-0.3-1.3-0.3-2c-0.1-0.7,0.1-1.4-0.3-2
			c-0.3-0.4,0.6-1,0-1.5c0.2-2-0.5-3.9-0.4-6c0-1.2-0.4-2.3-0.6-3.5c-0.2-0.8,0-1.8,0-2.7c-0.8,0-1.4,0-2.2,0
			c-0.1-0.4-0.4-0.9-0.3-1.3c0-0.9-0.2-1.6-0.7-2.2c0.2-0.2,0.3-0.3,0.6-0.6c2,0,4.1,0,6.2,0c0-0.5,0-1,0-1.5c0-0.5,0.1-1.2-0.1-1.6
			c-0.3-0.4,0.4-0.8-0.2-1.1c-0.1-0.1-0.1-0.9,0.1-1.1c0.4-0.5-0.4-0.6-0.1-0.9c0.7-0.8,0.2-1.8,0.5-3c0.1,0.4,0.1,0.6,0.2,0.8
			c0.1,0.3,0.2,0.5,0.4,0.8C27.2,50.8,27,51,27,51.3c0,0.6,0,1.2,0.1,1.7c0.2,0.6-0.4,1-0.2,1.6c0.1,0.2,0,0.4,0.1,0.5
			c0.7,0.6,0,1.1-0.1,1.8c0.1,0.3,0.3,0.7,0.5,1.2c0.1,0,0.3,0,0.6,0c-0.1-0.2-0.2-0.3-0.3-0.4c0.2-0.5,0.6-1,0-1.4
			c0.1-0.4,0.1-0.8,0.2-1.1c0.1-0.3,0.5-0.5,0-0.8c0.4-0.3,0.4-0.7,0.4-1.1c0-0.4,0.1-0.8-0.1-1c-0.5-0.6,0.5-1.3-0.3-2
			c-0.4-0.4,0.3-1.4-0.4-2c0.5-0.5,0.4-0.9,0.1-1.5C27.6,46.5,28,46,28,45.6c0-0.2-0.2-0.4-0.3-0.6c0.1-0.1,0.2-0.2,0.3-0.3
			c-0.1-0.1-0.2-0.3-0.4-0.4c0.2-0.6,0.4-1.2,0.6-1.7c-0.6-1.9,0.1-3.9-0.4-6c0.3-0.6,0.3-0.6-0.5-1.5c-0.1,1.1,0,2.1,0,3.1
			c0,0.7,0,1.4,0,2.2c-0.8,0.4,0.2,1.1-0.3,1.6c-0.2,0.2-0.1,0.8,0,1.2c0.1,0.5,0.6,0.9,0.2,1.4c-0.3,0.4,0.2,0.7,0.2,1.2
			c-0.1,0.9,0,1.8,0,2.7c-0.2,0-0.4,0.1-0.7,0.1c-0.1-0.8-0.3-1.5,0.3-2.2c-0.1-0.2-0.3-0.5-0.4-0.7c-0.1-0.5,0-1.1,0-1.6
			c0-0.5-0.2-1.1-0.2-1.6c0-0.4,0.1-0.8,0.1-1.2c0.2-2.2,0.7-4.3,0.3-6.6c-0.5-0.4-1.1-0.9-1.7-1.3c-0.1-0.4-0.1-0.7-0.1-1.2
			c-0.4,1.2-1,1.7-2.2,2.1c-0.6-0.1-1.5-0.1-2.5-0.2c-0.3-0.6-0.5-1-0.7-1.5c-0.6,0.5-1.2,1.1-1.8,1.6c-0.8,0.2-1.6-0.3-2.2,0.4
			c-0.6-0.3-1.1-0.6-1.7-0.9c0-0.8,0.4-1.4,0.9-2c0.5-0.7,1-1.5,0.1-2.4c0.6-0.3,1.2-0.6,1.8-0.8c1.9-0.6,4.4-2.2,5.9-3.1
			c1.4-0.9,2.1-2.4,3.3-3.4c0.3-0.7,0.6-1.2,1-1.9c1.1,0.2,2.1,0.4,3.1,0.6c0.3,0.1,0.7,0.2,1,0.2c6.1-0.2,12.1,0.6,18.1,0.4
			c6.4,0.7,12.8,0.2,19.2,0.4c1,0,2.1,0.2,3.1-0.6c0.7,0.9,1.2,1.7,1.8,2.3c1.1,1.2,2.4,2.2,3.7,3.1c1.2,0.8,2.5,1.4,3.8,2
			c0.6,0.2,1.2,0.3,1.8,0.5c0.2,1.2,0.4,2.6,1.5,3.6c0,0.4,0,0.8,0,1.2c-0.3,0.1-0.5,0.3-0.8,0.4c-0.3,0.1-0.5,0.2-0.8,0.2
			c-1-0.5-2.4,0.1-3.2-1c-0.2-0.4-0.5-0.7-0.8-1.3c0,0.6,0,0.8,0,1.1c-0.4,0.4-0.7,0.7-1,1c-0.8,0-1.7,0-2.5,0
			c-0.6-0.5-1.2-1.1-1.9-1.6c0,0.2-0.1,0.5-0.1,0.8c-0.2,0.2-0.4,0.4-0.7,0.7c-0.2,1.8,0.9,3.6,0.1,5.5c0,0,0.2,0.1,0.2,0.3
			c0.1,0.8-0.1,1.6,0.4,2.4c0.1,0.1,0,0.2,0,0.4c0,0.7-0.5,1.3-0.4,2c0.1,0.6-0.1,1.3-0.2,1.9c0,0.1-0.1,0.2-0.1,0.2
			c0.6,0.9,0.2,1.8,0.3,2.8c0.1,1.6,0.3,3.1,0.3,4.7c0,0.7-0.3,1.3-0.3,2c-0.1,0.7,0,1.3,0,2.1c2,0,3.9,0,5.9,0c0.5,0,1-0.1,1.2,0.7
			c-0.2,0.1-0.5,0.2-0.7,0.4c0,1.1,0,2,0,2.9c-0.8,0-1.6,0-2.5,0c0.3,2-0.5,3.8-0.4,5.8c0.1,0.7-0.3,1.4-0.3,2.2
			c-0.1,0.8,0.2,1.6-0.1,2.3c-0.4,1-0.1,2.1-0.4,3.1c-0.3,1.2-0.3,2.3-0.3,3.4c0,0.3-0.2,0.6-0.4,0.9c0.1,0.2,0.3,0.3,0.3,0.3
			c-0.6,2.4-0.8,4.7-1,7c-0.1,0.1-0.3,0.3-0.4,0.4c-0.8,0-1.7,0-2.6,0c-0.1,0.2-0.1,0.4-0.2,0.6c1.4,0.2,2.8,0.4,3.6,1.9
			c-0.7-0.2-1.4-0.4-2.2-0.7c0.3,0.8,1,1,1.2,1.6c0.2,0.7,0.3,1.3,0.4,1.8c-0.4,0.7-0.6,1.2-0.9,1.8c-0.5,0.3-1.2,0.7-1.9,1.2
			c-0.9,0-1.9,0-2.8,0c-1.3-0.8-2.6-1.7-2.8-3.6c-0.3,0.3-0.6,0.5-1,0.8c-0.3-0.3-0.5-0.6-0.8-0.9C63.9,92,64,92,64,91.9
			c0.2,0.1,0.4,0.2,0.7,0.3c0.8-0.3,0.7-1,0.6-1.7c-1.6-1.1-3.4-1.7-5.2-2.3c-2.1-0.7-4.2-0.7-6.4-0.7c-3.5,0-6.9-0.1-10.4,0
			c-3.2,0.1-6.1,1.2-9,3c0.2,0.6,0.4,1.1,0.6,1.7c0.3-0.2,0.6-0.3,1-0.5c-0.2,0.5-0.4,0.8-0.6,1.2c-0.2-0.1-0.4-0.1-0.6-0.1
			c-0.3-0.1-0.5-0.2-0.8-0.2c0,0,0,0,0.1-0.1c-0.1-0.1-0.2-0.2-0.3-0.3c0,0-0.1,0.1-0.1,0.1c0.1,0.1,0.2,0.2,0.3,0.2
			c-0.4,2.2-1.9,3.3-4,3.2c-0.5,0-1.1,0-1.5,0c-1.3-0.6-2.2-1.5-2.8-2.7c0-0.4,0-0.9,0-1.4C26.4,90.9,26.9,90.3,27.3,89.7
			C27.3,89.7,27.4,89.7,27.3,89.7c0.1,0,0.2-0.1,0.3-0.2c0,0-0.1-0.1-0.1-0.1C27.5,89.4,27.4,89.5,27.3,89.7z M41.3,23.3
			c-0.1,0-0.2,0.1-0.3,0.1c0.1,0.1,0.2,0.2,0.3,0.2c0,0.1,0,0.2,0,0.4c-0.2,0-0.5,0.1-0.7,0.1c0,0.1,0,0.2,0,0.2c0.2,0,0.4,0,0.7,0
			c-0.1,0.1-0.3,0.2-0.4,0.4c-0.1,0.1-0.2,0.2-0.2,0.4c0,0,0,0-0.1-0.1c-0.1,0.1-0.2,0.2-0.3,0.3c0,0,0.1,0.1,0.1,0.1
			c0.1-0.1,0.2-0.2,0.2-0.3c0.4,0,0.7,0,1.1,0c0,0.1,0,0.2,0,0.4c-0.3,0.1-0.7-0.2-0.7,0.4c-0.6,0-1.1-0.1-1.4,0.5
			c0.1,0.2,0.2,0.4,0.3,0.5c-0.3,0.1-0.7-0.2-0.7,0.4c-0.5,0-0.3,0.4-0.4,0.7c-0.2,0-0.5,0.1-0.7,0.1c0,0.1,0,0.2,0,0.2
			c0.2,0,0.4,0,0.7,0c0,0.1,0,0.2,0,0.6c0-0.1,0-0.2,0-0.3c-0.4,0-0.7,0.1-1.1,0.1c0,0.1,0,0.2,0,0.2c0.3,0,0.7,0,1-0.3
			c0.4-0.1,0.9,0.3,1.1-0.4c0.4-0.1,0.9,0.3,1.1-0.4c0.4,0,0.7,0,1.1,0c0,0.2,0,0.5,0,0.7c-0.3,0.1-0.7-0.2-0.7,0.6
			c0-0.1,0-0.2,0-0.3c-0.4,0-0.7,0.1-1.1,0.1c0.2,0.2,0.3,0.3,0.5,0.3c0.2,0,0.4-0.1,0.6-0.4c0.3-0.1,0.7,0.2,0.7-0.4
			c0.2,0.2,0.4,0.4,0.5,0.6c0.7-0.2,0.5-0.8,0.5-1.4c0.1-0.1,0.3-0.2,0.3-0.3c0.2-0.9,0.3-1.9,0.4-2.8c0-0.1,0.2-0.1,0.3-0.1
			c0.1,0.2,0.2,0.4,0.3,0.5c-0.3,1.4-0.6,2.7-0.9,4.1c1.8,0,3.5,0,5.3,0c0.3-0.8-0.2-1.6,0.5-2.4c0,0.6,0,1.1,0,1.6
			c0.3,0.1,0.5,0.2,0.7,0.2c-0.2,0.2-0.3,0.3-0.5,0.6c0.4,0,0.6,0,0.8,0c0,0,0,0-0.1,0.1c0.1,0.1,0.2,0.2,0.3,0.3
			c0,0,0.1-0.1,0.1-0.1c-0.1-0.1-0.2-0.2-0.3-0.2c0-0.5,0.4-0.3,0.7-0.4c0,0.5,0.4,0.3,0.8,0.3c0,0,0,0-0.1,0.1
			c0.1,0.1,0.2,0.2,0.3,0.3c0,0,0.1-0.1,0.1-0.1c-0.1-0.1-0.2-0.2-0.3-0.2c0-0.1,0-0.2,0-0.4c0.1,0,0.2-0.1,0.3-0.1
			c-0.1-0.1-0.2-0.2-0.3-0.2c0-0.5-0.4-0.3-0.7-0.4c0-0.5-0.4-0.3-0.7-0.4c0-0.1,0-0.2,0-0.4c0.3-0.1,0.7,0.2,0.7-0.4
			c0.4,0,0.7,0,1.1,0c0.1,0.1,0.2,0.2,0.4,0.4c0,0.1,0,0.2,0,0.4c-0.1,0-0.2,0.1-0.3,0.1c0.1,0.1,0.2,0.2,0.3,0.2c0,0,0,0-0.1,0.1
			c0.1,0.1,0.2,0.2,0.3,0.3c0,0,0.1-0.1,0.1-0.1c-0.1-0.1-0.2-0.2-0.3-0.2c0-0.1,0-0.2,0-0.4c0.1,0,0.2-0.1,0.3-0.1
			c-0.1-0.1-0.2-0.2-0.3-0.2c-0.1-0.1-0.2-0.2-0.4-0.4c0-0.5,0.4-0.3,0.8-0.4c0,0,0,0-0.1,0.1c0.1,0.1,0.2,0.2,0.3,0.3
			c0,0,0.1-0.1,0.1-0.1C53,27,53,26.9,52.8,26.9c0.1-0.1,0.2-0.3,0.4-0.5c0.3,0.4,0.5,0.6,0.8,1c0.2-0.4,0.3-0.6,0.5-1
			c0.2,0.9,0.4,1.7,0.5,2.2c0.4,0.5,0.6,0.8,0.7,0.9c1-0.3,1.9-0.2,2.8-0.2c0.9,0,1.7-0.1,2.7,0.1c-1.5-1.1-2.2-2.7-3.3-4.1
			c0.4,0,0.6,0,0.8,0c0,0.5,0.4,0.3,0.7,0.4c0.1,0.3-0.2,0.7,0.4,0.7c0.1,0.3-0.2,0.7,0.4,0.7c0,0.1,0.1,0.2,0.1,0.3
			c0.1-0.1,0.2-0.2,0.2-0.3c0.2,0,0.5,0,0.7,0c0,0.1,0,0.2,0,0.4c-0.1,0.1-0.2,0.2-0.4,0.4c-0.1,0-0.2,0.1-0.3,0.1
			c0.1,0.1,0.2,0.2,0.3,0.2c0,0.5,0.4,0.3,0.7,0.4c0,0.5,0.4,0.3,0.8,0.3c0,0,0,0-0.1,0.1c0.1,0.1,0.2,0.2,0.3,0.3
			c0,0,0.1-0.1,0.1-0.1c-0.1-0.1-0.2-0.2-0.3-0.2c0-0.1,0-0.2,0-0.4c0.1-0.1,0.2-0.2,0.4-0.4c0.1-0.1,0.2-0.2,0.4-0.4
			c0.1-0.1,0.2-0.2,0.4-0.4c0.8,0,1.2,0.7,1.8,1.1c-0.1,0.1-0.2,0.2-0.4,0.4c-0.2,0-0.5,0-0.7,0c0-0.1-0.1-0.2-0.1-0.3
			c-0.1,0.1-0.2,0.2-0.2,0.6c0-0.1,0-0.2,0-0.3c-0.2,0-0.5,0.1-0.7,0.1c0,0.1,0,0.2,0,0.2c0.2,0,0.5,0,0.7-0.3c0.1,0,0.2,0,0.4,0
			c0.1,0.1,0.2,0.2,0.3,0.4c0.1-0.1,0.3-0.2,0.4-0.4c0.1,0,0.2,0,0.4,0c0,0.1,0.1,0.2,0.1,0.3c0.1-0.1,0.2-0.2,0.2-0.3
			c0.6,0.3,1.1,0.6,1.8,0.2c-1.8-0.6-3-2-4.4-3.3c-0.2,0.3-0.2,0.4-0.3,0.5c-0.1,0.1-0.2,0.2-0.4,0.4c-0.2,0-0.5,0-0.7,0
			c0.1-0.2,0.2-0.5,0.4-0.7c0.1-0.1,0.2-0.2,0.4-0.4c0.4,0,0.4-0.3,0.3-0.6c-0.1-0.2-0.4-0.3-0.6-0.5c0-0.5-0.4-0.3-0.7-0.4
			c0-0.1,0-0.2,0-0.4c0,0,0,0,0.1,0.1c0.1-0.1,0.2-0.2,0.3-0.3c0,0-0.1-0.1-0.1-0.1c-0.1,0.1-0.2,0.2-0.2,0.3c-0.2,0-0.5,0-0.7,0
			c0-0.1,0-0.2,0-0.4c0.1-0.1,0.2-0.2,0.4-0.4c0.2,0,0.4,0,0.6,0c-0.1-0.5-0.2-0.9-0.4-1.4c-0.6,0-1.1,0-1.7,0
			c0.2,0.3,0.3,0.4,0.4,0.6c-0.5,0-0.3,0.4-0.4,0.7c-0.1,0-0.2,0.1-0.3,0.1c0.1,0.1,0.2,0.2,0.3,0.2c-0.2,0.1-0.3,0.3-0.5,0.4
			c-0.3-0.6-0.6-1.2-0.9-1.7c0.3-0.1,0.6-0.1,0.9-0.2c0-0.1,0-0.1,0-0.2c-0.4,0-0.9,0-1.3,0c-0.3,0.9,0.3,1.6,0.6,2.4
			c-0.2,0-0.3,0.1-0.4,0.1c-0.8-0.7-0.5-1.7-0.7-2.5c-1.1,0-2.2-0.1-3.3,0.1c0.2,0.5,0.4,0.8,0.4,1.1c0,0.2-0.5,0.4,0,0.8
			c0.2,0.2,0.1,0.7,0,1c0,0.1-0.1,0.1-0.2,0.2c-0.2-0.2-0.4-0.3-0.5-0.5c0.1-0.1,0.2-0.3,0.3-0.4c-0.6-0.5-0.2-1.2-0.3-1.8
			c0-0.2-0.1-0.3-0.1-0.4c-0.5,0-0.9,0-1.5,0c0.2,0.3,0.4,0.5,0.5,0.7c0.1,0.2,0.2,0.4,0.4,0.7c-0.3,0.1-0.7,0.3-1.1,0.4
			c0-0.1,0-0.2,0-0.4c0.1,0,0.2-0.1,0.3-0.1c-0.1-0.1-0.2-0.2-0.3-0.2c-0.1-0.1-0.2-0.2-0.4-0.4c0.1-0.2,0.2-0.4,0.3-0.7
			c-0.8,0.1-1.5-0.1-2.1,0.3c0.3,0.1,0.6,0.1,0.8,0.1c0.3,0.1,0.6,0.2,0.9,0.3c0,0.1,0,0.2,0,0.4c-0.3,0.1-0.7-0.2-0.7,0.4
			c0,0,0,0-0.1-0.1c-0.1,0.1-0.2,0.2-0.3,0.3c0,0,0.1,0.1,0.1,0.1c0.1-0.1,0.2-0.2,0.2-0.3c0.2,0,0.5,0,0.7,0
			c0.1,0.1,0.2,0.2,0.4,0.4c0,0.1,0,0.2,0,0.4c-0.3,0.1-0.7-0.2-0.7,0.4c-0.1,0-0.2,0.1-0.3,0.1c0.1,0.1,0.2,0.2,0.3,0.2
			c0,0.1,0,0.2,0,0.4c-0.2,0-0.5,0-0.7,0c-0.1-0.1-0.2-0.2-0.4-0.4c0-0.1,0-0.2,0-0.4c0.1,0,0.2-0.1,0.3-0.1
			c-0.1-0.1-0.2-0.2-0.3-0.2c-0.1-0.2-0.2-0.4-0.3-0.5c0.1-0.4,0.2-0.6,0.3-1.3c-0.4,0.5-0.6,0.7-0.9,1c0,0.6,0,1.4,0,2.2
			c-0.1,0-0.2,0-0.3,0c0-1.2,0-2.3,0-3.5c-1.3-0.3-2.6,0.3-3.7-0.5c-0.2,0.2-0.4,0.3-0.6,0.4c-1-0.4-1-0.4-1.9,0
			c-0.4-0.6-0.9-0.3-1.5-0.3c0.2,0.3,0.3,0.5,0.4,0.7c-0.1,0-0.2,0.1-0.3,0.1c0.1,0.1,0.2,0.2,0.3,0.2c0,0.1,0,0.2,0,0.4
			C41.6,23.1,41.5,23.2,41.3,23.3z M67.2,94c0.1,0.1,0.2,0.2,0.4,0.4c0.1,0.1,0.2,0.2,0.3,0.4c0.1-0.1,0.3-0.2,0.4-0.4
			c0.2-0.1,0.5-0.2,0.7-0.4c0,0.2,0,0.4,0,0.6c0.8,0.3,0.7-0.2,0.7-0.6c0.1,0,0.2,0,0.4,0c0.2,0.2,0.3,0.5,0.7,1c0-0.7,0-1,0-1.3
			c0.1,0,0.2,0,0.6,0c-0.1,0-0.2,0-0.3,0c0,0.2,0.1,0.5,0.1,0.7c0.1,0,0.2,0,0.2,0c0-0.2,0-0.5-0.3-0.7c0-0.1-0.1-0.2-0.1-0.3
			c-0.1,0.1-0.2,0.2-0.2,0.3c-0.2,0.1-0.5,0.2-0.7,0.4c0-0.1-0.1-0.2-0.1-0.3c-0.1,0.1-0.2,0.2-0.2,0.3c-0.2,0-0.5,0-0.7,0
			c0-0.5-0.4-0.3-0.7-0.4c0-0.1,0-0.2,0-0.4c0,0,0,0,0.1,0.1c0.1-0.1,0.2-0.2,0.3-0.3c0,0-0.1-0.1-0.1-0.1c-0.1,0.1-0.2,0.2-0.2,0.3
			c-0.2,0-0.5,0.1-0.7,0.1c0,0.1,0,0.2,0,0.2c0.2,0,0.4,0,0.7,0c0,0.2,0,0.5,0,0.7c-0.2,0-0.5,0-0.7,0C67.4,94.2,67.3,94.1,67.2,94
			C67.2,94,67.2,94,67.2,94c0-0.1-0.1-0.2-0.2-0.3c0,0-0.1,0.1-0.1,0.1C66.9,93.9,67,93.9,67.2,94z M32.7,93.9
			C32.7,94,32.7,94,32.7,93.9c0.2,0,0.3-0.1,0.4-0.2c0,0-0.1-0.1-0.1-0.1C32.9,93.8,32.8,93.9,32.7,93.9c-0.1,0.2-0.2,0.3-0.3,0.7
			c0-0.1,0-0.2,0-0.3c-0.2,0-0.5,0.1-0.7,0.1c0,0.1,0,0.2,0,0.2c0.2,0,0.5,0,0.7-0.3C32.5,94.2,32.6,94.1,32.7,93.9z M65.7,23.3
			c-0.1,0-0.2,0.1-0.3,0.1c0.1,0.1,0.2,0.2,0.3,0.2c0.1,0.1,0.2,0.2,0.4,0.4c0.1,0.1,0.2,0.2,0.4,0.4c0.1,0.8,0.3,1,1.1,1.1
			c0.1,0.1,0.2,0.2,0.4,0.4c0,0.1,0.1,0.2,0.1,0.3c0.1-0.1,0.2-0.2,0.2-0.3c0.1-0.1,0.2-0.2,0.4-0.4c0.1-0.1,0.2-0.2,0.3-0.4
			c0,0,0,0,0.1,0.1c0.1-0.1,0.2-0.2,0.3-0.3c0,0-0.1-0.1-0.1-0.1C69.1,24.9,69,25,69,25.1c-0.1,0-0.2,0-0.4,0c0-0.1-0.1-0.2-0.1-0.3
			c-0.1,0.1-0.2,0.2-0.2,0.3c-0.1,0-0.2,0-0.4,0c0-0.2,0-0.5,0-0.7c0.1-0.1,0.2-0.2,0.4-0.4c0.1,0,0.2-0.1,0.3-0.1
			c-0.1-0.1-0.2-0.2-0.3-0.2c-0.1-0.4,0.3-0.9-0.3-1.1c0-0.2,0-0.4-0.1-0.6c-0.7,0-1.4,0-2.3,0c0.4,0.3,0.6,0.5,0.8,0.6
			c0.5,0,1.1,0,1.6,0c-0.1,0.2-0.2,0.5-0.4,0.7c-0.1,0.1-0.2,0.2-0.4,0.4c-0.2,0-0.5,0-0.7,0c-0.1-0.1-0.2-0.2-0.4-0.4
			c0-0.1-0.1-0.2-0.1-0.3C65.9,23.1,65.8,23.2,65.7,23.3z M28,93.2C28,93.3,28.1,93.3,28,93.2c0.2,0,0.3-0.1,0.4-0.2
			c0,0-0.1-0.1-0.1-0.1C28.2,93,28.1,93.1,28,93.2C28.1,93.3,28.1,93.2,28,93.2c-0.1,0.1-0.2,0.2-0.3,0.2c0,0,0.1,0.1,0.1,0.1
			C27.9,93.5,28,93.4,28,93.2z M72.9,91.1C72.9,91.1,72.9,91.1,72.9,91.1c0,0.2,0.1,0.3,0.2,0.4c0,0,0.1-0.1,0.1-0.1
			C73.1,91.2,73,91.2,72.9,91.1C72.9,91.1,72.9,91.1,72.9,91.1c-0.1-0.1-0.2-0.2-0.2-0.3c0,0-0.1,0.1-0.1,0.1
			C72.7,91,72.8,91.1,72.9,91.1z M27.3,90.7C27.3,90.7,27.4,90.8,27.3,90.7c0.2,0,0.3-0.1,0.4-0.2c0,0-0.1-0.1-0.1-0.1
			C27.5,90.5,27.4,90.6,27.3,90.7C27.4,90.8,27.3,90.7,27.3,90.7c-0.1,0.1-0.2,0.2-0.3,0.2c0,0,0.1,0.1,0.1,0.1
			C27.2,91,27.3,90.9,27.3,90.7z M69.7,25.4c-0.1,0.1-0.2,0.2-0.4,0.4c-0.1,0.1-0.2,0.2-0.4,0.4c-0.1,0.1-0.2,0.2-0.3,0.4
			c0,0,0,0-0.1-0.1c-0.1,0.1-0.2,0.2-0.3,0.3c0,0,0.1,0.1,0.1,0.1c0.1-0.1,0.2-0.2,0.2-0.3c0.1,0,0.2,0,0.4,0c0,0.2,0.1,0.5,0.1,0.9
			c0.4-0.5,0.7-0.9,0.9-1.2c0,0,0,0,0.1,0.1c0.1-0.1,0.2-0.2,0.3-0.3c0,0-0.1-0.1-0.1-0.1c-0.1,0.1-0.2,0.2-0.2,0.3
			c-0.2,0-0.5,0-0.7,0c0-0.1,0-0.2,0-0.4C69.4,25.7,69.6,25.6,69.7,25.4C69.7,25.4,69.7,25.5,69.7,25.4c0.1,0,0.2-0.1,0.3-0.2
			c0,0-0.1-0.1-0.1-0.1C69.8,25.2,69.7,25.3,69.7,25.4z M29.9,51.6c-0.1,0-0.2,0.1-0.3,0.1c0.1,0.1,0.2,0.2,0.3,0.2
			c0,0.1,0,0.2,0,0.4c-0.5,0.4-0.5,0.7,0,1.1c-0.2,0.4-0.8,2.3-0.7,2.6c0,0.1,0.2,0.2,0.3,0.3c0,0.2,0,0.4,0,0.7c0.3,0,0.5,0,0.7,0
			c0.1,0.1,0.3,0.3,0.4,0.3c1.1,0,2.2,0,3.4,0c0.2-0.2,0.4-0.5,0.6-0.7c0.2,0,0.4,0,0.6,0c0,0.1,0,0.2,0,0.4c0,0,0,0-0.1-0.1
			c-0.1,0.1-0.2,0.2-0.3,0.3c0,0,0.1,0.1,0.1,0.1c0.1-0.1,0.2-0.2,0.2-0.3c0.1,0,0.2,0,0.4,0c0,0.1,0.1,0.2,0.1,0.3
			c0.1-0.1,0.2-0.2,0.2-0.3c0.1,0,0.2,0,0.4,0c0.1,0.1,0.3,0.3,0.4,0.3c0.7,0,1.5,0,1.8,0c0.7-0.2,1-0.3,1.3-0.4
			c0.4,0.4,0.4,0.4,1.1-0.4c-0.3,0-0.5,0-0.7,0c0.2-0.2,0.5-0.4,0.8-0.6c-0.1-0.2-0.3-0.4-0.4-0.7c0,0,0.1-0.1,0.1-0.1
			c0.1-0.2,0.2-0.5,0.4-0.7c0.6,1.1,0.5,2.1,0,3.3c-4,0-8,0-12,0c1.5,0.4,11.5,0.4,12.9,0.1c0-2.8,0-5.6,0-8.4c-4.3,0-8.6,0-12.9,0
			c0,0.3,0.1,0.4,0.1,0.7c4.2,0,8.3,0,12.4,0c0,1.1,0,2.1,0,3.2c-0.4-0.1-0.6-0.2-0.9-0.3c-0.1,0.2-0.1,0.4-0.2,0.6
			c-0.5-0.1-0.9-0.2-1.3-0.4c0-0.1,0-0.2,0-0.4c0.3,0,0.7,0,1.1,0c0-0.3,0-0.5,0-0.7c0.9-0.7,0.9-0.8,0.4-1.4
			c-0.1-0.1-0.3-0.3-0.4-0.3c-0.9,0-1.9,0-2.8,0c-0.4,0-0.7,0.2-1.1,0.3c-0.1-0.1-0.2-0.2-0.3-0.4c-0.1,0.1-0.3,0.2-0.4,0.4
			c-0.1,0-0.2,0-0.4,0c-0.2-0.1-0.3-0.3-0.5-0.3c-1.1,0-2.2,0-3.2,0c-0.5,0.4-1,0.8-1.4,1.1c0-0.1-0.1-0.2-0.1-0.3
			C30,51.4,29.9,51.5,29.9,51.6z M70.8,26.5c-0.1,0.1-0.2,0.2-0.4,0.4c-0.1,0.1-0.2,0.2-0.3,0.4c0,0,0,0-0.1-0.1
			c-0.1,0.1-0.2,0.2-0.3,0.3c0,0,0.1,0.1,0.1,0.1c0.1-0.1,0.2-0.2,0.2-0.3c0.1-0.1,0.2-0.2,0.4-0.4C70.5,26.8,70.6,26.6,70.8,26.5
			C70.7,26.5,70.8,26.5,70.8,26.5c0.1,0,0.2-0.1,0.3-0.2c0,0-0.1-0.1-0.1-0.1C70.9,26.3,70.8,26.4,70.8,26.5z M71.1,27.2
			c-0.1,0.1-0.2,0.2-0.4,0.4c-0.1,0-0.2,0.1-0.3,0.1c0.1,0.1,0.2,0.2,0.3,0.2c0,0.5,0.4,0.3,0.7,0.4c0,0.5,0.4,0.3,0.7,0.4
			c0,0.5,0.4,0.3,0.7,0.4c0.1,0.5,0.4,0.4,0.7,0.2c0.3-0.2,0.5-0.4,1.6-0.2c-0.2-0.3-0.3-0.4-0.4-0.4c-0.2,0-0.3,0.1-0.5,0.2
			c0.2,0.1,0.4,0.1,0-0.2c0-0.5-0.4-0.3-0.7-0.4c0-0.1-0.1-0.2-0.1-0.3c-0.1,0.1-0.2,0.2-0.2,0.3c-0.1,0.1-0.2,0.2-0.4,0.4
			c-0.2,0-0.5,0-0.7,0c0.2-0.3,0.4-0.6,0.8-1.1c-0.3,0-0.5,0-0.8,0c0-0.5-0.4-0.3-0.7-0.4c0-0.1-0.1-0.2-0.1-0.3
			C71.3,27,71.2,27.1,71.1,27.2z M20.2,28.7c-0.1-0.1-0.2-0.2-0.4-0.4c0-0.1,0-0.2,0-0.4c0.4,0,0.7,0,1.1,0c0,0,0,0-0.1,0.1
			c0.1,0.1,0.2,0.2,0.3,0.3c0,0,0.1-0.1,0.1-0.1C21.1,28.1,21,28,20.9,28c0-0.2,0-0.5,0-0.7c0.3,0,0.6,0,0.9,0
			c0.4-0.3,0.6-0.9,1.3-0.7c0,0.1,0,0.2-0.4,1.2c0.3-0.3,0.4-0.3,0.4-0.4c0-0.2-0.1-0.3-0.2-0.5c-0.1,0.2-0.1,0.4,0.2,0
			c0.1,0,0.2-0.1,0.3-0.1c-0.1-0.1-0.2-0.2-0.3-0.2c0.2-1.1,1.2-0.5,1.8-0.8c-0.3-0.2-0.5-0.4-0.7-0.6c0.9,0,1.7-0.4,2.5-0.6
			c0,0,0-0.1,0-0.2c0.4,0,0.7,0,1.1,0c0,0,0,0-0.1,0.1c0.1,0.1,0.2,0.2,0.3,0.3c0,0,0.1-0.1,0.1-0.1c-0.1-0.1-0.2-0.2-0.3-0.2
			c0-0.1,0-0.2,0-0.4c0.3-0.1,0.7,0.2,0.7-0.4c0.2,0,0.5-0.1,0.7-0.1c0-0.1,0-0.2,0-0.2c-0.2,0-0.4,0-0.7,0c0-0.1,0-0.2,0-0.4
			c0.3-0.1,0.7,0.2,0.7-0.4c0.2,0,0.5-0.1,0.7-0.1c0-0.1,0-0.2,0-0.2c-0.2,0-0.4,0-0.7,0c0-0.1,0-0.2,0-0.4c0.5-0.1,0.9-0.2,1.6-0.4
			c-0.8,1.4-1,2.7-2.1,3.5c-1.3,1-2.5,2.1-4.1,2.7c-0.9,0.3-1.8,0.8-2.9,1.3c1.4,0,2.5,0,3.7,0c1.1-0.7,2.4-1.3,3.7-2.1
			c1.9-1.1,3.5-2.5,4.3-4.7c0.1-0.3,0.5-0.5,0.7-0.7c0.1,0.1,0.2,0.3,0.3,0.3c0.4,0.2,0.8,0.3,1.2,0.4c-0.2,0.3-0.3,0.5-0.4,0.7
			c-0.2,0-0.5,0-0.7,0c0.1-0.2,0.2-0.4,0.5-1c-0.6,0.4-0.9,0.6-1.4,0.9c0.5,0,0.7,0.1,0.9,0.1c0,0.1,0,0.2,0,0.4
			c-0.5-0.1-0.8,0.1-1.1,0.7c0.3,0,0.5,0,0.7,0c0,0.5,0.4,0.3,0.7,0.4c0,0.1,0,0.2,0,0.4c-0.4,0-0.7,0-1.1,0
			c-0.1-0.1-0.2-0.2-0.3-0.4c-0.1,0.1-0.3,0.2-0.4,0.4c-0.2,0.2-0.5,0.5-0.7,0.7c-0.1,0-0.2,0.1-0.3,0.1c0.1,0.1,0.2,0.2,0.3,0.2
			c0.2,0.7,0.7,0.2,1.1,0.3c0,0,0,0-0.1,0.1c0.1,0.1,0.2,0.2,0.3,0.3c0,0,0.1-0.1,0.1-0.1c-0.1-0.1-0.2-0.2-0.3-0.2
			c-0.2-0.7-0.7-0.2-1.1-0.4c0-0.1,0-0.2,0-0.4c0.5,0,1,0,1.5,0c0.4,0.3,0.4,0.3,1,0c-0.4,0-0.7,0-1.1,0c0-0.1,0-0.2,0-0.4
			c0.4-0.1,0.9,0.3,1.1-0.4c0.2,0,0.5-0.1,0.7-0.1c0-0.1,0-0.2,0-0.2c-0.2,0-0.4,0-0.7,0c0-0.1,0-0.2,0-0.4c0.3-0.1,0.7,0.2,0.7-0.4
			c0.2,0,0.4,0,0.5,0c0.2-0.6,0.5-1.2,0.7-1.9c0.3,0.1,0.4,0.1,0.6,0.2c-0.5,1.1-0.9,2.3-1.6,3.3c-1.3,1.7-3.1,2.9-4.9,4
			c1.7,0,3.4,0,5.2,0c2.7-2.4,4-4.4,4.8-7.8c-2.3,0-4.5,0-6.8,0c0-0.5-0.4-0.4-0.6-0.4c-1.7,0-3.4,0-5.1,0c-0.2-0.3-0.5-0.5-0.7-0.9
			c-0.5,0.7-0.8,1.3-1.2,1.9c-0.8,1-1.6,1.9-2.3,2.9c-0.2,0-0.4-0.1-0.5,0c-0.9,0.7-1.8,1.4-2.7,2.1c-0.4,0.2-0.7,0.5-1.1,0.7
			c-0.3,0.1-0.7-0.2-0.7,0.4c-0.4,0.1-0.9-0.3-1,0.4c0,0,0,0-0.1-0.1c-0.1,0.1-0.2,0.2-0.3,0.3c0,0,0.1,0.1,0.1,0.1
			c0.1-0.1,0.2-0.2,0.2-0.3c0.4-0.1,0.9,0.3,1.1-0.4c0.2,0,0.5,0,0.7,0C19.9,28.4,20,28.6,20.2,28.7C20.2,28.7,20.2,28.7,20.2,28.7
			c0,0.1,0.1,0.2,0.2,0.3c0,0,0.1-0.1,0.1-0.1C20.4,28.8,20.3,28.7,20.2,28.7z M28.4,28.7c0-0.1,0-0.2,0-0.4c0.4,0,0.7,0,1.1,0
			c0.1,0.1,0.2,0.2,0.4,0.3c0,0,0,0-0.1,0.1c0.1,0.1,0.2,0.2,0.3,0.3c0,0,0.1-0.1,0.1-0.1c-0.1-0.1-0.2-0.2-0.3-0.2
			c-0.1-0.1-0.2-0.2-0.4-0.4c0-0.1,0-0.2,0-0.4c0.5,0,1,0,2.3,0.4c-0.2-0.3-0.3-0.4-0.4-0.4c-0.2,0-0.3,0.1-0.5,0.2
			c0.2,0.1,0.4,0.1,0-0.2c-0.5-0.5-1-0.5-1.4,0c-0.4,0.1-0.9-0.3-1.1,0.4c-0.1,0-0.2,0.1-0.3,0.1C28.2,28.5,28.3,28.6,28.4,28.7
			C28.4,28.7,28.4,28.7,28.4,28.7c0,0.1,0.1,0.2,0.2,0.3c0,0,0.1-0.1,0.1-0.1C28.6,28.8,28.6,28.7,28.4,28.7z M73.6,30.9
			C73.6,30.8,73.6,30.8,73.6,30.9c0-0.2-0.1-0.3-0.2-0.4c0,0-0.1,0.1-0.1,0.1C73.4,30.7,73.5,30.8,73.6,30.9
			c0.2,0.1,0.3,0.2,0.4,0.3c-0.1,0.2-0.2,0.4-0.3,0.5c0.2,1,1.1,1.2,1.7,1.7c0.9,0.7,1.7,0.3,2.5-0.2c-0.1-0.1-0.2-0.2-0.3-0.3
			c0.1-0.2,0.2-0.3,0.3-0.6c-0.4,0-0.6,0-0.7,0c0-0.1,0-0.2,0-0.4c0.2,0,0.5-0.1,0.7-0.1c0-0.1,0-0.2,0-0.2c-0.2,0-0.4,0-0.7,0
			c0-0.1,0-0.2,0-0.4c0.2,0,0.5-0.1,0.7-0.1c0-0.1,0-0.2,0-0.2c-0.2,0-0.4,0-0.7,0c0-0.1,0-0.2,0-0.4c0.2,0,0.5-0.1,0.9-0.2
			c-0.3-0.4-0.6-0.7-0.7-0.8c-0.9-0.2-1.8-0.1-2.5,0.7c0.2,0.1,0.3,0.2,0.5,0.4c0,0.1,0,0.2,0,0.4c-0.2,0-0.5,0-0.8,0
			c0,0,0,0,0.1-0.1c-0.1-0.1-0.2-0.2-0.3-0.3c0,0-0.1,0.1-0.1,0.1c0.1,0.1,0.2,0.2,0.3,0.2c0,0.1,0,0.2,0,0.4c-0.2,0-0.5,0-0.7,0
			C73.9,31.1,73.8,30.9,73.6,30.9z M28.5,31.2C28.4,31.2,28.4,31.2,28.5,31.2c-0.2,0-0.3,0.1-0.4,0.2c0,0,0.1,0.1,0.1,0.1
			C28.3,31.4,28.4,31.3,28.5,31.2C28.4,31.2,28.4,31.2,28.5,31.2c0.1-0.1,0.2-0.2,0.3-0.2c0,0-0.1-0.1-0.1-0.1
			C28.5,31,28.5,31.1,28.5,31.2z M40.4,34.1c-0.3-0.3-0.3-0.4-0.4-0.4c-0.2,0-0.3,0.1-0.5,0.2c0.2,0.1,0.4,0.1,0-0.2
			c0-0.5-0.4-0.3-0.7-0.4c0-0.1,0-0.2,0-0.4c0.2,0,0.5-0.1,0.7-0.1c0-0.1,0-0.2,0-0.2c-0.2,0-0.4,0-0.7,0c-0.1-0.1-0.2-0.2-0.4-0.4
			c0-0.1,0-0.2,0-0.4c0.2,0,0.5,0,0.8,0c0,0,0,0-0.1,0.1c0.1,0.1,0.2,0.2,0.3,0.3c0,0,0.1-0.1,0.1-0.1c-0.1-0.1-0.2-0.2-0.3-0.2
			c0-0.1,0-0.2,0-0.4c0.1,0,0.2-0.1,0.3-0.1c-0.1-0.1-0.2-0.2-0.3-0.2c0-0.1,0-0.2,0-0.4c0.7,0.1,1.3-0.7,2.2-0.2
			c-0.4,0.3-0.7,0.6-1.1,0.9c0,0,0,0-0.1-0.1c-0.1,0.1-0.2,0.2-0.3,0.3c0,0,0.1,0.1,0.1,0.1c0.1-0.1,0.2-0.2,0.2-0.3
			c0.3,0.1,0.7-0.2,0.7,0.3c-0.4,0.2-0.7,0.4-1.4,0.8c0.8-0.1,1.1-0.1,1.4-0.1c0-0.3,0-0.5,0-0.6c0.2,0,0.5,0,1.6,0.4
			c-0.3-0.3-0.3-0.4-0.4-0.4c-0.2,0-0.3,0.1-0.5,0.2c0.2,0.1,0.4,0.1,0-0.2c0-0.1,0-0.2,0-0.4c0.2,0,0.5-0.1,0.7-0.1
			c0-0.1,0-0.2,0-0.2c-0.2,0-0.4,0-0.7,0c0.4-0.3,0.7-0.6,1.3-1.1c-2.1,0-4-0.8-6-0.3c0.4,0.6,1.2-0.2,1.5,0.6
			c-0.1,0-0.2,0.1-0.3,0.1c0.1,0.1,0.2,0.2,0.3,0.2c0,0.1,0,0.2,0,0.4c-0.1,0-0.2,0.1-0.3,0.1c0.1,0.1,0.2,0.2,0.3,0.2
			c0,0.1,0,0.2,0,0.4c-0.2,0-0.4,0-0.5,0c-0.2-0.5-0.4-1-0.6-1.5c-0.1,0-0.2,0.1-0.3,0.1c0.1,0.3,0.2,0.6,0.3,0.9
			c-0.1,0.1-0.2,0.2-0.2,0.3c0.4,0.4,0.7,0.8,1,1.3c0,0.5,0.4,0.3,0.7,0.4C38.9,33.9,39.3,33.6,40.4,34.1z M65.5,33.8
			c-0.2-0.3-0.3-0.4-0.4-0.4c-0.2,0-0.3,0.1-0.5,0.2c0.2,0.1,0.4,0.1,0-0.2c0-0.1,0-0.2,0-0.4c0.5,0.1,1.1,0.2,1.7,0.3
			c0.3-0.3,0.5-0.7-0.2-1.7c0.6,0.3,1,0.5,1.4,0.7c-0.1-0.4-0.1-0.6-0.1-0.7c-0.4,0-0.6,0-0.3,0.7c-0.6-0.1-1.2-0.2-1.8-0.4
			c0-0.1,0-0.2,0-0.6c0,0.1,0,0.2,0,0.3c0.2,0,0.5-0.1,0.7-0.1c0-0.1,0-0.2,0-0.2c-0.2,0-0.5,0-0.7,0.3c-0.4,0-0.7,0-1.1,0
			c0-0.5-0.4-0.3-0.7-0.4c-0.1-0.1-0.2-0.2-0.3-0.4c-0.1,0.1-0.3,0.2-0.4,0.4c-0.8,0.3-0.2,0.9-0.3,1.1c0.3,0.8,0.8,0.6,1.4,0.6
			C64,33.5,64.4,33.3,65.5,33.8z M41.5,33.8c-0.2-0.3-0.3-0.4-0.4-0.4c-0.2,0-0.3,0.1-0.5,0.2c0.2,0.1,0.4,0.1-0.9-0.6
			c0.2,0.3,0.3,0.4,0.4,0.4c0.2,0,0.3-0.1,0.5-0.2C40.4,33.1,40.2,33.1,41.5,33.8z M51.7,31.9c-0.3,0.1-0.7-0.2-0.7,0.4
			c-0.3,0-0.7,0.1-1,0.1c0,0.1,0,0.2,0,0.3c0.3,0,0.7,0,1,0c-0.1,0.2-0.2,0.4-0.4,0.7c0.7,0.3,1.4,0.5,2.3,0.9
			c-0.2-0.4-0.3-0.5-0.4-0.8c0.3,0,0.5,0,0.8,0c0,0,0,0-0.1,0.1c0.1,0.1,0.2,0.2,0.3,0.3c0,0,0.1-0.1,0.1-0.1
			c-0.1-0.1-0.2-0.2-0.3-0.2c0-0.1,0-0.2,0-0.4c0.4-0.1,0.9,0.3,1-0.4c0,0,0,0,0.1,0.1c0.1-0.1,0.2-0.2,0.3-0.3c0,0-0.1-0.1-0.1-0.1
			c-0.1,0.1-0.2,0.2-0.2,0.3c-0.4,0.1-0.9-0.3-1.1,0.4c-0.4,0-0.7,0-1.1,0c0.1-0.1,0.3-0.2,0.4-0.4c0.1-0.1,0.2-0.2,0.3-0.4
			c0.7,0,1.4,0,1.8-0.7c0.6-0.4,0.3-0.9,0.3-1.3c-2,0-3.8,0-5.8,0c0.3,0.3,0.6,0.4,0.8,0.6c-0.5,0.1-0.4,0.4-0.2,0.7
			c0.2,0,0.4,0,0.6,0c0,0,0,0-0.1,0.1c0.1,0.1,0.2,0.2,0.3,0.3c0,0,0.1-0.1,0.1-0.1c-0.1-0.1-0.2-0.2-0.3-0.2
			c-0.1-0.2-0.2-0.5-0.4-0.7c0.2-0.1,0.5-0.3,0.6-0.3c0.4,0.1,0.8,0.2,1.1,0.3c0,0.1,0.1,0.2,0.1,0.3c0.1-0.1,0.2-0.2,0.2-0.3
			c0.6-0.1,1.2-0.2,1.8-0.3c-0.2,0.3-0.3,0.5-0.4,0.7c-0.4,0.1-0.9-0.3-1.1,0.4C52.2,31.6,51.8,31.4,51.7,31.9z M27.4,29
			c0-0.1,0-0.2,0-0.3c-0.2,0-0.5,0.1-0.7,0.1c0,0.1,0,0.2,0,0.2c0.2,0,0.5,0,0.6-0.4c0,0,0,0,0.1,0.1c0.1-0.1,0.2-0.2,0.3-0.3
			c0,0-0.1-0.1-0.1-0.1C27.5,28.4,27.4,28.5,27.4,29z M71.8,93.3C71.8,93.3,71.9,93.3,71.8,93.3c0-0.2-0.1-0.3-0.2-0.4
			c0,0-0.1,0.1-0.1,0.1c0.1,0.1,0.2,0.2,1.2,0.6c-0.3-0.3-0.3-0.4-0.4-0.4c-0.2,0-0.3,0.1-0.5,0.2C72.1,93.5,72.3,93.6,71.8,93.3z
			 M17.3,33c-0.2-0.7-0.7-0.2-1.1-0.4c-0.1-0.2-0.2-0.5-0.4-0.7c0.2,0,0.5,0,1.6,0.4c-0.3-0.3-0.3-0.4-0.4-0.4
			c-0.2,0-0.3,0.1-0.5,0.2c0.2,0.1,0.4,0.1,0-0.2c-0.1-0.2-0.2-0.4-0.4-0.7c0.3,0,0.5,0,0.7,0c0,0.5,0.4,0.3,0.7,0.4
			c0.1,0.7,0.9,0,1.1,0.6c-0.4,0.1-0.7,0.1-1.1,0.2c0,0.1,0,0.1,0,0.2c0.4,0,0.9,0,1.2,0c0.6-1,1-2,1.3-3.1c-1.5,0-2.9,0-4.3,0
			c1,0.3,2.2,0.1,2.9,1.3c-0.3,0-0.5,0-0.8,0c-0.4-0.5-0.7-0.5-1.1,0c-0.3,0-0.7,0-1.1,0c0,0.4,0,0.7,0,1.1c-0.5,0-0.3,0.4-0.4,0.7
			c-0.2,0-0.4,0-0.7,0c0.2,0.4,0.4,0.8,0.5,1.1c0.6,0,1.2,0,1.7,0c0.1,0,0.2-0.2,0.3-0.3c0.2,0,0.5-0.1,0.7-0.1c0-0.1,0-0.2,0-0.2
			C17.7,33,17.5,33,17.3,33z M24.1,26.6c0,0.1,0,0.2,0,0.3c0.4,0,0.7-0.1,1.1-0.1c0-0.1,0-0.2,0-0.2c-0.3,0-0.7,0-1,0.4
			c0,0,0,0-0.1-0.1c-0.1,0.1-0.2,0.2-0.3,0.3c0,0,0.1,0.1,0.1,0.1C24,27.1,24.1,27,24.1,26.6z M31.2,27.2c-0.4-0.3-0.4-0.3-1,0
			C30.6,27.2,31,27.2,31.2,27.2c0.5,0.5,1,0.5,1.5,0c0,0,0,0,0.1,0.1c0.1-0.1,0.2-0.2,0.3-0.3c0,0-0.1-0.1-0.1-0.1
			c-0.1,0.1-0.2,0.2-0.2,0.3C32.2,27.2,31.8,27.2,31.2,27.2z M62.5,57.4c0.1-0.3,0.2-0.7,0.2-1c-0.2,0-0.3,0-0.6,0c0,0.4,0,0.7,0,1
			c-0.4-0.7-0.5-1.5-0.2-1.8c0.1,0.1,0.2,0.2,0.4,0.3c0.2-0.2,0.4-0.3,0.6-0.6c-0.4-0.1-0.8-0.2-1.2-0.2c0-0.2,0-0.3,0-0.5
			c0.3-0.1,0.7-0.1,1-0.2c0-0.1,0-0.1,0-0.2c-0.3,0-0.7-0.1-1-0.1c0-0.4-0.4-0.9,0.6-1c-0.1,0-0.2,0-0.3,0c0,0.2,0.1,0.5,0.1,0.7
			c0.1,0,0.2,0,0.2,0c0-0.2,0-0.5-0.3-0.7c-0.2-0.2-0.3-0.5-0.5-0.7c-1,0-1,0-1.7,0.5c0,1.6-0.2,3.2,0.5,4.8
			c0.5,0.2,1.2-0.2,1.6,0.4c0.2-0.1,0.3-0.2,0.5-0.4c0.1,0,0.2-0.1,0.3-0.1C62.7,57.5,62.6,57.5,62.5,57.4z M26.6,85.7
			c0,0.3,0,0.7,0,1c0.2,0,0.4,0.1,0.4,0.1c0.1-0.1,0.2-0.2,0.3-0.3c0.1,0,0.2,0.1,0.3,0.1c0.7,0.4,1.3,0.3,1.9-0.1
			c0.2,0.1,0.4,0.2,0.7,0.4c0-0.3,0-0.5,0-0.7c0.2,0.2,0.4,0.5,0.6,0.7c0.1,0,0.2-0.1,0.4-0.1c0-0.2,0-0.4,0-0.6
			c0.2,0.2,0.4,0.5,0.6,0.7c0.1,0,0.2-0.1,0.4-0.1c0-0.2,0-0.4,0-0.6c0.1,0.2,0.3,0.4,0.4,0.6c0.1,0.1,0.2,0.1,0.5,0.2
			c-0.1-0.4-0.1-0.7-0.2-1c0.8-0.4,0.4,1.4,1.4,0.8c-0.1-0.2-0.2-0.3-0.3-0.6c0.3,0,0.4,0,0.6,0c0.1,0.2,0.2,0.5,0.4,0.8
			c0.3-0.2,0.5-0.3,0.7-0.4c0.3,0.3,0.6,0.6,0.9,0c0.1,0.1,0.3,0.1,0.4,0.2c0.3,0.2,0.6,0.3,0.7-0.2c0.4,0.4,0.9,0.4,1.5,0.4
			c7.6,0,15.2,0,22.9,0c0.2,0,0.3-0.1,0.3-0.1c0.1-0.3,0.2-0.4,0.3-0.7c0.1,0.4,0.2,0.6,0.3,0.8c0.2-0.1,0.4-0.2,0.6-0.3
			c0,0.5,0.4,0.5,0.6,0.3c0.4-0.5,0.8-0.1,1,0c0.2-0.1,0.4-0.2,0.5-0.3c0.1,0.5,0.4,0.4,0.7,0.2c0.1-0.1,0.3-0.1,0.4-0.2
			c0.1,0.5,0.4,0.4,0.7,0.2c0.1-0.1,0.3-0.1,0.4-0.2c0.2,0.1,0.3,0.3,0.4,0.4c0.4-0.5,0.7-0.8,1-1.3c0.2,0.3,0.2,0.5,0.3,0.6
			c-0.1-0.1-0.1-0.1-0.2-0.2c-0.2,0.3-0.3,0.5-0.5,0.8c0.2,0,0.4,0,0.7,0c0-0.3,0-0.5,0-0.7c0.2-0.1,0.4-0.2,0.8-0.4
			c-0.2,0.5-0.3,0.8-0.4,1.1c0.3,0,0.4,0,0.4,0c0.2-0.3,0.4-0.5,0.6-0.7c0,0.2,0,0.4,0,0.7c0.7,0,1.2,0,1.6,0
			c0.2-0.3,0.4-0.5,0.8-0.7c-0.1,0-0.2,0-0.3,0c0,0.2,0.1,0.5,0.1,0.7c0.1,0,0.2,0,0.2,0c0-0.2,0-0.5-0.3-0.7c0-0.2,0.1-0.4,0.1-0.7
			c0.1-0.3,0.2-0.5,0.7-1.7c-0.3,0.3-0.4,0.3-0.4,0.4c0,0.2,0.1,0.3,0.2,0.5c0.1-0.2,0.1-0.4-0.2,0c-0.1,0-0.2,0-0.4,0
			c0-0.5-0.1-1,0.4-1.4c0.4-0.3,0.6-0.8-0.1-1.1c0.1-0.3-0.2-0.7,0.4-0.8c0,0,0,0-0.1,0.1c0.1,0.1,0.2,0.2,0.3,0.3
			c0,0,0.1-0.1,0.1-0.1c-0.1-0.1-0.2-0.2-0.3-0.2c-0.2-0.6,0.9-1.2,0.1-1.9c0.4-0.7,0.4-1.3,0-2c0.2-0.1,0.4-0.1,0.6-0.2
			c-0.1-0.2-0.3-0.4-0.4-0.5c0.3-0.6,0.7-1.1,0.7-1.6c0-1.5,0.4-3,0.4-4.5c0-2,0.7-3.9,0.4-5.9c0-0.1,0.2-0.3,0.3-0.4
			c-0.1-0.2-0.2-0.4-0.3-0.5c-0.1-0.1-0.1-0.3-0.3-0.5c-0.3,0.3-0.6,0.5-0.8,0.6c-0.2,1.4,0.2,2.6-0.4,3.9c-0.2,0.6,0,1.3-0.1,2
			c0,0.6-0.3,1.2-0.2,1.8c0.1,0.6-0.2,1.1-0.2,1.7c0,1.4-0.2,2.8-0.3,4.2c0,0.1,0,0.2,0,0.2c-0.7,0.6-0.2,1.3-0.4,2
			c-0.1,0.7-0.4,1.5-0.3,2.2c0,1.3-0.4,2.4-0.9,3.5c-14.8,0-29.6,0-44.4,0c-0.2-1.2-0.5-2.5-0.7-3.7c-0.1-0.8,0-1.6-0.3-2.4
			c-0.3-0.8,0.1-1.7-0.3-2.6c-0.4-0.8-0.3-1.8-0.4-2.7c-0.2-1.5-0.5-3-0.5-4.5c0-0.6,0.3-1.4,0-1.8c-0.4-0.7-0.2-1.4-0.3-2
			c0-0.6,0-1.2,0-1.8C25.1,64,25,64,24.9,64.1c-0.3-0.3-0.5-0.5-0.8-0.8c0.1,1.1-0.3,2.3,0.4,3.5c-0.3,1.9,0.4,3.7,0.4,5.6
			c0,0.7-0.2,1.5,0.3,2.2c0.1,0.2-0.1,0.6-0.2,1c0.2,0.4,0.4,0.9,0.6,1.3c-0.2,0.2-0.3,0.3-0.4,0.5c0.2,0.1,0.4,0.2,0.7,0.3
			c-0.1,0.2-0.2,0.4-0.3,0.6c0.3,0.5,0.7,1.1,0.1,1.6c0.2,0.6,0.4,1.2,0.6,1.7c0,0.1-0.2,0.2-0.4,0.3c0,0,0,0,0.1-0.1
			c-0.1-0.1-0.2-0.2-0.3-0.3c0,0-0.1,0.1-0.1,0.1c0.1,0.1,0.2,0.2,0.3,0.2c0.1,0.4,0.4,0.9,0.3,1.3c-0.1,0.8,0.2,1.6,0.4,2.3
			c-0.1,0-0.2,0.1-0.3,0.1C26.4,85.6,26.5,85.6,26.6,85.7z M66.5,90c0-0.5-0.4-0.3-0.7-0.3c-1.5-1.4-3.1-2.7-5.4-2.1
			c1.8,0.7,3.6,1.4,5.4,2C65.8,90.2,66.2,90,66.5,90c0.1,0.6,0.5,0.8,1.1,0.7c0.3,0.4,0.6,0.7,0.9,1.1c0.1,0,0.2-0.1,0.2-0.1
			c-0.1-0.3-0.3-0.6-0.4-1c0,0,0,0,0.1,0.1c0.1-0.1,0.2-0.2,0.3-0.3c0,0-0.1-0.1-0.1-0.1c-0.1,0.1-0.2,0.2-0.2,0.3
			c-0.2,0-0.5,0-0.7,0C67.4,90.2,67,90,66.5,90z M32,92.9c-0.2,0-0.5,0.1-0.7,0.1c0.1,0.3,0.2,0.4,0.4,0.9c0-0.1,0-0.2,0-0.3
			c-0.2,0-0.5,0.1-0.7,0.1c0,0.1,0,0.2,0,0.2c0.2,0,0.5,0,0.7-0.3c0.2,0,0.5-0.1,0.7-0.1c-0.1-0.3-0.2-0.4-0.4-0.9
			C32,92.7,32,92.8,32,92.9c0.2,0,0.5-0.1,0.7-0.1c0-0.1,0-0.2,0-0.2C32.5,92.6,32.2,92.6,32,92.9z M32.5,90.8
			c-0.9-0.2-1.1,0.5-1.5,0.9c0.7,0.1,1-0.5,1.3-1c0.6,0.1,0.9-0.2,1.1-0.7c0.7-0.1,1.5-0.3,1.8-1.1c0.2,0.1,0.4,0.2,0.4,0.2
			c1.3-0.5,2.6-1,4.2-1.7c-1,0-1.6,0-2.2,0c-0.4,0-0.9,0.2-1.3,0.3c0-0.1-0.1-0.3-0.1-0.3c-1.3,0-2.6-0.1-3.9-0.1
			c-0.3,0-0.7,0-1,0.1c0,0.2,0,0.3,0,0.3c0.4,0.4,1.9,1.3,2.5,1.4c-0.1,0.2-0.2,0.5-0.4,0.7C32.9,90,32.5,90.2,32.5,90.8z
			 M65.8,30.2c0,0.1-0.1,0.2-0.1,0.3c0.4,0,0.8,0,1.2,0c0.3,0,0.6,0.2,1,0.3c-0.1-0.3-0.1-0.5-0.1-0.6c-0.7,0-1.3,0-0.3,0.9
			c0-0.1,0-0.2,0-0.3c-0.4,0-0.7,0.1-1.1,0.1c0.2,0.2,0.3,0.3,0.5,0.3C67.1,31.2,67.3,31.1,65.8,30.2z M70.4,91.8
			C70.4,91.8,70.4,91.8,70.4,91.8c0,0.2,0.1,0.3,0.2,0.4c0,0,0.1-0.1,0.1-0.1C70.6,92,70.5,91.9,70.4,91.8c0.1-0.8-0.3-1.7,0.2-2.3
			c-0.1-0.7-0.2-1.2-0.3-1.8c0,0-0.2-0.1-0.3-0.1c0,0.5-0.1,0.9-0.1,1.3C69.7,89,69.6,89,69.4,89c0,1.1,0,2.1,0,3.1
			C69.8,92,70.1,91.9,70.4,91.8z M67.5,53.4c0.2-0.2,0.5-0.3,0.7-0.5c-1,0.3-2-1.4-2.6-0.5c-0.8,1.9,0.3,3.2-0.2,4.6
			c0.2,0.1,0.4,0.1,0.7,0.2c-0.4,0.2-0.6,0.3-0.8,0.4c0.7,0.1,1.5,0.4,2.1-0.1c0,0.1,0,0.4,0.1,0.8c0.4-0.5,1-0.6,0.5-1.2
			c-0.2,0.1-0.4,0.3-0.6,0.3c-0.3-0.5-0.5-1.1-0.4-1.5c0.5-0.4,0.8-0.7,1.1-0.9c0,0-0.1-0.1-0.2-0.2c-0.2,0.1-0.5,0.2-0.8,0.3
			c-0.3-0.9,1.1-0.5,0.9-1.4c-0.2,0-0.4,0-0.6,0C67.5,53.7,67.5,53.6,67.5,53.4z M35.6,42.3c0.2-0.5,0.7-0.9,0.2-1.4
			c-1.1,0-2.2-0.7-3.4-0.3c0,2.2,0,4.4,0,6.7c1,0,1.9,0,2.8-0.1c0-0.4,0-0.7,0-1c0.2,0,0.4,0,0.6,0C35.9,46.1,36,46,36,46
			c-0.2-0.5,0.4-1.2-0.4-1.5c0-0.1,0.1-0.2,0.1-0.3C36.1,43.5,36.1,42.9,35.6,42.3z M80.1,28.6C80.1,28.7,80.1,28.7,80.1,28.6
			c0,0.2,0.1,0.3,0.2,0.4c0,0,0.1-0.1,0.1-0.1c-0.1-0.1-0.2-0.2,0.1-0.2c-3.9-1.7-6.9-4-9.1-7.2c-0.9,0.9-2,0.1-2.8,0.6
			c0,0.2-0.1,0.5,0,0.7c0.5,0.7,1,1.3,1.5,1.9c1.2,1.4,2.8,2.1,4.3,3c1,0.6,2.1,1.1,3.2,1.4c0.6,0.2,1.3-0.2,2-0.3
			C79.7,28.7,79.9,28.7,80.1,28.6z M38.1,64.2c0-0.1-0.1-0.2-0.1-0.3c-0.1,0.1-0.2,0.2-0.2,0.3c-0.1-0.1-0.3-0.1-0.4-0.2
			c-0.3-0.2-0.6-0.3-0.7,0.2c-0.1,0-0.2,0-0.4,0c0-0.1-0.1-0.2-0.1-0.3C36.1,64,36,64.1,36,64.2c-0.1,0-0.2,0-0.4,0
			c0-0.1-0.1-0.2-0.1-0.3c-0.1,0.1-0.2,0.2-0.2,0.3c-0.1,0-0.2,0-0.4,0c-0.1-0.5-0.4-0.4-0.7-0.2c-0.1,0.1-0.3,0.1-0.4,0.2
			c0-0.1-0.1-0.2-0.1-0.3c-0.1,0.1-0.2,0.2-0.2,0.3c-0.1,0-0.2,0-0.4,0c0-0.1-0.1-0.2-0.1-0.3c-0.1,0.1-0.2,0.2-0.2,0.3
			c-0.1-0.1-0.3-0.2-0.4-0.2c-0.5-0.2-1-0.4-1.4,0.2c-0.1,0-0.2,0-0.4,0c0,0,0,0,0.1-0.1c-0.1-0.1-0.2-0.2-0.3-0.3
			c0,0-0.1,0.1-0.1,0.1c0.1,0.1,0.2,0.2,0.3,0.2c0,0.4-0.1,0.7-0.1,1.1c-0.3-0.3-0.4-0.5-0.6-0.7c0-0.2-0.1-0.5-0.1-0.7
			c-0.1,0-0.2,0-0.2,0c0,0.2,0,0.4,0,0.7c-0.2-0.2-0.4-0.5-0.6-0.7c-0.1,0-0.2,0.1-0.4,0.1c0,0.2,0,0.4,0,0.6c-0.1,0-0.2,0-0.4,0
			c0-0.2-0.1-0.5-0.1-0.7c-0.1,0-0.2,0-0.2,0c0,0.2,0,0.4,0,0.7c-0.1,0-0.2,0-0.4,0c0-0.2-0.1-0.5-0.1-0.7c-0.1,0-0.2,0-0.2,0
			c0,0.2,0,0.4,0,0.7c-0.1-0.1-0.2-0.3-0.4-0.4c-0.1-0.1-0.3-0.2-0.5-0.4c-0.2,0.5-0.4,1-0.7,1.6c0.4,0,0.6,0,0.8,0
			c-0.4,0.5-0.5,1.1-0.3,1.6c0.2,0.4,0.4,1,1,1.1c-0.1,0.4,0.2,0.8-0.7,0.9c0.1,0,0.2,0,0.3,0c0-0.2-0.1-0.5-0.1-0.7
			c-0.1,0-0.2,0-0.2,0c0,0.2,0,0.5,0.3,0.7c0,1.2,0,2.3,0,3.5c0.3,0.1,0.5,0.2,0.7,0.3c-0.3,0.3-0.5,0.5-0.9,1
			c0.3,0.2,0.6,0.3,0.9,0.4c-0.3,0.8-0.3,0.8,0,1.3c0.1,0.2,0.1,0.5,0.2,0.7c0.2,0.3,0.3,0.6-0.3,0.7c0,0,0,0,0.1-0.1
			c-0.1-0.1-0.2-0.2-0.3-0.3c0,0-0.1,0.1-0.1,0.1c0.1,0.1,0.2,0.2,0.3,0.2c0,0.4,0,0.7,0,1.1c0,0,0,0-0.1-0.1
			C27.2,77.9,27.1,78,27,78c0,0,0.1,0.1,0.1,0.1c0.1-0.1,0.2-0.2,0.2-0.3c0.1,0,0.2,0,0.4,0c-0.1,0.3-0.1,0.5-0.2,0.8
			c-0.1,0.4-0.4,0.8,0.2,1c0.1,0.6,0.2,1.3,0.3,2c-0.2,0.3-0.7,0.8,0.1,1.2c0,0.3,0,0.7,0,1c0,0.2,0.2,0.3,0.3,0.4
			c0.1,0.5,0.4,0.4,0.7,0.2c0.1-0.1,0.3-0.1,0.4-0.2c0.2,0.1,0.3,0.3,0.5,0.4c0.5-0.3-0.1-1,0.6-1.1c0,0.3,0,0.7,0,1.2
			c0.4-0.5,0.6-0.8,0.9-1.2c0.1,0.1,0.1,0.1,0.2,0.2c-0.1,0.3-0.2,0.6-0.3,1.1c0.5-0.2,0.8-0.4,1-0.5c0.2,0.1,0.3,0.3,0.5,0.4
			c0.5-0.3-0.1-1,0.6-1.1c0,0.4,0.1,0.7,0.1,1.1c0.3-0.2,0.5-0.3,0.6-0.4c0.2,0.7,0.7,0.3,1,0.2c0.3-0.4-0.3-1.1,0.4-1.3
			c0,0.5,0,1,0.1,1.5c0.3-0.3,0.5-0.5,0.6-0.8c0,0.2,0,0.4,0,0.7c0.7,0,1.2-0.1,1.6-0.1c0.3-0.8,0.5-1.4,0.7-2.1
			c0.1,0,0.2,0.1,0.3,0.1c-0.1,0.7-0.3,1.3-0.4,2.3c0.4-0.5,0.6-0.8,0.8-1c0,0.4-0.1,0.9,0.6,0.7c0.5-0.5,0.2-1.4,0.9-1.8
			c0,0.6,0.1,1.2-0.3,1.7c0.2,0,0.3,0,0.5,0.1c0.5-0.2-0.2-1,0.6-1.1c0,0.4,0.1,0.7,0.1,1.1c0.4-0.5,0.7-1,1-1.4c0,0.3,0,0.6,0,0.8
			c0,0.2-0.2,0.3-0.5,0.8c0.6-0.3,0.9-0.5,1.2-0.6c0.2,0.1,0.3,0.3,0.5,0.4c0.5-0.3-0.1-1,0.6-1.1c0,0.4,0.1,0.7,0.1,1.1
			c0.3-0.2,0.5-0.3,0.6-0.4c0.5,0.7,1.2,0.2,1.7,0.3c0.3-0.4-0.2-1,0.5-1.1c0,0.4,0.1,0.7,0.1,1.1c0.2,0,0.3,0,0.4,0
			c0.2-0.3,0.4-0.5,0.6-0.7c0,0.2,0,0.4,0,0.7c0.3,0,0.4,0,0.7,0.1c0-0.4,0-0.8,0-1.2c0-0.1,0.2-0.2,0.3-0.3c0,0.5,0,0.9,0.1,1.7
			c0.2-0.6,0.3-0.8,0.4-1c0.2,0.3,0.3,0.5,0.6,0.9c0.3-0.4,0.5-0.7,0.7-0.9c0.2,0.2,0.4,0.5,0.6,0.7c0.7-0.7-0.7-1.4,0.1-2.2
			c0.2,0.8,0.4,1.5,0.6,2.3c0.2-0.1,0.4-0.1,0.5-0.2c-0.6-0.5-0.3-1.1-0.4-1.6c0.7,0.4,0.3,1.4,1.2,1.9c0.1-0.3,0.2-0.5,0.3-0.8
			c0.2,0.2,0.4,0.5,0.7,0.8c0-0.7,0-1.1,0-1.5c0.7,0.2,0.2,0.8,0.4,1.2c0,0.1,0.1,0.2,0.2,0.3c0.2,0,0.3-0.1,0.5-0.1
			c-0.1-0.5-0.2-1.3-0.1-1.7c0.2,0.6,0.5,1.2,0.7,1.8c0.2,0,0.3-0.1,0.5-0.1c0-0.3,0-0.7,0-1c0.7,0.1,0.1,0.8,0.6,1.1
			c0.1-0.1,0.3-0.2,0.5-0.4c0.1,0.1,0.3,0.1,0.4,0.2c0.3,0.2,0.6,0.3,0.7-0.2c0.2,0.1,0.4,0.2,0.7,0.4c0-0.4,0-0.8,0-1.1
			c0.7,0.1,0.1,0.8,0.6,1.1c0.1-0.1,0.3-0.2,0.5-0.4c0.3,0.1,0.6,0.3,1,0.4c-0.1-0.6-0.2-1-0.2-1.5c0.3,0.5,0.6,0.9,1.1,1.6
			c0-0.5,0-0.9,0-1.2c0.7,0.1,0.1,0.8,0.6,1.1c0.1,0,0.3,0,0.5-0.1c-0.4-0.6-0.3-1.2-0.3-1.7c0.7,0.4,0.3,1.4,1.2,1.9
			c0.1-0.3,0.2-0.5,0.3-0.8c0.2,0.2,0.4,0.5,0.6,0.7c0.6-0.6-0.3-1.1-0.2-1.7c0.7,0.6,0.7,0.6,0.8,1.8c0.2,0,0.4-0.1,0.6-0.1
			c0-0.3,0-0.4,0-0.6c0.2,0.2,0.4,0.5,0.6,0.7c0.1,0,0.3-0.1,0.4-0.1c0-0.3,0-0.6,0-1c0.7,0.1,0.1,0.9,0.6,1.1
			c0.7-0.1,1.5,0.1,2.3-0.1c0-0.4,0-0.7,0-1c0.1,0,0.2,0,0.4,0c0,0.3,0.1,0.7,0.1,1c0.1,0,0.2,0,0.3,0c0-0.3,0-0.7,0-1
			c0.8,0.1,0.1,0.9,0.6,1.1c0.1-0.6,0.3-1.1-0.2-1.6c-0.2-0.2-0.2-0.6,0.3-0.6c0,0,0,0-0.1,0.1c0.1,0.1,0.2,0.2,0.3,0.3
			c0,0,0.1-0.1,0.1-0.1c-0.1-0.1-0.2-0.2-0.3-0.2c0.2-0.6,0.5-1.2,0.7-1.8c-0.2-0.4-0.5-0.8-0.3-1.4c0.3-0.8,1.1-1.6,0.2-2.6
			c0.2-0.5,0.3-1.1,0.1-1.6c0.1,0,0.2-0.1,0.3-0.2c0,0,0,0-0.1,0.1c0.1,0.1,0.2,0.2,0.3,0.3c0,0,0.1-0.1,0.1-0.1
			C73.1,75.1,73,75,72.9,75c0-0.4,0.1-0.9-0.3-1.2c0.2-0.5,0.7-1.1,0.5-1.4c-0.3-0.6,0-1,0.2-1.4c-0.1-0.2-0.3-0.4-0.5-0.7
			c0.7-0.6,0.5-1.3,0-1.9c0.4-0.2,0.6-0.3,0.8-0.4c0-0.3,0-0.6,0-0.9c0.8-0.5,0.2-1.1,0.1-1.7c0.2-0.1,0.4-0.1,0.5-0.2
			c-0.1-0.5-0.3-0.9-0.4-1.3c-0.9,0-1.8,0-2.7,0c0,0.4,0,0.7,0,1c-0.1,0-0.2,0-0.4,0c0-0.3,0-0.7,0-1c-0.8,0-1.5,0-2.1,0
			c-0.1,0.3-0.2,0.4-0.3,0.7c-0.2-0.4-0.3-0.6-0.4-0.9c-0.1,0.3-0.2,0.5-0.3,0.8c-0.1-0.3-0.2-0.5-0.3-0.8c-0.4,0-0.9,0-1.3,0.1
			c0,0.3,0,0.5,0,0.7c-0.1,0-0.2,0-0.4,0c0-0.2-0.1-0.5-0.1-0.7c-0.1,0-0.2,0-0.2,0c0,0.2,0,0.4,0,0.7c-0.1,0-0.2,0-0.4,0
			c0-0.2-0.1-0.5-0.1-0.7c-0.1,0-0.2,0-0.2,0c0,0.2,0,0.4,0,0.7c-0.2-0.3-0.4-0.5-0.7-0.8c-0.3,0.3-0.5,0.6-0.7,0.8
			c0-0.2-0.1-0.5-0.1-0.7c-0.1,0-0.2,0-0.2,0c0,0.2,0,0.4,0,0.7c-0.1,0-0.2,0-0.4,0c0-0.2,0-0.4,0-0.5c-0.5-0.1-0.9-0.1-1.4-0.2
			c0,0.2,0,0.5,0,0.7c-0.2,0.1-0.4,0.2-0.7,0.4c0-0.3,0-0.5,0-0.8c0,0,0,0,0.1,0.1c0.1-0.1,0.2-0.2,0.3-0.3c0,0-0.1-0.1-0.1-0.1
			c-0.1,0.1-0.2,0.2-0.2,0.3c-0.1,0-0.2,0-0.4,0c0-0.1-0.1-0.2-0.1-0.3c-0.1,0.1-0.2,0.2-0.2,0.3c-0.1,0-0.2,0-0.4,0
			c-0.5-0.5-1-0.5-1.4,0c-0.1,0-0.2,0-0.4,0c-0.1-0.1-0.2-0.3-0.3-0.3c-2.1,0-4.2,0-6.3,0c-0.3,0-0.6,0.2-0.9,0.3
			c0-0.1-0.1-0.2-0.1-0.3c-0.1,0.1-0.2,0.2-0.2,0.3c-0.3,0.2-0.5-0.7-0.8-0.1c-0.7-0.7-1.5,0.1-2.2-0.2c-0.1-0.1-0.4,0.2-0.8,0
			c-0.3-0.2-0.8,0-1.1,0c-0.1,0.3-0.2,0.5-0.3,0.8c-0.1-0.3-0.3-0.6-0.4-0.8c-0.1,0.3-0.2,0.5-0.4,0.8c-0.1-0.3-0.2-0.5-0.4-0.8
			c-0.1,0.3-0.2,0.5-0.3,0.7c-0.2-0.3-0.4-0.6-0.7-0.9c-0.2,0.4-0.3,0.6-0.5,0.9c-0.1-0.3-0.2-0.5-0.4-0.8c-0.1,0.3-0.2,0.5-0.4,0.8
			c-0.1-0.3-0.2-0.5-0.2-0.7c-0.4,0-0.9,0-1.3,0c-0.1,0.3-0.1,0.4-0.2,0.7c-0.2-0.4-0.3-0.6-0.5-1c-0.2,0.3-0.3,0.4-0.4,0.6
			C38.3,64.2,38.2,64.2,38.1,64.2z M42.9,32.2c-0.4,1.3-1.3,1.8-2.2,2.3c-2.1,0-2.1,0-3.5-1.8c-0.1-0.2-0.4-0.2-0.7-0.4
			c-0.4,1.8-1.2,2.2-3.2,2.2c-1.4-0.4-2-1.3-2.6-2.1c-0.6,0.7-1.2,1.4-1.8,2c0,1.6,0,3.2,0,4.8c0,1.1,0.2,2.2,0.3,3.3
			c0.1,0.5-0.2,0.9-0.3,1.3c-0.1,0.4,0.2,1,0.3,1.5c0,0.1,0,0.3,0,0.4c-0.7,1.2-0.2,2.4-0.4,3.6c0.8,0,1.4,0,2.1,0
			c0.4-0.7,0.8-1.5,1.1-2.2c-0.5-1.6-0.5-4.7,0-6.2c-0.2-0.1-0.5-0.2-0.7-0.3c-0.1-1.6,1.6-1.9,2-3.4c0.1,0.7,0.1,1,0.2,1.4
			c0.5,0,0.9-0.1,1.3-0.1c0-0.1,0.1-0.2,0.1-0.2c-0.3-0.2-0.6-0.3-0.9-0.5c0.4-0.2,0.8-0.1,0.8,0c0.3,0.7,0.8,1,1.4,1.4
			c0.3,0.2,0.5,0.7,0.7,1.1c-0.2,0.2-0.4,0.4-0.7,0.7c0,1.5,0,3,0,4.5c0,1.4-0.1,2.8,0.9,3.9c0.8,0,1.7,0,2.6,0
			c-0.6-1-0.2-2.1-0.3-3.1c-0.1-1.1,0-2.1,0-3.1c0.2-0.2,0.4-0.4,0.5-0.5c5.7,0,11.3,0,16.9,0c0.2,0.4,0.4,0.7,0.5,1
			c-0.3,0.7-0.6,1.7-0.3,2.2c0.5,0.9,0.2,1.8,0.4,2.8c-0.4-0.1-0.3,0.5-0.8,0.3c0-2,0-3.9,0-5.9c-5.5,0-11,0-16.4,0
			c0,2.2,0,4.2,0,6.4c5.6,0,11.1,0,16.6,0c0.2,0.4,0.4,0.8,0.5,1.1c-0.2,0.3-0.4,0.7-0.7,1.3c0-0.9-0.1-1.5-0.1-2
			c-4.7,0-9.3,0-13.9,0c0,1.4,0.2,2.8-0.1,4.1c-0.3,1.4-0.4,2.6-0.1,4c-0.1,0.1-0.2,0.2-0.3,0.4c4.9,0,9.6,0,14.3,0
			c0.1-0.4,0.1-0.7,0.2-1c0.2,0,0.4,0,0.6,0.1c-0.1,0.3-0.2,0.6-0.3,1c0.9,0,1.7,0,2.7,0c-0.2-0.4-0.3-0.6-0.4-0.9
			c0.1-0.1,0.2-0.2,0.2-0.2c-0.1-0.4-0.2-0.7-0.3-1c-0.1-1.3,0.2-2.7-0.3-4c-0.1-0.2,0.2-0.7,0.4-1c1.4,0,2.5,0,3.6,0
			c0.4,0.2,0.7,0.4,1.1,0.5c-0.8,2.1-0.2,4.4-0.4,6.6c0.6,0,1,0,1.5,0c0-1.2,0-2.4,0-3.6c-0.1-1.2-0.2-2.4-0.3-3.6
			c1.5,0,2.8,0,4.1,0c0.3,0.3,0.6,0.6,0.9,0.9c-0.2,0.2-0.5,0.5-0.6,0.7c0,1.9,0,3.8,0,5.6c0.6,0,1.1,0,1.7,0c0-0.3,0-0.5,0-0.7
			c-0.1-1.3-0.3-2.5-0.3-3.8c-0.1-2,0.6-3.9,0.4-5.9c-0.2-1.7,0.3-3.4-0.3-5.1c-0.1-0.3-0.2-0.8,0-1c0.5-0.6,0.3-1.2,0.3-1.9
			c0-1,0-1.9,0-2.9c0-0.3,0-0.6,0.1-0.8c0.4-0.5,0.2-1,0.1-1.5c-1.3,0-2-0.9-2.8-1.6c-0.1-0.3-0.1-0.6-0.2-1.1
			c-0.3,0.7-0.5,1.1-0.6,1.3c-1.6,1.3-3.1,2-4.8,0.6c-0.2-0.5-0.5-1-0.7-1.5c-0.6,0.6-1.2,1.2-1.8,1.8c-1.1,0-2.1,0-3.3,0
			c-0.3-0.3-0.6-0.6-0.8-0.9c-0.3-0.3-0.5-0.7-0.8-1.1c-1.3,2.3-1.3,2.3-3.5,2.3c-1.4-0.4-2-1.3-2.6-2.2c-0.7,0.8-1.3,1.5-1.9,2.2
			c-0.7,0-1.3,0-1.7,0c-0.6-0.3-1.2-0.6-1.4-0.7C43.7,33,43.3,32.7,42.9,32.2z M20.9,58.6c0.5,0.9,0.6,1.8,0,2.7c19.4,0,38.7,0,58,0
			c-0.1-0.3-0.2-0.7-0.3-0.9c-0.2-0.3,0.7-0.6,0-1c0.2-0.3,0.4-0.5,0.8-0.9c-2.3,0-4.5,0-6.6,0c0,0-0.1,0-0.1,0.1c0,0,0,0.1-0.1,0.3
			c0.4,0,0.6,0,0.9,0c1.3,0,2.5,0,3.8,0c0.4,0,0.7,0.2,1.1,0.3c0,0.7,0,1.2,0,1.8c-2,0-3.9,0-5.9,0c0,0-0.1-0.1-0.1-0.1
			c0,0,0-0.1,0.1-0.2c1.7,0,3.5,0,5.2,0c-0.5-0.3-1.2-0.1-1.5-0.4c-0.6-0.5-0.9,0.2-1.4,0c-0.5-0.2-0.9-0.3-1.4-0.5
			c-0.1-0.2-0.1-0.4-0.3-0.8c-0.3,0.4-0.5,0.7-0.6,0.8c-1.8-0.2-3.4-0.4-5.1-0.5c-0.2,0.1-0.7,0.3-0.9,0.2c-0.8-0.5-1.7-0.3-2.6-0.3
			c-1.1,0-2.3,0-3.4,0c-0.9,1-2,0-3,0.3c-0.8,0.2-1.8-0.3-2.7-0.3c-3.3,0-6.6,0-9.9,0c-0.4,0-0.8,0.1-1.2,0.2
			c-0.8,0.2-1.6,0.3-2.3-0.2c-0.4,0.5-1.2,0.5-1.6,0.3c-0.8-0.4-1.6-0.3-2.4-0.3c-0.8,0-1.6,0.1-2.3,0c-0.7-0.1-1.3,0.5-2,0.1
			c-0.4,0.6-0.8-0.4-1.2-0.1c-0.7,0.5-1.4,0.3-2.2,0.4c-0.8,0.1-1.6,0.2-2.8,0.4c0-0.1-0.1-0.4-0.3-1.1c-0.1,0.6-0.2,0.8-0.2,0.9
			c-0.5,0.2-0.9,0.3-1.4,0.5c-0.5,0.2-0.8-0.5-1.4-0.1c-0.3,0.2-1,0-1.5,0c0.9,0.4,1.8,0.3,2.8,0.4c1,0,2,0,3,0.3
			c-2.1,0-4.2,0-6.4,0c0-0.5,0-1,0-1.6c0.1-0.1,0.3-0.3,0.5-0.5c0.9,0,1.8,0,2.7,0c0.8,0,1.7,0.1,2.5-0.4c-0.7,0-1.4,0-2.1,0
			c-0.8,0-1.6,0.1-2.3,0C22.2,58.3,21.6,58.9,20.9,58.6z M68,29.3c1.2,0,2.3,0,3.4,0c-1.5-1-3-1.9-4.5-2.8c-1.6-1.1-2.1-3-3.1-4.6
			c-0.7,0-1.4,0-2.1,0c0,0.4-0.1,0.9,0,1.2c0.7,1.2,1.2,2.7,2.4,3.5c1.1,0.7,1.8,1.9,3.2,2.2C67.7,28.8,67.9,29.2,68,29.3z
			 M30.4,29.6c0.7,1.7,0.7,3.3,1.9,3.9c0.7,0.3,1.1,0.4,1.5,0.5c0.6-0.3,1.1-0.6,1.6-0.8c0.3-0.5,0.5-1.1,0.8-1.6c0-0.5,0-0.9,0-1.5
			C34.4,30,32.6,29.8,30.4,29.6z M74.6,63.1c0-0.1,0-0.2,0-0.3c-0.5,0-0.9,0-1.4,0c-6.9,0-13.9,0-20.8,0c-0.6,0-1.3,0.2-1.9-0.5
			c-0.4,0.8-1.1,0.5-1.7,0.5c-7.6,0-15.2,0-22.8,0c-0.3,0-0.6,0.1-0.8,0.1c0,0.1,0,0.1,0,0.2C41.7,63.1,58.2,63.1,74.6,63.1z
			 M59.5,33.7c0.6-0.5,1.3-1,1.8-1.4c0.1-0.8,0.2-1.5,0.3-2.1c-2,0-3.9,0-5.9,0c0,1.6,0.6,2.8,2,3.5C58.3,33.7,58.8,33.7,59.5,33.7z
			 M20.6,33.1c1.2,1.3,2.4,0.5,3.3-0.2c1-0.8,1.5-2.1,1.2-3.5c-1.5,0-3,0-4.5,0C20.6,30.7,20.6,31.9,20.6,33.1z M72.3,45.4
			c-0.5-0.4-0.5-0.8-0.3-1.3c0.2-0.4,0.2-1,0.2-1.5c0-0.5,0-1,0-1.4c0-0.5,0.2-1.1-0.3-1.5c0.5-0.4-0.1-0.7-0.1-1.1
			c0-0.5,0-1.1,0-1.6c0-0.5,0-0.9,0-1.4c-0.4,1.1-1.2,2.2-0.4,3.5c0.2,0.2,0.1,0.8-0.1,1c-0.4,0.4-0.2,0.8-0.3,1.2c0,0.5,0,1,0,1.4
			c0,0.5,0.4,1.1,0.2,1.4c-0.3,0.5-0.2,0.9-0.2,1.4c0,0.3-0.1,0.6,0.2,1c0.2,0.3,0.3,0.9,0.1,1.1c-0.4,0.4-0.3,0.9-0.3,1.3
			c0,2.2,0,4.3,0,6.5c0,0.1,0.1,0.2,0.2,0.3c0.1,0,0.2,0,0.5,0c0.1-0.7,0.3-1.4,0.4-2.1c0.1-0.5,0.1-1.1-0.1-1.4
			c-0.4-0.5,0.3-0.8,0.1-1.2c-0.1-0.4,0-0.9,0-1.4c0-0.4-0.1-0.7-0.2-1c0.1-0.2,0.2-0.3,0.2-0.5c-0.2-0.3-0.3-0.5-0.4-0.7
			c0.2-0.3,0.3-0.5,0.5-0.7c-0.3-0.4-0.5-0.6-0.8-0.9C71.8,45.6,71.9,45.5,72.3,45.4z M48.5,32.5c0.1-0.8,0.3-1.6,0.4-2.3
			c-2,0-3.8,0-5.8,0c0.5,1.1,0.9,2.1,1.2,3.1c0.7,0.3,1.3,0.5,1.9,0.7c0.4-0.1,0.8-0.2,1.3-0.4C47.7,33.3,48,32.9,48.5,32.5z
			 M71.4,34.1c0.6-0.6,1-1,1.4-1.4c0-1,0-2,0-3c-1.6,0.3-3.2-0.4-4.7,0.7c0.4,1,0.7,1.9,1.1,2.8C70,33.5,70.8,33.8,71.4,34.1z
			 M82.2,29.5c-1.3,0-2.4,0-3.5,0c-0.4,2.3,1.1,3.3,2.7,4.2c0.6,0,1.2,0,1.8,0c0.2-0.2,0.3-0.3,0.6-0.6
			C83.4,31.9,82.4,30.9,82.2,29.5z M66.4,89.3c0.7-0.4,1.3-0.7,1.9-1.1c0.2-0.1,0.2-0.4,0.3-0.6c-1.7,0-3.2,0-4.8,0
			C64.8,88.2,65.6,88.8,66.4,89.3z M29.8,30.1c0,0.1,0,0.2,0,0.2c-0.2,0.1-0.4,0.2-0.7,0.3c0.2,0.2,0.3,0.3,0.3,0.3
			c-0.7,0.8-0.7,0.8-0.6,1.9c0.3-0.1,0.6-0.3,0.8-0.4c0.2-0.4,0.4-0.8,0.5-1.3c0.1-0.5,0-1,0-1.6c-1.4,0.1-2.7-0.1-3.9,0.4
			c0.6,0,1.2,0,1.7,0C28.6,30.1,29.2,30.1,29.8,30.1z M29.9,87.6c-0.1,0-0.2,0-0.3,0c0,1.5,0,3,0,4.6c0.2-0.1,0.4-0.2,0.5-0.3
			c0.2,0.1,0.3,0.2,0.5,0.4c0-1.3,0-2.3,0-3.4c0-0.1-0.1-0.2-0.2-0.3c-0.1,0.4-0.2,0.8-0.2,1.1c-0.1,0-0.1,0-0.2,0
			C29.9,89,29.9,88.3,29.9,87.6z M31.7,39.9c0,0.1,0,0.2,0,0.3c0.8,0,1.5,0,2.3,0c0.8,0,1.6,0.1,2.3-0.2c-1-0.1-2-0.1-3-0.1
			c0,0-0.1-0.2-0.2-0.4c0.5,0,1,0,1.7,0c-0.4-0.4-0.6-0.6-0.8-0.8c-0.7,0.2-1.3,0.4-2.1,0.6c0.4,0.2,0.6,0.3,1,0.5
			C32.4,39.8,32,39.8,31.7,39.9z M34.4,48.1c-0.8,0-1.5,0-2.2,0c0,0-0.1,0.1-0.1,0.2c0.3,0.1,0.7,0.2,1.2,0.3
			c-0.4,0.2-0.6,0.2-1.2,0.5c1.2,0,2,0,2.8,0C34.7,48.7,34.6,48.4,34.4,48.1z M68.3,51.2c-1,0.2-2.1,0.3-3.3,0.5c0,0.1,0,0.1,0,0.2
			c1.3,0,2.6,0,4.1,0C68.8,51.7,68.6,51.5,68.3,51.2z M27.7,33.5c-0.5-0.2-0.9-0.3-1.5-0.6c0-0.5,0-0.9,0-1.4c-0.2,0-0.2-0.1-0.3,0
			c-0.1,0-0.2,0.1-0.3,0.1c0,1.5,0.2,1.7,1.7,2.3C27.5,33.8,27.6,33.6,27.7,33.5z M58.9,51.9c1.7,0,3,0,4.4,0
			c-1-0.4-1.1-0.3-1.8-0.3c-0.6,0-1.2-0.1-1.7-0.1C59.6,51.6,59.4,51.7,58.9,51.9z M54,27.4c-0.4,0.3-0.6,0.5-0.9,0.7
			c0.4,0.2,0.7,0.5,1.1,0.7c-0.2,0.2-0.2,0.3-0.4,0.6c0.4,0,0.6,0,1-0.1C54.5,28.6,54.3,28.1,54,27.4z M46.8,58.5
			c1,0.2,2.1,0.4,3.1,0C48.8,58.5,47.8,58.5,46.8,58.5z M53.1,58.8c-0.8-0.2-1.6-0.4-2.4,0C51.5,58.8,52.3,58.8,53.1,58.8z
			 M71.4,55.9c-0.1,0-0.2,0-0.2,0c0,0.3-0.1,0.6-0.1,0.9c0.1-0.1,0.2-0.2,0.3-0.2c0.1,0.3,0.1,0.5,0.2,0.8c0.1-0.1,0.2-0.1,0.3-0.2
			C71.8,56.8,71.6,56.3,71.4,55.9z M76.1,62c-0.5,0-0.9,0.1-1.6,0.1c0.6,0.3,1,0.5,1.4,0.6c0,0,0.1-0.1,0.1-0.1
			C76.1,62.5,76.1,62.3,76.1,62z M28.7,94.4c0.6,0.2,0.9,0.2,1.2,0.3c0-0.5-0.1-0.8-0.1-1.1C29.5,93.8,29.3,94,28.7,94.4z M31,94.7
			c-0.2-0.3-0.3-0.5-0.4-0.6c-0.1-0.1-0.1-0.3-0.2-0.4c-0.1,0-0.1,0.1-0.2,0.1c0,0.3,0.1,0.6,0.1,0.9C30.5,94.7,30.6,94.7,31,94.7z
			 M26.7,92.8c0.1,0,0.2,0,0.3,0c0-0.4-0.1-0.9-0.1-1.3c-0.1,0-0.1,0-0.2,0C26.7,92,26.7,92.4,26.7,92.8z M24.3,62.9
			c0.4-1,0-0.9-0.4-0.8C24,62.3,24.1,62.6,24.3,62.9z M63.2,30.2c0,0.1,0,0.1,0,0.2c0.4,0,0.7,0,1.1,0c0-0.1,0-0.1,0-0.2
			C63.9,30.2,63.6,30.2,63.2,30.2z M77.5,59.5c0-0.1,0-0.2,0-0.3c-0.3,0-0.6,0.1-1,0.1c0,0.1,0,0.1,0,0.2
			C76.9,59.5,77.2,59.5,77.5,59.5z M76.1,59.5c0-0.1,0-0.2,0-0.3c-0.3,0-0.6,0.1-1,0.1c0,0.1,0,0.1,0,0.2
			C75.4,59.5,75.8,59.5,76.1,59.5z M68.4,56.1c-0.9-0.1-0.9-0.1-0.8,0.5C67.9,56.4,68.1,56.3,68.4,56.1z M31.9,26.5
			c0-0.1,0-0.2,0-0.3c-0.3,0-0.6,0.1-1,0.1c0,0.1,0,0.1,0,0.2C31.3,26.5,31.6,26.5,31.9,26.5z M73.4,92.9c0.1,0,0.1,0,0.2,0
			c0-0.4,0-0.7,0-1.1c-0.1,0-0.1,0-0.2,0C73.4,92.2,73.4,92.5,73.4,92.9z M67.2,92.6c0,0.1,0,0.2,0,0.3c0.2,0,0.4-0.1,0.6-0.1
			c0-0.1,0-0.1,0-0.2C67.6,92.6,67.4,92.6,67.2,92.6z M26.3,25.5c0,0.1,0,0.2,0,0.3c0.2,0,0.4-0.1,0.6-0.1c0-0.1,0-0.1,0-0.2
			C26.7,25.5,26.5,25.5,26.3,25.5z M25.8,26.1c0-0.1,0-0.2,0-0.3c-0.2,0-0.4,0.1-0.6,0.1c0,0.1,0,0.1,0,0.2
			C25.4,26.1,25.6,26.1,25.8,26.1z M35.9,46.6c-0.1,0-0.1,0-0.2,0c0,0.2,0,0.5,0,0.7c0.1,0,0.1,0,0.2,0
			C35.9,47.1,35.9,46.9,35.9,46.6z M74,29.8c0,0.1,0,0.2,0,0.3c0.2,0,0.4-0.1,0.6-0.1c0-0.1,0-0.1,0-0.2
			C74.4,29.8,74.2,29.8,74,29.8z M62.8,30.4c0-0.1,0-0.2,0-0.3c-0.2,0-0.4,0.1-0.6,0.1c0,0.1,0,0.1,0,0.2
			C62.4,30.4,62.6,30.4,62.8,30.4z M41.4,32.7c0,0.1,0,0.2,0,0.3c0.2,0,0.4-0.1,0.6-0.1c0-0.1,0-0.1,0-0.2
			C41.8,32.7,41.6,32.7,41.4,32.7z M22.7,59.2c0,0.1,0,0.2,0,0.3c0.2,0,0.4-0.1,0.6-0.1c0-0.1,0-0.1,0-0.2
			C23.1,59.2,22.9,59.2,22.7,59.2z M24.4,59.5c0-0.1,0-0.2,0-0.3c-0.2,0-0.4,0.1-0.6,0.1c0,0.1,0,0.1,0,0.2
			C24,59.5,24.2,59.5,24.4,59.5z M26.3,62.1c0,0.1,0,0.2,0,0.3c0.2,0,0.4-0.1,0.6-0.1c0-0.1,0-0.1,0-0.2
			C26.7,62.1,26.5,62.1,26.3,62.1z M25.2,62.3c0,0,0-0.1,0-0.1c-0.1,0-0.2,0-0.4,0c0,0,0,0.1,0,0.1C25,62.3,25.1,62.3,25.2,62.3z
			 M32.4,62.2c0,0,0,0.1,0,0.1c0.1,0,0.2,0,0.4,0c0,0,0-0.1,0-0.1C32.6,62.2,32.5,62.2,32.4,62.2z M52,62c0,0-0.1,0-0.1,0
			c0,0.1,0,0.2,0,0.4c0,0,0.1,0,0.1,0C52,62.3,52,62.2,52,62z M54.5,62c0,0-0.1,0-0.1,0c0,0.1,0,0.2,0,0.4c0,0,0.1,0,0.1,0
			C54.5,62.3,54.5,62.2,54.5,62z M60,62.3c0,0,0-0.1,0-0.1c-0.1,0-0.2,0-0.4,0c0,0,0,0.1,0,0.1C59.8,62.3,59.9,62.3,60,62.3z
			 M62.6,62.4c0,0,0.1,0,0.1,0c0-0.1,0-0.2,0-0.4c0,0-0.1,0-0.1,0C62.6,62.2,62.6,62.3,62.6,62.4z M65.1,62.4c0,0,0.1,0,0.1,0
			c0-0.1,0-0.2,0-0.4c0,0-0.1,0-0.1,0C65.1,62.2,65.1,62.3,65.1,62.4z M67.9,62.3c0,0,0-0.1,0-0.1c-0.1,0-0.2,0-0.4,0
			c0,0,0,0.1,0,0.1C67.7,62.3,67.8,62.3,67.9,62.3z M73.3,62.2c0,0,0,0.1,0,0.1c0.1,0,0.2,0,0.4,0c0,0,0-0.1,0-0.1
			C73.5,62.2,73.4,62.2,73.3,62.2z M35.8,39.1c0,0-0.1,0-0.1,0c0,0.1,0,0.2,0,0.4c0,0,0.1,0,0.1,0C35.8,39.3,35.8,39.2,35.8,39.1z
			 M24.8,59.3c0,0,0,0.1,0,0.1c0.1,0,0.2,0,0.4,0c0,0,0-0.1,0-0.1C25.1,59.3,25,59.3,24.8,59.3z M59.9,58.5c0,0-0.1,0-0.1,0
			c0,0.1,0,0.2,0,0.4c0,0,0.1,0,0.1,0C59.9,58.7,59.9,58.6,59.9,58.5z M73.9,68.5c0,0-0.1,0-0.1,0c0,0.1,0,0.2,0,0.4
			c0,0,0.1,0,0.1,0C73.9,68.7,73.9,68.6,73.9,68.5z M28.1,33.1c0,0,0,0.1,0,0.1c0.1,0,0.2,0,0.4,0c0,0,0-0.1,0-0.1
			C28.3,33.1,28.2,33.1,28.1,33.1z M27.3,32.7c0,0,0,0.1,0,0.1c0.1,0,0.2,0,0.4,0c0,0,0-0.1,0-0.1C27.6,32.7,27.5,32.7,27.3,32.7z
			 M28.2,32.6c0,0,0.1,0,0.1,0c0-0.1,0-0.2,0-0.4c0,0-0.1,0-0.1,0C28.2,32.4,28.2,32.5,28.2,32.6z M27.7,31.8c0,0,0-0.1,0-0.1
			c-0.1,0-0.2,0-0.4,0c0,0,0,0.1,0,0.1C27.5,31.8,27.6,31.8,27.7,31.8z M51.1,31.5c0,0,0.1,0,0.1,0c0-0.1,0-0.2,0-0.4
			c0,0-0.1,0-0.1,0C51.1,31.3,51.1,31.4,51.1,31.5z M26.5,30.8c0,0-0.1,0-0.1,0c0,0.1,0,0.2,0,0.4c0,0,0.1,0,0.1,0
			C26.5,31.1,26.5,30.9,26.5,30.8z M73.5,29.8c0,0-0.1,0-0.1,0c0,0.1,0,0.2,0,0.4c0,0,0.1,0,0.1,0C73.5,30,73.5,29.9,73.5,29.8z
			 M52.7,29c0,0-0.1,0-0.1,0c0,0.1,0,0.2,0,0.4c0,0,0.1,0,0.1,0C52.7,29.3,52.7,29.2,52.7,29z M37.3,29c0,0-0.1,0-0.1,0
			c0,0.1,0,0.2,0,0.4c0,0,0.1,0,0.1,0C37.3,29.3,37.3,29.2,37.3,29z M75.7,28.7c0,0-0.1,0-0.1,0c0,0.1,0,0.2,0,0.4c0,0,0.1,0,0.1,0
			C75.7,28.9,75.7,28.8,75.7,28.7z M53.2,28.8c0,0,0,0.1,0,0.1c0.1,0,0.2,0,0.4,0c0,0,0-0.1,0-0.1C53.4,28.8,53.3,28.8,53.2,28.8z
			 M51.6,27.6c0,0-0.1,0-0.1,0c0,0.1,0,0.2,0,0.4c0,0,0.1,0,0.1,0C51.6,27.8,51.6,27.7,51.6,27.6z M22.2,27.6c0,0-0.1,0-0.1,0
			c0,0.1,0,0.2,0,0.4c0,0,0.1,0,0.1,0C22.2,27.8,22.2,27.7,22.2,27.6z M25.8,25.1c0,0-0.1,0-0.1,0c0,0.1,0,0.2,0,0.4
			c0,0,0.1,0,0.1,0C25.8,25.3,25.8,25.2,25.8,25.1z M30.3,88.2c0,0,0.1,0,0.1,0c0-0.1,0-0.2,0-0.4c0,0-0.1,0-0.1,0
			C30.3,88,30.3,88.1,30.3,88.2z M27.1,25.1c0,0,0.1,0,0.1,0c0-0.1,0-0.2,0-0.4c0,0-0.1,0-0.1,0C27.1,24.8,27.1,25,27.1,25.1z
			 M36,48.2c0,0,0,0.1,0,0.1c0.1,0,0.2,0,0.4,0c0,0,0-0.1,0-0.1C36.2,48.2,36.1,48.2,36,48.2z M27.7,91.7c0,0,0-0.1,0-0.1
			c-0.1,0-0.2,0-0.4,0c0,0,0,0.1,0,0.1C27.5,91.7,27.6,91.7,27.7,91.7z M32.6,91.8c0,0-0.1,0-0.1,0c0,0.1,0,0.2,0,0.4
			c0,0,0.1,0,0.1,0C32.6,92.1,32.6,91.9,32.6,91.8z M67.8,91.8c0,0-0.1,0-0.1,0c0,0.1,0,0.2,0,0.4c0,0,0.1,0,0.1,0
			C67.8,92.1,67.8,91.9,67.8,91.8z M27.3,92.7c0,0,0,0.1,0,0.1c0.1,0,0.2,0,0.4,0c0,0,0-0.1,0-0.1C27.6,92.7,27.5,92.7,27.3,92.7z
			 M72.3,92.9c0,0,0.1,0,0.1,0c0-0.1,0-0.2,0-0.4c0,0-0.1,0-0.1,0C72.3,92.7,72.3,92.8,72.3,92.9z M73.2,93.3c0,0-0.1,0-0.1,0
			c0,0.1,0,0.2,0,0.4c0,0,0.1,0,0.1,0C73.2,93.5,73.2,93.4,73.2,93.3z M28.7,93.6c0,0-0.1,0-0.1,0c0,0.1,0,0.2,0,0.4
			c0,0,0.1,0,0.1,0C28.7,93.9,28.7,93.7,28.7,93.6z"/>
		<path class="st0" d="M70,79.3c0-1,0.5-2,0.4-3.1c-0.1-1.1,0-2.1,0-3.3c-0.3-0.1-0.7-0.1-1-0.2c0-0.2,0-0.3-0.1-0.7
			c0.4,0.1,0.7,0.2,1,0.3c0,0,0,0,0,0c0-1.6,0-3.2,0-4.8c-0.3,0-0.7-0.1-1.1-0.2c0.2-0.2,0.3-0.3,0.4-0.4c-0.1-0.1-0.1-0.2-0.2-0.2
			c-5,0-10,0-15,0c-0.4,0-0.7,0.2-1.1,0.3c-0.3,0.1-0.7-0.2-1.1-0.4c-0.1,1.3,1,1.5,1.7,2.1c-1.8,1.3-1.6,3.6-2.5,5.5
			c1,0.4,1.7-0.5,2.5-0.8c0.8-0.3,1.7-0.7,2.2-1.5c-0.2-0.3-0.3-0.6-0.5-1.1c0.4,0,0.7-0.1,1.1-0.1c0.2,0.7,0.4,1.3,0.6,2.1
			c0.3,0.1,0.8,0.3,1.4,0.5c0.3-0.3,0.7-0.7,1.2-1.2c0.5,0.2,0.9,0.3,1.3,0.4c0.2-0.1,0.4-0.3,0.5-0.4c0.3,0.1,0.5,0.3,0.8,0.4
			c-0.2,0.4-0.4,0.9-0.7,1.3c0.1,0.1,0.3,0.3,0.5,0.5c0.2-0.1,0.4-0.2,0.6-0.3c0.1,0.1,0.2,0.4,0.3,0.3c0.4-0.1,0.9-0.2,1.3-0.3
			c0.1,0.1,0.3,0.3,0.5,0.5c-0.7,0.8-1.8,0.5-2.7,0.6c-0.3,0.3,0.2,0.3,0.2,0.5c-0.1,0.1-0.2,0.2-0.3,0.2c-0.8,0.1-1.6-1-2.4,0
			c-1-0.2-1.8,0.3-2.7,0.4c-0.8,0.1-1.5,0.7-2.3,1c-0.2,0.1-0.5,0-0.7,0.1c-0.6,0.4-1.4,0.5-1.4,1.6c-0.4-0.2-0.6-0.4-1-0.6
			c-0.4,0.3-0.9,0.6-1.4,0.9c-0.4,0.3-0.8,0.5-1.2,0.8c0.2,0.4,0.3,0.7,0.6,1.1c-0.6-0.1-1-0.2-1.4-0.3c-0.1,0.3-0.2,0.5-0.3,0.7
			c-0.3,0-0.6,0-0.9,0c0-0.2-0.1-0.3-0.1-0.4c0.4-0.8,0.9-1.7,1.3-2.5c0.4-0.8,0.8-1.7,1.2-2.6c-0.3-0.4-0.7-0.4-1.1-0.1
			c-0.4,0.3-0.8,0.3-1.2,0c1-0.8,1.8-1.1,2.5-0.8c0.9-1.1,1.3-2.4,1.2-3.7c0.3-0.4,0.5-0.8,0.8-1.2c-0.2-0.1-0.4-0.2-0.4-0.2
			c-2.2,1.1-4.6,1.8-6.9,2.8c-0.4,0.1-0.8,0.2-1.1-0.3c0.5-0.3,1-0.6,1.7-0.9c-0.4,0-0.7,0-1,0c-0.3-0.4-0.6-0.7-0.9-1
			c-0.3-1.2,0.2-2.4,0.8-3.7c-4.5,0-8.9,0-13.3,0c-0.1-0.1-0.1-0.2-0.2-0.3c0.2,0,0.5-0.1,0.7-0.1c0.7-0.2,1.6-0.7,2.5,0
			c0.2,0.2,0.7,0,1.1,0c10.1,0,20.2,0,30.3,0c0.8,0,1.4-0.5,2.2-0.4c1,0.1,2,0.2,3,0.4c0.5,0.7,0.5,1.4,0.5,2.2c0,3.6,0,7.2,0,10.8
			c0,0.5,0.1,1.1,0.2,1.8c-0.2,0-0.6,0-0.9,0c0-0.1,0-0.2,0-0.4C70.5,80.3,70.5,79.7,70,79.3z M51.7,77.1c-0.3,0-0.7,0.2-0.7-0.4
			c0-0.2-0.2-0.5-0.4-0.7c0,0,0,0,0.1,0.1c0.1-0.1,0.2-0.2,0.3-0.3c0,0-0.1-0.1-0.1-0.1c-0.1,0.1-0.2,0.2-0.2,0.3
			c-0.7,0.8-1.1,1.7-1.5,2.9c0.8-0.4,1.4-0.7,1.9-1.1c0.3-0.2,0.4-0.5,0.8-0.6c0.3-0.2,0.7-0.4,1.1-0.7c-0.3-0.5-0.5-0.9-0.8-1.5
			c-0.3,0.5-0.5,0.8-0.6,1.1C51.6,76.5,51.7,76.8,51.7,77.1z M44.9,67.1c0.2,0,0.4,0,0.8,0.1c-0.2,1.1-1.3,1.1-1.8,1.5
			c0,0.7,0,1.3,0,1.9c1,0.7,2,0.4,3.1,0.5c0.4-0.5,0.7-1,1-1.6c0.3,0.3,0.5,0.6,0.7,0.9c1-0.5,1.9-1,2.8-1.5
			c0.2-0.5,0.3-0.9,0.4-1.4c-0.2-0.2-0.5-0.5-0.8-0.8c-0.5,0-1,0-1.7,0.1c0.8,0.7,0.4,1.4,0.5,2.1c-0.3,0-0.5-0.1-0.7-0.1
			c0-0.4,0-0.8-0.1-1.1c-0.3-0.4-0.6-0.7-0.9-1c-0.5,0.1-1.1,0.3-1.7,0.4C46.1,66.8,45.6,66.8,44.9,67.1c-0.2,0-0.4,0-0.7,0.1
			c0,0.3,0.1,0.5,0.1,0.7c0.2,0,0.4,0,0.6-0.1C44.9,67.5,44.9,67.3,44.9,67.1z M55.4,73c0.2,0.5,0.3,0.8,0.3,1c0,0.4,0,0.8,0,1.2
			c0.3,0,0.4,0,0.7,0c0-0.6,0-1.1,0-1.7C56.1,73.4,55.8,73.3,55.4,73z M54.2,76.3c-0.2-0.7-0.3-1.4-0.5-2.1c-0.2,0-0.4,0.1-0.7,0.1
			c0.2,0.7,0.4,1.4,0.6,2.1C53.9,76.4,54,76.4,54.2,76.3z M61,72.5c-0.4,0.9-0.6,1.5-1.3,1.5c-0.1,0-0.1,0.4-0.2,0.8
			c0.7-0.3,1.1-0.4,1.5-0.6C61,73.7,61,73.3,61,72.5z M54.4,73.9c0.1,0.3,0.2,0.7,0.3,1c0.1,0.4,0.1,0.8,0.1,1.1c0.2,0,0.4,0,0.5,0
			c0.5-0.8-0.5-1.4-0.3-2.2C54.7,73.9,54.6,73.9,54.4,73.9z M57.5,74.7c0.3-0.1,0.5-0.1,0.6-0.1c0.2-0.5,0.1-0.9-0.3-1.2
			c-0.1,0-0.2,0-0.3,0C57.5,73.7,57.5,74.1,57.5,74.7z M58.6,74.7c0,0.1,0,0.2,0,0.3c0.2,0,0.4-0.1,0.6-0.1c0-0.1,0-0.1,0-0.2
			C59,74.7,58.8,74.7,58.6,74.7z M59.9,72.9c-0.1,0-0.2,0-0.3,0c0,0.2,0.1,0.4,0.1,0.6c0.1,0,0.1,0,0.2,0
			C59.9,73.3,59.9,73.1,59.9,72.9z M57.2,75.3c0,0,0.1,0,0.1,0c0-0.1,0-0.2,0-0.4c0,0-0.1,0-0.1,0C57.2,75.1,57.2,75.2,57.2,75.3z"
			/>
		<path class="st0" d="M31.6,81.1c0.9,0.2,1.8,0.5,2.9,0.7c-0.3-0.5-0.6-0.9-0.7-1.3c-0.1-0.5,0-1.1,0-1.6c0.2,0,0.4,0,0.6,0
			c0.2-1.4,1.5-1.4,2.4-1.7c1.7-0.4,3.5-0.6,5.2-1.7c0,0.5,0,0.8,0,1.1c-0.4,0.2-0.8,0.5-1.3,0.9c-0.3,0-0.8,0-1.1,0
			c-0.4,0.5-0.7,0.8-0.9,1c0.5-0.1,1.1-0.2,1.7-0.3c0,0.1,0.1,0.2,0.1,0.3c-0.8,0.3-1.6,0.7-2.4,1c0,0.5,0,0.9,0,1.5
			c0.2,0.2,0.6,0.4,0.9,0.7c0.7,0.4,1.3-0.1,2.1-0.4c0.3-0.5,0.6-1.1,1-1.9c0-0.4,0-1,0-1.9c0.4,0.2,0.7,0.3,1,0.5c0,0.7,0,1.3,0,2
			c0.2,0.1,0.4,0.1,0.7,0.2c0.2-1.3,0.4-2.5,0.6-3.7c0.8,0.2,1.1,1,1.8,1.4c0.2,0,0.6,0.1,1.2,0.2c-0.5,0.2-0.7,0.2-1,0.3
			c0.1,0.2,0.2,0.3,0.4,0.6c-0.3,0.4-0.7,0.7-1,1.1c-0.5,0-0.9,0-1.5,0c-0.1,0.2-0.3,0.6-0.4,0.9c-0.7-0.2-1.2-0.4-1.7-0.5
			c-0.3,0.4-0.6,0.8-0.9,1.4c0.4,0,0.7,0.1,1.1,0.1c3.6,0,7.2,0,10.8,0c1.9,0,3.7,0.2,5.6-0.3c1.2-0.3,2.5-0.1,3.8,0.3
			c0.8,0.2,1.8,0.1,2.7,0c0.8-0.1,1.6-0.3,2.7-0.5c0.2-0.3,0.7-0.8,1-1.2c0.4,0,0.6,0,1,0c0,0.2,0,0.5,0,0.7c-0.6,0-1.2-0.1-1.4,0.7
			c-0.3,0.2-0.6,0.5-1,0.7c-3.3,0-6.6,0-10.1,0c0,0.4,0,0.7,0,1c-0.7-0.1-0.1-0.7-0.6-1c-6.1,0-12.4,0-18.6,0
			c-0.1,0.2-0.3,0.4-0.5,0.7c0-0.2,0-0.4,0-0.7c-0.7,0-1.4,0-2.1,0c-0.7,0-1.3-0.1-2,0c-1.1,0.1-2-0.2-3-0.4c-0.1,0-0.1-0.2-0.1-0.3
			C30.9,81.3,31.5,81.8,31.6,81.1z M34.5,79.4c-0.1,0.9,0.2,1.7,0.9,2.4c0.7-0.1,1.5,0.1,2.6-0.2c-0.8-0.4-1.7,0.1-2-0.8
			c0.3,0,0.7-0.1,1-0.1c0-0.3,0-0.6,0-1.2c-0.1-0.1-0.4-0.2-0.5-0.3c0.5-0.4,0.9-0.8,1.3-1.1c0-0.1-0.1-0.1-0.1-0.2
			c-0.7,0.2-1.3,0.3-2,0.4C35.3,78.7,34.9,79.1,34.5,79.4z M44.4,79c0.1,0.2,0.3,0.5,0.4,0.9c0.4-0.4,0.6-0.6,0.8-0.7
			c0.1-0.8-0.2-1.2-1.1-1.3c0.1,0.4,0.2,0.7,0.3,1C44.6,78.9,44.4,79,44.4,79z"/>
		<path class="st0" d="M30.6,81.4c-0.5-0.1-0.9-0.3-1.4-0.4c0-3.3,0-6.6,0-9.9c0.1,0,0.1-0.1,0.2-0.1c0.1,0,0.1,0.1,0.1,0.1
			c0,2.3,0,4.5,0,6.8c0.3,0.3,0.5,0.5,0.7,0.7c-0.2,0.5-0.4,1-0.6,1.7c0.2,0,0.5,0,0.7,0C30.3,80.7,30.5,81.1,30.6,81.4z"/>
		<path class="st0" d="M43.1,71.5c0,0.1,0,0.2,0,0.5c-0.5,0-1.1,0.1-1.7,0.1c0-0.3,0-0.6,0-1c0,0,0-0.1,0,0
			C42,71.2,42.6,71.4,43.1,71.5z"/>
		<path class="st0" d="M63.2,79.7c0.6-0.2,1.1-0.5,1.7-0.8c0.2,0.2,0.3,0.3,0.5,0.6c-0.7,0.2-1.4,0.4-2.1,0.5
			C63.3,79.9,63.2,79.8,63.2,79.7z"/>
		<path class="st0" d="M29.8,66c0.4,0.6,0.5,0.9,0.8,1.3c-0.4,0-0.9,0-1.4,0C29.4,67,29.5,66.7,29.8,66z"/>
		<path class="st0" d="M63.6,71.7c0,0.5,0.2,1.2-0.5,1.4c-0.2-0.2-0.4-0.4-0.5-0.6C62.6,71.9,63,71.7,63.6,71.7z"/>
		<path class="st0" d="M30.2,80.3c0-0.2,0-0.4,0-1c0.6,0.7,1,1.2,1.4,1.7c-0.3-0.1-0.5-0.1-0.8-0.2C30.6,80.7,30.4,80.5,30.2,80.3z"
			/>
		<path class="st0" d="M60,77.3c-0.2,0.2-0.3,0.3-0.5,0.5c-0.3-0.2-0.7-0.3-1-0.5c0.1-0.2,0.2-0.4,0.2-0.6
			C59.2,76.9,59.5,77.1,60,77.3z"/>
		<path class="st0" d="M67.9,67.7c-0.5,0-0.9,0-1.4,0c0-0.1-0.1-0.3-0.1-0.5C67.1,66.8,67.5,67.1,67.9,67.7z"/>
		<ellipse class="st0" cx="34.7" cy="73.2" rx="0.7" ry="0.4"/>
		<path class="st0" d="M60.5,84.3c-0.2-0.6-0.4-1.1-0.5-1.7C61.1,82.9,60.6,83.7,60.5,84.3z"/>
		<path class="st0" d="M62.6,76.8c0.6,0,0.9,0,1.4,0c-0.3,0.3-0.5,0.5-0.8,0.8C63.1,77.4,62.9,77.2,62.6,76.8z"/>
		<path class="st0" d="M33.5,78.8c-0.5-0.1-0.5-0.1-0.7-0.6C33,78.4,33.4,78.7,33.5,78.8z"/>
		<path class="st0" d="M63.6,71.9c0-0.3,0-0.5,0-0.8c0.3,0,0.7-0.1,1-0.1c0,0.1,0,0.2,0.1,0.2C64.3,71.5,64,71.7,63.6,71.9z"/>
		<path class="st0" d="M38.7,69.5c-0.6,0-0.9,0-1.4,0c0.3-0.3,0.5-0.5,0.8-0.8C38.3,69,38.4,69.1,38.7,69.5z"/>
		<path class="st0" d="M69.2,82.8c0.2,0.4,0.4,0.9,0.6,1.4C68.8,84,69,83.4,69.2,82.8z"/>
		<path class="st0" d="M64.6,80.4c-0.4,0.4-0.6,0.5-0.9,0.8c-0.1-0.3-0.1-0.5-0.2-0.8C63.8,80.4,64.1,80.4,64.6,80.4z"/>
		<path class="st0" d="M62.4,67.7c0.2,0.2,0.4,0.3,0.8,0.6c-0.4,0.1-0.6,0.1-0.9,0.2c0-0.2-0.1-0.4-0.1-0.6
			C62.2,67.9,62.3,67.8,62.4,67.7z"/>
		<path class="st0" d="M28.4,84.3c0-0.5,0-1,0-1.4C28.9,83.3,28.9,83.8,28.4,84.3z"/>
		<path class="st0" d="M68.6,76.7c0.4-0.4,0.6-0.5,0.9-0.8c0.1,0.3,0.1,0.5,0.2,0.8C69.4,76.7,69.2,76.7,68.6,76.7z"/>
		<path class="st0" d="M45.6,80.4c-0.4,0.4-0.6,0.5-0.9,0.8c-0.1-0.3-0.1-0.5-0.2-0.8C44.8,80.4,45,80.4,45.6,80.4z"/>
		<path class="st0" d="M66.9,78.5c-0.1,0-0.4,0-1,0c0.3-0.2,0.5-0.4,0.8-0.6C66.8,78.1,66.9,78.3,66.9,78.5z"/>
		<path class="st0" d="M54.5,79.9c0.3-0.3,0.4-0.4,0.7-0.7c0.1,0.2,0.3,0.4,0.5,0.7C55.3,79.9,55,79.9,54.5,79.9z"/>
		<path class="st0" d="M63.1,79c-0.6,0.3-0.9,0.5-1.2,0.6c0-0.2-0.1-0.4-0.1-0.6C62.2,79,62.5,79,63.1,79z"/>
		<path class="st0" d="M31.2,64.2c0,0.3,0,0.7,0,1c-0.1,0-0.2,0-0.2,0c0-0.4-0.1-0.7-0.1-1.1C31,64.2,31.1,64.2,31.2,64.2z"/>
		<path class="st0" d="M32.7,64.2c0.1,0,0.2,0,0.4,0c0,0.3,0,0.7,0,1c-0.1,0-0.2,0-0.3,0C32.8,64.9,32.8,64.5,32.7,64.2z"/>
		<path class="st0" d="M27,64.6c0.1,0,0.2,0,0.4,0c0,0.4,0,0.7,0,1.1C26.7,65.5,27.1,64.9,27,64.6z"/>
		<path class="st0" d="M29.5,64.6c0.1,0,0.2,0,0.4,0c0,0.3,0,0.7,0,1c-0.1,0-0.2,0-0.3,0C29.6,65.3,29.5,64.9,29.5,64.6z"/>
		<path class="st0" d="M29.9,83.2c0-0.3,0-0.6,0-1C30.2,82.7,30.2,82.7,29.9,83.2z"/>
		<path class="st0" d="M30.6,83.5c0-0.3,0-0.6,0-1C31,83.1,31,83.1,30.6,83.5z"/>
		<path class="st0" d="M41.4,83.5c0-0.3,0-0.6,0-1C41.7,83.1,41.7,83.1,41.4,83.5z"/>
		<path class="st0" d="M44.3,83.5c0-0.3,0-0.6,0-1C44.6,83.1,44.6,83.1,44.3,83.5z"/>
		<path class="st0" d="M59.3,83.6c0-0.3,0-0.7,0-1c0.1,0,0.2,0,0.2,0c0,0.4,0.1,0.7,0.1,1.1C59.6,83.6,59.5,83.6,59.3,83.6z"/>
		<path class="st0" d="M62.2,83.6c0-0.3,0-0.7,0-1c0.1,0,0.2,0,0.2,0c0,0.4,0.1,0.7,0.1,1.1C62.4,83.6,62.3,83.6,62.2,83.6z"/>
		<path class="st0" d="M70.4,83.6c-0.7-0.2-0.2-0.7-0.4-1.1C70.7,82.7,70.3,83.2,70.4,83.6z"/>
		<path class="st0" d="M71.1,83.6c-0.1,0-0.2,0-0.4,0c0-0.3,0-0.7,0-1c0.1,0,0.2,0,0.3,0C71,82.9,71.1,83.2,71.1,83.6z"/>
		<path class="st0" d="M36.4,83.9c0-0.3,0-0.6,0-1C36.7,83.5,36.7,83.5,36.4,83.9z"/>
		<path class="st0" d="M37.7,82.9c-0.1,0.4,0.3,0.9-0.4,1.1C37.5,83.6,37.1,83,37.7,82.9z"/>
		<path class="st0" d="M39.2,83.9c0-0.3,0-0.6,0-1C39.6,83.5,39.6,83.5,39.2,83.9z"/>
		<path class="st0" d="M48.2,83.9c0-0.3,0-0.6,0-1C48.5,83.5,48.5,83.5,48.2,83.9z"/>
		<path class="st0" d="M53.6,83.9c0-0.3,0-0.7,0-1c0.1,0,0.2,0,0.2,0c0,0.4,0.1,0.7,0.1,1.1C53.8,83.9,53.7,83.9,53.6,83.9z"/>
		<path class="st0" d="M64.4,83.9c0-0.3,0-0.7,0-1c0.1,0,0.2,0,0.2,0c0,0.4,0.1,0.7,0.1,1.1C64.6,83.9,64.5,83.9,64.4,83.9z"/>
		<path class="st0" d="M29.5,84.3c0.1-0.4-0.3-0.9,0.4-1.1C29.7,83.6,30.2,84.1,29.5,84.3z"/>
		<path class="st0" d="M32.4,84.2c0-0.3,0-0.6,0-1C32.7,83.8,32.7,83.8,32.4,84.2z"/>
		<path class="st0" d="M43.1,84.3c0.1-0.4-0.3-0.9,0.4-1.1C43.4,83.6,43.8,84.1,43.1,84.3z"/>
		<path class="st0" d="M46.3,83.3c0,0.3,0,0.6,0,1C46,83.7,46,83.7,46.3,83.3z"/>
		<path class="st0" d="M57.5,83.2c0.7,0.2,0.2,0.7,0.4,1.1C57.2,84.1,57.6,83.6,57.5,83.2z"/>
		<path class="st0" d="M68.5,83.2c0,0.3,0,0.7,0,1c-0.1,0-0.2,0-0.2,0c0-0.4-0.1-0.7-0.1-1.1C68.3,83.2,68.4,83.2,68.5,83.2z"/>
		<path class="st0" d="M46.2,75.1c-0.2-0.3-0.3-0.6-0.4-0.8C46.1,74.2,46.6,74.1,46.2,75.1z"/>
		<path class="st0" d="M38.5,74.6c-0.3,0-0.5,0-0.6,0c0.1-0.2,0.3-0.4,0.5-0.7C38.4,74.1,38.5,74.3,38.5,74.6z"/>
		<path class="st0" d="M41.9,74.1c-0.2-0.4-0.3-0.7-0.4-0.8C42,73.2,42,73.2,41.9,74.1z"/>
		<path class="st0" d="M58.9,84.3c-0.5,0-0.3-0.4-0.4-0.7C59.1,83.6,58.9,84,58.9,84.3z"/>
		<path class="st0" d="M44.9,84.3c0.1-0.3-0.2-0.7,0.4-0.7C45.2,83.8,45.5,84.3,44.9,84.3z"/>
		<path class="st0" d="M34.5,83.6c-0.1,0.3,0.2,0.7-0.4,0.7C34.2,84,34,83.6,34.5,83.6z"/>
		<path class="st0" d="M66.2,83.9c0-0.2,0-0.5-0.1-0.7c0.1,0,0.2,0,0.2,0c0,0.2,0.1,0.5,0.1,0.7C66.4,83.9,66.3,83.9,66.2,83.9z"/>
		<path class="st0" d="M58.3,83.6c0-0.2,0-0.5-0.1-0.7c0.1,0,0.2,0,0.2,0c0,0.2,0.1,0.5,0.1,0.7C58.5,83.6,58.4,83.6,58.3,83.6z"/>
		<path class="st0" d="M56.5,83.6c0-0.2,0-0.5-0.1-0.7c0.1,0,0.2,0,0.2,0c0,0.2,0.1,0.5,0.1,0.7C56.7,83.6,56.6,83.6,56.5,83.6z"/>
		<path class="st0" d="M47.5,82.7c-0.1,0.4-0.2,0.7-0.2,0.9c-0.1-0.2-0.1-0.3-0.2-0.5C47.1,83,47.2,82.9,47.5,82.7z"/>
		<path class="st0" d="M45.7,82.7c-0.1,0.5-0.2,0.7-0.3,0.9c-0.1-0.2-0.1-0.3-0.2-0.5C45.3,83,45.4,82.9,45.7,82.7z"/>
		<path class="st0" d="M34.9,82.7c-0.1,0.5-0.2,0.7-0.3,0.9c-0.1-0.2-0.1-0.3-0.2-0.5C34.5,83,34.7,82.9,34.9,82.7z"/>
		<path class="st0" d="M54.3,83.2c0-0.2,0-0.5-0.1-0.7c0.1,0,0.2,0,0.2,0c0,0.2,0.1,0.5,0.1,0.7C54.5,83.2,54.4,83.2,54.3,83.2z"/>
		<path class="st0" d="M49.6,82.3c-0.1,0.4-0.2,0.7-0.2,0.9c-0.1-0.2-0.1-0.3-0.2-0.5C49.2,82.7,49.4,82.6,49.6,82.3z"/>
		<path class="st0" d="M46.8,82.3c-0.1,0.4-0.2,0.7-0.2,0.9c-0.1-0.2-0.1-0.3-0.2-0.5C46.4,82.7,46.5,82.6,46.8,82.3z"/>
		<path class="st0" d="M43.9,82.3c-0.1,0.4-0.2,0.7-0.2,0.9c-0.1-0.2-0.1-0.3-0.2-0.5C43.5,82.7,43.6,82.6,43.9,82.3z"/>
		<path class="st0" d="M36,82.3c-0.1,0.4-0.2,0.7-0.2,0.9c-0.1-0.2-0.1-0.3-0.2-0.5C35.6,82.7,35.7,82.6,36,82.3z"/>
		<path class="st0" d="M28.4,82.9c-0.1,0-0.2,0-0.4,0c0-0.2,0-0.4,0-0.7c0.1,0,0.2,0,0.2,0C28.3,82.4,28.4,82.6,28.4,82.9z"/>
		<path class="st0" d="M29.2,82.4c0-0.2,0-0.4,0-0.6c0.1,0,0.1,0,0.2,0c0,0.2,0.1,0.4,0.1,0.6C29.4,82.4,29.3,82.4,29.2,82.4z"/>
		<ellipse class="st0" cx="71.3" cy="81.8" rx="0.1" ry="0.5"/>
		<path class="st0" d="M69.3,81.4c-0.1,0.1-0.3,0.2-0.4,0.4c-0.1-0.1-0.2-0.2-0.3-0.4C68.8,81.4,69.1,81.4,69.3,81.4z"/>
		<path class="st0" d="M70,81.1c0,0.5-0.4,0.3-0.7,0.4C69.4,80.9,69.8,81.1,70,81.1z"/>
		<path class="st0" d="M51,81.4c-0.2,0-0.4,0-0.6,0c0-0.1,0-0.1,0-0.2c0.2,0,0.4-0.1,0.6-0.1C50.9,81.2,51,81.3,51,81.4z"/>
		<path class="st0" d="M28.7,81.1c0,0.2,0,0.4,0,0.6c-0.1,0-0.1,0-0.2,0c0-0.2-0.1-0.4-0.1-0.6C28.5,81.1,28.6,81.1,28.7,81.1z"/>
		<ellipse class="st0" cx="71.7" cy="80.7" rx="0.1" ry="0.5"/>
		<ellipse class="st0" cx="28.2" cy="80.3" rx="0.1" ry="0.5"/>
		<path class="st0" d="M28.1,78.8c-0.1,0.4-0.2,0.7-0.2,0.9c-0.1-0.2-0.1-0.3-0.2-0.5C27.7,79.1,27.8,79,28.1,78.8z"/>
		<path class="st0" d="M63.3,77.9c0.2,0,0.4,0,0.6,0c0,0.1,0,0.1,0,0.2c-0.2,0-0.4,0.1-0.6,0.1C63.3,78.1,63.3,78,63.3,77.9z"/>
		<path class="st0" d="M62.9,73.6c0.2,0,0.5,0,0.7-0.1c0,0.1,0,0.2,0,0.2c-0.2,0-0.5,0.1-0.7,0.1C62.9,73.8,62.9,73.7,62.9,73.6z"/>
		<path class="st0" d="M57.6,67.8c0.2,0,0.4,0,0.6,0c0,0.1,0,0.1,0,0.2c-0.2,0-0.4,0.1-0.6,0.1C57.6,68.1,57.6,68,57.6,67.8z"/>
		<path class="st0" d="M73.3,67.1c0,0.2,0,0.4,0,0.7c-0.1,0-0.2,0-0.2,0c0-0.2-0.1-0.5-0.1-0.7C73,67.1,73.2,67.1,73.3,67.1z"/>
		<path class="st0" d="M27.3,66.7c0,0.2,0,0.5,0.1,0.7c-0.1,0-0.2,0-0.2,0c0-0.2-0.1-0.5-0.1-0.7C27.1,66.7,27.2,66.7,27.3,66.7z"/>
		<path class="st0" d="M73.6,67.1c-0.1,0-0.2,0-0.4,0c0-0.2,0-0.4,0-0.7c0.1,0,0.2,0,0.2,0C73.6,66.6,73.6,66.8,73.6,67.1z"/>
		<path class="st0" d="M26.7,66.7c0-0.2,0-0.5-0.1-0.7c0.1,0,0.2,0,0.2,0c0,0.2,0.1,0.5,0.1,0.7C26.9,66.7,26.8,66.7,26.7,66.7z"/>
		<path class="st0" d="M27.6,65.6c0,0.2,0,0.5,0.1,0.7c-0.1,0-0.2,0-0.2,0c0-0.2-0.1-0.5-0.1-0.7C27.4,65.6,27.5,65.6,27.6,65.6z"/>
		<path class="st0" d="M72.9,64.9c0.1,0,0.2,0,0.4,0c0,0.2,0,0.4,0,0.7c-0.1,0-0.2,0-0.2,0C73,65.4,73,65.1,72.9,64.9z"/>
		<path class="st0" d="M71.1,64.9c0.1,0,0.2,0,0.4,0c0,0.2,0,0.4,0,0.7c-0.1,0-0.2,0-0.2,0C71.2,65.4,71.2,65.1,71.1,64.9z"/>
		<path class="st0" d="M70.3,65.8c0.1-0.4,0.2-0.7,0.2-0.9c0.1,0.2,0.1,0.3,0.2,0.5C70.8,65.5,70.6,65.5,70.3,65.8z"/>
		<path class="st0" d="M69.6,65.4c0.1-0.4,0.2-0.7,0.2-0.9c0.1,0.2,0.1,0.3,0.2,0.5C70,65.1,69.9,65.2,69.6,65.4z"/>
		<path class="st0" d="M65.4,64.6c0.1,0,0.2,0,0.4,0c0,0.2,0,0.4,0,0.7c-0.1,0-0.2,0-0.2,0C65.5,65,65.4,64.8,65.4,64.6z"/>
		<path class="st0" d="M64.7,64.6c0.1,0,0.2,0,0.4,0c0,0.2,0,0.4,0,0.7c-0.1,0-0.2,0-0.2,0C64.7,65,64.7,64.8,64.7,64.6z"/>
		<path class="st0" d="M62.9,64.6c0.1,0,0.2,0,0.4,0c0,0.2,0,0.4,0,0.7c-0.1,0-0.2,0-0.2,0C62.9,65,62.9,64.8,62.9,64.6z"/>
		<path class="st0" d="M32.3,64.6c0,0.2,0,0.4,0,0.6c-0.1,0-0.1,0-0.2,0c0-0.2-0.1-0.4-0.1-0.6C32.1,64.6,32.2,64.6,32.3,64.6z"/>
		<path class="st0" d="M28.7,64.5c0,0.2,0,0.5,0.1,0.7c-0.1,0-0.2,0-0.2,0c0-0.2-0.1-0.5-0.1-0.7C28.5,64.6,28.6,64.6,28.7,64.5z"/>
		<path class="st0" d="M27.7,64.6c0.1,0,0.2,0,0.4,0c0,0.2,0,0.4,0,0.7c-0.1,0-0.2,0-0.2,0C27.8,65,27.7,64.8,27.7,64.6z"/>
		<path class="st0" d="M73.7,64c-0.1,0.4-0.2,0.7-0.2,0.9c-0.1-0.2-0.1-0.3-0.2-0.5C73.3,64.4,73.4,64.3,73.7,64z"/>
		<path class="st0" d="M72.6,64.9c0-0.2,0-0.4,0-0.7c0.1,0,0.2,0,0.2,0c0,0.2,0.1,0.5,0.1,0.7C72.8,64.9,72.7,64.9,72.6,64.9z"/>
		<path class="st0" d="M71.9,64c-0.1,0.4-0.2,0.7-0.2,0.9c-0.1-0.2-0.1-0.3-0.2-0.5C71.5,64.4,71.6,64.3,71.9,64z"/>
		<path class="st0" d="M66.4,64.3c0.2,0,0.5,0,0.7-0.1c0,0.1,0,0.2,0,0.2c-0.2,0-0.5,0.1-0.7,0.1C66.5,64.5,66.5,64.4,66.4,64.3z"/>
		<path class="st0" d="M59.6,64.2c0.1,0,0.2,0,0.4,0c0,0.2,0,0.4,0,0.7c-0.1,0-0.2,0-0.2,0C59.7,64.7,59.7,64.4,59.6,64.2z"/>
		<path class="st0" d="M38.7,64.2c0,0.2,0,0.5,0.1,0.7c-0.1,0-0.2,0-0.2,0c0-0.2-0.1-0.5-0.1-0.7C38.5,64.2,38.6,64.2,38.7,64.2z"/>
		<path class="st0" d="M37.7,64.2c0.1,0,0.2,0,0.4,0c0,0.2,0,0.4,0,0.7c-0.1,0-0.2,0-0.2,0C37.8,64.7,37.8,64.4,37.7,64.2z"/>
		<path class="st0" d="M36,64.2c0.1,0,0.2,0,0.4,0c0,0.2,0,0.4,0,0.7c-0.1,0-0.2,0-0.2,0C36,64.7,36,64.4,36,64.2z"/>
		<path class="st0" d="M35.2,64.2c0.1,0,0.2,0,0.4,0c0,0.2,0,0.4,0,0.7c-0.1,0-0.2,0-0.2,0C35.3,64.7,35.3,64.4,35.2,64.2z"/>
		<path class="st0" d="M34.5,65.1c0.1-0.5,0.2-0.7,0.3-0.9c0.1,0.2,0.1,0.3,0.2,0.5C34.9,64.8,34.7,64.8,34.5,65.1z"/>
		<path class="st0" d="M33.4,64.2c0.1,0,0.2,0,0.4,0c0,0.2,0,0.4,0,0.7c-0.1,0-0.2,0-0.2,0C33.5,64.7,33.5,64.4,33.4,64.2z"/>
		<path class="st0" d="M37,64.6c-0.1-0.1-0.2-0.2-0.4-0.4C36.8,64.3,36.9,64.4,37,64.6z"/>
		<ellipse class="st0" cx="40.4" cy="64.4" rx="0.3" ry="0.1"/>
		<ellipse class="st0" cx="45.5" cy="64.4" rx="0.3" ry="0.1"/>
		<path class="st0" d="M49.6,64.2c0.1,0,0.2,0,0.4,0c-0.1,0.1-0.2,0.2-0.2,0.3C49.7,64.4,49.6,64.3,49.6,64.2z"/>
		<ellipse class="st0" cx="51.6" cy="64.4" rx="0.3" ry="0.1"/>
		<ellipse class="st0" cx="52.3" cy="64.4" rx="0.3" ry="0.1"/>
		<ellipse class="st0" cx="53" cy="64.4" rx="0.3" ry="0.1"/>
		<ellipse class="st0" cx="54.1" cy="64.4" rx="0.3" ry="0.1"/>
		<ellipse class="st0" cx="54.8" cy="64.4" rx="0.1" ry="0.3"/>
		<ellipse class="st0" cx="55.5" cy="64.4" rx="0.1" ry="0.3"/>
		<ellipse class="st0" cx="56.6" cy="64.4" rx="0.1" ry="0.3"/>
		<path class="st0" d="M57.5,64.2c-0.1,0.1-0.2,0.2-0.3,0.3c0,0-0.1-0.1-0.1-0.1C57.3,64.3,57.4,64.2,57.5,64.2
			C57.5,64.2,57.5,64.2,57.5,64.2z"/>
		<path class="st0" d="M57.9,64.2c0.1,0.1,0.2,0.2,0.3,0.3c0,0-0.1,0.1-0.1,0.1C58,64.4,57.9,64.3,57.9,64.2
			C57.8,64.2,57.9,64.2,57.9,64.2z"/>
		<path class="st0" d="M59.3,64.2c-0.1,0.1-0.2,0.2-0.3,0.3c0,0-0.1-0.1-0.1-0.1C59.1,64.3,59.1,64.2,59.3,64.2
			C59.3,64.2,59.3,64.2,59.3,64.2z"/>
		<ellipse class="st0" cx="69.1" cy="64.4" rx="0.1" ry="0.3"/>
		<path class="st0" d="M70,64.5c0.1-0.1,0.2-0.2,0.3-0.3c0,0,0.1,0.1,0.1,0.1C70.3,64.4,70.2,64.5,70,64.5
			C70.1,64.6,70,64.5,70,64.5z"/>
		<path class="st0" d="M37.1,64.5c0.1,0.1,0.2,0.2,0.3,0.3c0,0-0.1,0.1-0.1,0.1C37.2,64.8,37.1,64.7,37.1,64.5
			C37,64.6,37,64.5,37.1,64.5z"/>
		<path class="st0" d="M61.1,64.5c0.1,0.1,0.2,0.2,0.3,0.3c0,0-0.1,0.1-0.1,0.1C61.2,64.8,61.1,64.7,61.1,64.5
			C61.1,64.6,61.1,64.5,61.1,64.5z"/>
		<path class="st0" d="M62.5,64.6c-0.1,0.1-0.2,0.2-0.3,0.3c0,0-0.1-0.1-0.1-0.1C62.3,64.7,62.4,64.6,62.5,64.6
			C62.5,64.5,62.5,64.6,62.5,64.6z"/>
		<path class="st0" d="M66.1,64.6c0.1,0,0.2,0,0.4,0c-0.1,0.1-0.2,0.2-0.2,0.3C66.2,64.8,66.1,64.7,66.1,64.6z"/>
		<path class="st0" d="M26.2,65.2c0.1-0.1,0.2-0.2,0.3-0.3c0,0,0.1,0.1,0.1,0.1C26.5,65.1,26.4,65.2,26.2,65.2
			C26.3,65.3,26.3,65.3,26.2,65.2z"/>
		<ellipse class="st0" cx="63.8" cy="65.1" rx="0.3" ry="0.1"/>
		<ellipse class="st0" cx="68.1" cy="65.1" rx="0.1" ry="0.3"/>
		<ellipse class="st0" cx="68.8" cy="65.1" rx="0.3" ry="0.1"/>
		<path class="st0" d="M72.6,64.9c-0.1,0.1-0.2,0.2-0.3,0.3c0,0-0.1-0.1-0.1-0.1C72.3,65,72.4,65,72.6,64.9
			C72.5,64.9,72.6,64.9,72.6,64.9z"/>
		<path class="st0" d="M72.9,67.1c-0.1-0.1-0.2-0.2-0.3-0.3c0,0,0.1-0.1,0.1-0.1C72.8,66.8,72.9,66.9,72.9,67.1
			C72.9,67.1,72.9,67.1,72.9,67.1z"/>
		<path class="st0" d="M27.3,75.3c0.1-0.1,0.2-0.2,0.3-0.3c0,0,0.1,0.1,0.1,0.1C27.6,75.2,27.5,75.3,27.3,75.3
			C27.4,75.3,27.3,75.3,27.3,75.3z"/>
		<path class="st0" d="M27.7,77.8c0.1-0.1,0.2-0.2,0.3-0.3c0,0,0.1,0.1,0.1,0.1C27.9,77.7,27.8,77.8,27.7,77.8
			C27.7,77.8,27.7,77.8,27.7,77.8z"/>
		<path class="st0" d="M70.1,79.3c-0.1,0.1-0.2,0.2-0.3,0.3c0,0-0.1-0.1-0.1-0.1C69.8,79.4,69.9,79.3,70.1,79.3
			C70,79.3,70.1,79.3,70.1,79.3z"/>
		<ellipse class="st0" cx="70.6" cy="82" rx="0.1" ry="0.3"/>
		<path class="st0" d="M70,82.5c-0.1-0.1-0.2-0.2-0.3-0.3c0,0,0.1-0.1,0.1-0.1C69.9,82.3,70,82.4,70,82.5C70.1,82.5,70,82.5,70,82.5
			z"/>
		<path class="st0" d="M40.6,82.8c0.1-0.1,0.2-0.2,0.3-0.3c0,0,0.1,0.1,0.1,0.1C40.8,82.7,40.8,82.8,40.6,82.8
			C40.6,82.9,40.6,82.8,40.6,82.8z"/>
		<path class="st0" d="M52.4,82.9c-0.1-0.1-0.2-0.2-0.3-0.3c0,0,0.1-0.1,0.1-0.1C52.3,82.6,52.4,82.7,52.4,82.9
			C52.5,82.8,52.5,82.9,52.4,82.9z"/>
		<path class="st0" d="M63.2,82.9c-0.1-0.1-0.2-0.2-0.3-0.3c0,0,0.1-0.1,0.1-0.1C63.1,82.6,63.2,82.7,63.2,82.9
			C63.2,82.8,63.2,82.9,63.2,82.9z"/>
		<path class="st0" d="M68.9,82.9c-0.1-0.1-0.2-0.2-0.3-0.3c0,0,0.1-0.1,0.1-0.1C68.8,82.6,68.9,82.7,68.9,82.9
			C69,82.8,69,82.9,68.9,82.9z"/>
		<path class="st0" d="M42.4,83.2c0.1-0.1,0.2-0.2,0.3-0.3c0,0,0.1,0.1,0.1,0.1C42.6,83.1,42.5,83.2,42.4,83.2
			C42.4,83.2,42.4,83.2,42.4,83.2z"/>
		<path class="st0" d="M50.3,83.3c-0.1-0.1-0.2-0.2-0.3-0.3c0,0,0.1-0.1,0.1-0.1C50.2,83,50.3,83.1,50.3,83.3
			C50.3,83.2,50.3,83.2,50.3,83.3z"/>
		<path class="st0" d="M61.4,83.3c-0.1-0.1-0.2-0.2-0.3-0.3c0,0,0.1-0.1,0.1-0.1C61.3,83,61.4,83.1,61.4,83.3
			C61.4,83.2,61.4,83.2,61.4,83.3z"/>
		<path class="st0" d="M68.2,83.3c-0.1-0.1-0.2-0.2-0.3-0.3c0,0,0.1-0.1,0.1-0.1C68.1,83,68.2,83.1,68.2,83.3
			C68.3,83.2,68.2,83.2,68.2,83.3z"/>
		<path class="st0" d="M33.4,83.5c0.1-0.1,0.2-0.2,0.3-0.3c0,0,0.1,0.1,0.1,0.1C33.7,83.4,33.6,83.5,33.4,83.5
			C33.5,83.6,33.4,83.6,33.4,83.5z"/>
		<path class="st0" d="M50.3,83.2c0.1,0.1,0.2,0.2,0.4,0.4C50.5,83.5,50.4,83.3,50.3,83.2z"/>
		<path class="st0" d="M67.5,83.6c-0.1-0.1-0.2-0.2-0.3-0.3c0,0,0.1-0.1,0.1-0.1C67.4,83.3,67.5,83.4,67.5,83.6
			C67.5,83.6,67.5,83.6,67.5,83.6z"/>
		<path class="st0" d="M51,83.9c-0.1-0.1-0.2-0.2-0.4-0.4C50.8,83.7,50.9,83.8,51,83.9z"/>
		<path class="st0" d="M37.4,84c-0.1,0.1-0.2,0.2-0.3,0.3c0,0-0.1-0.1-0.1-0.1C37.2,84.1,37.3,84,37.4,84
			C37.4,83.9,37.4,83.9,37.4,84z"/>
		<path class="st0" d="M56.2,57.2c-4,0.5-8.3,0.5-12.5,0.5c-0.1-0.1-0.3-0.3-0.4-0.4c0-2.3,0-4.7,0-7c4.4,0,8.7,0,13.2,0
			c0,0.6,0,1.3,0,1.9c0,0.7,0,1.3,0,2c0,0.7,0.3,1.5-0.1,1.9C55.8,56.7,56.8,57.1,56.2,57.2c-0.3-0.6-0.6-0.8-0.8-0.9
			c-0.1-0.1-0.2-0.2-0.4-0.4c0-0.1,0-0.2,0-0.4c0.2,0,0.5-0.1,0.7-0.1c0-0.1,0-0.2,0-0.2c-0.2,0-0.4,0-0.7,0c0-0.1,0-0.2,0-0.4
			c0.2,0,0.4,0,0.9,0c-0.3-0.4-0.4-0.5-0.6-0.7c0.2-0.4,0.4-0.8,0.4-1.3c0-0.6,0.1-1.3,0.2-2.1c-1.4,0.8-2.7,1.5-3.9,2.2
			c-0.3-0.1-0.4-0.2-0.6-0.3c-0.1-0.1-0.2-0.2-0.4-0.3c0,0,0,0,0.1-0.1c-0.1-0.1-0.2-0.2-0.3-0.3c0,0-0.1,0.1-0.1,0.1
			c0.1,0.1,0.2,0.2,0.3,0.2c0.1,0.1,0.3,0.2,0.4,0.3c-0.4,0.3-0.7,0.6-1.1,0.9c0.1,0.2,0.2,0.3,0.3,0.4c-0.6,0.4-0.6,0.4-1.3,0.4
			c-0.2-0.2-0.3-0.4-0.5-0.6c0.1-0.2,0.2-0.5,0.4-0.7c0.3,0,0.7,0,1.3,0c-0.3-0.4-0.4-0.5-0.6-0.7c-0.1-0.1-0.2-0.2-0.4-0.4
			c0.5-0.4,1-0.7,1.5-1.1c0.1-0.1,0.2,0,0.3,0c0,0.1,0,0.2,0,0.4c0,0,0,0-0.1-0.1c-0.1,0.1-0.2,0.2-0.3,0.3c0,0,0.1,0.1,0.1,0.1
			c0.1-0.1,0.2-0.2,0.2-0.3c0.1,0,0.2,0,0.3,0c0.1,0.1,0.2,0.2,0.4,0.4c0,0.1,0,0.2,0,0.4c0,0,0,0-0.1-0.1c-0.1,0.1-0.2,0.2-0.3,0.3
			c0,0,0.1,0.1,0.1,0.1c0.1-0.1,0.2-0.2,0.2-0.3c0.3-0.1,0.7,0.2,0.7-0.4c0.1-0.1,0.2-0.2,0.4-0.4c0.3-0.1,0.7,0.2,0.7-0.4
			c0,0,0,0,0.1,0.1c0.1-0.1,0.2-0.2,0.3-0.3c0,0-0.1-0.1-0.1-0.1c-0.1,0.1-0.2,0.2-0.2,0.3c-0.3,0.1-0.7-0.2-0.7,0.4
			c-0.1,0.1-0.2,0.2-0.4,0.4c-0.2,0-0.5,0-0.7,0c-0.1-0.1-0.2-0.2-0.4-0.4c0-0.1,0-0.2,0-0.4c0,0,0,0,0.1,0.1
			c0.1-0.1,0.2-0.2,0.3-0.3c0,0-0.1-0.1-0.1-0.1c-0.1,0.1-0.2,0.2-0.2,0.3c-0.1,0-0.2,0-0.3,0c0-0.1-0.1-0.3-0.1-0.3
			c-1.8,0-3.6-0.4-5.3,0.5c-0.3,0.1-0.7,0.1-1,0.1c0-0.1,0-0.2,0-0.5c0,0,0,0.1,0,0.2c0.2,0,0.5-0.1,0.7-0.1c0-0.1,0-0.2,0-0.2
			c-0.2,0-0.5,0-0.7,0.2c-0.2,0-0.4-0.1-0.6-0.2c-0.2,0.2-0.3,0.3-0.5,0.5c0,1.7,0,3.5,0,5.3c0,0.3-0.1,0.6,0.4,0.6
			c0.1,0.1,0.2,0.2,0.3,0.4c0.1-0.1,0.3-0.2,0.4-0.4c0.2,0,0.5,0,0.7,0c0.2,0.1,0.3,0.3,0.5,0.3c1.4,0,2.8,0,4.2,0
			c0.5,0,1.1,0,1.6,0c0.5-0.1,1.1-0.2,1.6-0.3c0,0.1,0.1,0.2,0.1,0.3c0.1-0.1,0.2-0.2,0.2-0.3c0.1,0,0.2-0.1,0.3-0.1
			c-0.1-0.1-0.2-0.2-0.3-0.2c0-0.1,0-0.2,0-0.4c0.2,0,0.5,0,0.7,0c0.1,0.1,0.2,0.2,0.4,0.4c-0.1,0.2-0.2,0.4-0.3,0.6
			C55.3,57.6,55.8,57.4,56.2,57.2z M49.9,53.5c-0.1,0-0.2,0-0.3,0c0,0.2,0.1,0.4,0.1,0.6c0.1,0,0.1,0,0.2,0
			C49.9,53.9,49.9,53.7,49.9,53.5z"/>
		<path class="st0" d="M40.7,48.3c0-1.6,0-3.2,0-4.8c5.2,0,10.4,0,15.7,0c0,1.2,0,2.5,0,3.8c-0.6,0.2-1.3,0.1-1.4,1
			c0.7,0.6,0.8-0.5,1.4-0.4c0,0.1,0.1,0.3,0.1,0.3c-0.1,0.2-0.3,0.4-0.5,0.7c-1.5,0-3,0-4.6,0c-3.2,0-6.3,0-9.5,0
			C41.4,48.8,40.9,48.7,40.7,48.3z M48.5,48.1c0.1,0,0.2,0,0.4,0c0,0.1,0.1,0.3,0.1,0.3c1.7,0,3.5,0.3,5.2-0.3
			c0.1,0,0.3-0.1,0.4-0.1c-0.2-0.2-0.3-0.4-0.4-0.6c0.5-0.6,0.9-1.1,1.5-1.7c0-0.5,0-1.1,0-1.8c-0.9,0-1.8,0-2.5,0
			c-1.2,0.6-2,1.6-3.2,1.8c0.1-0.2,0.2-0.5,0.4-0.7c0.1-0.1,0.2-0.2,0.4-0.2c0.3-0.2,0.7-0.4,1.1-0.7c-0.8-0.3-1,0.2-1.2,0.6
			c-0.1,0.1-0.2,0.2-0.4,0.4c-0.2,0-0.4,0-0.9,0c0.3,0.4,0.4,0.5,0.6,0.7c-0.6,0.3-0.9,1.1-1.8,1c0.3-0.4,0.5-0.7,0.7-1
			c0.1,0,0.2-0.1,0.3-0.1c-0.1-0.1-0.2-0.2-0.3-0.2c0.4-0.5,0.9-0.9,1.4-1.5c-1.8,0.2-3.5-0.3-5.1,0.4c-0.3-0.1-0.6-0.2-1.1-0.4
			c0.2,0.4,0.3,0.5,0.4,0.8c-0.3,0-0.4,0-0.6,0c-0.1-0.3-0.2-0.5-0.4-0.9c-0.2,0.3-0.3,0.4-0.4,0.6c-0.2,0-0.5,0-0.8,0
			c0,0,0,0,0.1-0.1c-0.1-0.1-0.2-0.2-0.3-0.3c0,0-0.1,0.1-0.1,0.1c0.1,0.1,0.2,0.2,0.3,0.2c0,0.5,0.4,0.3,0.7,0.4
			c-0.1,0.1-0.2,0.3-0.3,0.3c-0.5,0-1,0-1.6,0c0.2,0.3,0.3,0.5,0.4,0.7c-0.1,0-0.2,0.1-0.3,0.1c0.1,0.1,0.2,0.2,0.3,0.2
			c0,0.3-0.5,0.6,0,0.9c-0.4,0.4-0.5,0.8-0.2,1.2c0.1-0.1,0.3-0.2,0.5-0.4c0.2,0.3,0.4,0.6,0.6,0.8c0.8-0.9,1.6-0.1,2.3,0
			c0.8,0,1.6,0,2.4,0c0.2-0.2,0.4-0.4,0.6-0.6c-0.4-0.1-0.8-0.2-1.1-0.2c0-0.1,0-0.1,0-0.2c0.7,0,1.4,0,1.9,0
			c0.3-0.3,0.5-0.5,0.7-0.7c0.2,0,0.4,0,0.5,0c-0.1,0.2-0.2,0.4-0.3,0.6c0.1,0.1,0.2,0.2,0.3,0.4c-0.4,0.2-0.7,0.3-1.1,0.5
			c0-0.1-0.1-0.2-0.1-0.3C48.7,47.9,48.6,48,48.5,48.1C48.5,48.1,48.5,48,48.5,48.1c-0.1,0-0.2,0.1-0.3,0.2c0,0,0.1,0.1,0.1,0.1
			C48.4,48.3,48.5,48.2,48.5,48.1z M41.3,44.2c0,0,0,0.1,0,0.1c0.1,0,0.2,0,0.4,0c0,0,0-0.1,0-0.1C41.6,44.2,41.5,44.2,41.3,44.2z"
			/>
		<path class="st0" d="M57.5,56.6c-0.3,0-0.4,0-0.6,0.1c-0.2-1.3,0-2.6,0-3.9c0.4,0.4,0.3,1,0.2,1.4c-0.1,0.5,0.5,0.7,0.2,1.2
			C57.1,55.6,57.4,56.2,57.5,56.6z"/>
		<path class="st0" d="M29.3,86.6c-0.2-0.3-0.3-0.5-0.5-0.8c0.2,0,0.4,0,0.7,0c0,0.3,0,0.5,0.1,0.7C29.4,86.5,29.4,86.6,29.3,86.6z"
			/>
		<path class="st0" d="M66.8,86.4c0-0.2,0-0.4,0.1-0.7c0.3,0,0.4,0,0.7,0c-0.2,0.3-0.4,0.6-0.5,0.8C66.9,86.6,66.9,86.5,66.8,86.4z"
			/>
		<path class="st0" d="M68.3,85.6c-0.1,0.4-0.2,0.7-0.2,0.9c-0.1-0.2-0.1-0.3-0.2-0.5C67.9,85.9,68,85.8,68.3,85.6z"/>
		<path class="st0" d="M66.2,85.6C66,86,66,86.2,65.9,86.4c-0.1-0.2-0.1-0.3-0.2-0.5C65.7,85.9,65.9,85.8,66.2,85.6z"/>
		<path class="st0" d="M27.3,86.4c-0.5,0-0.3-0.4-0.4-0.7C27.5,85.8,27.3,86.2,27.3,86.4z"/>
		<path class="st0" d="M73.2,83c0.1-0.5,0.2-0.7,0.3-0.9c0.1,0.2,0.1,0.3,0.2,0.5C73.6,82.7,73.5,82.8,73.2,83z"/>
		<ellipse class="st0" cx="73.8" cy="80.2" rx="0.3" ry="0.1"/>
		<path class="st0" d="M73.3,84.7c-0.1,0.1-0.2,0.2-0.3,0.3c0,0-0.1-0.1-0.1-0.1C73,84.8,73.1,84.7,73.3,84.7
			C73.3,84.6,73.3,84.7,73.3,84.7z"/>
		<path class="st0" d="M26.6,85.7c0-0.1,0-0.2,0-0.4c0.1,0.1,0.2,0.2,0.4,0.4C26.9,85.7,26.7,85.7,26.6,85.7z"/>
		<path class="st0" d="M72.5,85.7c0.1-0.1,0.2-0.2,0.3-0.3c0,0,0.1,0.1,0.1,0.1C72.8,85.6,72.7,85.7,72.5,85.7
			C72.6,85.7,72.5,85.7,72.5,85.7z"/>
		<path class="st0" d="M28,86.1c-0.1-0.1-0.2-0.2-0.3-0.3c0,0,0.1-0.1,0.1-0.1C27.9,85.9,28,86,28,86.1C28.1,86.1,28.1,86.1,28,86.1
			z"/>
		<path class="st0" d="M30.2,86.1C30.1,86,30,86,29.9,85.9c0,0,0.1-0.1,0.1-0.1C30.1,85.9,30.2,86,30.2,86.1
			C30.2,86.1,30.2,86.1,30.2,86.1z"/>
		<path class="st0" d="M31.3,86.1C31.2,86,31.1,86,31,85.9c0,0,0.1-0.1,0.1-0.1C31.2,85.9,31.2,86,31.3,86.1
			C31.3,86.1,31.3,86.1,31.3,86.1z"/>
		<path class="st0" d="M32.3,86.1C32.2,86,32.1,86,32,85.9c0,0,0.1-0.1,0.1-0.1C32.2,85.9,32.3,86,32.3,86.1
			C32.4,86.1,32.4,86.1,32.3,86.1z"/>
		<path class="st0" d="M71.1,86.1c0.1-0.1,0.2-0.2,0.3-0.3c0,0,0.1,0.1,0.1,0.1C71.3,86,71.2,86,71.1,86.1
			C71.1,86.1,71.1,86.1,71.1,86.1z"/>
		<path class="st0" d="M72.2,86.1c0.1-0.1,0.2-0.2,0.4-0.4C72.4,85.8,72.3,86,72.2,86.1z"/>
		<path class="st0" d="M28.1,86c0.1,0.1,0.2,0.2,0.3,0.3c0,0-0.1,0.1-0.1,0.1C28.2,86.3,28.1,86.2,28.1,86
			C28,86.1,28.1,86.1,28.1,86z"/>
		<path class="st0" d="M36.6,86.5c-0.1-0.1-0.2-0.2-0.3-0.3c0,0,0.1-0.1,0.1-0.1C36.5,86.2,36.6,86.3,36.6,86.5
			C36.7,86.4,36.7,86.5,36.6,86.5z"/>
		<path class="st0" d="M37.7,86.5c-0.1-0.1-0.2-0.2-0.3-0.3c0,0,0.1-0.1,0.1-0.1C37.6,86.2,37.7,86.3,37.7,86.5
			C37.8,86.4,37.7,86.5,37.7,86.5z"/>
		<path class="st0" d="M63.5,86.4c0.1-0.1,0.2-0.2,0.3-0.3c0,0,0.1,0.1,0.1,0.1C63.8,86.3,63.7,86.4,63.5,86.4
			C63.6,86.5,63.6,86.4,63.5,86.4z"/>
		<path class="st0" d="M72.2,86.1c-0.1,0.1-0.2,0.2-0.3,0.3c0,0-0.1-0.1-0.1-0.1C72,86.2,72.1,86.1,72.2,86.1
			C72.2,86.1,72.2,86.1,72.2,86.1z"/>
		<path class="st0" d="M42.4,25.8c0.3,0,0.7,0,1,0c0,0.1,0,0.1,0,0.2c-0.2,0.1-0.4,0.2-0.7,0.3c0.1,0.1,0.2,0.2,0.4,0.5
			c-0.2,0.1-0.4,0.3-0.8,0.5c-0.1,0-0.4,0-0.7,0c0-0.1,0-0.2,0-0.4c0.2,0,0.5-0.1,0.7-0.1c0-0.1,0-0.2,0-0.2c-0.2,0-0.4,0-0.7,0
			c0-0.1,0-0.2,0-0.4C42,26.1,42.4,26.3,42.4,25.8z"/>
		<path class="st0" d="M39.9,27.2c0-0.1,0-0.2,0-0.4c0.4,0,0.7,0,1.1,0c0,0.5,0.4,0.3,0.7,0.4c-0.1,0.1-0.2,0.3-0.3,0.4
			c-0.1,0.1-0.3,0.2-0.4,0.4c-0.4,0-0.7,0-1.1,0c0-0.1,0-0.2,0-0.4c0.2,0,0.5-0.1,0.7-0.1c0-0.1,0-0.2,0-0.2
			C40.3,27.2,40.1,27.2,39.9,27.2z"/>
		<path class="st0" d="M44.3,24.7c0-0.7,0-1.5,0-2.5C44.7,23.4,44.7,23.9,44.3,24.7z"/>
		<path class="st0" d="M42.1,24c0.1-0.2,0.2-0.5,0.4-0.7c0.4-0.1,0.9-0.2,1.7-0.5C43.4,23.7,42.8,24,42.1,24z"/>
		<path class="st0" d="M41.7,23.3c0-0.1,0-0.2,0-0.4c0.1-0.1,0.2-0.2,0.4-0.4c0.2,0,0.5,0,0.7,0c-0.1,0.2-0.2,0.5-0.4,0.7
			C42.2,23.3,41.9,23.3,41.7,23.3z"/>
		<path class="st0" d="M43.1,28c-0.4,0-0.7,0-1.1,0C42.4,27.5,42.8,27.5,43.1,28z"/>
		<path class="st0" d="M41.3,24.4c0-0.1,0-0.2,0-0.4c0.2,0,0.5,0,0.7,0C42,24.5,41.6,24.3,41.3,24.4z"/>
		<path class="st0" d="M43.1,24.1c0.2,0,0.5,0,0.7-0.1c0,0.1,0,0.2,0,0.2c-0.2,0-0.5,0.1-0.7,0.1C43.1,24.3,43.1,24.2,43.1,24.1z"/>
		<path class="st0" d="M43.1,24.4c0,0.1,0,0.2,0,0.4c-0.2,0-0.5,0-0.7,0C42.4,24.2,42.9,24.4,43.1,24.4z"/>
		<path class="st0" d="M42.4,25.1c-0.2,0-0.5,0-0.7,0c0-0.5,0.4-0.3,0.7-0.4C42.4,24.8,42.4,25,42.4,25.1z"/>
		<path class="st0" d="M42.4,25.4c0-0.1,0-0.2,0-0.4c0.2,0,0.5,0,0.7,0C43.1,25.6,42.7,25.4,42.4,25.4z"/>
		<ellipse class="st0" cx="42.1" cy="25.6" rx="0.5" ry="0.3"/>
		<ellipse class="st0" cx="50.7" cy="25.6" rx="0.5" ry="0.3"/>
		<ellipse class="st0" cx="50.7" cy="26.3" rx="0.5" ry="0.3"/>
		<ellipse class="st0" cx="50.7" cy="27.1" rx="0.5" ry="0.3"/>
		<path class="st0" d="M50.3,27.2c0,0.1,0,0.2,0,0.4c-0.2,0-0.4,0-0.7,0c0-0.1,0-0.2,0-0.2C49.9,27.3,50.1,27.3,50.3,27.2z"/>
		<path class="st0" d="M50.3,28c0,0.1,0,0.2,0,0.4c-0.2,0-0.4,0-0.7,0c0-0.1,0-0.2,0-0.2C49.9,28,50.1,28,50.3,28z"/>
		<path class="st0" d="M51,28.3c0,0.1,0,0.2,0,0.4c-0.3-0.1-0.7,0.2-0.7-0.4C50.5,28.3,50.8,28.3,51,28.3z"/>
		<ellipse class="st0" cx="51.4" cy="28.9" rx="0.5" ry="0.3"/>
		<path class="st0" d="M42.8,22.2c0.2,0,0.4,0,0.7,0c0,0.1,0,0.2,0,0.2c-0.2,0-0.5,0.1-0.7,0.1C42.8,22.5,42.8,22.3,42.8,22.2z"/>
		<path class="st0" d="M42.1,22.2c0-0.5,0.4-0.3,0.7-0.4c0,0.1,0,0.2,0,0.4C42.5,22.2,42.3,22.2,42.1,22.2z"/>
		<path class="st0" d="M50.3,26.9c-0.1-0.1-0.2-0.2-0.3-0.2c0.1,0,0.2-0.1,0.3-0.1C50.3,26.6,50.3,26.8,50.3,26.9z"/>
		<path class="st0" d="M50.3,26.2c-0.1-0.1-0.2-0.2-0.3-0.2c0.1,0,0.2-0.1,0.3-0.1C50.3,25.9,50.3,26,50.3,26.2z"/>
		<path class="st0" d="M49.9,25.1c0.1,0,0.2,0,0.4,0c0,0.1,0,0.2,0,0.4C50.2,25.3,50.1,25.2,49.9,25.1z"/>
		<path class="st0" d="M49.9,24.7c0,0.1,0,0.2,0,0.4c-0.1-0.1-0.2-0.2-0.3-0.2C49.8,24.8,49.9,24.8,49.9,24.7z"/>
		<path class="st0" d="M43.1,24.7c0.1,0.1,0.2,0.2,0.3,0.2c-0.1,0-0.2,0.1-0.3,0.1C43.1,25,43.1,24.8,43.1,24.7z"/>
		<path class="st0" d="M49.9,24c0,0.1,0,0.2,0,0.4c-0.1-0.1-0.2-0.2-0.3-0.2C49.8,24.1,49.9,24.1,49.9,24z"/>
		<path class="st0" d="M52.5,26.2c0,0.5-0.4,0.3-0.7,0.4c0-0.5-0.4-0.3-0.7-0.4c0-0.1,0-0.2,0-0.4c0.3-0.1,0.7,0.2,0.7-0.4
			c0.3,0.1,0.7-0.2,0.7,0.4c-0.1,0-0.2,0.1-0.3,0.1C52.3,26,52.4,26.1,52.5,26.2z"/>
		<path class="st0" d="M59.3,25.8c0-0.1,0-0.2,0-0.4c0.1-0.1,0.2-0.2,0.4-0.4c0.4-0.1,0.7-0.2,1.1-0.4c0,0.1,0,0.2,0,0.4
			c-0.1,0.1-0.2,0.2-0.4,0.4c-0.1,0.1-0.2,0.2-0.4,0.4C59.8,25.8,59.5,25.8,59.3,25.8z"/>
		<path class="st0" d="M51.7,24.4c0-0.1,0-0.2,0-0.4c0.2,0,0.4,0,0.7,0c0,0.1,0,0.2,0,0.2C52.2,24.3,52,24.3,51.7,24.4z"/>
		<path class="st0" d="M51,24.7c0-0.1,0-0.2,0-0.4c0.2,0,0.5,0,0.7,0C51.7,24.9,51.3,24.7,51,24.7z"/>
		<path class="st0" d="M51,25.4c0-0.1,0-0.2,0-0.4c0.3,0.1,0.7-0.2,0.7,0.4C51.5,25.4,51.3,25.4,51,25.4z"/>
		<path class="st0" d="M59.3,25.4c-0.2,0-0.5,0-0.7,0c0-0.5,0.4-0.3,0.7-0.4C59.3,25.2,59.3,25.3,59.3,25.4z"/>
		<path class="st0" d="M51.7,26.5c0,0.5-0.4,0.3-0.7,0.4c0-0.1,0-0.2,0-0.4C51.3,26.5,51.5,26.5,51.7,26.5z"/>
		<path class="st0" d="M52.4,22.5c0.1-0.1,0.2-0.2,0.3-0.3c0,0,0.1,0.1,0.1,0.1C52.7,22.4,52.6,22.5,52.4,22.5
			C52.5,22.6,52.4,22.6,52.4,22.5z"/>
		<path class="st0" d="M52.5,25.8c0.1,0.1,0.2,0.2,0.3,0.2c-0.1,0-0.2,0.1-0.3,0.1C52.5,26,52.5,25.9,52.5,25.8z"/>
		<path class="st0" d="M59.3,25.1c0.1-0.1,0.2-0.2,0.2-0.3c0,0.1,0.1,0.2,0.1,0.3C59.5,25.1,59.4,25.1,59.3,25.1z"/>
		<path class="st0" d="M61.1,24.4c0,0.1,0,0.2,0,0.4c-0.1,0-0.2,0-0.4,0C60.8,24.6,61,24.5,61.1,24.4z"/>
		<path class="st0" d="M60,24c0.1,0,0.2,0,0.4,0c-0.1,0.1-0.2,0.2-0.2,0.3C60.1,24.2,60,24.1,60,24z"/>
		<path class="st0" d="M60,23.7c0,0.1,0,0.2,0,0.4c-0.1-0.1-0.2-0.2-0.4-0.4C59.8,23.7,59.9,23.7,60,23.7z"/>
		<circle class="st0" cx="59.5" cy="23.5" r="0.3"/>
		<path class="st0" d="M34.9,24c-0.2,0-0.5,0-0.7,0c0.1-0.2,0.2-0.5,0.4-0.7c0.3-0.1,0.7,0.2,0.7-0.4c0.2,0,0.4,0,0.7,0
			c-0.2,0.3-0.3,0.5-0.4,0.7C35.3,23.7,34.9,23.5,34.9,24z"/>
		<path class="st0" d="M30.2,54.9c0-1.2,0.1-1.3,1.1-1.4c0.1,0.1,0.2,0.2,0.4,0.4c0,0.2,0,0.4,0,0.7c0.3,0,0.5,0,0.7,0
			c-0.1,0.2-0.3,0.4-0.4,0.6c-0.4-0.1-0.7-0.2-1-0.3c0-0.1,0-0.2,0-0.4c0,0,0,0,0.1,0.1c0.1-0.1,0.2-0.2,0.3-0.3
			c0,0-0.1-0.1-0.1-0.1c-0.1,0.1-0.2,0.2-0.2,0.3c-0.1,0.1-0.2,0.3-0.3,0.4C30.5,54.9,30.3,54.9,30.2,54.9z"/>
		<path class="st0" d="M33.9,53.7c0.4-0.2,0.7-0.3,1-0.5c0.5-0.3,0.8,0,1.1,0.5C35.1,54.8,35.1,54.8,33.9,53.7z M34.9,54.1
			c0.1,0,0.2,0,0.3,0c0-0.2-0.1-0.4-0.1-0.6c-0.1,0-0.1,0-0.2,0C34.9,53.7,34.9,53.9,34.9,54.1z"/>
		<path class="st0" d="M30.2,57c-0.2-0.2-0.5-0.5-0.7-0.7c0.2-0.2,0.5-0.5,0.7-0.7c0,0.1,0.1,0.2,0.1,0.3c0.1-0.1,0.2-0.2,0.2-0.3
			c0.3,0,0.7,0,1.3,0C31.2,56.2,30.7,56.6,30.2,57z"/>
		<path class="st0" d="M39.2,53.8c0.1,0.1,0.3,0.1,0.5,0.3c-0.4,0.4-0.7,0.8-1,1.2c-0.3,0-0.6,0-0.9,0c0-0.1,0-0.2,0-0.4
			c0.1-0.1,0.2-0.2,0.4-0.4C38.7,54.6,39,54.4,39.2,53.8z"/>
		<path class="st0" d="M35.2,51.3c0.1-0.1,0.2-0.2,0.4-0.4c0.2,0,0.5,0,0.7,0c-0.3,0.6-0.6,1.1-1.4,1.1c0-0.1,0-0.2,0-0.4
			C35,51.5,35.1,51.4,35.2,51.3z"/>
		<path class="st0" d="M37.4,55.6c-0.1,0.2-0.2,0.4-0.3,0.6c0.1,0.1,0.2,0.2,0.4,0.4c-0.3,0-0.5,0.1-0.8,0.1
			c-0.1-0.1-0.2-0.2-0.4-0.4c0-0.1,0-0.2,0-0.4C36.7,55.8,37,55.7,37.4,55.6z"/>
		<path class="st0" d="M40.3,52.4c-0.2,0.1-0.4,0.2-0.6,0.4c-0.1,0-0.3,0-0.5,0c0-0.1,0-0.2,0-0.4c0.1-0.1,0.3-0.1,0.4-0.2
			C39.9,51.9,40.2,51.9,40.3,52.4z"/>
		<path class="st0" d="M34.5,52.4c-0.1,0.6-0.5,0.8-1.1,0.7c0-0.1,0-0.2,0-0.4c0.1-0.1,0.2-0.2,0.4-0.4C34,52.4,34.3,52.4,34.5,52.4
			z"/>
		<path class="st0" d="M38.8,53.1c0,0.1,0,0.2,0,0.4c-0.4,0.1-0.7,0.2-1.1,0.4C37.9,53.2,38.3,53,38.8,53.1z"/>
		<path class="st0" d="M37,54.5c0,0.2,0,0.5,0,0.7c-0.1,0-0.1,0.1-0.2,0.1c-0.1-0.3-0.1-0.6-0.1-0.7C36.6,54.6,36.8,54.5,37,54.5z"
			/>
		<path class="st0" d="M32.7,53.8c-0.1,0.3,0.2,0.7-0.4,0.7c0-0.2,0-0.5,0-0.7C32.5,53.8,32.6,53.8,32.7,53.8z"/>
		<path class="st0" d="M35.6,56.7c-0.1,0-0.2,0-0.4,0c0.1-0.1,0.2-0.2,0.4-0.4C35.6,56.4,35.6,56.5,35.6,56.7z"/>
		<path class="st0" d="M35.6,56.3c0.1-0.1,0.2-0.2,0.4-0.4c0,0.1,0,0.2,0,0.4C35.8,56.3,35.7,56.3,35.6,56.3z"/>
		<path class="st0" d="M36,55.9c0.1-0.1,0.2-0.2,0.2-0.3c0,0.1,0.1,0.2,0.1,0.3C36.2,55.9,36.1,55.9,36,55.9z"/>
		<path class="st0" d="M37.7,55.2c-0.1,0.1-0.2,0.2-0.4,0.4C37.5,55.5,37.6,55.3,37.7,55.2z"/>
		<circle class="st0" cx="30.4" cy="55.4" r="0.3"/>
		<path class="st0" d="M30.9,54.9c-0.1,0.1-0.2,0.2-0.4,0.4c0-0.1,0-0.2,0-0.4C30.7,54.9,30.8,54.9,30.9,54.9z"/>
		<path class="st0" d="M37.7,54.9c-0.1-0.1-0.2-0.2-0.4-0.4c0.1,0,0.2,0,0.4,0C37.7,54.6,37.7,54.8,37.7,54.9z"/>
		<path class="st0" d="M37.4,54.5c-0.1,0-0.2,0-0.4,0c0.1-0.1,0.2-0.2,0.4-0.4C37.4,54.3,37.4,54.4,37.4,54.5z"/>
		<path class="st0" d="M37.4,54.2c0.1-0.1,0.2-0.2,0.4-0.4c0,0.1,0,0.2,0,0.4C37.6,54.2,37.5,54.2,37.4,54.2z"/>
		<path class="st0" d="M33.1,53.4c-0.1,0.1-0.2,0.2-0.4,0.4c0-0.1,0-0.2,0-0.4C32.8,53.4,33,53.4,33.1,53.4z"/>
		<path class="st0" d="M33.4,53.1c-0.1,0.1-0.2,0.2-0.4,0.4c0-0.1,0-0.2,0-0.4C33.2,53.1,33.3,53.1,33.4,53.1z"/>
		<path class="st0" d="M39.2,53.1c-0.1,0-0.2,0-0.4,0c0.1-0.1,0.2-0.2,0.4-0.4C39.2,52.8,39.2,53,39.2,53.1z"/>
		<path class="st0" d="M39.2,52.4c-0.1-0.1-0.2-0.2-0.3-0.3c0,0,0.1-0.1,0.1-0.1C39.1,52.1,39.1,52.2,39.2,52.4
			C39.2,52.3,39.2,52.4,39.2,52.4z"/>
		<path class="st0" d="M34.9,52c-0.1,0.1-0.2,0.2-0.4,0.4c0-0.1,0-0.2,0-0.4C34.6,52,34.8,52,34.9,52z"/>
		<path class="st0" d="M40.3,51.3c-0.1,0.1-0.2,0.2-0.3,0.3c0,0-0.1-0.1-0.1-0.1C40,51.4,40.1,51.3,40.3,51.3
			C40.3,51.3,40.3,51.3,40.3,51.3z"/>
		<path class="st0" d="M40.6,50.9c-0.1,0.1-0.2,0.2-0.4,0.4C40.4,51.2,40.5,51,40.6,50.9z"/>
		<path class="st0" d="M40.3,56.7c-0.1,0.1-0.2,0.2-0.4,0.4C40,56.9,40.1,56.8,40.3,56.7z"/>
		<path class="st0" d="M36.3,57c0-0.1,0-0.2,0-0.4c0.1,0,0.2,0,0.4,0C36.6,56.8,36.4,56.9,36.3,57z"/>
		<ellipse class="st0" cx="41.2" cy="54" rx="0.1" ry="0.3"/>
		<path class="st0" d="M38.8,53.4c0.1,0,0.2,0,0.4,0c0,0.1,0,0.2,0,0.4C39.1,53.7,38.9,53.6,38.8,53.4z"/>
		<path class="st0" d="M29.1,21.9c-0.2,0-0.5,0-0.7,0c0-0.1,0-0.2,0-0.4C28.7,21.6,29.1,21.3,29.1,21.9z"/>
		<path class="st0" d="M27.7,21.5c0-0.5,0.4-0.3,0.7-0.4c0,0.1,0,0.2,0,0.4C28.2,21.5,27.9,21.5,27.7,21.5z"/>
		<path class="st0" d="M35,42c-0.1-0.3-0.1-0.5-0.1-0.7c0.2,0,0.4-0.1,1-0.2C35.4,41.6,35.2,41.8,35,42z"/>
		<path class="st0" d="M35.2,43.4c0.1-0.4-0.3-0.9,0.4-1.1C35.5,42.7,35.9,43.2,35.2,43.4z"/>
		<path class="st0" d="M35.6,44.5c-0.1,0.4,0.3,0.9-0.4,1.1C35.4,45.2,34.9,44.6,35.6,44.5z"/>
		<path class="st0" d="M35.2,45.5c0,0.2,0,0.5,0,0.7c-0.1-0.1-0.2-0.3-0.4-0.4C35,45.7,35.1,45.6,35.2,45.5z"/>
		<path class="st0" d="M34.8,44.3c0.1-0.5,0.2-0.7,0.3-0.9c0.1,0.2,0.1,0.3,0.2,0.5C35.2,43.9,35.1,44,34.8,44.3z"/>
		<path class="st0" d="M67.6,53.8c-0.1,0.1-0.2,0.2-0.3,0.3c0,0-0.1-0.1-0.1-0.1C67.3,53.9,67.4,53.8,67.6,53.8
			C67.5,53.8,67.5,53.8,67.6,53.8z"/>
		<path class="st0" d="M67.5,53.5c-0.1-0.1-0.2-0.2-0.3-0.3c0,0,0.1-0.1,0.1-0.1C67.4,53.2,67.5,53.3,67.5,53.5
			C67.5,53.4,67.5,53.4,67.5,53.5z"/>
		<path class="st0" d="M62.5,57.4c0,0.1,0,0.2,0,0.4c-0.1-0.1-0.2-0.2-0.4-0.4C62.3,57.4,62.4,57.4,62.5,57.4z"/>
		<path class="st0" d="M31.3,53.4c0.2-0.8,1-0.7,1.4-1.1c0.1,0.1,0.2,0.2,0.4,0.4c0,0.1,0,0.2,0,0.4c-0.1,0.1-0.2,0.2-0.4,0.4
			c-0.1,0.1-0.2,0.2-0.4,0.4c-0.2,0-0.5,0-0.7,0C31.5,53.7,31.4,53.6,31.3,53.4z"/>
		<path class="st0" d="M34.2,51.3c0.2,0,0.5,0,0.7,0c0,0.1,0,0.2,0,0.4c-0.1,0.1-0.2,0.2-0.4,0.4c-0.2,0-0.5,0-0.7,0
			c0-0.1,0-0.2,0-0.4C33.9,51.5,34,51.4,34.2,51.3z"/>
		<path class="st0" d="M29.9,52.4c0.1-0.1,0.2-0.2,0.4-0.4c0.5,0.1,0.5,0.4,0.2,0.7C30.2,52.8,29.9,52.8,29.9,52.4z"/>
		<path class="st0" d="M30.2,55.2c-0.1-0.1-0.2-0.2-0.3-0.2c0.1,0,0.2-0.1,0.3-0.1C30.2,55,30.2,55.1,30.2,55.2z"/>
		<path class="st0" d="M29.8,53.4c0.1-0.1,0.2-0.2,0.3-0.3c0,0,0.1,0.1,0.1,0.1C30.1,53.3,30,53.4,29.8,53.4
			C29.9,53.4,29.8,53.4,29.8,53.4z"/>
		<path class="st0" d="M32.7,52.4c0.1-0.1,0.2-0.2,0.4-0.4c0,0.1,0,0.2,0,0.4C33,52.4,32.8,52.4,32.7,52.4z"/>
		<path class="st0" d="M33.1,52c0.1-0.1,0.2-0.2,0.4-0.4c0,0.1,0,0.2,0,0.4C33.3,52,33.2,52,33.1,52z"/>
		<circle class="st0" cx="30" cy="51.8" r="0.3"/>
		<path class="st0" d="M33.4,51.6c0.1-0.1,0.2-0.2,0.4-0.4c0,0.1,0,0.2,0,0.4C33.7,51.6,33.6,51.6,33.4,51.6z"/>
		<path class="st0" d="M35.2,50.9c0,0.1,0,0.2,0,0.4c-0.1,0-0.2,0-0.4,0C35,51.2,35.1,51,35.2,50.9z"/>
		<path class="st0" d="M33.8,51.3c0.1-0.1,0.2-0.2,0.2-0.3c0,0.1,0.1,0.2,0.1,0.3C34,51.3,33.9,51.3,33.8,51.3z"/>
		<path class="st0" d="M17.7,31.5c0-0.5-0.4-0.3-0.7-0.4c0-0.1,0-0.2,0-0.4c0.4,0,0.7,0,1.1,0c0.2,0.2,0.4,0.4,0.7,0.6
			C18.4,31.5,18,31.5,17.7,31.5z"/>
		<path class="st0" d="M63.6,31.2c0,0.1,0,0.2,0,0.4c-0.3-0.1-0.7,0.2-0.7-0.4C63.1,31.2,63.3,31.2,63.6,31.2z"/>
		<path class="st0" d="M63.6,31.5c0.2,0,0.5,0,0.7,0c-0.1,0.1-0.3,0.2-0.4,0.4C63.8,31.8,63.7,31.7,63.6,31.5z"/>
		<path class="st0" d="M64.7,33c-0.2,0-0.5,0-0.7,0c0.1-0.1,0.3-0.2,0.4-0.4C64.5,32.7,64.6,32.9,64.7,33z"/>
		<path class="st0" d="M65.4,31.9c-0.1,0.1-0.2,0.2-0.3,0.3c0,0-0.1-0.1-0.1-0.1C65.2,32,65.2,32,65.4,31.9
			C65.4,31.9,65.4,31.9,65.4,31.9z"/>
		<path class="st0" d="M35.2,89c-0.2,0-0.4,0.1-0.7,0.1c-0.3,0.1-0.5,0.2-0.8,0.2c0.6-1,1.6-1.1,2.5-1.4c-0.3,0.2-0.5,0.5-0.8,0.7
			C35.4,88.7,35.3,88.8,35.2,89z"/>
		<path class="st0" d="M27.7,23.7c0,0.1,0,0.2,0,0.4c-0.4,0-0.7,0-1.1,0c-0.1-0.2-0.2-0.4-0.3-0.5c0.3-0.6,0.8-0.6,1.4-0.5
			c0,0.1,0,0.2,0,0.4c-0.2,0-0.5,0.1-0.7,0.1c0,0.1,0,0.2,0,0.2C27.3,23.7,27.5,23.7,27.7,23.7z"/>
		<path class="st0" d="M26.6,24c0,0.1,0,0.2,0,0.4c-0.3,0-0.7,0-1,0c0-0.1,0-0.2,0-0.3C25.9,24.1,26.3,24,26.6,24z"/>
		<path class="st0" d="M27.7,22.6c-0.2,0-0.4,0-0.7,0c0-0.1,0-0.2,0-0.2c0.2,0,0.5-0.1,0.7-0.1C27.7,22.3,27.7,22.5,27.7,22.6z"/>
		<ellipse class="st0" cx="28.1" cy="22.8" rx="0.5" ry="0.3"/>
		<ellipse class="st0" cx="28.1" cy="22" rx="0.5" ry="0.3"/>
		<path class="st0" d="M27.7,21.9c-0.1-0.1-0.2-0.2-0.3-0.2c0.1,0,0.2-0.1,0.3-0.1C27.7,21.6,27.7,21.7,27.7,21.9z"/>
		<path class="st0" d="M38.5,30.8c0-0.1,0-0.2,0-0.4c0.3,0.1,0.7-0.2,0.7,0.4C38.9,30.8,38.7,30.8,38.5,30.8z"/>
		<path class="st0" d="M41.7,31.2c0,0.1,0,0.2,0,0.4c-0.1-0.1-0.2-0.2-0.3-0.2C41.5,31.3,41.6,31.2,41.7,31.2z"/>
		<path class="st0" d="M76.5,32.3c0.2,0,0.5,0,0.7,0c-0.2,0.2-0.3,0.5-0.5,0.6c-0.2,0.2-0.6,0.2-0.6-0.3
			C76.3,32.5,76.4,32.4,76.5,32.3z"/>
		<ellipse class="st0" cx="75.1" cy="31.4" rx="0.5" ry="0.3"/>
		<path class="st0" d="M75.4,32.3c-0.3-0.1-0.7,0.2-0.7-0.4c0.2,0,0.5,0,0.7,0C75.4,32,75.4,32.1,75.4,32.3z"/>
		<path class="st0" d="M76.1,32.6c-0.3-0.1-0.7,0.2-0.7-0.4c0.2,0,0.5,0,0.7,0C76.1,32.4,76.1,32.5,76.1,32.6z"/>
		<path class="st0" d="M74.7,31.9c-0.1-0.1-0.2-0.2-0.3-0.2c0.1,0,0.2-0.1,0.3-0.1C74.7,31.7,74.7,31.8,74.7,31.9z"/>
		<path class="st0" d="M53.5,31.5c0-0.1,0-0.2,0-0.4c0.3-0.1,0.6-0.2,1-0.3c0,0.1,0.1,0.4,0.1,0.6C54.3,31.5,53.9,31.5,53.5,31.5z"
			/>
		<path class="st0" d="M52.1,30.8c-0.1,0-0.2,0-0.4,0c0.1-0.1,0.2-0.2,0.2-0.3C52,30.6,52.1,30.7,52.1,30.8z"/>
		<path class="st0" d="M63.2,27.6c-0.1,0.1-0.2,0.2-0.4,0.4c-0.1,0.1-0.2,0.2-0.4,0.4c-0.1,0.1-0.2,0.2-0.4,0.4c-0.2,0-0.5,0-0.7,0
			c0-0.1,0-0.2,0-0.4c0.1-0.1,0.2-0.2,0.4-0.4c0.1-0.1,0.2-0.2,0.4-0.4c0.1-0.1,0.2-0.2,0.4-0.4C62.8,27.3,63.2,27.1,63.2,27.6z"/>
		<path class="st0" d="M65,29c0-0.1,0-0.2,0-0.4c0.1,0.1,0.2,0.2,0.4,0.4C65.3,29,65.1,29,65,29z"/>
		<circle class="st0" cx="62.3" cy="27.1" r="0.3"/>
		<path class="st0" d="M62.5,26.9c0-0.1,0-0.2,0-0.4c0.1,0.1,0.2,0.2,0.3,0.2C62.7,26.8,62.6,26.8,62.5,26.9z"/>
		<path class="st0" d="M51.7,32.3c0-0.1,0-0.2,0-0.4c0.3-0.1,0.7,0.2,0.7-0.4c0.4,0,0.7,0,1.1,0c-0.1,0.1-0.2,0.3-0.3,0.4
			c-0.1,0.1-0.3,0.2-0.4,0.4C52.5,32.3,52.1,32.3,51.7,32.3z"/>
		<path class="st0" d="M51,32.3c0.2,0,0.5,0,0.7,0c0,0.5-0.4,0.3-0.7,0.4C51,32.5,51,32.4,51,32.3z"/>
		<path class="st0" d="M52.1,33.3c-0.2,0-0.5,0-0.7,0.1c0-0.1,0-0.2,0-0.2c0.2,0,0.5-0.1,0.7-0.1C52.1,33.1,52.1,33.2,52.1,33.3z"/>
		<path class="st0" d="M75.4,30.8c0.1-0.1,0.2-0.2,0.3-0.2c-0.1,0-0.2-0.1-0.3-0.1c0.1-0.1,0.2-0.4,0.3-0.3c0.4,0.2,0.8,0.2,1.3,0
			c0,0,0.2,0.2,0.3,0.3c-0.1,0.1-0.2,0.2-0.3,0.2c0.1,0,0.2,0.1,0.3,0.1c0,0.1,0,0.2,0,0.4c-0.1,0.1-0.2,0.2-0.3,0.2
			c0.1,0,0.2,0.1,0.3,0.1c0,0.1,0,0.2,0,0.4c-0.2,0-0.5,0-0.7,0c-0.1-0.1-0.2-0.2-0.4-0.4c0-0.1,0-0.2,0-0.4c0,0,0,0,0.1,0.1
			c0.1-0.1,0.2-0.2,0.3-0.3c0,0-0.1-0.1-0.1-0.1c-0.1,0.1-0.2,0.2-0.2,0.3c-0.2,0-0.5,0-0.7,0C75.4,31.1,75.4,30.9,75.4,30.8z"/>
		<path class="st0" d="M17.3,33c0,0.1,0,0.2,0,0.4c-0.4-0.1-0.9,0.3-1.1-0.4C16.6,33,16.9,33,17.3,33z"/>
		<path class="st0" d="M16.2,32.6c0,0.1,0,0.2,0,0.4c-0.3-0.1-0.7,0.2-0.7-0.4C15.7,32.6,16,32.6,16.2,32.6z"/>
		<path class="st0" d="M38.5,32.3c0.1,0.1,0.2,0.2,0.4,0.4c0,0.1,0,0.2,0,0.4c-0.2,0-0.5,0-0.7,0C38.2,32.7,37.9,32.3,38.5,32.3z"/>
		<path class="st0" d="M60.7,23.3c-0.1,0.1-0.2,0.2-0.4,0.4c-0.1,0-0.2,0-0.4,0c-0.1-0.1-0.2-0.2-0.4-0.4c0-0.2,0-0.5,0-0.7
			c0.3-0.1,0.6-0.3,1-0.5C60.7,22.6,60.7,22.9,60.7,23.3z"/>
		<ellipse class="st0" cx="41.3" cy="26" rx="0.5" ry="0.3"/>
		<path class="st0" d="M41,26.5c-0.2,0-0.4,0-0.7,0c0-0.1,0-0.2,0-0.2c0.2,0,0.5-0.1,0.7-0.1C41,26.3,41,26.4,41,26.5z"/>
		<ellipse class="st0" cx="41.3" cy="26.7" rx="0.5" ry="0.3"/>
		<path class="st0" d="M72.9,28.7c0.1,0,0.2,0,0.4,0c-0.1,0.1-0.2,0.2-0.4,0.4C72.9,28.9,72.9,28.8,72.9,28.7z"/>
		<path class="st0" d="M73.3,28.3c0.1,0,0.2,0,0.4,0c-0.1,0.1-0.2,0.2-0.4,0.4C73.3,28.6,73.3,28.4,73.3,28.3z"/>
		<path class="st0" d="M71.8,28c-0.1,0.1-0.2,0.2-0.4,0.4C71.6,28.2,71.7,28.1,71.8,28z"/>
		<path class="st0" d="M72.2,27.6c-0.1,0.1-0.2,0.2-0.4,0.4C72,27.8,72.1,27.7,72.2,27.6z"/>
		<path class="st0" d="M70.8,27.6c0.1,0,0.2,0,0.4,0c-0.1,0.1-0.2,0.2-0.4,0.4C70.8,27.8,70.8,27.7,70.8,27.6z"/>
		<path class="st0" d="M71.1,27.2c0.1,0,0.2,0,0.4,0c-0.1,0.1-0.2,0.2-0.4,0.4C71.1,27.5,71.1,27.4,71.1,27.2z"/>
		<path class="st0" d="M62.1,25.8c-0.1,0.1-0.2,0.2-0.4,0.4c-0.2,0-0.5,0-0.7,0c0.1-0.2,0.2-0.5,0.4-0.7
			C61.7,25.5,62.1,25.3,62.1,25.8z"/>
		<path class="st0" d="M60.4,27.2c-0.1,0-0.2,0-0.4,0c0-0.2,0-0.5,0-0.7c0.2,0,0.5,0,0.7,0C60.6,26.8,60.5,27,60.4,27.2z"/>
		<path class="st0" d="M61.4,26.9c-0.1,0.1-0.2,0.2-0.4,0.4C61.2,27.1,61.3,27,61.4,26.9z"/>
		<path class="st0" d="M61.1,26.2c-0.1,0.1-0.2,0.2-0.4,0.4C60.8,26.4,61,26.3,61.1,26.2z"/>
		<path class="st0" d="M61.1,24.7c0.2,0,0.5,0,0.7,0c-0.1,0.2-0.2,0.5-0.4,0.7c-0.2,0-0.5,0-0.7,0c0-0.1,0-0.2,0-0.4
			C60.8,25,61,24.8,61.1,24.7z"/>
		<path class="st0" d="M69,26.2c0.1,0,0.2,0,0.4,0c-0.1,0.1-0.2,0.2-0.4,0.4C69,26.4,69,26.3,69,26.2z"/>
		<circle class="st0" cx="41.9" cy="22.4" r="0.3"/>
		<path class="st0" d="M33.1,24.7c0.2,0,0.5,0,0.7,0c0,0.1,0,0.2,0,0.4C33.5,25,33.1,25.3,33.1,24.7z"/>
		<path class="st0" d="M66.5,24.4c0-0.1,0-0.2,0-0.4c0.2,0,0.5,0,0.7,0c0.1,0.1,0.2,0.2,0.4,0.4c0,0.2,0,0.5,0,0.7
			C67.2,24.8,66.8,24.6,66.5,24.4z"/>
		<circle class="st0" cx="67.7" cy="25.3" r="0.3"/>
		<circle class="st0" cx="68.1" cy="23.8" r="0.3"/>
		<path class="st0" d="M67.5,23.7c0-0.1,0-0.2,0-0.4c0.1,0.1,0.2,0.2,0.4,0.4C67.8,23.7,67.7,23.7,67.5,23.7z"/>
		<path class="st0" d="M41.3,23.3c0.1,0,0.2,0,0.4,0c-0.1,0.1-0.2,0.2-0.4,0.4C41.3,23.5,41.3,23.4,41.3,23.3z"/>
		<path class="st0" d="M60.7,28c0.1-0.1,0.2-0.2,0.4-0.4c0.2,0,0.5,0,0.7,0c0,0.1,0,0.2,0,0.4c-0.1,0.1-0.2,0.2-0.4,0.4
			c-0.2,0-0.5,0-0.7,0C60.7,28.2,60.7,28.1,60.7,28z"/>
		<path class="st0" d="M61.8,27.6c0.1-0.1,0.2-0.2,0.4-0.4c0,0.1,0,0.2,0,0.4C62,27.6,61.9,27.6,61.8,27.6z"/>
		<ellipse class="st0" cx="39.4" cy="28.1" rx="0.8" ry="0.3"/>
		<path class="st0" d="M39.2,27.2c0.2,0,0.5,0,0.7,0c0,0.1,0,0.2,0,0.4C39.6,27.5,39.2,27.8,39.2,27.2z"/>
		<path class="st0" d="M60,26.5c-0.1,0-0.2,0-0.4,0c0.1-0.1,0.2-0.2,0.4-0.4C60,26.3,60,26.4,60,26.5z"/>
		<path class="st0" d="M60,26.2c0-0.1,0-0.2,0-0.4c0.1,0,0.2,0,0.4,0C60.2,25.9,60.1,26,60,26.2z"/>
		<ellipse class="st0" cx="28.1" cy="23.5" rx="0.5" ry="0.3"/>
		<circle class="st0" cx="51.6" cy="23.1" r="0.3"/>
		<circle class="st0" cx="67.4" cy="23.8" r="0.3"/>
		<circle class="st0" cx="66.3" cy="23.8" r="0.3"/>
		<circle class="st0" cx="67.7" cy="24.2" r="0.3"/>
		<ellipse class="st0" cx="28.8" cy="22.4" rx="0.5" ry="0.3"/>
		<ellipse class="st0" cx="38.8" cy="31.4" rx="0.5" ry="0.3"/>
		<circle class="st0" cx="76.3" cy="32.1" r="0.3"/>
		<circle class="st0" cx="35.8" cy="56.8" r="0.3"/>
		<circle class="st0" cx="36.1" cy="56.5" r="0.3"/>
		<circle class="st0" cx="68.1" cy="25.6" r="0.3"/>
		<circle class="st0" cx="68.4" cy="25.3" r="0.3"/>
		<circle class="st0" cx="65.9" cy="23.5" r="0.3"/>
		<ellipse class="st0" cx="50.8" cy="67.2" rx="0.1" ry="0.3"/>
		<path class="st0" d="M46.4,55.2c0.1-0.6,0.5-0.8,1.1-0.7c-0.1,0.4-0.2,0.7-0.4,1.1c-0.1,0-0.2,0-0.4,0
			C46.6,55.5,46.5,55.3,46.4,55.2z"/>
		<path class="st0" d="M52.1,55.9c0.2-0.2,0.5-0.5,0.7-0.7c0.1,0.1,0.2,0.2,0.4,0.4c-0.1,0.2-0.2,0.5-0.4,0.7
			C52.6,56.2,52.3,56.1,52.1,55.9z"/>
		<path class="st0" d="M55,54.9c-0.1,0.1-0.2,0.2-0.4,0.4c-0.2,0-0.5,0-0.7,0c0.1-0.6,0.5-0.8,1.1-0.7C55,54.6,55,54.8,55,54.9z"/>
		<path class="st0" d="M52.8,55.2c0.1-0.5,0.4-0.4,0.7-0.2c0.1,0.1,0.3,0.1,0.4,0.2c0,0.1,0,0.2,0,0.4c-0.2,0-0.5,0-0.7,0
			C53.1,55.5,52.9,55.3,52.8,55.2z"/>
		<path class="st0" d="M47.1,55.6c0.2,0,0.5,0,0.7,0c-0.1,0.6-0.5,0.8-1.1,0.7c0-0.1,0-0.2,0-0.4C46.8,55.8,47,55.7,47.1,55.6z"/>
		<path class="st0" d="M48.2,54.2c0-0.5,0.4-0.3,0.7-0.4C48.8,54.3,48.4,54.1,48.2,54.2z"/>
		<path class="st0" d="M47.4,54.5c0-0.5,0.4-0.3,0.7-0.4C48.1,54.7,47.7,54.5,47.4,54.5z"/>
		<path class="st0" d="M47.8,55.6c0-0.5,0.4-0.3,0.7-0.4C48.5,55.8,48.1,55.5,47.8,55.6z"/>
		<path class="st0" d="M52.1,56.2c-0.2,0-0.5,0-0.7,0.1c0-0.1,0-0.2,0-0.2c0.2,0,0.5-0.1,0.7-0.1C52.1,56,52.1,56.1,52.1,56.2z"/>
		<path class="st0" d="M46,56.7c0-0.1,0-0.2,0-0.4c0.2,0,0.5,0,0.7,0C46.7,56.8,46.3,56.6,46,56.7z"/>
		<path class="st0" d="M53.5,56.3c0,0.1,0,0.2,0,0.4c-0.3-0.1-0.7,0.2-0.7-0.4C53.1,56.3,53.3,56.3,53.5,56.3z"/>
		<circle class="st0" cx="53.7" cy="56.8" r="0.3"/>
		<path class="st0" d="M45.6,57c0.1-0.1,0.2-0.2,0.4-0.4C45.9,56.8,45.8,56.9,45.6,57z"/>
		<path class="st0" d="M48.5,55.2c0.1-0.1,0.2-0.2,0.3-0.3c0,0,0.1,0.1,0.1,0.1C48.7,55.1,48.6,55.2,48.5,55.2
			C48.5,55.2,48.5,55.2,48.5,55.2z"/>
		<path class="st0" d="M55.3,54.2c-0.1,0.1-0.2,0.2-0.4,0.4C55.1,54.4,55.2,54.3,55.3,54.2z"/>
		<path class="st0" d="M49.6,52c0.1,0.1,0.2,0.2,0.4,0.4c-0.1,0.1-0.2,0.3-0.3,0.4c-0.1,0.1-0.3,0.2-0.4,0.4c-0.2,0-0.5,0-0.7,0
			c0-0.4-0.1-0.8,0.6-0.7C49.2,52.3,49.4,52.1,49.6,52z"/>
		<path class="st0" d="M47.1,53.1c0-0.2,0-0.4,0-0.6c0.3-0.2,0.6-0.3,1-0.5c0,0.1,0.1,0.3,0.1,0.5C47.8,52.7,47.5,52.9,47.1,53.1z"
			/>
		<path class="st0" d="M45.6,55.6c0-0.5,0.4-0.3,0.7-0.4c0.1,0.1,0.2,0.2,0.4,0.4c0,0.1,0,0.2,0,0.4c-0.2,0-0.5,0-0.7,0
			C45.9,55.8,45.8,55.7,45.6,55.6z"/>
		<path class="st0" d="M44.9,57c-0.2,0-0.5,0-0.7,0c0.1-0.6,0.5-0.8,1.1-0.7C45.2,56.5,45,56.8,44.9,57z"/>
		<path class="st0" d="M46,56.3c-0.2,0-0.5,0-0.7,0c0.1-0.3-0.2-0.7,0.4-0.7c0.1,0.1,0.2,0.2,0.4,0.4C46,56.1,46,56.2,46,56.3z"/>
		<path class="st0" d="M44.9,51.6c-0.2,0-0.5,0-0.7,0.1c0-0.1,0-0.2,0-0.2c0.2,0,0.5-0.1,0.7-0.1C44.9,51.4,44.9,51.5,44.9,51.6z"/>
		<path class="st0" d="M46.4,53.4c0-0.5,0.4-0.3,0.7-0.4C47,53.6,46.6,53.4,46.4,53.4z"/>
		<path class="st0" d="M48.5,53.4c-0.2,0-0.5,0-0.7,0.1c0-0.1,0-0.2,0-0.2c0.2,0,0.5-0.1,0.7-0.1C48.5,53.1,48.5,53.3,48.5,53.4z"/>
		<path class="st0" d="M46.4,53.5c-0.1,0.1-0.2,0.2-0.3,0.3c0,0-0.1-0.1-0.1-0.1C46.1,53.6,46.2,53.5,46.4,53.5
			C46.4,53.4,46.4,53.4,46.4,53.5z"/>
		<path class="st0" d="M55,56.3c0.1,0,0.2,0,0.4,0c-0.1,0.1-0.2,0.2-0.4,0.4C55,56.5,55,56.4,55,56.3z"/>
		<circle class="st0" cx="54.8" cy="55.4" r="0.3"/>
		<ellipse class="st0" cx="54.3" cy="55.8" rx="0.5" ry="0.3"/>
		<circle class="st0" cx="54.8" cy="56.1" r="0.3"/>
		<path class="st0" d="M53.9,56.3c-0.1,0-0.2,0-0.4,0c0.1-0.1,0.2-0.2,0.4-0.4C53.9,56.1,53.9,56.2,53.9,56.3z"/>
		<path class="st0" d="M43.1,44.5c0-0.1,0-0.2,0-0.4c0.1,0.1,0.2,0.2,0.3,0.2C43.3,44.4,43.2,44.4,43.1,44.5z"/>
		<path class="st0" d="M48.9,45.2c0,0.1,0,0.2,0,0.4c-0.1-0.1-0.2-0.2-0.3-0.2C48.7,45.3,48.8,45.2,48.9,45.2z"/>
		<path class="st0" d="M41.7,45.9c0-0.1,0-0.2,0-0.4c0.1,0.1,0.2,0.2,0.3,0.2C41.9,45.8,41.8,45.9,41.7,45.9z"/>
		<path class="st0" d="M49.9,46.6c0.1-0.1,0.2-0.2,0.3-0.3c0,0,0.1,0.1,0.1,0.1C50.2,46.5,50.1,46.6,49.9,46.6
			C50,46.6,49.9,46.6,49.9,46.6z"/>
		<path class="st0" d="M60.7,25.4c-0.1,0.1-0.2,0.2-0.4,0.4c0-0.1,0-0.2,0-0.4C60.5,25.4,60.6,25.4,60.7,25.4z"/>
		<path class="st0" d="M37.7,54.5c0-0.1,0-0.2,0-0.4c0.1,0.1,0.2,0.2,0.4,0.4C38,54.5,37.9,54.5,37.7,54.5z"/>
		<circle class="st0" cx="33.6" cy="52.2" r="0.3"/>
		<circle class="st0" cx="33.3" cy="52.5" r="0.3"/>
		<ellipse class="st0" cx="75.8" cy="31.7" rx="0.5" ry="0.3"/>
	</g>
</g>
</svg>
